%TF.GenerationSoftware,KiCad,Pcbnew,(6.0.11)*%
%TF.CreationDate,2024-02-23T20:56:01-06:00*%
%TF.ProjectId,StompBox,53746f6d-7042-46f7-982e-6b696361645f,rev?*%
%TF.SameCoordinates,Original*%
%TF.FileFunction,Soldermask,Bot*%
%TF.FilePolarity,Negative*%
%FSLAX46Y46*%
G04 Gerber Fmt 4.6, Leading zero omitted, Abs format (unit mm)*
G04 Created by KiCad (PCBNEW (6.0.11)) date 2024-02-23 20:56:01*
%MOMM*%
%LPD*%
G01*
G04 APERTURE LIST*
G04 Aperture macros list*
%AMRoundRect*
0 Rectangle with rounded corners*
0 $1 Rounding radius*
0 $2 $3 $4 $5 $6 $7 $8 $9 X,Y pos of 4 corners*
0 Add a 4 corners polygon primitive as box body*
4,1,4,$2,$3,$4,$5,$6,$7,$8,$9,$2,$3,0*
0 Add four circle primitives for the rounded corners*
1,1,$1+$1,$2,$3*
1,1,$1+$1,$4,$5*
1,1,$1+$1,$6,$7*
1,1,$1+$1,$8,$9*
0 Add four rect primitives between the rounded corners*
20,1,$1+$1,$2,$3,$4,$5,0*
20,1,$1+$1,$4,$5,$6,$7,0*
20,1,$1+$1,$6,$7,$8,$9,0*
20,1,$1+$1,$8,$9,$2,$3,0*%
G04 Aperture macros list end*
%ADD10R,1.700000X1.700000*%
%ADD11O,1.700000X1.700000*%
%ADD12C,1.600000*%
%ADD13O,1.600000X1.600000*%
%ADD14C,3.200000*%
%ADD15C,1.440000*%
%ADD16O,1.500000X2.000000*%
%ADD17O,2.000000X1.500000*%
%ADD18R,1.800000X1.800000*%
%ADD19C,1.800000*%
%ADD20R,3.000000X3.000000*%
%ADD21C,3.000000*%
%ADD22O,2.500000X3.600000*%
%ADD23R,3.500000X3.500000*%
%ADD24RoundRect,0.750000X0.750000X1.000000X-0.750000X1.000000X-0.750000X-1.000000X0.750000X-1.000000X0*%
%ADD25RoundRect,0.875000X0.875000X0.875000X-0.875000X0.875000X-0.875000X-0.875000X0.875000X-0.875000X0*%
G04 APERTURE END LIST*
D10*
%TO.C,JP2*%
X240025000Y-64516000D03*
D11*
X242565000Y-64516000D03*
%TD*%
D12*
%TO.C,R1*%
X231432000Y-83566000D03*
D13*
X223812000Y-83566000D03*
%TD*%
D14*
%TO.C,H8*%
X128000000Y-66000000D03*
%TD*%
D12*
%TO.C,R10*%
X179832000Y-96774000D03*
D13*
X179832000Y-104394000D03*
%TD*%
D15*
%TO.C,RV3*%
X118620000Y-65910000D03*
X116080000Y-65910000D03*
X113540000Y-65910000D03*
%TD*%
D16*
%TO.C,J1*%
X249930000Y-86860000D03*
D17*
X242030000Y-92060000D03*
X243030000Y-89460000D03*
X245530000Y-82060000D03*
D16*
X238630000Y-82560000D03*
%TD*%
D18*
%TO.C,D3*%
X181882000Y-89710000D03*
D19*
X184422000Y-89710000D03*
%TD*%
D16*
%TO.C,J6*%
X48002000Y-77950000D03*
D17*
X55902000Y-72750000D03*
X54902000Y-75350000D03*
X52402000Y-82750000D03*
D16*
X59302000Y-82250000D03*
%TD*%
D20*
%TO.C,J3*%
X235080000Y-66040000D03*
D21*
X230000000Y-66040000D03*
X224920000Y-66040000D03*
%TD*%
D12*
%TO.C,R3*%
X216782000Y-72970000D03*
D13*
X209162000Y-72970000D03*
%TD*%
D22*
%TO.C,SW4*%
X59670000Y-107100000D03*
X69070000Y-107100000D03*
X64370000Y-107100000D03*
X59670000Y-101800000D03*
X69070000Y-101800000D03*
X64370000Y-101800000D03*
X59670000Y-96500000D03*
X69070000Y-96500000D03*
X64370000Y-96500000D03*
%TD*%
D12*
%TO.C,R8*%
X231882000Y-79880000D03*
D13*
X224262000Y-79880000D03*
%TD*%
D15*
%TO.C,RV1*%
X215782000Y-65024000D03*
X213242000Y-65024000D03*
X210702000Y-65024000D03*
%TD*%
D14*
%TO.C,H6*%
X128000000Y-110000000D03*
%TD*%
%TO.C,H4*%
X50000000Y-110000000D03*
%TD*%
D23*
%TO.C,J2*%
X238310000Y-75280000D03*
D24*
X244310000Y-75280000D03*
D25*
X241310000Y-70580000D03*
%TD*%
D22*
%TO.C,SW2*%
X160652000Y-107046354D03*
X170052000Y-107046354D03*
X165352000Y-107046354D03*
X160652000Y-101746354D03*
X170052000Y-101746354D03*
X165352000Y-101746354D03*
X160652000Y-96446354D03*
X170052000Y-96446354D03*
X165352000Y-96446354D03*
%TD*%
D12*
%TO.C,R13*%
X49922000Y-96600000D03*
D13*
X49922000Y-104220000D03*
%TD*%
D12*
%TO.C,R11*%
X129286000Y-96520000D03*
D13*
X129286000Y-104140000D03*
%TD*%
D14*
%TO.C,H12*%
X64282000Y-85560000D03*
%TD*%
D10*
%TO.C,JP1*%
X235232000Y-79750000D03*
D11*
X235232000Y-82290000D03*
%TD*%
D14*
%TO.C,H5*%
X188000000Y-110000000D03*
%TD*%
D16*
%TO.C,J4*%
X249790000Y-99700000D03*
D17*
X241890000Y-104900000D03*
X242890000Y-102300000D03*
X245390000Y-94900000D03*
D16*
X238490000Y-95400000D03*
%TD*%
D15*
%TO.C,RV2*%
X168840000Y-66000000D03*
X166300000Y-66000000D03*
X163760000Y-66000000D03*
%TD*%
D18*
%TO.C,D2*%
X131182000Y-90360000D03*
D19*
X133722000Y-90360000D03*
%TD*%
D12*
%TO.C,R9*%
X195902000Y-96610000D03*
D13*
X195902000Y-104230000D03*
%TD*%
D12*
%TO.C,C1*%
X225542000Y-71510000D03*
X225542000Y-76510000D03*
%TD*%
D14*
%TO.C,H10*%
X165282000Y-85560000D03*
%TD*%
D12*
%TO.C,R5*%
X119850000Y-70430000D03*
D13*
X112230000Y-70430000D03*
%TD*%
D18*
%TO.C,D1*%
X231648000Y-89662000D03*
D19*
X234188000Y-89662000D03*
%TD*%
D22*
%TO.C,SW1*%
X211892000Y-107046354D03*
X221292000Y-107046354D03*
X216592000Y-107046354D03*
X211892000Y-101746354D03*
X221292000Y-101746354D03*
X216592000Y-101746354D03*
X211892000Y-96446354D03*
X221292000Y-96446354D03*
X216592000Y-96446354D03*
%TD*%
%TO.C,SW3*%
X109370000Y-107000000D03*
X118770000Y-107000000D03*
X114070000Y-107000000D03*
X109370000Y-101700000D03*
X118770000Y-101700000D03*
X114070000Y-101700000D03*
X109370000Y-96400000D03*
X118770000Y-96400000D03*
X114070000Y-96400000D03*
%TD*%
D12*
%TO.C,R6*%
X67820000Y-69970000D03*
D13*
X60200000Y-69970000D03*
%TD*%
D10*
%TO.C,J5*%
X203282000Y-65786000D03*
D11*
X200742000Y-65786000D03*
%TD*%
D14*
%TO.C,H7*%
X188000000Y-66000000D03*
%TD*%
D18*
%TO.C,D4*%
X81257000Y-90360000D03*
D19*
X83797000Y-90360000D03*
%TD*%
D14*
%TO.C,H9*%
X114282000Y-85560000D03*
%TD*%
D12*
%TO.C,C2*%
X233512000Y-75120000D03*
X228512000Y-75120000D03*
%TD*%
%TO.C,C3*%
X238252000Y-110870000D03*
X243252000Y-110870000D03*
%TD*%
%TO.C,R2*%
X216782000Y-69560000D03*
D13*
X209162000Y-69560000D03*
%TD*%
D14*
%TO.C,H3*%
X50000000Y-66000000D03*
%TD*%
D12*
%TO.C,R12*%
X78994000Y-96520000D03*
D13*
X78994000Y-104140000D03*
%TD*%
D12*
%TO.C,R4*%
X170200000Y-70480000D03*
D13*
X162580000Y-70480000D03*
%TD*%
D15*
%TO.C,RV4*%
X66320000Y-65470000D03*
X63780000Y-65470000D03*
X61240000Y-65470000D03*
%TD*%
D12*
%TO.C,R14*%
X49922000Y-93710000D03*
D13*
X49922000Y-86090000D03*
%TD*%
D14*
%TO.C,H11*%
X216282000Y-85060000D03*
%TD*%
D12*
%TO.C,R7*%
X236832000Y-107630000D03*
D13*
X244452000Y-107630000D03*
%TD*%
D14*
%TO.C,H1*%
X249000000Y-66000000D03*
%TD*%
%TO.C,H2*%
X249000000Y-110000000D03*
%TD*%
M02*
