M48
; DRILL file {KiCad (6.0.11)} date Sun Feb 11 12:33:01 2024
; FORMAT={-:-/ absolute / inch / decimal}
; #@! TF.CreationDate,2024-02-11T12:33:01-06:00
; #@! TF.GenerationSoftware,Kicad,Pcbnew,(6.0.11)
; #@! TF.FileFunction,Plated,1,2,PTH
FMAT,2
INCH
; #@! TA.AperFunction,Plated,PTH,ComponentDrill
T1C0.0295
; #@! TA.AperFunction,Plated,PTH,ComponentDrill
T2C0.0315
; #@! TA.AperFunction,Plated,PTH,ComponentDrill
T3C0.0354
; #@! TA.AperFunction,Plated,PTH,ComponentDrill
T4C0.0394
; #@! TA.AperFunction,Plated,PTH,ComponentDrill
T5C0.0472
; #@! TA.AperFunction,Plated,PTH,ComponentDrill
T6C0.0598
%
G90
G05
T2
X1.93Y-3.75
X1.93Y-4.05
X2.3701Y-2.7547
X2.411Y-2.5776
X2.511Y-2.5776
X2.611Y-2.5776
X2.6701Y-2.7547
X3.11Y-3.8
X3.11Y-4.1
X4.4185Y-2.7728
X4.4701Y-2.5949
X4.5701Y-2.5949
X4.6701Y-2.5949
X4.7185Y-2.7728
X5.09Y-3.8
X5.09Y-4.1
X6.4008Y-2.7748
X6.4472Y-2.5984
X6.5472Y-2.5984
X6.6472Y-2.5984
X6.7008Y-2.7748
X7.08Y-3.81
X7.08Y-4.11
X8.3269Y-2.8728
X8.33Y-2.74
X8.38Y-2.56
X8.48Y-2.56
X8.58Y-2.56
X8.6269Y-2.8728
X8.63Y-2.74
X8.83Y-3.13
X8.83Y-3.26
X8.8796Y-2.8154
X8.8796Y-3.0122
X8.9965Y-2.9575
X9.13Y-3.13
X9.13Y-3.26
X9.1934Y-2.9575
X9.2Y-4.1
X9.2Y-4.4
X9.31Y-4.38
X9.41Y-4.25
X9.6069Y-4.25
X9.61Y-4.38
T3
X3.1991Y-3.5575
X3.2991Y-3.5575
X5.1646Y-3.5575
X5.2646Y-3.5575
X7.1607Y-3.5319
X7.2607Y-3.5319
X9.12Y-3.53
X9.22Y-3.53
T4
X8.0Y-2.59
X8.1Y-2.59
X9.2611Y-3.1398
X9.2611Y-3.2398
X9.4498Y-2.54
X9.5498Y-2.54
T6
X8.8551Y-2.6
X9.0551Y-2.6
X9.2551Y-2.6
T1
G00X9.538Y-4.1299
M15
G01X9.5085Y-4.1299
M16
G05
G00X9.5435Y-3.6244
M15
G01X9.514Y-3.6244
M16
G05
G00X9.6758Y-3.7362
M15
G01X9.6463Y-3.7362
M16
G05
G00X9.6813Y-3.2307
M15
G01X9.6518Y-3.2307
M16
G05
G00X9.8343Y-3.9104
M15
G01X9.8343Y-3.94
M16
G05
G00X9.8398Y-3.4049
M15
G01X9.8398Y-3.4344
M16
G05
T4
G00X9.3823Y-3.0031
M15
G01X9.3823Y-2.9244
M16
G05
G00X9.3894Y-3.7461
M15
G01X9.3894Y-3.7657
M16
G05
G00X9.3949Y-3.2406
M15
G01X9.3949Y-3.2602
M16
G05
G00X9.5398Y-2.7787
M15
G01X9.461Y-2.7787
M16
G05
G00X9.5724Y-4.0276
M15
G01X9.5528Y-4.0276
M16
G05
G00X9.578Y-3.522
M15
G01X9.5583Y-3.522
M16
G05
G00X9.6185Y-3.0031
M15
G01X9.6185Y-2.9244
M16
G05
T5
G00X2.3492Y-3.8228
M15
G01X2.3492Y-3.7756
M16
G05
G00X2.3492Y-4.0315
M15
G01X2.3492Y-3.9843
M16
G05
G00X2.3492Y-4.2402
M15
G01X2.3492Y-4.1929
M16
G05
G00X2.5343Y-3.8228
M15
G01X2.5343Y-3.7756
M16
G05
G00X2.5343Y-4.0315
M15
G01X2.5343Y-3.9843
M16
G05
G00X2.5343Y-4.2402
M15
G01X2.5343Y-4.1929
M16
G05
G00X2.7193Y-3.8228
M15
G01X2.7193Y-3.7756
M16
G05
G00X2.7193Y-4.0315
M15
G01X2.7193Y-3.9843
M16
G05
G00X2.7193Y-4.2402
M15
G01X2.7193Y-4.1929
M16
G05
G00X4.3059Y-3.8189
M15
G01X4.3059Y-3.7717
M16
G05
G00X4.3059Y-4.0276
M15
G01X4.3059Y-3.9803
M16
G05
G00X4.3059Y-4.2362
M15
G01X4.3059Y-4.189
M16
G05
G00X4.4909Y-3.8189
M15
G01X4.4909Y-3.7717
M16
G05
G00X4.4909Y-4.0276
M15
G01X4.4909Y-3.9803
M16
G05
G00X4.4909Y-4.2362
M15
G01X4.4909Y-4.189
M16
G05
G00X4.676Y-3.8189
M15
G01X4.676Y-3.7717
M16
G05
G00X4.676Y-4.0276
M15
G01X4.676Y-3.9803
M16
G05
G00X4.676Y-4.2362
M15
G01X4.676Y-4.189
M16
G05
G00X6.3249Y-3.8207
M15
G01X6.3249Y-3.7735
M16
G05
G00X6.3249Y-4.0294
M15
G01X6.3249Y-3.9821
M16
G05
G00X6.3249Y-4.238
M15
G01X6.3249Y-4.1908
M16
G05
G00X6.5099Y-3.8207
M15
G01X6.5099Y-3.7735
M16
G05
G00X6.5099Y-4.0294
M15
G01X6.5099Y-3.9821
M16
G05
G00X6.5099Y-4.238
M15
G01X6.5099Y-4.1908
M16
G05
G00X6.695Y-3.8207
M15
G01X6.695Y-3.7735
M16
G05
G00X6.695Y-4.0294
M15
G01X6.695Y-3.9821
M16
G05
G00X6.695Y-4.238
M15
G01X6.695Y-4.1908
M16
G05
G00X8.3422Y-3.8207
M15
G01X8.3422Y-3.7735
M16
G05
G00X8.3422Y-4.0294
M15
G01X8.3422Y-3.9821
M16
G05
G00X8.3422Y-4.238
M15
G01X8.3422Y-4.1908
M16
G05
G00X8.5272Y-3.8207
M15
G01X8.5272Y-3.7735
M16
G05
G00X8.5272Y-4.0294
M15
G01X8.5272Y-3.9821
M16
G05
G00X8.5272Y-4.238
M15
G01X8.5272Y-4.1908
M16
G05
G00X8.7123Y-3.8207
M15
G01X8.7123Y-3.7735
M16
G05
G00X8.7123Y-4.0294
M15
G01X8.7123Y-3.9821
M16
G05
G00X8.7123Y-4.238
M15
G01X8.7123Y-4.1908
M16
G05
T0
M30
