%TF.GenerationSoftware,KiCad,Pcbnew,(6.0.11)*%
%TF.CreationDate,2024-02-23T20:56:01-06:00*%
%TF.ProjectId,StompBox,53746f6d-7042-46f7-982e-6b696361645f,rev?*%
%TF.SameCoordinates,Original*%
%TF.FileFunction,Copper,L2,Bot*%
%TF.FilePolarity,Positive*%
%FSLAX46Y46*%
G04 Gerber Fmt 4.6, Leading zero omitted, Abs format (unit mm)*
G04 Created by KiCad (PCBNEW (6.0.11)) date 2024-02-23 20:56:01*
%MOMM*%
%LPD*%
G01*
G04 APERTURE LIST*
G04 Aperture macros list*
%AMRoundRect*
0 Rectangle with rounded corners*
0 $1 Rounding radius*
0 $2 $3 $4 $5 $6 $7 $8 $9 X,Y pos of 4 corners*
0 Add a 4 corners polygon primitive as box body*
4,1,4,$2,$3,$4,$5,$6,$7,$8,$9,$2,$3,0*
0 Add four circle primitives for the rounded corners*
1,1,$1+$1,$2,$3*
1,1,$1+$1,$4,$5*
1,1,$1+$1,$6,$7*
1,1,$1+$1,$8,$9*
0 Add four rect primitives between the rounded corners*
20,1,$1+$1,$2,$3,$4,$5,0*
20,1,$1+$1,$4,$5,$6,$7,0*
20,1,$1+$1,$6,$7,$8,$9,0*
20,1,$1+$1,$8,$9,$2,$3,0*%
G04 Aperture macros list end*
%TA.AperFunction,ComponentPad*%
%ADD10R,1.700000X1.700000*%
%TD*%
%TA.AperFunction,ComponentPad*%
%ADD11O,1.700000X1.700000*%
%TD*%
%TA.AperFunction,ComponentPad*%
%ADD12C,1.600000*%
%TD*%
%TA.AperFunction,ComponentPad*%
%ADD13O,1.600000X1.600000*%
%TD*%
%TA.AperFunction,ComponentPad*%
%ADD14C,1.440000*%
%TD*%
%TA.AperFunction,ComponentPad*%
%ADD15O,1.500000X2.000000*%
%TD*%
%TA.AperFunction,ComponentPad*%
%ADD16O,2.000000X1.500000*%
%TD*%
%TA.AperFunction,ComponentPad*%
%ADD17R,1.800000X1.800000*%
%TD*%
%TA.AperFunction,ComponentPad*%
%ADD18C,1.800000*%
%TD*%
%TA.AperFunction,ComponentPad*%
%ADD19R,3.000000X3.000000*%
%TD*%
%TA.AperFunction,ComponentPad*%
%ADD20C,3.000000*%
%TD*%
%TA.AperFunction,ComponentPad*%
%ADD21O,2.500000X3.600000*%
%TD*%
%TA.AperFunction,ComponentPad*%
%ADD22R,3.500000X3.500000*%
%TD*%
%TA.AperFunction,ComponentPad*%
%ADD23RoundRect,0.750000X0.750000X1.000000X-0.750000X1.000000X-0.750000X-1.000000X0.750000X-1.000000X0*%
%TD*%
%TA.AperFunction,ComponentPad*%
%ADD24RoundRect,0.875000X0.875000X0.875000X-0.875000X0.875000X-0.875000X-0.875000X0.875000X-0.875000X0*%
%TD*%
%TA.AperFunction,Conductor*%
%ADD25C,0.500000*%
%TD*%
G04 APERTURE END LIST*
D10*
%TO.P,JP2,1,A*%
%TO.N,INVOLT*%
X240025000Y-64516000D03*
D11*
%TO.P,JP2,2,B*%
%TO.N,GND*%
X242565000Y-64516000D03*
%TD*%
D12*
%TO.P,R1,1*%
%TO.N,Net-(J1-PadS1)*%
X231432000Y-83566000D03*
D13*
%TO.P,R1,2*%
%TO.N,INVOLT*%
X223812000Y-83566000D03*
%TD*%
D12*
%TO.P,R10,1*%
%TO.N,GND*%
X179832000Y-96774000D03*
D13*
%TO.P,R10,2*%
%TO.N,Net-(R10-Pad2)*%
X179832000Y-104394000D03*
%TD*%
D14*
%TO.P,RV3,1,1*%
%TO.N,GND*%
X118620000Y-65910000D03*
%TO.P,RV3,2,2*%
X116080000Y-65910000D03*
%TO.P,RV3,3,3*%
%TO.N,Net-(R5-Pad2)*%
X113540000Y-65910000D03*
%TD*%
D15*
%TO.P,J1,G*%
%TO.N,GND*%
X249930000Y-86860000D03*
D16*
%TO.P,J1,S1*%
%TO.N,Net-(J1-PadS1)*%
X242030000Y-92060000D03*
%TO.P,J1,SN1*%
%TO.N,unconnected-(J1-PadSN1)*%
X243030000Y-89460000D03*
%TO.P,J1,T1*%
%TO.N,INVOLT*%
X245530000Y-82060000D03*
D15*
%TO.P,J1,TN1*%
%TO.N,unconnected-(J1-PadTN1)*%
X238630000Y-82560000D03*
%TD*%
D17*
%TO.P,D3,1,K*%
%TO.N,Net-(D3-Pad1)*%
X181882000Y-89710000D03*
D18*
%TO.P,D3,2,A*%
%TO.N,+9V*%
X184422000Y-89710000D03*
%TD*%
D15*
%TO.P,J6,G*%
%TO.N,GND*%
X48002000Y-77950000D03*
D16*
%TO.P,J6,S1*%
%TO.N,unconnected-(J6-PadS1)*%
X55902000Y-72750000D03*
%TO.P,J6,SN1*%
%TO.N,unconnected-(J6-PadSN1)*%
X54902000Y-75350000D03*
%TO.P,J6,T1*%
%TO.N,Net-(J6-PadT1)*%
X52402000Y-82750000D03*
D15*
%TO.P,J6,TN1*%
%TO.N,unconnected-(J6-PadTN1)*%
X59302000Y-82250000D03*
%TD*%
D19*
%TO.P,J3,1,Pin_1*%
%TO.N,Net-(J1-PadS1)*%
X235080000Y-66040000D03*
D20*
%TO.P,J3,2,Pin_2*%
%TO.N,INVOLT*%
X230000000Y-66040000D03*
%TO.P,J3,3,Pin_3*%
%TO.N,GND*%
X224920000Y-66040000D03*
%TD*%
D12*
%TO.P,R3,1*%
%TO.N,Net-(R3-Pad1)*%
X216782000Y-72970000D03*
D13*
%TO.P,R3,2*%
%TO.N,GND*%
X209162000Y-72970000D03*
%TD*%
D21*
%TO.P,SW4,1A*%
%TO.N,unconnected-(SW4-Pad1A)*%
X59670000Y-107100000D03*
%TO.P,SW4,1B*%
%TO.N,Net-(R12-Pad2)*%
X69070000Y-107100000D03*
%TO.P,SW4,1P*%
%TO.N,Net-(C3-Pad1)*%
X64370000Y-107100000D03*
%TO.P,SW4,2A*%
%TO.N,Net-(R13-Pad2)*%
X59670000Y-101800000D03*
%TO.P,SW4,2B*%
%TO.N,Net-(R6-Pad2)*%
X69070000Y-101800000D03*
%TO.P,SW4,2P*%
%TO.N,Net-(SW3-Pad2A)*%
X64370000Y-101800000D03*
%TO.P,SW4,3A*%
%TO.N,unconnected-(SW4-Pad3A)*%
X59670000Y-96500000D03*
%TO.P,SW4,3B*%
%TO.N,Net-(D4-Pad1)*%
X69070000Y-96500000D03*
%TO.P,SW4,3P*%
%TO.N,Net-(SW3-Pad3A)*%
X64370000Y-96500000D03*
%TD*%
D12*
%TO.P,R8,1*%
%TO.N,Net-(JP1-Pad2)*%
X231882000Y-79880000D03*
D13*
%TO.P,R8,2*%
%TO.N,Net-(C3-Pad1)*%
X224262000Y-79880000D03*
%TD*%
D14*
%TO.P,RV1,1,1*%
%TO.N,GND*%
X215782000Y-65024000D03*
%TO.P,RV1,2,2*%
X213242000Y-65024000D03*
%TO.P,RV1,3,3*%
%TO.N,Net-(R2-Pad2)*%
X210702000Y-65024000D03*
%TD*%
D22*
%TO.P,J2,1*%
%TO.N,GND*%
X238310000Y-75280000D03*
D23*
%TO.P,J2,2*%
%TO.N,+9V*%
X244310000Y-75280000D03*
D24*
%TO.P,J2,3*%
%TO.N,unconnected-(J2-Pad3)*%
X241310000Y-70580000D03*
%TD*%
D21*
%TO.P,SW2,1A*%
%TO.N,unconnected-(SW2-Pad1A)*%
X160652000Y-107046354D03*
%TO.P,SW2,1B*%
%TO.N,Net-(R10-Pad2)*%
X170052000Y-107046354D03*
%TO.P,SW2,1P*%
%TO.N,Net-(C3-Pad1)*%
X165352000Y-107046354D03*
%TO.P,SW2,2A*%
%TO.N,Net-(SW2-Pad2A)*%
X160652000Y-101746354D03*
%TO.P,SW2,2B*%
%TO.N,Net-(R4-Pad2)*%
X170052000Y-101746354D03*
%TO.P,SW2,2P*%
%TO.N,Net-(SW1-Pad2A)*%
X165352000Y-101746354D03*
%TO.P,SW2,3A*%
%TO.N,Net-(SW2-Pad3A)*%
X160652000Y-96446354D03*
%TO.P,SW2,3B*%
%TO.N,Net-(D3-Pad1)*%
X170052000Y-96446354D03*
%TO.P,SW2,3P*%
%TO.N,Net-(SW1-Pad3A)*%
X165352000Y-96446354D03*
%TD*%
D12*
%TO.P,R13,1*%
%TO.N,GND*%
X49922000Y-96600000D03*
D13*
%TO.P,R13,2*%
%TO.N,Net-(R13-Pad2)*%
X49922000Y-104220000D03*
%TD*%
D12*
%TO.P,R11,1*%
%TO.N,GND*%
X129286000Y-96520000D03*
D13*
%TO.P,R11,2*%
%TO.N,Net-(R11-Pad2)*%
X129286000Y-104140000D03*
%TD*%
D10*
%TO.P,JP1,1,A*%
%TO.N,+9V*%
X235232000Y-79750000D03*
D11*
%TO.P,JP1,2,B*%
%TO.N,Net-(JP1-Pad2)*%
X235232000Y-82290000D03*
%TD*%
D15*
%TO.P,J4,G*%
%TO.N,GND*%
X249790000Y-99700000D03*
D16*
%TO.P,J4,S1*%
%TO.N,Net-(J4-PadS1)*%
X241890000Y-104900000D03*
%TO.P,J4,SN1*%
%TO.N,unconnected-(J4-PadSN1)*%
X242890000Y-102300000D03*
%TO.P,J4,T1*%
%TO.N,Net-(C3-Pad1)*%
X245390000Y-94900000D03*
D15*
%TO.P,J4,TN1*%
%TO.N,unconnected-(J4-PadTN1)*%
X238490000Y-95400000D03*
%TD*%
D14*
%TO.P,RV2,1,1*%
%TO.N,GND*%
X168840000Y-66000000D03*
%TO.P,RV2,2,2*%
X166300000Y-66000000D03*
%TO.P,RV2,3,3*%
%TO.N,Net-(R4-Pad2)*%
X163760000Y-66000000D03*
%TD*%
D17*
%TO.P,D2,1,K*%
%TO.N,Net-(D2-Pad1)*%
X131182000Y-90360000D03*
D18*
%TO.P,D2,2,A*%
%TO.N,+9V*%
X133722000Y-90360000D03*
%TD*%
D12*
%TO.P,R9,1*%
%TO.N,GND*%
X195902000Y-96610000D03*
D13*
%TO.P,R9,2*%
%TO.N,Net-(R9-Pad2)*%
X195902000Y-104230000D03*
%TD*%
D12*
%TO.P,C1,1*%
%TO.N,INVOLT*%
X225542000Y-71510000D03*
%TO.P,C1,2*%
%TO.N,GND*%
X225542000Y-76510000D03*
%TD*%
%TO.P,R5,1*%
%TO.N,GND*%
X119850000Y-70430000D03*
D13*
%TO.P,R5,2*%
%TO.N,Net-(R5-Pad2)*%
X112230000Y-70430000D03*
%TD*%
D17*
%TO.P,D1,1,K*%
%TO.N,Net-(D1-Pad1)*%
X231648000Y-89662000D03*
D18*
%TO.P,D1,2,A*%
%TO.N,+9V*%
X234188000Y-89662000D03*
%TD*%
D21*
%TO.P,SW1,1A*%
%TO.N,unconnected-(SW1-Pad1A)*%
X211892000Y-107046354D03*
%TO.P,SW1,1B*%
%TO.N,Net-(R9-Pad2)*%
X221292000Y-107046354D03*
%TO.P,SW1,1P*%
%TO.N,Net-(C3-Pad1)*%
X216592000Y-107046354D03*
%TO.P,SW1,2A*%
%TO.N,Net-(SW1-Pad2A)*%
X211892000Y-101746354D03*
%TO.P,SW1,2B*%
%TO.N,Net-(R2-Pad2)*%
X221292000Y-101746354D03*
%TO.P,SW1,2P*%
%TO.N,INVOLT*%
X216592000Y-101746354D03*
%TO.P,SW1,3A*%
%TO.N,Net-(SW1-Pad3A)*%
X211892000Y-96446354D03*
%TO.P,SW1,3B*%
%TO.N,Net-(D1-Pad1)*%
X221292000Y-96446354D03*
%TO.P,SW1,3P*%
%TO.N,Net-(R3-Pad1)*%
X216592000Y-96446354D03*
%TD*%
%TO.P,SW3,1A*%
%TO.N,unconnected-(SW3-Pad1A)*%
X109370000Y-107000000D03*
%TO.P,SW3,1B*%
%TO.N,Net-(R11-Pad2)*%
X118770000Y-107000000D03*
%TO.P,SW3,1P*%
%TO.N,Net-(C3-Pad1)*%
X114070000Y-107000000D03*
%TO.P,SW3,2A*%
%TO.N,Net-(SW3-Pad2A)*%
X109370000Y-101700000D03*
%TO.P,SW3,2B*%
%TO.N,Net-(R5-Pad2)*%
X118770000Y-101700000D03*
%TO.P,SW3,2P*%
%TO.N,Net-(SW2-Pad2A)*%
X114070000Y-101700000D03*
%TO.P,SW3,3A*%
%TO.N,Net-(SW3-Pad3A)*%
X109370000Y-96400000D03*
%TO.P,SW3,3B*%
%TO.N,Net-(D2-Pad1)*%
X118770000Y-96400000D03*
%TO.P,SW3,3P*%
%TO.N,Net-(SW2-Pad3A)*%
X114070000Y-96400000D03*
%TD*%
D12*
%TO.P,R6,1*%
%TO.N,GND*%
X67820000Y-69970000D03*
D13*
%TO.P,R6,2*%
%TO.N,Net-(R6-Pad2)*%
X60200000Y-69970000D03*
%TD*%
D10*
%TO.P,J5,1,Pin_1*%
%TO.N,+9V*%
X203282000Y-65786000D03*
D11*
%TO.P,J5,2,Pin_2*%
%TO.N,GND*%
X200742000Y-65786000D03*
%TD*%
D17*
%TO.P,D4,1,K*%
%TO.N,Net-(D4-Pad1)*%
X81257000Y-90360000D03*
D18*
%TO.P,D4,2,A*%
%TO.N,+9V*%
X83797000Y-90360000D03*
%TD*%
D12*
%TO.P,C2,1*%
%TO.N,+9V*%
X233512000Y-75120000D03*
%TO.P,C2,2*%
%TO.N,GND*%
X228512000Y-75120000D03*
%TD*%
%TO.P,C3,1*%
%TO.N,Net-(C3-Pad1)*%
X238252000Y-110870000D03*
%TO.P,C3,2*%
%TO.N,GND*%
X243252000Y-110870000D03*
%TD*%
%TO.P,R2,1*%
%TO.N,GND*%
X216782000Y-69560000D03*
D13*
%TO.P,R2,2*%
%TO.N,Net-(R2-Pad2)*%
X209162000Y-69560000D03*
%TD*%
D12*
%TO.P,R12,1*%
%TO.N,GND*%
X78994000Y-96520000D03*
D13*
%TO.P,R12,2*%
%TO.N,Net-(R12-Pad2)*%
X78994000Y-104140000D03*
%TD*%
D12*
%TO.P,R4,1*%
%TO.N,GND*%
X170200000Y-70480000D03*
D13*
%TO.P,R4,2*%
%TO.N,Net-(R4-Pad2)*%
X162580000Y-70480000D03*
%TD*%
D14*
%TO.P,RV4,1,1*%
%TO.N,GND*%
X66320000Y-65470000D03*
%TO.P,RV4,2,2*%
X63780000Y-65470000D03*
%TO.P,RV4,3,3*%
%TO.N,Net-(R6-Pad2)*%
X61240000Y-65470000D03*
%TD*%
D12*
%TO.P,R14,1*%
%TO.N,Net-(C3-Pad1)*%
X49922000Y-93710000D03*
D13*
%TO.P,R14,2*%
%TO.N,Net-(J6-PadT1)*%
X49922000Y-86090000D03*
%TD*%
D12*
%TO.P,R7,1*%
%TO.N,Net-(C3-Pad1)*%
X236832000Y-107630000D03*
D13*
%TO.P,R7,2*%
%TO.N,Net-(J4-PadS1)*%
X244452000Y-107630000D03*
%TD*%
D25*
%TO.N,Net-(J1-PadS1)*%
X232682000Y-85190000D02*
X231432000Y-83940000D01*
X231432000Y-83940000D02*
X231432000Y-83566000D01*
X235812000Y-85190000D02*
X232682000Y-85190000D01*
X238506000Y-88524000D02*
X238506000Y-87884000D01*
X238506000Y-87884000D02*
X235812000Y-85190000D01*
X242030000Y-92060000D02*
X242030000Y-92048000D01*
X242030000Y-92048000D02*
X238506000Y-88524000D01*
%TO.N,INVOLT*%
X245530000Y-83400000D02*
X245530000Y-82060000D01*
X243800000Y-85130000D02*
X245530000Y-83400000D01*
X236622000Y-84220000D02*
X237532000Y-85130000D01*
X231062000Y-81750000D02*
X232072000Y-81750000D01*
X223042000Y-77970000D02*
X227282000Y-77970000D01*
X232072000Y-81750000D02*
X234542000Y-84220000D01*
X222504000Y-78508000D02*
X223042000Y-77970000D01*
X227282000Y-77970000D02*
X231062000Y-81750000D01*
X237532000Y-85130000D02*
X243800000Y-85130000D01*
X222504000Y-82258000D02*
X222504000Y-78508000D01*
X234542000Y-84220000D02*
X236622000Y-84220000D01*
X223812000Y-83566000D02*
X222504000Y-82258000D01*
%TO.N,Net-(C3-Pad1)*%
X224262000Y-80030000D02*
X224262000Y-79880000D01*
X230302000Y-86070000D02*
X224262000Y-80030000D01*
X237236000Y-87884000D02*
X235422000Y-86070000D01*
X236474000Y-93138000D02*
X237236000Y-92376000D01*
X237236000Y-92376000D02*
X237236000Y-87884000D01*
X235422000Y-86070000D02*
X230302000Y-86070000D01*
X236474000Y-107272000D02*
X236474000Y-93138000D01*
X236832000Y-107630000D02*
X236474000Y-107272000D01*
%TO.N,INVOLT*%
X223812000Y-84366000D02*
X223812000Y-83566000D01*
X236220000Y-88392000D02*
X234818000Y-86990000D01*
X234842000Y-92710000D02*
X236220000Y-91332000D01*
X231702000Y-92710000D02*
X234842000Y-92710000D01*
X223782000Y-100630000D02*
X231702000Y-92710000D01*
X223782000Y-103370000D02*
X223782000Y-100630000D01*
X222792000Y-104360000D02*
X223782000Y-103370000D01*
X220132000Y-104360000D02*
X222792000Y-104360000D01*
X217672000Y-101900000D02*
X220132000Y-104360000D01*
X216540000Y-101900000D02*
X217672000Y-101900000D01*
X234818000Y-86990000D02*
X226436000Y-86990000D01*
X226436000Y-86990000D02*
X223812000Y-84366000D01*
X236220000Y-91332000D02*
X236220000Y-88392000D01*
%TO.N,Net-(JP1-Pad2)*%
X234632000Y-82290000D02*
X232222000Y-79880000D01*
X235232000Y-82290000D02*
X234632000Y-82290000D01*
X232222000Y-79880000D02*
X231882000Y-79880000D01*
%TO.N,+9V*%
X221488000Y-84328000D02*
X221488000Y-76904000D01*
X225060000Y-87900000D02*
X221488000Y-84328000D01*
X233188000Y-87900000D02*
X225060000Y-87900000D01*
X221488000Y-76904000D02*
X225142000Y-73250000D01*
X234188000Y-88900000D02*
X233188000Y-87900000D01*
X234188000Y-89662000D02*
X234188000Y-88900000D01*
%TO.N,INVOLT*%
X245520000Y-82050000D02*
X245520000Y-80480000D01*
X244094000Y-67818000D02*
X238162000Y-67818000D01*
X237580000Y-68400000D02*
X231400000Y-68400000D01*
X230000000Y-67000000D02*
X230000000Y-66040000D01*
X245530000Y-82060000D02*
X245520000Y-82050000D01*
X245520000Y-80480000D02*
X247500000Y-78500000D01*
X240025000Y-64516000D02*
X240025000Y-64003000D01*
X231400000Y-68400000D02*
X230000000Y-67000000D01*
X239014000Y-62992000D02*
X233048000Y-62992000D01*
X247500000Y-71224000D02*
X244094000Y-67818000D01*
X247500000Y-78500000D02*
X247500000Y-71224000D01*
X230000000Y-66040000D02*
X225542000Y-70498000D01*
X238162000Y-67818000D02*
X237580000Y-68400000D01*
X225542000Y-70498000D02*
X225542000Y-71510000D01*
X233048000Y-62992000D02*
X230000000Y-66040000D01*
X240025000Y-64003000D02*
X239014000Y-62992000D01*
%TO.N,Net-(D1-Pad1)*%
X228076354Y-89662000D02*
X221292000Y-96446354D01*
X231648000Y-89662000D02*
X228076354Y-89662000D01*
%TO.N,+9V*%
X233512000Y-75120000D02*
X233122000Y-75120000D01*
X203596000Y-63246000D02*
X203282000Y-63560000D01*
X219964000Y-66040000D02*
X219964000Y-64262000D01*
X133757000Y-90325000D02*
X133757000Y-66765000D01*
X173364000Y-63246000D02*
X173296000Y-63314000D01*
X205994000Y-63246000D02*
X203596000Y-63246000D01*
X244310000Y-77690000D02*
X244310000Y-75280000D01*
X236480000Y-78480000D02*
X236468000Y-78480000D01*
X184557000Y-84431000D02*
X184557000Y-89575000D01*
X173296000Y-63314000D02*
X171958000Y-64652000D01*
X236480000Y-78480000D02*
X243520000Y-78480000D01*
X223232000Y-69308000D02*
X219964000Y-66040000D01*
X233122000Y-75120000D02*
X231252000Y-73250000D01*
X171958000Y-71832000D02*
X184557000Y-84431000D01*
X184557000Y-89575000D02*
X184422000Y-89710000D01*
X205994000Y-63246000D02*
X173364000Y-63246000D01*
X83797000Y-67345000D02*
X83797000Y-90360000D01*
X235232000Y-79750000D02*
X235232000Y-79728000D01*
X171958000Y-64652000D02*
X171958000Y-71832000D01*
X235232000Y-79728000D02*
X236480000Y-78480000D01*
X87896000Y-63246000D02*
X83797000Y-67345000D01*
X218948000Y-63246000D02*
X205994000Y-63246000D01*
X231252000Y-73250000D02*
X225142000Y-73250000D01*
X219964000Y-64262000D02*
X218948000Y-63246000D01*
X223232000Y-71790000D02*
X223232000Y-69308000D01*
X133722000Y-90360000D02*
X133757000Y-90325000D01*
X203282000Y-63560000D02*
X203282000Y-65786000D01*
X137276000Y-63246000D02*
X87896000Y-63246000D01*
X225142000Y-73250000D02*
X224692000Y-73250000D01*
X173296000Y-63314000D02*
X173228000Y-63246000D01*
X133757000Y-66765000D02*
X137276000Y-63246000D01*
X233512000Y-75524000D02*
X233512000Y-75120000D01*
X224692000Y-73250000D02*
X223232000Y-71790000D01*
X173228000Y-63246000D02*
X137276000Y-63246000D01*
X243520000Y-78480000D02*
X244310000Y-77690000D01*
X236468000Y-78480000D02*
X233512000Y-75524000D01*
%TO.N,Net-(J1-PadS1)*%
X247735625Y-90264375D02*
X247735625Y-84534375D01*
X242142000Y-91948000D02*
X246052000Y-91948000D01*
X236802000Y-66802000D02*
X236040000Y-66040000D01*
X246052000Y-91948000D02*
X247735625Y-90264375D01*
X249170000Y-71370000D02*
X244602000Y-66802000D01*
X249066000Y-83204000D02*
X249170000Y-83100000D01*
X249170000Y-83100000D02*
X249170000Y-71370000D01*
X236040000Y-66040000D02*
X235080000Y-66040000D01*
X247735625Y-84534375D02*
X249066000Y-83204000D01*
X242030000Y-92060000D02*
X242142000Y-91948000D01*
X247942000Y-84328000D02*
X249066000Y-83204000D01*
X244602000Y-66802000D02*
X236802000Y-66802000D01*
%TO.N,Net-(R2-Pad2)*%
X215422000Y-99130000D02*
X217542000Y-99130000D01*
X217542000Y-99130000D02*
X220312000Y-101900000D01*
X209162000Y-68634000D02*
X209162000Y-69560000D01*
X210702000Y-67094000D02*
X209162000Y-68634000D01*
X220312000Y-101900000D02*
X221840000Y-101900000D01*
X209162000Y-69560000D02*
X207282000Y-71440000D01*
X207282000Y-88060000D02*
X214302000Y-95080000D01*
X214302000Y-98010000D02*
X215422000Y-99130000D01*
X207282000Y-71440000D02*
X207282000Y-88060000D01*
X214302000Y-95080000D02*
X214302000Y-98010000D01*
X210702000Y-65024000D02*
X210702000Y-67094000D01*
%TO.N,Net-(R3-Pad1)*%
X216592000Y-96446354D02*
X220282000Y-92756354D01*
X220282000Y-92756354D02*
X220282000Y-76470000D01*
X220282000Y-76470000D02*
X216782000Y-72970000D01*
%TO.N,Net-(D3-Pad1)*%
X171462000Y-97200000D02*
X170600000Y-97200000D01*
X181882000Y-89710000D02*
X178952000Y-89710000D01*
X178952000Y-89710000D02*
X171462000Y-97200000D01*
%TO.N,Net-(R4-Pad2)*%
X170600000Y-101900000D02*
X169200000Y-101900000D01*
X163760000Y-66000000D02*
X163760000Y-69300000D01*
X157782000Y-75278000D02*
X162580000Y-70480000D01*
X162982000Y-93860000D02*
X157782000Y-88660000D01*
X169200000Y-101900000D02*
X166590000Y-99290000D01*
X163760000Y-69300000D02*
X162580000Y-70480000D01*
X162982000Y-98642000D02*
X162982000Y-93860000D01*
X166590000Y-99290000D02*
X163630000Y-99290000D01*
X163630000Y-99290000D02*
X162982000Y-98642000D01*
X157782000Y-88660000D02*
X157782000Y-75278000D01*
%TO.N,Net-(SW1-Pad2A)*%
X166270000Y-101900000D02*
X165300000Y-101900000D01*
X211240000Y-101900000D02*
X177246000Y-101900000D01*
X177246000Y-101900000D02*
X174656000Y-104490000D01*
X174656000Y-104490000D02*
X168860000Y-104490000D01*
X168860000Y-104490000D02*
X166270000Y-101900000D01*
%TO.N,Net-(J4-PadS1)*%
X240792000Y-103802000D02*
X240792000Y-96220000D01*
X243832000Y-93070000D02*
X247282000Y-93070000D01*
X244452000Y-107630000D02*
X248082000Y-104000000D01*
X248082000Y-104000000D02*
X248082000Y-103980000D01*
X243652000Y-93250000D02*
X243832000Y-93070000D01*
X247282000Y-93070000D02*
X248082000Y-93870000D01*
X248082000Y-93870000D02*
X248082000Y-103980000D01*
X243652000Y-93360000D02*
X243652000Y-93250000D01*
X240792000Y-96220000D02*
X243652000Y-93360000D01*
X241890000Y-104900000D02*
X240792000Y-103802000D01*
%TO.N,Net-(C3-Pad1)*%
X219786000Y-110236000D02*
X220218000Y-110236000D01*
X114170000Y-106500000D02*
X114170000Y-107820000D01*
X56712000Y-99160000D02*
X61062000Y-99160000D01*
X64362000Y-107100000D02*
X64370000Y-107100000D01*
X51262000Y-93710000D02*
X56712000Y-99160000D01*
X114170000Y-107820000D02*
X116586000Y-110236000D01*
X116586000Y-110236000D02*
X117348000Y-110236000D01*
X66548000Y-110236000D02*
X64470000Y-108158000D01*
X198628000Y-110236000D02*
X219786000Y-110236000D01*
X183554000Y-104990000D02*
X193382000Y-104990000D01*
X236832000Y-107630000D02*
X241862000Y-107630000D01*
X245390000Y-104102000D02*
X245390000Y-94900000D01*
X117348000Y-110236000D02*
X121106000Y-110236000D01*
X219786000Y-110236000D02*
X219840000Y-110290000D01*
X64470000Y-108158000D02*
X64470000Y-106600000D01*
X62092000Y-100190000D02*
X62092000Y-104830000D01*
X49922000Y-93710000D02*
X51262000Y-93710000D01*
X193382000Y-104990000D02*
X198628000Y-110236000D01*
X165300000Y-108150000D02*
X167132000Y-109982000D01*
X135824000Y-109982000D02*
X168910000Y-109982000D01*
X178562000Y-109982000D02*
X183554000Y-104990000D01*
X62092000Y-104830000D02*
X64362000Y-107100000D01*
X219840000Y-110290000D02*
X234172000Y-110290000D01*
X236832000Y-109450000D02*
X238252000Y-110870000D01*
X168910000Y-109982000D02*
X178562000Y-109982000D01*
X117348000Y-110236000D02*
X66548000Y-110236000D01*
X236832000Y-107630000D02*
X236832000Y-109450000D01*
X121106000Y-110236000D02*
X125432000Y-105910000D01*
X236832000Y-107630000D02*
X234172000Y-110290000D01*
X61062000Y-99160000D02*
X62092000Y-100190000D01*
X131752000Y-105910000D02*
X135824000Y-109982000D01*
X216582000Y-106600000D02*
X220218000Y-110236000D01*
X125432000Y-105910000D02*
X131752000Y-105910000D01*
X167132000Y-109982000D02*
X168910000Y-109982000D01*
X165300000Y-106600000D02*
X165300000Y-108150000D01*
X241862000Y-107630000D02*
X245390000Y-104102000D01*
%TO.N,Net-(D2-Pad1)*%
X120602000Y-97100000D02*
X119470000Y-97100000D01*
X131182000Y-90360000D02*
X127342000Y-90360000D01*
X127342000Y-90360000D02*
X120602000Y-97100000D01*
%TO.N,Net-(R5-Pad2)*%
X112776000Y-99060000D02*
X111732000Y-98016000D01*
X113540000Y-65910000D02*
X113540000Y-69120000D01*
X111732000Y-94714000D02*
X106282000Y-89264000D01*
X113540000Y-69120000D02*
X112230000Y-70430000D01*
X111732000Y-98016000D02*
X111732000Y-94714000D01*
X116090000Y-99060000D02*
X112776000Y-99060000D01*
X118830000Y-101800000D02*
X116090000Y-99060000D01*
X106282000Y-76378000D02*
X112230000Y-70430000D01*
X106282000Y-89264000D02*
X106282000Y-76378000D01*
%TO.N,Net-(SW2-Pad2A)*%
X123890000Y-104240000D02*
X116540000Y-104240000D01*
X126230000Y-101900000D02*
X123890000Y-104240000D01*
X116540000Y-104240000D02*
X114170000Y-101870000D01*
X160000000Y-101900000D02*
X126230000Y-101900000D01*
X114170000Y-101870000D02*
X114170000Y-101800000D01*
%TO.N,Net-(SW2-Pad3A)*%
X158140000Y-99060000D02*
X160000000Y-97200000D01*
X114170000Y-97100000D02*
X115660000Y-97100000D01*
X115660000Y-97100000D02*
X117620000Y-99060000D01*
X117620000Y-99060000D02*
X158140000Y-99060000D01*
%TO.N,Net-(D4-Pad1)*%
X76848000Y-90424000D02*
X70072000Y-97200000D01*
X81193000Y-90424000D02*
X76848000Y-90424000D01*
X70072000Y-97200000D02*
X69770000Y-97200000D01*
X81257000Y-90360000D02*
X81193000Y-90424000D01*
%TO.N,Net-(R6-Pad2)*%
X62057000Y-98335000D02*
X62057000Y-93275000D01*
X62057000Y-93275000D02*
X64862000Y-90470000D01*
X64862000Y-90470000D02*
X69002000Y-90470000D01*
X71642000Y-87830000D02*
X71642000Y-77160000D01*
X69002000Y-90470000D02*
X71642000Y-87830000D01*
X62822000Y-99100000D02*
X62057000Y-98335000D01*
X71642000Y-77160000D02*
X66272000Y-71790000D01*
X60332000Y-66378000D02*
X60332000Y-69838000D01*
X66272000Y-71790000D02*
X62342000Y-71790000D01*
X65840000Y-99100000D02*
X62822000Y-99100000D01*
X60332000Y-69838000D02*
X60200000Y-69970000D01*
X60522000Y-69970000D02*
X60200000Y-69970000D01*
X68640000Y-101900000D02*
X65840000Y-99100000D01*
X61240000Y-65470000D02*
X60332000Y-66378000D01*
X62342000Y-71790000D02*
X60522000Y-69970000D01*
%TO.N,Net-(SW3-Pad2A)*%
X72136000Y-104394000D02*
X66964000Y-104394000D01*
X108870000Y-101800000D02*
X74730000Y-101800000D01*
X74730000Y-101800000D02*
X72136000Y-104394000D01*
X66964000Y-104394000D02*
X64470000Y-101900000D01*
%TO.N,Net-(R9-Pad2)*%
X221292000Y-107046354D02*
X220778354Y-107046354D01*
X196002000Y-104330000D02*
X195902000Y-104230000D01*
X218062000Y-104330000D02*
X196002000Y-104330000D01*
X220778354Y-107046354D02*
X218062000Y-104330000D01*
%TO.N,Net-(R10-Pad2)*%
X177626000Y-106600000D02*
X179832000Y-104394000D01*
X170600000Y-106600000D02*
X177626000Y-106600000D01*
%TO.N,Net-(SW3-Pad3A)*%
X105460000Y-97100000D02*
X108870000Y-97100000D01*
X103500000Y-99060000D02*
X105460000Y-97100000D01*
X65640000Y-97200000D02*
X67500000Y-99060000D01*
X67500000Y-99060000D02*
X103500000Y-99060000D01*
X64470000Y-97200000D02*
X65640000Y-97200000D01*
%TO.N,Net-(SW1-Pad3A)*%
X166570000Y-97200000D02*
X168460000Y-99090000D01*
X209350000Y-99090000D02*
X210745025Y-97694975D01*
X165300000Y-97200000D02*
X166570000Y-97200000D01*
X168460000Y-99090000D02*
X209350000Y-99090000D01*
%TO.N,Net-(R11-Pad2)*%
X119470000Y-106500000D02*
X123172000Y-106500000D01*
X125532000Y-104140000D02*
X129286000Y-104140000D01*
X123172000Y-106500000D02*
X125532000Y-104140000D01*
%TO.N,Net-(R12-Pad2)*%
X76534000Y-106600000D02*
X78994000Y-104140000D01*
X69770000Y-106600000D02*
X76534000Y-106600000D01*
%TO.N,Net-(R13-Pad2)*%
X52242000Y-101900000D02*
X49922000Y-104220000D01*
X59170000Y-101900000D02*
X52242000Y-101900000D01*
%TO.N,Net-(J6-PadT1)*%
X52402000Y-83610000D02*
X49922000Y-86090000D01*
X52402000Y-82750000D02*
X52402000Y-83610000D01*
%TD*%
M02*
