%TF.GenerationSoftware,KiCad,Pcbnew,(6.0.11)*%
%TF.CreationDate,2024-02-23T20:56:01-06:00*%
%TF.ProjectId,StompBox,53746f6d-7042-46f7-982e-6b696361645f,rev?*%
%TF.SameCoordinates,Original*%
%TF.FileFunction,Legend,Bot*%
%TF.FilePolarity,Positive*%
%FSLAX46Y46*%
G04 Gerber Fmt 4.6, Leading zero omitted, Abs format (unit mm)*
G04 Created by KiCad (PCBNEW (6.0.11)) date 2024-02-23 20:56:01*
%MOMM*%
%LPD*%
G01*
G04 APERTURE LIST*
%ADD10C,0.150000*%
G04 APERTURE END LIST*
D10*
X60194619Y-79909523D02*
X59194619Y-79576190D01*
X60194619Y-79242857D01*
X60194619Y-78719047D02*
X60194619Y-78528571D01*
X60147000Y-78433333D01*
X60051761Y-78338095D01*
X59861285Y-78290476D01*
X59527952Y-78290476D01*
X59337476Y-78338095D01*
X59242238Y-78433333D01*
X59194619Y-78528571D01*
X59194619Y-78719047D01*
X59242238Y-78814285D01*
X59337476Y-78909523D01*
X59527952Y-78957142D01*
X59861285Y-78957142D01*
X60051761Y-78909523D01*
X60147000Y-78814285D01*
X60194619Y-78719047D01*
X59194619Y-77385714D02*
X59194619Y-77861904D01*
X60194619Y-77861904D01*
X60194619Y-77052380D02*
X59385095Y-77052380D01*
X59289857Y-77004761D01*
X59242238Y-76957142D01*
X59194619Y-76861904D01*
X59194619Y-76671428D01*
X59242238Y-76576190D01*
X59289857Y-76528571D01*
X59385095Y-76480952D01*
X60194619Y-76480952D01*
X59194619Y-76004761D02*
X60194619Y-76004761D01*
X59480333Y-75671428D01*
X60194619Y-75338095D01*
X59194619Y-75338095D01*
X59718428Y-74861904D02*
X59718428Y-74528571D01*
X59194619Y-74385714D02*
X59194619Y-74861904D01*
X60194619Y-74861904D01*
X60194619Y-74385714D01*
X57584619Y-79028571D02*
X58584619Y-79028571D01*
X57584619Y-78552380D02*
X58584619Y-78552380D01*
X57584619Y-77980952D01*
X58584619Y-77980952D01*
X57584619Y-77504761D02*
X58584619Y-77504761D01*
X58584619Y-77123809D01*
X58537000Y-77028571D01*
X58489380Y-76980952D01*
X58394142Y-76933333D01*
X58251285Y-76933333D01*
X58156047Y-76980952D01*
X58108428Y-77028571D01*
X58060809Y-77123809D01*
X58060809Y-77504761D01*
X58584619Y-76504761D02*
X57775095Y-76504761D01*
X57679857Y-76457142D01*
X57632238Y-76409523D01*
X57584619Y-76314285D01*
X57584619Y-76123809D01*
X57632238Y-76028571D01*
X57679857Y-75980952D01*
X57775095Y-75933333D01*
X58584619Y-75933333D01*
X58584619Y-75600000D02*
X58584619Y-75028571D01*
X57584619Y-75314285D02*
X58584619Y-75314285D01*
X239031761Y-84910000D02*
X239079380Y-85052857D01*
X239079380Y-85290952D01*
X239031761Y-85386190D01*
X238984142Y-85433809D01*
X238888904Y-85481428D01*
X238793666Y-85481428D01*
X238698428Y-85433809D01*
X238650809Y-85386190D01*
X238603190Y-85290952D01*
X238555571Y-85100476D01*
X238507952Y-85005238D01*
X238460333Y-84957619D01*
X238365095Y-84910000D01*
X238269857Y-84910000D01*
X238174619Y-84957619D01*
X238127000Y-85005238D01*
X238079380Y-85100476D01*
X238079380Y-85338571D01*
X238127000Y-85481428D01*
X238555571Y-85910000D02*
X238555571Y-86243333D01*
X239079380Y-86386190D02*
X239079380Y-85910000D01*
X238079380Y-85910000D01*
X238079380Y-86386190D01*
X239079380Y-87290952D02*
X239079380Y-86814761D01*
X238079380Y-86814761D01*
X238555571Y-87624285D02*
X238555571Y-87957619D01*
X239079380Y-88100476D02*
X239079380Y-87624285D01*
X238079380Y-87624285D01*
X238079380Y-88100476D01*
X238984142Y-89100476D02*
X239031761Y-89052857D01*
X239079380Y-88910000D01*
X239079380Y-88814761D01*
X239031761Y-88671904D01*
X238936523Y-88576666D01*
X238841285Y-88529047D01*
X238650809Y-88481428D01*
X238507952Y-88481428D01*
X238317476Y-88529047D01*
X238222238Y-88576666D01*
X238127000Y-88671904D01*
X238079380Y-88814761D01*
X238079380Y-88910000D01*
X238127000Y-89052857D01*
X238174619Y-89100476D01*
X238079380Y-89386190D02*
X238079380Y-89957619D01*
X239079380Y-89671904D02*
X238079380Y-89671904D01*
X238079380Y-90481428D02*
X238079380Y-90671904D01*
X238127000Y-90767142D01*
X238222238Y-90862380D01*
X238412714Y-90910000D01*
X238746047Y-90910000D01*
X238936523Y-90862380D01*
X239031761Y-90767142D01*
X239079380Y-90671904D01*
X239079380Y-90481428D01*
X239031761Y-90386190D01*
X238936523Y-90290952D01*
X238746047Y-90243333D01*
X238412714Y-90243333D01*
X238222238Y-90290952D01*
X238127000Y-90386190D01*
X238079380Y-90481428D01*
X239079380Y-91910000D02*
X238603190Y-91576666D01*
X239079380Y-91338571D02*
X238079380Y-91338571D01*
X238079380Y-91719523D01*
X238127000Y-91814761D01*
X238174619Y-91862380D01*
X238269857Y-91910000D01*
X238412714Y-91910000D01*
X238507952Y-91862380D01*
X238555571Y-91814761D01*
X238603190Y-91719523D01*
X238603190Y-91338571D01*
X240594142Y-85981428D02*
X240641761Y-85933809D01*
X240689380Y-85790952D01*
X240689380Y-85695714D01*
X240641761Y-85552857D01*
X240546523Y-85457619D01*
X240451285Y-85410000D01*
X240260809Y-85362380D01*
X240117952Y-85362380D01*
X239927476Y-85410000D01*
X239832238Y-85457619D01*
X239737000Y-85552857D01*
X239689380Y-85695714D01*
X239689380Y-85790952D01*
X239737000Y-85933809D01*
X239784619Y-85981428D01*
X239689380Y-86600476D02*
X239689380Y-86790952D01*
X239737000Y-86886190D01*
X239832238Y-86981428D01*
X240022714Y-87029047D01*
X240356047Y-87029047D01*
X240546523Y-86981428D01*
X240641761Y-86886190D01*
X240689380Y-86790952D01*
X240689380Y-86600476D01*
X240641761Y-86505238D01*
X240546523Y-86410000D01*
X240356047Y-86362380D01*
X240022714Y-86362380D01*
X239832238Y-86410000D01*
X239737000Y-86505238D01*
X239689380Y-86600476D01*
X240689380Y-87457619D02*
X239689380Y-87457619D01*
X240689380Y-88029047D01*
X239689380Y-88029047D01*
X239689380Y-88362380D02*
X239689380Y-88933809D01*
X240689380Y-88648095D02*
X239689380Y-88648095D01*
X240403666Y-89219523D02*
X240403666Y-89695714D01*
X240689380Y-89124285D02*
X239689380Y-89457619D01*
X240689380Y-89790952D01*
X240594142Y-90695714D02*
X240641761Y-90648095D01*
X240689380Y-90505238D01*
X240689380Y-90410000D01*
X240641761Y-90267142D01*
X240546523Y-90171904D01*
X240451285Y-90124285D01*
X240260809Y-90076666D01*
X240117952Y-90076666D01*
X239927476Y-90124285D01*
X239832238Y-90171904D01*
X239737000Y-90267142D01*
X239689380Y-90410000D01*
X239689380Y-90505238D01*
X239737000Y-90648095D01*
X239784619Y-90695714D01*
X239689380Y-90981428D02*
X239689380Y-91552857D01*
X240689380Y-91267142D02*
X239689380Y-91267142D01*
X248239380Y-72176666D02*
X248239380Y-72843333D01*
X249239380Y-72414761D01*
X248858428Y-73224285D02*
X248858428Y-73986190D01*
X249239380Y-74986190D02*
X249239380Y-74414761D01*
X249239380Y-74700476D02*
X248239380Y-74700476D01*
X248382238Y-74605238D01*
X248477476Y-74510000D01*
X248525095Y-74414761D01*
X248334619Y-75367142D02*
X248287000Y-75414761D01*
X248239380Y-75510000D01*
X248239380Y-75748095D01*
X248287000Y-75843333D01*
X248334619Y-75890952D01*
X248429857Y-75938571D01*
X248525095Y-75938571D01*
X248667952Y-75890952D01*
X249239380Y-75319523D01*
X249239380Y-75938571D01*
X248239380Y-76224285D02*
X249239380Y-76557619D01*
X248239380Y-76890952D01*
X249239380Y-77224285D02*
X248239380Y-77224285D01*
X248239380Y-77462380D01*
X248287000Y-77605238D01*
X248382238Y-77700476D01*
X248477476Y-77748095D01*
X248667952Y-77795714D01*
X248810809Y-77795714D01*
X249001285Y-77748095D01*
X249096523Y-77700476D01*
X249191761Y-77605238D01*
X249239380Y-77462380D01*
X249239380Y-77224285D01*
X249144142Y-78795714D02*
X249191761Y-78748095D01*
X249239380Y-78605238D01*
X249239380Y-78510000D01*
X249191761Y-78367142D01*
X249096523Y-78271904D01*
X249001285Y-78224285D01*
X248810809Y-78176666D01*
X248667952Y-78176666D01*
X248477476Y-78224285D01*
X248382238Y-78271904D01*
X248287000Y-78367142D01*
X248239380Y-78510000D01*
X248239380Y-78605238D01*
X248287000Y-78748095D01*
X248334619Y-78795714D01*
X250849380Y-73867142D02*
X249849380Y-73867142D01*
X249849380Y-74248095D01*
X249897000Y-74343333D01*
X249944619Y-74390952D01*
X250039857Y-74438571D01*
X250182714Y-74438571D01*
X250277952Y-74390952D01*
X250325571Y-74343333D01*
X250373190Y-74248095D01*
X250373190Y-73867142D01*
X250849380Y-74867142D02*
X249849380Y-74867142D01*
X250849380Y-75343333D02*
X249849380Y-75343333D01*
X250849380Y-75914761D01*
X249849380Y-75914761D01*
X250468428Y-76390952D02*
X250468428Y-77152857D01*
X224150095Y-63340000D02*
X224054857Y-63387619D01*
X223912000Y-63387619D01*
X223769142Y-63340000D01*
X223673904Y-63244761D01*
X223626285Y-63149523D01*
X223578666Y-62959047D01*
X223578666Y-62816190D01*
X223626285Y-62625714D01*
X223673904Y-62530476D01*
X223769142Y-62435238D01*
X223912000Y-62387619D01*
X224007238Y-62387619D01*
X224150095Y-62435238D01*
X224197714Y-62482857D01*
X224197714Y-62816190D01*
X224007238Y-62816190D01*
X224626285Y-62387619D02*
X224626285Y-63387619D01*
X225197714Y-62387619D01*
X225197714Y-63387619D01*
X225673904Y-62387619D02*
X225673904Y-63387619D01*
X225912000Y-63387619D01*
X226054857Y-63340000D01*
X226150095Y-63244761D01*
X226197714Y-63149523D01*
X226245333Y-62959047D01*
X226245333Y-62816190D01*
X226197714Y-62625714D01*
X226150095Y-62530476D01*
X226054857Y-62435238D01*
X225912000Y-62387619D01*
X225673904Y-62387619D01*
X238019380Y-97224285D02*
X239019380Y-97557619D01*
X238019380Y-97890952D01*
X238733666Y-98176666D02*
X238733666Y-98652857D01*
X239019380Y-98081428D02*
X238019380Y-98414761D01*
X239019380Y-98748095D01*
X239019380Y-99652857D02*
X238543190Y-99319523D01*
X239019380Y-99081428D02*
X238019380Y-99081428D01*
X238019380Y-99462380D01*
X238067000Y-99557619D01*
X238114619Y-99605238D01*
X238209857Y-99652857D01*
X238352714Y-99652857D01*
X238447952Y-99605238D01*
X238495571Y-99557619D01*
X238543190Y-99462380D01*
X238543190Y-99081428D01*
X239019380Y-100081428D02*
X238019380Y-100081428D01*
X238733666Y-100510000D02*
X238733666Y-100986190D01*
X239019380Y-100414761D02*
X238019380Y-100748095D01*
X239019380Y-101081428D01*
X238495571Y-101748095D02*
X238543190Y-101890952D01*
X238590809Y-101938571D01*
X238686047Y-101986190D01*
X238828904Y-101986190D01*
X238924142Y-101938571D01*
X238971761Y-101890952D01*
X239019380Y-101795714D01*
X239019380Y-101414761D01*
X238019380Y-101414761D01*
X238019380Y-101748095D01*
X238067000Y-101843333D01*
X238114619Y-101890952D01*
X238209857Y-101938571D01*
X238305095Y-101938571D01*
X238400333Y-101890952D01*
X238447952Y-101843333D01*
X238495571Y-101748095D01*
X238495571Y-101414761D01*
X239019380Y-102890952D02*
X239019380Y-102414761D01*
X238019380Y-102414761D01*
X238495571Y-103224285D02*
X238495571Y-103557619D01*
X239019380Y-103700476D02*
X239019380Y-103224285D01*
X238019380Y-103224285D01*
X238019380Y-103700476D01*
X240534142Y-98081428D02*
X240581761Y-98033809D01*
X240629380Y-97890952D01*
X240629380Y-97795714D01*
X240581761Y-97652857D01*
X240486523Y-97557619D01*
X240391285Y-97510000D01*
X240200809Y-97462380D01*
X240057952Y-97462380D01*
X239867476Y-97510000D01*
X239772238Y-97557619D01*
X239677000Y-97652857D01*
X239629380Y-97795714D01*
X239629380Y-97890952D01*
X239677000Y-98033809D01*
X239724619Y-98081428D01*
X239629380Y-98700476D02*
X239629380Y-98890952D01*
X239677000Y-98986190D01*
X239772238Y-99081428D01*
X239962714Y-99129047D01*
X240296047Y-99129047D01*
X240486523Y-99081428D01*
X240581761Y-98986190D01*
X240629380Y-98890952D01*
X240629380Y-98700476D01*
X240581761Y-98605238D01*
X240486523Y-98510000D01*
X240296047Y-98462380D01*
X239962714Y-98462380D01*
X239772238Y-98510000D01*
X239677000Y-98605238D01*
X239629380Y-98700476D01*
X240629380Y-99557619D02*
X239629380Y-99557619D01*
X240629380Y-100129047D01*
X239629380Y-100129047D01*
X239629380Y-100462380D02*
X239629380Y-101033809D01*
X240629380Y-100748095D02*
X239629380Y-100748095D01*
X240343666Y-101319523D02*
X240343666Y-101795714D01*
X240629380Y-101224285D02*
X239629380Y-101557619D01*
X240629380Y-101890952D01*
X240534142Y-102795714D02*
X240581761Y-102748095D01*
X240629380Y-102605238D01*
X240629380Y-102510000D01*
X240581761Y-102367142D01*
X240486523Y-102271904D01*
X240391285Y-102224285D01*
X240200809Y-102176666D01*
X240057952Y-102176666D01*
X239867476Y-102224285D01*
X239772238Y-102271904D01*
X239677000Y-102367142D01*
X239629380Y-102510000D01*
X239629380Y-102605238D01*
X239677000Y-102748095D01*
X239724619Y-102795714D01*
X239629380Y-103081428D02*
X239629380Y-103652857D01*
X240629380Y-103367142D02*
X239629380Y-103367142D01*
X235927238Y-62332380D02*
X235593904Y-63332380D01*
X235260571Y-62332380D01*
X234927238Y-63332380D02*
X234927238Y-62332380D01*
X234451047Y-63332380D02*
X234451047Y-62332380D01*
X233879619Y-63332380D01*
X233879619Y-62332380D01*
X231054857Y-63284761D02*
X230912000Y-63332380D01*
X230673904Y-63332380D01*
X230578666Y-63284761D01*
X230531047Y-63237142D01*
X230483428Y-63141904D01*
X230483428Y-63046666D01*
X230531047Y-62951428D01*
X230578666Y-62903809D01*
X230673904Y-62856190D01*
X230864380Y-62808571D01*
X230959619Y-62760952D01*
X231007238Y-62713333D01*
X231054857Y-62618095D01*
X231054857Y-62522857D01*
X231007238Y-62427619D01*
X230959619Y-62380000D01*
X230864380Y-62332380D01*
X230626285Y-62332380D01*
X230483428Y-62380000D01*
X230054857Y-62808571D02*
X229721523Y-62808571D01*
X229578666Y-63332380D02*
X230054857Y-63332380D01*
X230054857Y-62332380D01*
X229578666Y-62332380D01*
X228673904Y-63332380D02*
X229150095Y-63332380D01*
X229150095Y-62332380D01*
M02*
