%TF.GenerationSoftware,KiCad,Pcbnew,(6.0.11)*%
%TF.CreationDate,2024-02-23T20:56:01-06:00*%
%TF.ProjectId,StompBox,53746f6d-7042-46f7-982e-6b696361645f,rev?*%
%TF.SameCoordinates,Original*%
%TF.FileFunction,Legend,Top*%
%TF.FilePolarity,Positive*%
%FSLAX46Y46*%
G04 Gerber Fmt 4.6, Leading zero omitted, Abs format (unit mm)*
G04 Created by KiCad (PCBNEW (6.0.11)) date 2024-02-23 20:56:01*
%MOMM*%
%LPD*%
G01*
G04 APERTURE LIST*
%ADD10C,0.150000*%
%ADD11C,0.120000*%
%ADD12C,0.100000*%
G04 APERTURE END LIST*
D10*
X210796285Y-90622380D02*
X210796285Y-89622380D01*
X211367714Y-90622380D01*
X211367714Y-89622380D01*
X212415333Y-90527142D02*
X212367714Y-90574761D01*
X212224857Y-90622380D01*
X212129619Y-90622380D01*
X211986761Y-90574761D01*
X211891523Y-90479523D01*
X211843904Y-90384285D01*
X211796285Y-90193809D01*
X211796285Y-90050952D01*
X211843904Y-89860476D01*
X211891523Y-89765238D01*
X211986761Y-89670000D01*
X212129619Y-89622380D01*
X212224857Y-89622380D01*
X212367714Y-89670000D01*
X212415333Y-89717619D01*
X68532476Y-90622380D02*
X68532476Y-89622380D01*
X69103904Y-90622380D01*
X69103904Y-89622380D01*
X69770571Y-89622380D02*
X69961047Y-89622380D01*
X70056285Y-89670000D01*
X70151523Y-89765238D01*
X70199142Y-89955714D01*
X70199142Y-90289047D01*
X70151523Y-90479523D01*
X70056285Y-90574761D01*
X69961047Y-90622380D01*
X69770571Y-90622380D01*
X69675333Y-90574761D01*
X69580095Y-90479523D01*
X69532476Y-90289047D01*
X69532476Y-89955714D01*
X69580095Y-89765238D01*
X69675333Y-89670000D01*
X69770571Y-89622380D01*
X236007238Y-63307619D02*
X235673904Y-62307619D01*
X235340571Y-63307619D01*
X235007238Y-62307619D02*
X235007238Y-63307619D01*
X234531047Y-62307619D02*
X234531047Y-63307619D01*
X233959619Y-62307619D01*
X233959619Y-63307619D01*
X231034857Y-62355238D02*
X230892000Y-62307619D01*
X230653904Y-62307619D01*
X230558666Y-62355238D01*
X230511047Y-62402857D01*
X230463428Y-62498095D01*
X230463428Y-62593333D01*
X230511047Y-62688571D01*
X230558666Y-62736190D01*
X230653904Y-62783809D01*
X230844380Y-62831428D01*
X230939619Y-62879047D01*
X230987238Y-62926666D01*
X231034857Y-63021904D01*
X231034857Y-63117142D01*
X230987238Y-63212380D01*
X230939619Y-63260000D01*
X230844380Y-63307619D01*
X230606285Y-63307619D01*
X230463428Y-63260000D01*
X230034857Y-62831428D02*
X229701523Y-62831428D01*
X229558666Y-62307619D02*
X230034857Y-62307619D01*
X230034857Y-63307619D01*
X229558666Y-63307619D01*
X228653904Y-62307619D02*
X229130095Y-62307619D01*
X229130095Y-63307619D01*
X58396285Y-90622380D02*
X58396285Y-89622380D01*
X58967714Y-90622380D01*
X58967714Y-89622380D01*
X60015333Y-90527142D02*
X59967714Y-90574761D01*
X59824857Y-90622380D01*
X59729619Y-90622380D01*
X59586761Y-90574761D01*
X59491523Y-90479523D01*
X59443904Y-90384285D01*
X59396285Y-90193809D01*
X59396285Y-90050952D01*
X59443904Y-89860476D01*
X59491523Y-89765238D01*
X59586761Y-89670000D01*
X59729619Y-89622380D01*
X59824857Y-89622380D01*
X59967714Y-89670000D01*
X60015333Y-89717619D01*
X205120952Y-69032380D02*
X205311428Y-69032380D01*
X205406666Y-68984761D01*
X205454285Y-68937142D01*
X205549523Y-68794285D01*
X205597142Y-68603809D01*
X205597142Y-68222857D01*
X205549523Y-68127619D01*
X205501904Y-68080000D01*
X205406666Y-68032380D01*
X205216190Y-68032380D01*
X205120952Y-68080000D01*
X205073333Y-68127619D01*
X205025714Y-68222857D01*
X205025714Y-68460952D01*
X205073333Y-68556190D01*
X205120952Y-68603809D01*
X205216190Y-68651428D01*
X205406666Y-68651428D01*
X205501904Y-68603809D01*
X205549523Y-68556190D01*
X205597142Y-68460952D01*
X205882857Y-68032380D02*
X206216190Y-69032380D01*
X206549523Y-68032380D01*
X170132476Y-90622380D02*
X170132476Y-89622380D01*
X170703904Y-90622380D01*
X170703904Y-89622380D01*
X171370571Y-89622380D02*
X171561047Y-89622380D01*
X171656285Y-89670000D01*
X171751523Y-89765238D01*
X171799142Y-89955714D01*
X171799142Y-90289047D01*
X171751523Y-90479523D01*
X171656285Y-90574761D01*
X171561047Y-90622380D01*
X171370571Y-90622380D01*
X171275333Y-90574761D01*
X171180095Y-90479523D01*
X171132476Y-90289047D01*
X171132476Y-89955714D01*
X171180095Y-89765238D01*
X171275333Y-89670000D01*
X171370571Y-89622380D01*
X158726285Y-90622380D02*
X158726285Y-89622380D01*
X159297714Y-90622380D01*
X159297714Y-89622380D01*
X160345333Y-90527142D02*
X160297714Y-90574761D01*
X160154857Y-90622380D01*
X160059619Y-90622380D01*
X159916761Y-90574761D01*
X159821523Y-90479523D01*
X159773904Y-90384285D01*
X159726285Y-90193809D01*
X159726285Y-90050952D01*
X159773904Y-89860476D01*
X159821523Y-89765238D01*
X159916761Y-89670000D01*
X160059619Y-89622380D01*
X160154857Y-89622380D01*
X160297714Y-89670000D01*
X160345333Y-89717619D01*
X118062476Y-90622380D02*
X118062476Y-89622380D01*
X118633904Y-90622380D01*
X118633904Y-89622380D01*
X119300571Y-89622380D02*
X119491047Y-89622380D01*
X119586285Y-89670000D01*
X119681523Y-89765238D01*
X119729142Y-89955714D01*
X119729142Y-90289047D01*
X119681523Y-90479523D01*
X119586285Y-90574761D01*
X119491047Y-90622380D01*
X119300571Y-90622380D01*
X119205333Y-90574761D01*
X119110095Y-90479523D01*
X119062476Y-90289047D01*
X119062476Y-89955714D01*
X119110095Y-89765238D01*
X119205333Y-89670000D01*
X119300571Y-89622380D01*
X230158666Y-70507380D02*
X230825333Y-70507380D01*
X230396761Y-71507380D01*
X231206285Y-71126428D02*
X231968190Y-71126428D01*
X232968190Y-71507380D02*
X232396761Y-71507380D01*
X232682476Y-71507380D02*
X232682476Y-70507380D01*
X232587238Y-70650238D01*
X232492000Y-70745476D01*
X232396761Y-70793095D01*
X233349142Y-70602619D02*
X233396761Y-70555000D01*
X233492000Y-70507380D01*
X233730095Y-70507380D01*
X233825333Y-70555000D01*
X233872952Y-70602619D01*
X233920571Y-70697857D01*
X233920571Y-70793095D01*
X233872952Y-70935952D01*
X233301523Y-71507380D01*
X233920571Y-71507380D01*
X234206285Y-70507380D02*
X234539619Y-71507380D01*
X234872952Y-70507380D01*
X235206285Y-71507380D02*
X235206285Y-70507380D01*
X235444380Y-70507380D01*
X235587238Y-70555000D01*
X235682476Y-70650238D01*
X235730095Y-70745476D01*
X235777714Y-70935952D01*
X235777714Y-71078809D01*
X235730095Y-71269285D01*
X235682476Y-71364523D01*
X235587238Y-71459761D01*
X235444380Y-71507380D01*
X235206285Y-71507380D01*
X236777714Y-71412142D02*
X236730095Y-71459761D01*
X236587238Y-71507380D01*
X236492000Y-71507380D01*
X236349142Y-71459761D01*
X236253904Y-71364523D01*
X236206285Y-71269285D01*
X236158666Y-71078809D01*
X236158666Y-70935952D01*
X236206285Y-70745476D01*
X236253904Y-70650238D01*
X236349142Y-70555000D01*
X236492000Y-70507380D01*
X236587238Y-70507380D01*
X236730095Y-70555000D01*
X236777714Y-70602619D01*
X231849142Y-73117380D02*
X231849142Y-72117380D01*
X232230095Y-72117380D01*
X232325333Y-72165000D01*
X232372952Y-72212619D01*
X232420571Y-72307857D01*
X232420571Y-72450714D01*
X232372952Y-72545952D01*
X232325333Y-72593571D01*
X232230095Y-72641190D01*
X231849142Y-72641190D01*
X232849142Y-73117380D02*
X232849142Y-72117380D01*
X233325333Y-73117380D02*
X233325333Y-72117380D01*
X233896761Y-73117380D01*
X233896761Y-72117380D01*
X234372952Y-72736428D02*
X235134857Y-72736428D01*
X202184095Y-68080000D02*
X202088857Y-68032380D01*
X201946000Y-68032380D01*
X201803142Y-68080000D01*
X201707904Y-68175238D01*
X201660285Y-68270476D01*
X201612666Y-68460952D01*
X201612666Y-68603809D01*
X201660285Y-68794285D01*
X201707904Y-68889523D01*
X201803142Y-68984761D01*
X201946000Y-69032380D01*
X202041238Y-69032380D01*
X202184095Y-68984761D01*
X202231714Y-68937142D01*
X202231714Y-68603809D01*
X202041238Y-68603809D01*
X202660285Y-69032380D02*
X202660285Y-68032380D01*
X203231714Y-69032380D01*
X203231714Y-68032380D01*
X203707904Y-69032380D02*
X203707904Y-68032380D01*
X203946000Y-68032380D01*
X204088857Y-68080000D01*
X204184095Y-68175238D01*
X204231714Y-68270476D01*
X204279333Y-68460952D01*
X204279333Y-68603809D01*
X204231714Y-68794285D01*
X204184095Y-68889523D01*
X204088857Y-68984761D01*
X203946000Y-69032380D01*
X203707904Y-69032380D01*
X225683904Y-63260000D02*
X225779142Y-63307619D01*
X225922000Y-63307619D01*
X226064857Y-63260000D01*
X226160095Y-63164761D01*
X226207714Y-63069523D01*
X226255333Y-62879047D01*
X226255333Y-62736190D01*
X226207714Y-62545714D01*
X226160095Y-62450476D01*
X226064857Y-62355238D01*
X225922000Y-62307619D01*
X225826761Y-62307619D01*
X225683904Y-62355238D01*
X225636285Y-62402857D01*
X225636285Y-62736190D01*
X225826761Y-62736190D01*
X225207714Y-62307619D02*
X225207714Y-63307619D01*
X224636285Y-62307619D01*
X224636285Y-63307619D01*
X224160095Y-62307619D02*
X224160095Y-63307619D01*
X223922000Y-63307619D01*
X223779142Y-63260000D01*
X223683904Y-63164761D01*
X223636285Y-63069523D01*
X223588666Y-62879047D01*
X223588666Y-62736190D01*
X223636285Y-62545714D01*
X223683904Y-62450476D01*
X223779142Y-62355238D01*
X223922000Y-62307619D01*
X224160095Y-62307619D01*
X188282000Y-73244761D02*
X188424857Y-73292380D01*
X188662952Y-73292380D01*
X188758190Y-73244761D01*
X188805809Y-73197142D01*
X188853428Y-73101904D01*
X188853428Y-73006666D01*
X188805809Y-72911428D01*
X188758190Y-72863809D01*
X188662952Y-72816190D01*
X188472476Y-72768571D01*
X188377238Y-72720952D01*
X188329619Y-72673333D01*
X188282000Y-72578095D01*
X188282000Y-72482857D01*
X188329619Y-72387619D01*
X188377238Y-72340000D01*
X188472476Y-72292380D01*
X188710571Y-72292380D01*
X188853428Y-72340000D01*
X189139142Y-72292380D02*
X189710571Y-72292380D01*
X189424857Y-73292380D02*
X189424857Y-72292380D01*
X190234380Y-72292380D02*
X190424857Y-72292380D01*
X190520095Y-72340000D01*
X190615333Y-72435238D01*
X190662952Y-72625714D01*
X190662952Y-72959047D01*
X190615333Y-73149523D01*
X190520095Y-73244761D01*
X190424857Y-73292380D01*
X190234380Y-73292380D01*
X190139142Y-73244761D01*
X190043904Y-73149523D01*
X189996285Y-72959047D01*
X189996285Y-72625714D01*
X190043904Y-72435238D01*
X190139142Y-72340000D01*
X190234380Y-72292380D01*
X191091523Y-73292380D02*
X191091523Y-72292380D01*
X191424857Y-73006666D01*
X191758190Y-72292380D01*
X191758190Y-73292380D01*
X192234380Y-73292380D02*
X192234380Y-72292380D01*
X192615333Y-72292380D01*
X192710571Y-72340000D01*
X192758190Y-72387619D01*
X192805809Y-72482857D01*
X192805809Y-72625714D01*
X192758190Y-72720952D01*
X192710571Y-72768571D01*
X192615333Y-72816190D01*
X192234380Y-72816190D01*
X193996285Y-73292380D02*
X193996285Y-72292380D01*
X194377238Y-72292380D01*
X194472476Y-72340000D01*
X194520095Y-72387619D01*
X194567714Y-72482857D01*
X194567714Y-72625714D01*
X194520095Y-72720952D01*
X194472476Y-72768571D01*
X194377238Y-72816190D01*
X193996285Y-72816190D01*
X194996285Y-72768571D02*
X195329619Y-72768571D01*
X195472476Y-73292380D02*
X194996285Y-73292380D01*
X194996285Y-72292380D01*
X195472476Y-72292380D01*
X195901047Y-73292380D02*
X195901047Y-72292380D01*
X196139142Y-72292380D01*
X196282000Y-72340000D01*
X196377238Y-72435238D01*
X196424857Y-72530476D01*
X196472476Y-72720952D01*
X196472476Y-72863809D01*
X196424857Y-73054285D01*
X196377238Y-73149523D01*
X196282000Y-73244761D01*
X196139142Y-73292380D01*
X195901047Y-73292380D01*
X196853428Y-73006666D02*
X197329619Y-73006666D01*
X196758190Y-73292380D02*
X197091523Y-72292380D01*
X197424857Y-73292380D01*
X198234380Y-73292380D02*
X197758190Y-73292380D01*
X197758190Y-72292380D01*
X199282000Y-73244761D02*
X199424857Y-73292380D01*
X199662952Y-73292380D01*
X199758190Y-73244761D01*
X199805809Y-73197142D01*
X199853428Y-73101904D01*
X199853428Y-73006666D01*
X199805809Y-72911428D01*
X199758190Y-72863809D01*
X199662952Y-72816190D01*
X199472476Y-72768571D01*
X199377238Y-72720952D01*
X199329619Y-72673333D01*
X199282000Y-72578095D01*
X199282000Y-72482857D01*
X199329619Y-72387619D01*
X199377238Y-72340000D01*
X199472476Y-72292380D01*
X199710571Y-72292380D01*
X199853428Y-72340000D01*
X200282000Y-72768571D02*
X200615333Y-72768571D01*
X200758190Y-73292380D02*
X200282000Y-73292380D01*
X200282000Y-72292380D01*
X200758190Y-72292380D01*
X201662952Y-73292380D02*
X201186761Y-73292380D01*
X201186761Y-72292380D01*
X201996285Y-72768571D02*
X202329619Y-72768571D01*
X202472476Y-73292380D02*
X201996285Y-73292380D01*
X201996285Y-72292380D01*
X202472476Y-72292380D01*
X203472476Y-73197142D02*
X203424857Y-73244761D01*
X203282000Y-73292380D01*
X203186761Y-73292380D01*
X203043904Y-73244761D01*
X202948666Y-73149523D01*
X202901047Y-73054285D01*
X202853428Y-72863809D01*
X202853428Y-72720952D01*
X202901047Y-72530476D01*
X202948666Y-72435238D01*
X203043904Y-72340000D01*
X203186761Y-72292380D01*
X203282000Y-72292380D01*
X203424857Y-72340000D01*
X203472476Y-72387619D01*
X203758190Y-72292380D02*
X204329619Y-72292380D01*
X204043904Y-73292380D02*
X204043904Y-72292380D01*
X204853428Y-72292380D02*
X205043904Y-72292380D01*
X205139142Y-72340000D01*
X205234380Y-72435238D01*
X205282000Y-72625714D01*
X205282000Y-72959047D01*
X205234380Y-73149523D01*
X205139142Y-73244761D01*
X205043904Y-73292380D01*
X204853428Y-73292380D01*
X204758190Y-73244761D01*
X204662952Y-73149523D01*
X204615333Y-72959047D01*
X204615333Y-72625714D01*
X204662952Y-72435238D01*
X204758190Y-72340000D01*
X204853428Y-72292380D01*
X206282000Y-73292380D02*
X205948666Y-72816190D01*
X205710571Y-73292380D02*
X205710571Y-72292380D01*
X206091523Y-72292380D01*
X206186761Y-72340000D01*
X206234380Y-72387619D01*
X206282000Y-72482857D01*
X206282000Y-72625714D01*
X206234380Y-72720952D01*
X206186761Y-72768571D01*
X206091523Y-72816190D01*
X205710571Y-72816190D01*
X191305809Y-74378571D02*
X190972476Y-74378571D01*
X190972476Y-74902380D02*
X190972476Y-73902380D01*
X191448666Y-73902380D01*
X192020095Y-73902380D02*
X192210571Y-73902380D01*
X192305809Y-73950000D01*
X192401047Y-74045238D01*
X192448666Y-74235714D01*
X192448666Y-74569047D01*
X192401047Y-74759523D01*
X192305809Y-74854761D01*
X192210571Y-74902380D01*
X192020095Y-74902380D01*
X191924857Y-74854761D01*
X191829619Y-74759523D01*
X191782000Y-74569047D01*
X191782000Y-74235714D01*
X191829619Y-74045238D01*
X191924857Y-73950000D01*
X192020095Y-73902380D01*
X193448666Y-74902380D02*
X193115333Y-74426190D01*
X192877238Y-74902380D02*
X192877238Y-73902380D01*
X193258190Y-73902380D01*
X193353428Y-73950000D01*
X193401047Y-73997619D01*
X193448666Y-74092857D01*
X193448666Y-74235714D01*
X193401047Y-74330952D01*
X193353428Y-74378571D01*
X193258190Y-74426190D01*
X192877238Y-74426190D01*
X195162952Y-73950000D02*
X195067714Y-73902380D01*
X194924857Y-73902380D01*
X194782000Y-73950000D01*
X194686761Y-74045238D01*
X194639142Y-74140476D01*
X194591523Y-74330952D01*
X194591523Y-74473809D01*
X194639142Y-74664285D01*
X194686761Y-74759523D01*
X194782000Y-74854761D01*
X194924857Y-74902380D01*
X195020095Y-74902380D01*
X195162952Y-74854761D01*
X195210571Y-74807142D01*
X195210571Y-74473809D01*
X195020095Y-74473809D01*
X195639142Y-73902380D02*
X195639142Y-74711904D01*
X195686761Y-74807142D01*
X195734380Y-74854761D01*
X195829619Y-74902380D01*
X196020095Y-74902380D01*
X196115333Y-74854761D01*
X196162952Y-74807142D01*
X196210571Y-74711904D01*
X196210571Y-73902380D01*
X196686761Y-74902380D02*
X196686761Y-73902380D01*
X197020095Y-73902380D02*
X197591523Y-73902380D01*
X197305809Y-74902380D02*
X197305809Y-73902380D01*
X197877238Y-74616666D02*
X198353428Y-74616666D01*
X197782000Y-74902380D02*
X198115333Y-73902380D01*
X198448666Y-74902380D01*
X199353428Y-74902380D02*
X199020095Y-74426190D01*
X198782000Y-74902380D02*
X198782000Y-73902380D01*
X199162952Y-73902380D01*
X199258190Y-73950000D01*
X199305809Y-73997619D01*
X199353428Y-74092857D01*
X199353428Y-74235714D01*
X199305809Y-74330952D01*
X199258190Y-74378571D01*
X199162952Y-74426190D01*
X198782000Y-74426190D01*
X200543904Y-74902380D02*
X200543904Y-73902380D01*
X200924857Y-73902380D01*
X201020095Y-73950000D01*
X201067714Y-73997619D01*
X201115333Y-74092857D01*
X201115333Y-74235714D01*
X201067714Y-74330952D01*
X201020095Y-74378571D01*
X200924857Y-74426190D01*
X200543904Y-74426190D01*
X201543904Y-74902380D02*
X201543904Y-73902380D01*
X202591523Y-74807142D02*
X202543904Y-74854761D01*
X202401047Y-74902380D01*
X202305809Y-74902380D01*
X202162952Y-74854761D01*
X202067714Y-74759523D01*
X202020095Y-74664285D01*
X201972476Y-74473809D01*
X201972476Y-74330952D01*
X202020095Y-74140476D01*
X202067714Y-74045238D01*
X202162952Y-73950000D01*
X202305809Y-73902380D01*
X202401047Y-73902380D01*
X202543904Y-73950000D01*
X202591523Y-73997619D01*
X203210571Y-73902380D02*
X203401047Y-73902380D01*
X203496285Y-73950000D01*
X203591523Y-74045238D01*
X203639142Y-74235714D01*
X203639142Y-74569047D01*
X203591523Y-74759523D01*
X203496285Y-74854761D01*
X203401047Y-74902380D01*
X203210571Y-74902380D01*
X203115333Y-74854761D01*
X203020095Y-74759523D01*
X202972476Y-74569047D01*
X202972476Y-74235714D01*
X203020095Y-74045238D01*
X203115333Y-73950000D01*
X203210571Y-73902380D01*
X191139142Y-75988571D02*
X191282000Y-76036190D01*
X191329619Y-76083809D01*
X191377238Y-76179047D01*
X191377238Y-76321904D01*
X191329619Y-76417142D01*
X191282000Y-76464761D01*
X191186761Y-76512380D01*
X190805809Y-76512380D01*
X190805809Y-75512380D01*
X191139142Y-75512380D01*
X191234380Y-75560000D01*
X191282000Y-75607619D01*
X191329619Y-75702857D01*
X191329619Y-75798095D01*
X191282000Y-75893333D01*
X191234380Y-75940952D01*
X191139142Y-75988571D01*
X190805809Y-75988571D01*
X191996285Y-76036190D02*
X191996285Y-76512380D01*
X191662952Y-75512380D02*
X191996285Y-76036190D01*
X192329619Y-75512380D01*
X193424857Y-76512380D02*
X193424857Y-75512380D01*
X193662952Y-75512380D01*
X193805809Y-75560000D01*
X193901047Y-75655238D01*
X193948666Y-75750476D01*
X193996285Y-75940952D01*
X193996285Y-76083809D01*
X193948666Y-76274285D01*
X193901047Y-76369523D01*
X193805809Y-76464761D01*
X193662952Y-76512380D01*
X193424857Y-76512380D01*
X194377238Y-76226666D02*
X194853428Y-76226666D01*
X194282000Y-76512380D02*
X194615333Y-75512380D01*
X194948666Y-76512380D01*
X195282000Y-76512380D02*
X195282000Y-75512380D01*
X195853428Y-76512380D01*
X195853428Y-75512380D01*
X196329619Y-76512380D02*
X196329619Y-75512380D01*
X196805809Y-75988571D02*
X197139142Y-75988571D01*
X197282000Y-76512380D02*
X196805809Y-76512380D01*
X196805809Y-75512380D01*
X197282000Y-75512380D01*
X198186761Y-76512380D02*
X197710571Y-76512380D01*
X197710571Y-75512380D01*
X199282000Y-76512380D02*
X199282000Y-75512380D01*
X199615333Y-76226666D01*
X199948666Y-75512380D01*
X199948666Y-76512380D01*
X200377238Y-76226666D02*
X200853428Y-76226666D01*
X200282000Y-76512380D02*
X200615333Y-75512380D01*
X200948666Y-76512380D01*
X201853428Y-76512380D02*
X201520095Y-76036190D01*
X201282000Y-76512380D02*
X201282000Y-75512380D01*
X201662952Y-75512380D01*
X201758190Y-75560000D01*
X201805809Y-75607619D01*
X201853428Y-75702857D01*
X201853428Y-75845714D01*
X201805809Y-75940952D01*
X201758190Y-75988571D01*
X201662952Y-76036190D01*
X201282000Y-76036190D01*
X202282000Y-76512380D02*
X202282000Y-75512380D01*
X202853428Y-76512380D02*
X202424857Y-75940952D01*
X202853428Y-75512380D02*
X202282000Y-76083809D01*
X203234380Y-76464761D02*
X203377238Y-76512380D01*
X203615333Y-76512380D01*
X203710571Y-76464761D01*
X203758190Y-76417142D01*
X203805809Y-76321904D01*
X203805809Y-76226666D01*
X203758190Y-76131428D01*
X203710571Y-76083809D01*
X203615333Y-76036190D01*
X203424857Y-75988571D01*
X203329619Y-75940952D01*
X203282000Y-75893333D01*
X203234380Y-75798095D01*
X203234380Y-75702857D01*
X203282000Y-75607619D01*
X203329619Y-75560000D01*
X203424857Y-75512380D01*
X203662952Y-75512380D01*
X203805809Y-75560000D01*
X193377238Y-77122380D02*
X193710571Y-78122380D01*
X194043904Y-77122380D01*
X194377238Y-77598571D02*
X194710571Y-77598571D01*
X194853428Y-78122380D02*
X194377238Y-78122380D01*
X194377238Y-77122380D01*
X194853428Y-77122380D01*
X195853428Y-78122380D02*
X195520095Y-77646190D01*
X195282000Y-78122380D02*
X195282000Y-77122380D01*
X195662952Y-77122380D01*
X195758190Y-77170000D01*
X195805809Y-77217619D01*
X195853428Y-77312857D01*
X195853428Y-77455714D01*
X195805809Y-77550952D01*
X195758190Y-77598571D01*
X195662952Y-77646190D01*
X195282000Y-77646190D01*
X196234380Y-78074761D02*
X196377238Y-78122380D01*
X196615333Y-78122380D01*
X196710571Y-78074761D01*
X196758190Y-78027142D01*
X196805809Y-77931904D01*
X196805809Y-77836666D01*
X196758190Y-77741428D01*
X196710571Y-77693809D01*
X196615333Y-77646190D01*
X196424857Y-77598571D01*
X196329619Y-77550952D01*
X196282000Y-77503333D01*
X196234380Y-77408095D01*
X196234380Y-77312857D01*
X196282000Y-77217619D01*
X196329619Y-77170000D01*
X196424857Y-77122380D01*
X196662952Y-77122380D01*
X196805809Y-77170000D01*
X197234380Y-78122380D02*
X197234380Y-77122380D01*
X197901047Y-77122380D02*
X198091523Y-77122380D01*
X198186761Y-77170000D01*
X198282000Y-77265238D01*
X198329619Y-77455714D01*
X198329619Y-77789047D01*
X198282000Y-77979523D01*
X198186761Y-78074761D01*
X198091523Y-78122380D01*
X197901047Y-78122380D01*
X197805809Y-78074761D01*
X197710571Y-77979523D01*
X197662952Y-77789047D01*
X197662952Y-77455714D01*
X197710571Y-77265238D01*
X197805809Y-77170000D01*
X197901047Y-77122380D01*
X198758190Y-78122380D02*
X198758190Y-77122380D01*
X199329619Y-78122380D01*
X199329619Y-77122380D01*
X201091523Y-78122380D02*
X200520095Y-78122380D01*
X200805809Y-78122380D02*
X200805809Y-77122380D01*
X200710571Y-77265238D01*
X200615333Y-77360476D01*
X200520095Y-77408095D01*
X192448666Y-79637142D02*
X192401047Y-79684761D01*
X192258190Y-79732380D01*
X192162952Y-79732380D01*
X192020095Y-79684761D01*
X191924857Y-79589523D01*
X191877238Y-79494285D01*
X191829619Y-79303809D01*
X191829619Y-79160952D01*
X191877238Y-78970476D01*
X191924857Y-78875238D01*
X192020095Y-78780000D01*
X192162952Y-78732380D01*
X192258190Y-78732380D01*
X192401047Y-78780000D01*
X192448666Y-78827619D01*
X193448666Y-79637142D02*
X193401047Y-79684761D01*
X193258190Y-79732380D01*
X193162952Y-79732380D01*
X193020095Y-79684761D01*
X192924857Y-79589523D01*
X192877238Y-79494285D01*
X192829619Y-79303809D01*
X192829619Y-79160952D01*
X192877238Y-78970476D01*
X192924857Y-78875238D01*
X193020095Y-78780000D01*
X193162952Y-78732380D01*
X193258190Y-78732380D01*
X193401047Y-78780000D01*
X193448666Y-78827619D01*
X193877238Y-79351428D02*
X194639142Y-79351428D01*
X195448666Y-79208571D02*
X195591523Y-79256190D01*
X195639142Y-79303809D01*
X195686761Y-79399047D01*
X195686761Y-79541904D01*
X195639142Y-79637142D01*
X195591523Y-79684761D01*
X195496285Y-79732380D01*
X195115333Y-79732380D01*
X195115333Y-78732380D01*
X195448666Y-78732380D01*
X195543904Y-78780000D01*
X195591523Y-78827619D01*
X195639142Y-78922857D01*
X195639142Y-79018095D01*
X195591523Y-79113333D01*
X195543904Y-79160952D01*
X195448666Y-79208571D01*
X195115333Y-79208571D01*
X196305809Y-79256190D02*
X196305809Y-79732380D01*
X195972476Y-78732380D02*
X196305809Y-79256190D01*
X196639142Y-78732380D01*
X196972476Y-79351428D02*
X197734380Y-79351428D01*
X198162952Y-79684761D02*
X198305809Y-79732380D01*
X198543904Y-79732380D01*
X198639142Y-79684761D01*
X198686761Y-79637142D01*
X198734380Y-79541904D01*
X198734380Y-79446666D01*
X198686761Y-79351428D01*
X198639142Y-79303809D01*
X198543904Y-79256190D01*
X198353428Y-79208571D01*
X198258190Y-79160952D01*
X198210571Y-79113333D01*
X198162952Y-79018095D01*
X198162952Y-78922857D01*
X198210571Y-78827619D01*
X198258190Y-78780000D01*
X198353428Y-78732380D01*
X198591523Y-78732380D01*
X198734380Y-78780000D01*
X199115333Y-79446666D02*
X199591523Y-79446666D01*
X199020095Y-79732380D02*
X199353428Y-78732380D01*
X199686761Y-79732380D01*
X201210571Y-79065714D02*
X201210571Y-79732380D01*
X200972476Y-78684761D02*
X200734380Y-79399047D01*
X201353428Y-79399047D01*
X201734380Y-79637142D02*
X201782000Y-79684761D01*
X201734380Y-79732380D01*
X201686761Y-79684761D01*
X201734380Y-79637142D01*
X201734380Y-79732380D01*
X202401047Y-78732380D02*
X202496285Y-78732380D01*
X202591523Y-78780000D01*
X202639142Y-78827619D01*
X202686761Y-78922857D01*
X202734380Y-79113333D01*
X202734380Y-79351428D01*
X202686761Y-79541904D01*
X202639142Y-79637142D01*
X202591523Y-79684761D01*
X202496285Y-79732380D01*
X202401047Y-79732380D01*
X202305809Y-79684761D01*
X202258190Y-79637142D01*
X202210571Y-79541904D01*
X202162952Y-79351428D01*
X202162952Y-79113333D01*
X202210571Y-78922857D01*
X202258190Y-78827619D01*
X202305809Y-78780000D01*
X202401047Y-78732380D01*
X107926285Y-90622380D02*
X107926285Y-89622380D01*
X108497714Y-90622380D01*
X108497714Y-89622380D01*
X109545333Y-90527142D02*
X109497714Y-90574761D01*
X109354857Y-90622380D01*
X109259619Y-90622380D01*
X109116761Y-90574761D01*
X109021523Y-90479523D01*
X108973904Y-90384285D01*
X108926285Y-90193809D01*
X108926285Y-90050952D01*
X108973904Y-89860476D01*
X109021523Y-89765238D01*
X109116761Y-89670000D01*
X109259619Y-89622380D01*
X109354857Y-89622380D01*
X109497714Y-89670000D01*
X109545333Y-89717619D01*
X220932476Y-90622380D02*
X220932476Y-89622380D01*
X221503904Y-90622380D01*
X221503904Y-89622380D01*
X222170571Y-89622380D02*
X222361047Y-89622380D01*
X222456285Y-89670000D01*
X222551523Y-89765238D01*
X222599142Y-89955714D01*
X222599142Y-90289047D01*
X222551523Y-90479523D01*
X222456285Y-90574761D01*
X222361047Y-90622380D01*
X222170571Y-90622380D01*
X222075333Y-90574761D01*
X221980095Y-90479523D01*
X221932476Y-90289047D01*
X221932476Y-89955714D01*
X221980095Y-89765238D01*
X222075333Y-89670000D01*
X222170571Y-89622380D01*
%TO.C,JP2*%
X240212666Y-66762380D02*
X240212666Y-67476666D01*
X240165047Y-67619523D01*
X240069809Y-67714761D01*
X239926952Y-67762380D01*
X239831714Y-67762380D01*
X240688857Y-67762380D02*
X240688857Y-66762380D01*
X241069809Y-66762380D01*
X241165047Y-66810000D01*
X241212666Y-66857619D01*
X241260285Y-66952857D01*
X241260285Y-67095714D01*
X241212666Y-67190952D01*
X241165047Y-67238571D01*
X241069809Y-67286190D01*
X240688857Y-67286190D01*
X241641238Y-66857619D02*
X241688857Y-66810000D01*
X241784095Y-66762380D01*
X242022190Y-66762380D01*
X242117428Y-66810000D01*
X242165047Y-66857619D01*
X242212666Y-66952857D01*
X242212666Y-67048095D01*
X242165047Y-67190952D01*
X241593619Y-67762380D01*
X242212666Y-67762380D01*
%TO.C,R1*%
X227455333Y-84018380D02*
X227122000Y-83542190D01*
X226883904Y-84018380D02*
X226883904Y-83018380D01*
X227264857Y-83018380D01*
X227360095Y-83066000D01*
X227407714Y-83113619D01*
X227455333Y-83208857D01*
X227455333Y-83351714D01*
X227407714Y-83446952D01*
X227360095Y-83494571D01*
X227264857Y-83542190D01*
X226883904Y-83542190D01*
X228407714Y-84018380D02*
X227836285Y-84018380D01*
X228122000Y-84018380D02*
X228122000Y-83018380D01*
X228026761Y-83161238D01*
X227931523Y-83256476D01*
X227836285Y-83304095D01*
%TO.C,R10*%
X180284380Y-101226857D02*
X179808190Y-101560190D01*
X180284380Y-101798285D02*
X179284380Y-101798285D01*
X179284380Y-101417333D01*
X179332000Y-101322095D01*
X179379619Y-101274476D01*
X179474857Y-101226857D01*
X179617714Y-101226857D01*
X179712952Y-101274476D01*
X179760571Y-101322095D01*
X179808190Y-101417333D01*
X179808190Y-101798285D01*
X180284380Y-100274476D02*
X180284380Y-100845904D01*
X180284380Y-100560190D02*
X179284380Y-100560190D01*
X179427238Y-100655428D01*
X179522476Y-100750666D01*
X179570095Y-100845904D01*
X179284380Y-99655428D02*
X179284380Y-99560190D01*
X179332000Y-99464952D01*
X179379619Y-99417333D01*
X179474857Y-99369714D01*
X179665333Y-99322095D01*
X179903428Y-99322095D01*
X180093904Y-99369714D01*
X180189142Y-99417333D01*
X180236761Y-99464952D01*
X180284380Y-99560190D01*
X180284380Y-99655428D01*
X180236761Y-99750666D01*
X180189142Y-99798285D01*
X180093904Y-99845904D01*
X179903428Y-99893523D01*
X179665333Y-99893523D01*
X179474857Y-99845904D01*
X179379619Y-99798285D01*
X179332000Y-99750666D01*
X179284380Y-99655428D01*
%TO.C,RV3*%
X122532380Y-66455238D02*
X122056190Y-66788571D01*
X122532380Y-67026666D02*
X121532380Y-67026666D01*
X121532380Y-66645714D01*
X121580000Y-66550476D01*
X121627619Y-66502857D01*
X121722857Y-66455238D01*
X121865714Y-66455238D01*
X121960952Y-66502857D01*
X122008571Y-66550476D01*
X122056190Y-66645714D01*
X122056190Y-67026666D01*
X121532380Y-66169523D02*
X122532380Y-65836190D01*
X121532380Y-65502857D01*
X121532380Y-65264761D02*
X121532380Y-64645714D01*
X121913333Y-64979047D01*
X121913333Y-64836190D01*
X121960952Y-64740952D01*
X122008571Y-64693333D01*
X122103809Y-64645714D01*
X122341904Y-64645714D01*
X122437142Y-64693333D01*
X122484761Y-64740952D01*
X122532380Y-64836190D01*
X122532380Y-65121904D01*
X122484761Y-65217142D01*
X122437142Y-65264761D01*
%TO.C,J1*%
X246282380Y-87193333D02*
X246996666Y-87193333D01*
X247139523Y-87240952D01*
X247234761Y-87336190D01*
X247282380Y-87479047D01*
X247282380Y-87574285D01*
X247282380Y-86193333D02*
X247282380Y-86764761D01*
X247282380Y-86479047D02*
X246282380Y-86479047D01*
X246425238Y-86574285D01*
X246520476Y-86669523D01*
X246568095Y-86764761D01*
%TO.C,D3*%
X182433904Y-94342380D02*
X182433904Y-93342380D01*
X182672000Y-93342380D01*
X182814857Y-93390000D01*
X182910095Y-93485238D01*
X182957714Y-93580476D01*
X183005333Y-93770952D01*
X183005333Y-93913809D01*
X182957714Y-94104285D01*
X182910095Y-94199523D01*
X182814857Y-94294761D01*
X182672000Y-94342380D01*
X182433904Y-94342380D01*
X183338666Y-93342380D02*
X183957714Y-93342380D01*
X183624380Y-93723333D01*
X183767238Y-93723333D01*
X183862476Y-93770952D01*
X183910095Y-93818571D01*
X183957714Y-93913809D01*
X183957714Y-94151904D01*
X183910095Y-94247142D01*
X183862476Y-94294761D01*
X183767238Y-94342380D01*
X183481523Y-94342380D01*
X183386285Y-94294761D01*
X183338666Y-94247142D01*
%TO.C,J6*%
X50554380Y-78283333D02*
X51268666Y-78283333D01*
X51411523Y-78330952D01*
X51506761Y-78426190D01*
X51554380Y-78569047D01*
X51554380Y-78664285D01*
X50554380Y-77378571D02*
X50554380Y-77569047D01*
X50602000Y-77664285D01*
X50649619Y-77711904D01*
X50792476Y-77807142D01*
X50982952Y-77854761D01*
X51363904Y-77854761D01*
X51459142Y-77807142D01*
X51506761Y-77759523D01*
X51554380Y-77664285D01*
X51554380Y-77473809D01*
X51506761Y-77378571D01*
X51459142Y-77330952D01*
X51363904Y-77283333D01*
X51125809Y-77283333D01*
X51030571Y-77330952D01*
X50982952Y-77378571D01*
X50935333Y-77473809D01*
X50935333Y-77664285D01*
X50982952Y-77759523D01*
X51030571Y-77807142D01*
X51125809Y-77854761D01*
%TO.C,J3*%
X227828666Y-70342380D02*
X227828666Y-71056666D01*
X227781047Y-71199523D01*
X227685809Y-71294761D01*
X227542952Y-71342380D01*
X227447714Y-71342380D01*
X228209619Y-70342380D02*
X228828666Y-70342380D01*
X228495333Y-70723333D01*
X228638190Y-70723333D01*
X228733428Y-70770952D01*
X228781047Y-70818571D01*
X228828666Y-70913809D01*
X228828666Y-71151904D01*
X228781047Y-71247142D01*
X228733428Y-71294761D01*
X228638190Y-71342380D01*
X228352476Y-71342380D01*
X228257238Y-71294761D01*
X228209619Y-71247142D01*
%TO.C,R3*%
X212805333Y-73422380D02*
X212472000Y-72946190D01*
X212233904Y-73422380D02*
X212233904Y-72422380D01*
X212614857Y-72422380D01*
X212710095Y-72470000D01*
X212757714Y-72517619D01*
X212805333Y-72612857D01*
X212805333Y-72755714D01*
X212757714Y-72850952D01*
X212710095Y-72898571D01*
X212614857Y-72946190D01*
X212233904Y-72946190D01*
X213138666Y-72422380D02*
X213757714Y-72422380D01*
X213424380Y-72803333D01*
X213567238Y-72803333D01*
X213662476Y-72850952D01*
X213710095Y-72898571D01*
X213757714Y-72993809D01*
X213757714Y-73231904D01*
X213710095Y-73327142D01*
X213662476Y-73374761D01*
X213567238Y-73422380D01*
X213281523Y-73422380D01*
X213186285Y-73374761D01*
X213138666Y-73327142D01*
%TO.C,SW4*%
X62928666Y-104798761D02*
X63071523Y-104846380D01*
X63309619Y-104846380D01*
X63404857Y-104798761D01*
X63452476Y-104751142D01*
X63500095Y-104655904D01*
X63500095Y-104560666D01*
X63452476Y-104465428D01*
X63404857Y-104417809D01*
X63309619Y-104370190D01*
X63119142Y-104322571D01*
X63023904Y-104274952D01*
X62976285Y-104227333D01*
X62928666Y-104132095D01*
X62928666Y-104036857D01*
X62976285Y-103941619D01*
X63023904Y-103894000D01*
X63119142Y-103846380D01*
X63357238Y-103846380D01*
X63500095Y-103894000D01*
X63833428Y-103846380D02*
X64071523Y-104846380D01*
X64262000Y-104132095D01*
X64452476Y-104846380D01*
X64690571Y-103846380D01*
X65500095Y-104179714D02*
X65500095Y-104846380D01*
X65262000Y-103798761D02*
X65023904Y-104513047D01*
X65642952Y-104513047D01*
%TO.C,R8*%
X227905333Y-80332380D02*
X227572000Y-79856190D01*
X227333904Y-80332380D02*
X227333904Y-79332380D01*
X227714857Y-79332380D01*
X227810095Y-79380000D01*
X227857714Y-79427619D01*
X227905333Y-79522857D01*
X227905333Y-79665714D01*
X227857714Y-79760952D01*
X227810095Y-79808571D01*
X227714857Y-79856190D01*
X227333904Y-79856190D01*
X228476761Y-79760952D02*
X228381523Y-79713333D01*
X228333904Y-79665714D01*
X228286285Y-79570476D01*
X228286285Y-79522857D01*
X228333904Y-79427619D01*
X228381523Y-79380000D01*
X228476761Y-79332380D01*
X228667238Y-79332380D01*
X228762476Y-79380000D01*
X228810095Y-79427619D01*
X228857714Y-79522857D01*
X228857714Y-79570476D01*
X228810095Y-79665714D01*
X228762476Y-79713333D01*
X228667238Y-79760952D01*
X228476761Y-79760952D01*
X228381523Y-79808571D01*
X228333904Y-79856190D01*
X228286285Y-79951428D01*
X228286285Y-80141904D01*
X228333904Y-80237142D01*
X228381523Y-80284761D01*
X228476761Y-80332380D01*
X228667238Y-80332380D01*
X228762476Y-80284761D01*
X228810095Y-80237142D01*
X228857714Y-80141904D01*
X228857714Y-79951428D01*
X228810095Y-79856190D01*
X228762476Y-79808571D01*
X228667238Y-79760952D01*
%TO.C,RV1*%
X219536380Y-65365238D02*
X219060190Y-65698571D01*
X219536380Y-65936666D02*
X218536380Y-65936666D01*
X218536380Y-65555714D01*
X218584000Y-65460476D01*
X218631619Y-65412857D01*
X218726857Y-65365238D01*
X218869714Y-65365238D01*
X218964952Y-65412857D01*
X219012571Y-65460476D01*
X219060190Y-65555714D01*
X219060190Y-65936666D01*
X218536380Y-65079523D02*
X219536380Y-64746190D01*
X218536380Y-64412857D01*
X219536380Y-63555714D02*
X219536380Y-64127142D01*
X219536380Y-63841428D02*
X218536380Y-63841428D01*
X218679238Y-63936666D01*
X218774476Y-64031904D01*
X218822095Y-64127142D01*
%TO.C,J2*%
X246426666Y-68982380D02*
X246426666Y-69696666D01*
X246379047Y-69839523D01*
X246283809Y-69934761D01*
X246140952Y-69982380D01*
X246045714Y-69982380D01*
X246855238Y-69077619D02*
X246902857Y-69030000D01*
X246998095Y-68982380D01*
X247236190Y-68982380D01*
X247331428Y-69030000D01*
X247379047Y-69077619D01*
X247426666Y-69172857D01*
X247426666Y-69268095D01*
X247379047Y-69410952D01*
X246807619Y-69982380D01*
X247426666Y-69982380D01*
%TO.C,SW2*%
X163518666Y-104644761D02*
X163661523Y-104692380D01*
X163899619Y-104692380D01*
X163994857Y-104644761D01*
X164042476Y-104597142D01*
X164090095Y-104501904D01*
X164090095Y-104406666D01*
X164042476Y-104311428D01*
X163994857Y-104263809D01*
X163899619Y-104216190D01*
X163709142Y-104168571D01*
X163613904Y-104120952D01*
X163566285Y-104073333D01*
X163518666Y-103978095D01*
X163518666Y-103882857D01*
X163566285Y-103787619D01*
X163613904Y-103740000D01*
X163709142Y-103692380D01*
X163947238Y-103692380D01*
X164090095Y-103740000D01*
X164423428Y-103692380D02*
X164661523Y-104692380D01*
X164852000Y-103978095D01*
X165042476Y-104692380D01*
X165280571Y-103692380D01*
X165613904Y-103787619D02*
X165661523Y-103740000D01*
X165756761Y-103692380D01*
X165994857Y-103692380D01*
X166090095Y-103740000D01*
X166137714Y-103787619D01*
X166185333Y-103882857D01*
X166185333Y-103978095D01*
X166137714Y-104120952D01*
X165566285Y-104692380D01*
X166185333Y-104692380D01*
%TO.C,R13*%
X50374380Y-101052857D02*
X49898190Y-101386190D01*
X50374380Y-101624285D02*
X49374380Y-101624285D01*
X49374380Y-101243333D01*
X49422000Y-101148095D01*
X49469619Y-101100476D01*
X49564857Y-101052857D01*
X49707714Y-101052857D01*
X49802952Y-101100476D01*
X49850571Y-101148095D01*
X49898190Y-101243333D01*
X49898190Y-101624285D01*
X50374380Y-100100476D02*
X50374380Y-100671904D01*
X50374380Y-100386190D02*
X49374380Y-100386190D01*
X49517238Y-100481428D01*
X49612476Y-100576666D01*
X49660095Y-100671904D01*
X49374380Y-99767142D02*
X49374380Y-99148095D01*
X49755333Y-99481428D01*
X49755333Y-99338571D01*
X49802952Y-99243333D01*
X49850571Y-99195714D01*
X49945809Y-99148095D01*
X50183904Y-99148095D01*
X50279142Y-99195714D01*
X50326761Y-99243333D01*
X50374380Y-99338571D01*
X50374380Y-99624285D01*
X50326761Y-99719523D01*
X50279142Y-99767142D01*
%TO.C,R11*%
X129738380Y-100972857D02*
X129262190Y-101306190D01*
X129738380Y-101544285D02*
X128738380Y-101544285D01*
X128738380Y-101163333D01*
X128786000Y-101068095D01*
X128833619Y-101020476D01*
X128928857Y-100972857D01*
X129071714Y-100972857D01*
X129166952Y-101020476D01*
X129214571Y-101068095D01*
X129262190Y-101163333D01*
X129262190Y-101544285D01*
X129738380Y-100020476D02*
X129738380Y-100591904D01*
X129738380Y-100306190D02*
X128738380Y-100306190D01*
X128881238Y-100401428D01*
X128976476Y-100496666D01*
X129024095Y-100591904D01*
X129738380Y-99068095D02*
X129738380Y-99639523D01*
X129738380Y-99353809D02*
X128738380Y-99353809D01*
X128881238Y-99449047D01*
X128976476Y-99544285D01*
X129024095Y-99639523D01*
%TO.C,JP1*%
X234398666Y-76872380D02*
X234398666Y-77586666D01*
X234351047Y-77729523D01*
X234255809Y-77824761D01*
X234112952Y-77872380D01*
X234017714Y-77872380D01*
X234874857Y-77872380D02*
X234874857Y-76872380D01*
X235255809Y-76872380D01*
X235351047Y-76920000D01*
X235398666Y-76967619D01*
X235446285Y-77062857D01*
X235446285Y-77205714D01*
X235398666Y-77300952D01*
X235351047Y-77348571D01*
X235255809Y-77396190D01*
X234874857Y-77396190D01*
X236398666Y-77872380D02*
X235827238Y-77872380D01*
X236112952Y-77872380D02*
X236112952Y-76872380D01*
X236017714Y-77015238D01*
X235922476Y-77110476D01*
X235827238Y-77158095D01*
%TO.C,J4*%
X246142380Y-100033333D02*
X246856666Y-100033333D01*
X246999523Y-100080952D01*
X247094761Y-100176190D01*
X247142380Y-100319047D01*
X247142380Y-100414285D01*
X246475714Y-99128571D02*
X247142380Y-99128571D01*
X246094761Y-99366666D02*
X246809047Y-99604761D01*
X246809047Y-98985714D01*
%TO.C,RV2*%
X172922380Y-66535238D02*
X172446190Y-66868571D01*
X172922380Y-67106666D02*
X171922380Y-67106666D01*
X171922380Y-66725714D01*
X171970000Y-66630476D01*
X172017619Y-66582857D01*
X172112857Y-66535238D01*
X172255714Y-66535238D01*
X172350952Y-66582857D01*
X172398571Y-66630476D01*
X172446190Y-66725714D01*
X172446190Y-67106666D01*
X171922380Y-66249523D02*
X172922380Y-65916190D01*
X171922380Y-65582857D01*
X172017619Y-65297142D02*
X171970000Y-65249523D01*
X171922380Y-65154285D01*
X171922380Y-64916190D01*
X171970000Y-64820952D01*
X172017619Y-64773333D01*
X172112857Y-64725714D01*
X172208095Y-64725714D01*
X172350952Y-64773333D01*
X172922380Y-65344761D01*
X172922380Y-64725714D01*
%TO.C,D2*%
X131753904Y-94982380D02*
X131753904Y-93982380D01*
X131992000Y-93982380D01*
X132134857Y-94030000D01*
X132230095Y-94125238D01*
X132277714Y-94220476D01*
X132325333Y-94410952D01*
X132325333Y-94553809D01*
X132277714Y-94744285D01*
X132230095Y-94839523D01*
X132134857Y-94934761D01*
X131992000Y-94982380D01*
X131753904Y-94982380D01*
X132706285Y-94077619D02*
X132753904Y-94030000D01*
X132849142Y-93982380D01*
X133087238Y-93982380D01*
X133182476Y-94030000D01*
X133230095Y-94077619D01*
X133277714Y-94172857D01*
X133277714Y-94268095D01*
X133230095Y-94410952D01*
X132658666Y-94982380D01*
X133277714Y-94982380D01*
%TO.C,R9*%
X196354380Y-100586666D02*
X195878190Y-100920000D01*
X196354380Y-101158095D02*
X195354380Y-101158095D01*
X195354380Y-100777142D01*
X195402000Y-100681904D01*
X195449619Y-100634285D01*
X195544857Y-100586666D01*
X195687714Y-100586666D01*
X195782952Y-100634285D01*
X195830571Y-100681904D01*
X195878190Y-100777142D01*
X195878190Y-101158095D01*
X196354380Y-100110476D02*
X196354380Y-99920000D01*
X196306761Y-99824761D01*
X196259142Y-99777142D01*
X196116285Y-99681904D01*
X195925809Y-99634285D01*
X195544857Y-99634285D01*
X195449619Y-99681904D01*
X195402000Y-99729523D01*
X195354380Y-99824761D01*
X195354380Y-100015238D01*
X195402000Y-100110476D01*
X195449619Y-100158095D01*
X195544857Y-100205714D01*
X195782952Y-100205714D01*
X195878190Y-100158095D01*
X195925809Y-100110476D01*
X195973428Y-100015238D01*
X195973428Y-99824761D01*
X195925809Y-99729523D01*
X195878190Y-99681904D01*
X195782952Y-99634285D01*
%TO.C,C1*%
X225899142Y-74176666D02*
X225946761Y-74224285D01*
X225994380Y-74367142D01*
X225994380Y-74462380D01*
X225946761Y-74605238D01*
X225851523Y-74700476D01*
X225756285Y-74748095D01*
X225565809Y-74795714D01*
X225422952Y-74795714D01*
X225232476Y-74748095D01*
X225137238Y-74700476D01*
X225042000Y-74605238D01*
X224994380Y-74462380D01*
X224994380Y-74367142D01*
X225042000Y-74224285D01*
X225089619Y-74176666D01*
X225994380Y-73224285D02*
X225994380Y-73795714D01*
X225994380Y-73510000D02*
X224994380Y-73510000D01*
X225137238Y-73605238D01*
X225232476Y-73700476D01*
X225280095Y-73795714D01*
%TO.C,R5*%
X115873333Y-70882380D02*
X115540000Y-70406190D01*
X115301904Y-70882380D02*
X115301904Y-69882380D01*
X115682857Y-69882380D01*
X115778095Y-69930000D01*
X115825714Y-69977619D01*
X115873333Y-70072857D01*
X115873333Y-70215714D01*
X115825714Y-70310952D01*
X115778095Y-70358571D01*
X115682857Y-70406190D01*
X115301904Y-70406190D01*
X116778095Y-69882380D02*
X116301904Y-69882380D01*
X116254285Y-70358571D01*
X116301904Y-70310952D01*
X116397142Y-70263333D01*
X116635238Y-70263333D01*
X116730476Y-70310952D01*
X116778095Y-70358571D01*
X116825714Y-70453809D01*
X116825714Y-70691904D01*
X116778095Y-70787142D01*
X116730476Y-70834761D01*
X116635238Y-70882380D01*
X116397142Y-70882380D01*
X116301904Y-70834761D01*
X116254285Y-70787142D01*
%TO.C,D1*%
X232179904Y-94254380D02*
X232179904Y-93254380D01*
X232418000Y-93254380D01*
X232560857Y-93302000D01*
X232656095Y-93397238D01*
X232703714Y-93492476D01*
X232751333Y-93682952D01*
X232751333Y-93825809D01*
X232703714Y-94016285D01*
X232656095Y-94111523D01*
X232560857Y-94206761D01*
X232418000Y-94254380D01*
X232179904Y-94254380D01*
X233703714Y-94254380D02*
X233132285Y-94254380D01*
X233418000Y-94254380D02*
X233418000Y-93254380D01*
X233322761Y-93397238D01*
X233227523Y-93492476D01*
X233132285Y-93540095D01*
%TO.C,SW1*%
X215328666Y-104651115D02*
X215471523Y-104698734D01*
X215709619Y-104698734D01*
X215804857Y-104651115D01*
X215852476Y-104603496D01*
X215900095Y-104508258D01*
X215900095Y-104413020D01*
X215852476Y-104317782D01*
X215804857Y-104270163D01*
X215709619Y-104222544D01*
X215519142Y-104174925D01*
X215423904Y-104127306D01*
X215376285Y-104079687D01*
X215328666Y-103984449D01*
X215328666Y-103889211D01*
X215376285Y-103793973D01*
X215423904Y-103746354D01*
X215519142Y-103698734D01*
X215757238Y-103698734D01*
X215900095Y-103746354D01*
X216233428Y-103698734D02*
X216471523Y-104698734D01*
X216662000Y-103984449D01*
X216852476Y-104698734D01*
X217090571Y-103698734D01*
X217995333Y-104698734D02*
X217423904Y-104698734D01*
X217709619Y-104698734D02*
X217709619Y-103698734D01*
X217614380Y-103841592D01*
X217519142Y-103936830D01*
X217423904Y-103984449D01*
%TO.C,SW3*%
X112458666Y-104604761D02*
X112601523Y-104652380D01*
X112839619Y-104652380D01*
X112934857Y-104604761D01*
X112982476Y-104557142D01*
X113030095Y-104461904D01*
X113030095Y-104366666D01*
X112982476Y-104271428D01*
X112934857Y-104223809D01*
X112839619Y-104176190D01*
X112649142Y-104128571D01*
X112553904Y-104080952D01*
X112506285Y-104033333D01*
X112458666Y-103938095D01*
X112458666Y-103842857D01*
X112506285Y-103747619D01*
X112553904Y-103700000D01*
X112649142Y-103652380D01*
X112887238Y-103652380D01*
X113030095Y-103700000D01*
X113363428Y-103652380D02*
X113601523Y-104652380D01*
X113792000Y-103938095D01*
X113982476Y-104652380D01*
X114220571Y-103652380D01*
X114506285Y-103652380D02*
X115125333Y-103652380D01*
X114792000Y-104033333D01*
X114934857Y-104033333D01*
X115030095Y-104080952D01*
X115077714Y-104128571D01*
X115125333Y-104223809D01*
X115125333Y-104461904D01*
X115077714Y-104557142D01*
X115030095Y-104604761D01*
X114934857Y-104652380D01*
X114649142Y-104652380D01*
X114553904Y-104604761D01*
X114506285Y-104557142D01*
%TO.C,R6*%
X63843333Y-70422380D02*
X63510000Y-69946190D01*
X63271904Y-70422380D02*
X63271904Y-69422380D01*
X63652857Y-69422380D01*
X63748095Y-69470000D01*
X63795714Y-69517619D01*
X63843333Y-69612857D01*
X63843333Y-69755714D01*
X63795714Y-69850952D01*
X63748095Y-69898571D01*
X63652857Y-69946190D01*
X63271904Y-69946190D01*
X64700476Y-69422380D02*
X64510000Y-69422380D01*
X64414761Y-69470000D01*
X64367142Y-69517619D01*
X64271904Y-69660476D01*
X64224285Y-69850952D01*
X64224285Y-70231904D01*
X64271904Y-70327142D01*
X64319523Y-70374761D01*
X64414761Y-70422380D01*
X64605238Y-70422380D01*
X64700476Y-70374761D01*
X64748095Y-70327142D01*
X64795714Y-70231904D01*
X64795714Y-69993809D01*
X64748095Y-69898571D01*
X64700476Y-69850952D01*
X64605238Y-69803333D01*
X64414761Y-69803333D01*
X64319523Y-69850952D01*
X64271904Y-69898571D01*
X64224285Y-69993809D01*
%TO.C,J5*%
X205064380Y-66119333D02*
X205778666Y-66119333D01*
X205921523Y-66166952D01*
X206016761Y-66262190D01*
X206064380Y-66405047D01*
X206064380Y-66500285D01*
X205064380Y-65166952D02*
X205064380Y-65643142D01*
X205540571Y-65690761D01*
X205492952Y-65643142D01*
X205445333Y-65547904D01*
X205445333Y-65309809D01*
X205492952Y-65214571D01*
X205540571Y-65166952D01*
X205635809Y-65119333D01*
X205873904Y-65119333D01*
X205969142Y-65166952D01*
X206016761Y-65214571D01*
X206064380Y-65309809D01*
X206064380Y-65547904D01*
X206016761Y-65643142D01*
X205969142Y-65690761D01*
%TO.C,D4*%
X81788904Y-94992380D02*
X81788904Y-93992380D01*
X82027000Y-93992380D01*
X82169857Y-94040000D01*
X82265095Y-94135238D01*
X82312714Y-94230476D01*
X82360333Y-94420952D01*
X82360333Y-94563809D01*
X82312714Y-94754285D01*
X82265095Y-94849523D01*
X82169857Y-94944761D01*
X82027000Y-94992380D01*
X81788904Y-94992380D01*
X83217476Y-94325714D02*
X83217476Y-94992380D01*
X82979380Y-93944761D02*
X82741285Y-94659047D01*
X83360333Y-94659047D01*
%TO.C,C2*%
X230845333Y-75477142D02*
X230797714Y-75524761D01*
X230654857Y-75572380D01*
X230559619Y-75572380D01*
X230416761Y-75524761D01*
X230321523Y-75429523D01*
X230273904Y-75334285D01*
X230226285Y-75143809D01*
X230226285Y-75000952D01*
X230273904Y-74810476D01*
X230321523Y-74715238D01*
X230416761Y-74620000D01*
X230559619Y-74572380D01*
X230654857Y-74572380D01*
X230797714Y-74620000D01*
X230845333Y-74667619D01*
X231226285Y-74667619D02*
X231273904Y-74620000D01*
X231369142Y-74572380D01*
X231607238Y-74572380D01*
X231702476Y-74620000D01*
X231750095Y-74667619D01*
X231797714Y-74762857D01*
X231797714Y-74858095D01*
X231750095Y-75000952D01*
X231178666Y-75572380D01*
X231797714Y-75572380D01*
%TO.C,C3*%
X240585333Y-111227142D02*
X240537714Y-111274761D01*
X240394857Y-111322380D01*
X240299619Y-111322380D01*
X240156761Y-111274761D01*
X240061523Y-111179523D01*
X240013904Y-111084285D01*
X239966285Y-110893809D01*
X239966285Y-110750952D01*
X240013904Y-110560476D01*
X240061523Y-110465238D01*
X240156761Y-110370000D01*
X240299619Y-110322380D01*
X240394857Y-110322380D01*
X240537714Y-110370000D01*
X240585333Y-110417619D01*
X240918666Y-110322380D02*
X241537714Y-110322380D01*
X241204380Y-110703333D01*
X241347238Y-110703333D01*
X241442476Y-110750952D01*
X241490095Y-110798571D01*
X241537714Y-110893809D01*
X241537714Y-111131904D01*
X241490095Y-111227142D01*
X241442476Y-111274761D01*
X241347238Y-111322380D01*
X241061523Y-111322380D01*
X240966285Y-111274761D01*
X240918666Y-111227142D01*
%TO.C,R2*%
X212805333Y-70012380D02*
X212472000Y-69536190D01*
X212233904Y-70012380D02*
X212233904Y-69012380D01*
X212614857Y-69012380D01*
X212710095Y-69060000D01*
X212757714Y-69107619D01*
X212805333Y-69202857D01*
X212805333Y-69345714D01*
X212757714Y-69440952D01*
X212710095Y-69488571D01*
X212614857Y-69536190D01*
X212233904Y-69536190D01*
X213186285Y-69107619D02*
X213233904Y-69060000D01*
X213329142Y-69012380D01*
X213567238Y-69012380D01*
X213662476Y-69060000D01*
X213710095Y-69107619D01*
X213757714Y-69202857D01*
X213757714Y-69298095D01*
X213710095Y-69440952D01*
X213138666Y-70012380D01*
X213757714Y-70012380D01*
%TO.C,R12*%
X79446380Y-100972857D02*
X78970190Y-101306190D01*
X79446380Y-101544285D02*
X78446380Y-101544285D01*
X78446380Y-101163333D01*
X78494000Y-101068095D01*
X78541619Y-101020476D01*
X78636857Y-100972857D01*
X78779714Y-100972857D01*
X78874952Y-101020476D01*
X78922571Y-101068095D01*
X78970190Y-101163333D01*
X78970190Y-101544285D01*
X79446380Y-100020476D02*
X79446380Y-100591904D01*
X79446380Y-100306190D02*
X78446380Y-100306190D01*
X78589238Y-100401428D01*
X78684476Y-100496666D01*
X78732095Y-100591904D01*
X78541619Y-99639523D02*
X78494000Y-99591904D01*
X78446380Y-99496666D01*
X78446380Y-99258571D01*
X78494000Y-99163333D01*
X78541619Y-99115714D01*
X78636857Y-99068095D01*
X78732095Y-99068095D01*
X78874952Y-99115714D01*
X79446380Y-99687142D01*
X79446380Y-99068095D01*
%TO.C,R4*%
X166223333Y-70932380D02*
X165890000Y-70456190D01*
X165651904Y-70932380D02*
X165651904Y-69932380D01*
X166032857Y-69932380D01*
X166128095Y-69980000D01*
X166175714Y-70027619D01*
X166223333Y-70122857D01*
X166223333Y-70265714D01*
X166175714Y-70360952D01*
X166128095Y-70408571D01*
X166032857Y-70456190D01*
X165651904Y-70456190D01*
X167080476Y-70265714D02*
X167080476Y-70932380D01*
X166842380Y-69884761D02*
X166604285Y-70599047D01*
X167223333Y-70599047D01*
%TO.C,RV4*%
X70192380Y-66105238D02*
X69716190Y-66438571D01*
X70192380Y-66676666D02*
X69192380Y-66676666D01*
X69192380Y-66295714D01*
X69240000Y-66200476D01*
X69287619Y-66152857D01*
X69382857Y-66105238D01*
X69525714Y-66105238D01*
X69620952Y-66152857D01*
X69668571Y-66200476D01*
X69716190Y-66295714D01*
X69716190Y-66676666D01*
X69192380Y-65819523D02*
X70192380Y-65486190D01*
X69192380Y-65152857D01*
X69525714Y-64390952D02*
X70192380Y-64390952D01*
X69144761Y-64629047D02*
X69859047Y-64867142D01*
X69859047Y-64248095D01*
%TO.C,R14*%
X50374380Y-90512857D02*
X49898190Y-90846190D01*
X50374380Y-91084285D02*
X49374380Y-91084285D01*
X49374380Y-90703333D01*
X49422000Y-90608095D01*
X49469619Y-90560476D01*
X49564857Y-90512857D01*
X49707714Y-90512857D01*
X49802952Y-90560476D01*
X49850571Y-90608095D01*
X49898190Y-90703333D01*
X49898190Y-91084285D01*
X50374380Y-89560476D02*
X50374380Y-90131904D01*
X50374380Y-89846190D02*
X49374380Y-89846190D01*
X49517238Y-89941428D01*
X49612476Y-90036666D01*
X49660095Y-90131904D01*
X49707714Y-88703333D02*
X50374380Y-88703333D01*
X49326761Y-88941428D02*
X50041047Y-89179523D01*
X50041047Y-88560476D01*
%TO.C,R7*%
X240475333Y-108082380D02*
X240142000Y-107606190D01*
X239903904Y-108082380D02*
X239903904Y-107082380D01*
X240284857Y-107082380D01*
X240380095Y-107130000D01*
X240427714Y-107177619D01*
X240475333Y-107272857D01*
X240475333Y-107415714D01*
X240427714Y-107510952D01*
X240380095Y-107558571D01*
X240284857Y-107606190D01*
X239903904Y-107606190D01*
X240808666Y-107082380D02*
X241475333Y-107082380D01*
X241046761Y-108082380D01*
D11*
%TO.C,JP2*%
X241295000Y-65846000D02*
X243895000Y-65846000D01*
X240025000Y-65846000D02*
X238695000Y-65846000D01*
X241295000Y-63186000D02*
X243895000Y-63186000D01*
X243895000Y-65846000D02*
X243895000Y-63186000D01*
X241295000Y-65846000D02*
X241295000Y-63186000D01*
X238695000Y-65846000D02*
X238695000Y-64516000D01*
%TO.C,R1*%
X230892000Y-82526000D02*
X230892000Y-82196000D01*
X224352000Y-84936000D02*
X224352000Y-84606000D01*
X230892000Y-84936000D02*
X224352000Y-84936000D01*
X230892000Y-82196000D02*
X224352000Y-82196000D01*
X230892000Y-84606000D02*
X230892000Y-84936000D01*
X224352000Y-82196000D02*
X224352000Y-82526000D01*
%TO.C,R10*%
X178792000Y-97314000D02*
X178462000Y-97314000D01*
X181202000Y-97314000D02*
X181202000Y-103854000D01*
X178462000Y-103854000D02*
X178792000Y-103854000D01*
X180872000Y-97314000D02*
X181202000Y-97314000D01*
X181202000Y-103854000D02*
X180872000Y-103854000D01*
X178462000Y-97314000D02*
X178462000Y-103854000D01*
%TO.C,RV3*%
X111195000Y-68450000D02*
X120965000Y-68450000D01*
X111195000Y-63380000D02*
X120965000Y-63380000D01*
X111195000Y-63380000D02*
X111195000Y-68450000D01*
X120965000Y-63380000D02*
X120965000Y-68450000D01*
D12*
%TO.C,J1*%
X237430000Y-92860000D02*
X251630000Y-92860000D01*
X251630000Y-80860000D02*
X237430000Y-80860000D01*
X255230000Y-90460000D02*
X251630000Y-90460000D01*
X251630000Y-86860000D02*
X251630000Y-80860000D01*
X251830000Y-83260000D02*
X255230000Y-83260000D01*
X237430000Y-80860000D02*
X237430000Y-92860000D01*
X255230000Y-83260000D02*
X255230000Y-90460000D01*
X251630000Y-92860000D02*
X251630000Y-86860000D01*
D11*
%TO.C,D3*%
X180592000Y-88165000D02*
X180592000Y-91255000D01*
X186142000Y-89710462D02*
G75*
G03*
X180592000Y-88165170I-2990000J462D01*
G01*
X180592000Y-91254830D02*
G75*
G03*
X186142000Y-89709538I2560000J1544830D01*
G01*
X185652000Y-89710000D02*
G75*
G03*
X185652000Y-89710000I-2500000J0D01*
G01*
D12*
%TO.C,J6*%
X60502000Y-83950000D02*
X60502000Y-71950000D01*
X60502000Y-71950000D02*
X46302000Y-71950000D01*
X42702000Y-81550000D02*
X42702000Y-74350000D01*
X46302000Y-83950000D02*
X60502000Y-83950000D01*
X42702000Y-74350000D02*
X46302000Y-74350000D01*
X46302000Y-77950000D02*
X46302000Y-83950000D01*
X46302000Y-71950000D02*
X46302000Y-77950000D01*
X46102000Y-81550000D02*
X42702000Y-81550000D01*
D11*
%TO.C,J3*%
X237620000Y-63500000D02*
X222380000Y-63500000D01*
X237620000Y-62230000D02*
X237620000Y-69850000D01*
X222380000Y-62230000D02*
X222380000Y-69850000D01*
X237620000Y-69850000D02*
X222380000Y-69850000D01*
X237620000Y-62230000D02*
X222380000Y-62230000D01*
%TO.C,R3*%
X209702000Y-74340000D02*
X209702000Y-74010000D01*
X216242000Y-71600000D02*
X209702000Y-71600000D01*
X209702000Y-71600000D02*
X209702000Y-71930000D01*
X216242000Y-74340000D02*
X209702000Y-74340000D01*
X216242000Y-71930000D02*
X216242000Y-71600000D01*
X216242000Y-74010000D02*
X216242000Y-74340000D01*
%TO.C,SW4*%
X55770000Y-111600000D02*
X55770000Y-92000000D01*
X72970000Y-111600000D02*
X55770000Y-111600000D01*
X55770000Y-92000000D02*
X72970000Y-92000000D01*
X72970000Y-92000000D02*
X72970000Y-111600000D01*
X74037292Y-101900000D02*
G75*
G03*
X74037292Y-101900000I-9767292J0D01*
G01*
%TO.C,R8*%
X224802000Y-78510000D02*
X224802000Y-78840000D01*
X231342000Y-78510000D02*
X224802000Y-78510000D01*
X224802000Y-81250000D02*
X224802000Y-80920000D01*
X231342000Y-80920000D02*
X231342000Y-81250000D01*
X231342000Y-78840000D02*
X231342000Y-78510000D01*
X231342000Y-81250000D02*
X224802000Y-81250000D01*
%TO.C,RV1*%
X208357000Y-62494000D02*
X218127000Y-62494000D01*
X208357000Y-67564000D02*
X218127000Y-67564000D01*
X208357000Y-62494000D02*
X208357000Y-67564000D01*
X218127000Y-62494000D02*
X218127000Y-67564000D01*
%TO.C,J2*%
X243310000Y-70680000D02*
X252110000Y-70680000D01*
X252110000Y-70680000D02*
X252110000Y-79880000D01*
X237410000Y-79880000D02*
X237410000Y-77280000D01*
X238260000Y-80080000D02*
X237210000Y-80080000D01*
X252110000Y-79880000D02*
X237410000Y-79880000D01*
X237210000Y-79030000D02*
X237210000Y-80080000D01*
X237410000Y-73380000D02*
X237410000Y-70680000D01*
X237410000Y-70680000D02*
X239310000Y-70680000D01*
%TO.C,SW2*%
X173952000Y-111546354D02*
X156752000Y-111546354D01*
X156752000Y-91946354D02*
X173952000Y-91946354D01*
X156752000Y-111546354D02*
X156752000Y-91946354D01*
X173952000Y-91946354D02*
X173952000Y-111546354D01*
X175019292Y-101846354D02*
G75*
G03*
X175019292Y-101846354I-9767292J0D01*
G01*
%TO.C,R13*%
X48552000Y-97140000D02*
X48552000Y-103680000D01*
X50962000Y-97140000D02*
X51292000Y-97140000D01*
X51292000Y-97140000D02*
X51292000Y-103680000D01*
X51292000Y-103680000D02*
X50962000Y-103680000D01*
X48882000Y-97140000D02*
X48552000Y-97140000D01*
X48552000Y-103680000D02*
X48882000Y-103680000D01*
%TO.C,R11*%
X130656000Y-103600000D02*
X130326000Y-103600000D01*
X130656000Y-97060000D02*
X130656000Y-103600000D01*
X127916000Y-97060000D02*
X127916000Y-103600000D01*
X130326000Y-97060000D02*
X130656000Y-97060000D01*
X128246000Y-97060000D02*
X127916000Y-97060000D01*
X127916000Y-103600000D02*
X128246000Y-103600000D01*
%TO.C,JP1*%
X233902000Y-81020000D02*
X236562000Y-81020000D01*
X236562000Y-81020000D02*
X236562000Y-83620000D01*
X233902000Y-79750000D02*
X233902000Y-78420000D01*
X233902000Y-81020000D02*
X233902000Y-83620000D01*
X233902000Y-83620000D02*
X236562000Y-83620000D01*
X233902000Y-78420000D02*
X235232000Y-78420000D01*
D12*
%TO.C,J4*%
X251490000Y-105700000D02*
X251490000Y-99700000D01*
X255090000Y-96100000D02*
X255090000Y-103300000D01*
X237290000Y-93700000D02*
X237290000Y-105700000D01*
X251490000Y-99700000D02*
X251490000Y-93700000D01*
X237290000Y-105700000D02*
X251490000Y-105700000D01*
X255090000Y-103300000D02*
X251490000Y-103300000D01*
X251490000Y-93700000D02*
X237290000Y-93700000D01*
X251690000Y-96100000D02*
X255090000Y-96100000D01*
D11*
%TO.C,RV2*%
X171185000Y-63470000D02*
X171185000Y-68540000D01*
X161415000Y-63470000D02*
X171185000Y-63470000D01*
X161415000Y-68540000D02*
X171185000Y-68540000D01*
X161415000Y-63470000D02*
X161415000Y-68540000D01*
%TO.C,D2*%
X129892000Y-88815000D02*
X129892000Y-91905000D01*
X135442000Y-90360462D02*
G75*
G03*
X129892000Y-88815170I-2990000J462D01*
G01*
X129892000Y-91904830D02*
G75*
G03*
X135442000Y-90359538I2560000J1544830D01*
G01*
X134952000Y-90360000D02*
G75*
G03*
X134952000Y-90360000I-2500000J0D01*
G01*
%TO.C,R9*%
X194532000Y-97150000D02*
X194532000Y-103690000D01*
X197272000Y-97150000D02*
X197272000Y-103690000D01*
X194862000Y-97150000D02*
X194532000Y-97150000D01*
X196942000Y-97150000D02*
X197272000Y-97150000D01*
X197272000Y-103690000D02*
X196942000Y-103690000D01*
X194532000Y-103690000D02*
X194862000Y-103690000D01*
%TO.C,C1*%
X226912000Y-76630000D02*
X226597000Y-76630000D01*
X226912000Y-71390000D02*
X226597000Y-71390000D01*
X224487000Y-76630000D02*
X224172000Y-76630000D01*
X226912000Y-71390000D02*
X226912000Y-76630000D01*
X224172000Y-71390000D02*
X224172000Y-76630000D01*
X224487000Y-71390000D02*
X224172000Y-71390000D01*
%TO.C,R5*%
X112770000Y-71800000D02*
X112770000Y-71470000D01*
X119310000Y-71470000D02*
X119310000Y-71800000D01*
X119310000Y-71800000D02*
X112770000Y-71800000D01*
X119310000Y-69390000D02*
X119310000Y-69060000D01*
X119310000Y-69060000D02*
X112770000Y-69060000D01*
X112770000Y-69060000D02*
X112770000Y-69390000D01*
%TO.C,D1*%
X230358000Y-88117000D02*
X230358000Y-91207000D01*
X230358000Y-91206830D02*
G75*
G03*
X235908000Y-89661538I2560000J1544830D01*
G01*
X235908000Y-89662462D02*
G75*
G03*
X230358000Y-88117170I-2990000J462D01*
G01*
X235418000Y-89662000D02*
G75*
G03*
X235418000Y-89662000I-2500000J0D01*
G01*
%TO.C,SW1*%
X207992000Y-111546354D02*
X207992000Y-91946354D01*
X207992000Y-91946354D02*
X225192000Y-91946354D01*
X225192000Y-91946354D02*
X225192000Y-111546354D01*
X225192000Y-111546354D02*
X207992000Y-111546354D01*
X226259292Y-101846354D02*
G75*
G03*
X226259292Y-101846354I-9767292J0D01*
G01*
%TO.C,SW3*%
X105470000Y-111500000D02*
X105470000Y-91900000D01*
X105470000Y-91900000D02*
X122670000Y-91900000D01*
X122670000Y-91900000D02*
X122670000Y-111500000D01*
X122670000Y-111500000D02*
X105470000Y-111500000D01*
X123737292Y-101800000D02*
G75*
G03*
X123737292Y-101800000I-9767292J0D01*
G01*
%TO.C,R6*%
X67280000Y-68930000D02*
X67280000Y-68600000D01*
X60740000Y-71340000D02*
X60740000Y-71010000D01*
X67280000Y-71340000D02*
X60740000Y-71340000D01*
X67280000Y-68600000D02*
X60740000Y-68600000D01*
X60740000Y-68600000D02*
X60740000Y-68930000D01*
X67280000Y-71010000D02*
X67280000Y-71340000D01*
%TO.C,J5*%
X202012000Y-64456000D02*
X202012000Y-67116000D01*
X202012000Y-67116000D02*
X199412000Y-67116000D01*
X202012000Y-64456000D02*
X199412000Y-64456000D01*
X204612000Y-64456000D02*
X204612000Y-65786000D01*
X203282000Y-64456000D02*
X204612000Y-64456000D01*
X199412000Y-64456000D02*
X199412000Y-67116000D01*
%TO.C,D4*%
X79967000Y-88815000D02*
X79967000Y-91905000D01*
X79967000Y-91904830D02*
G75*
G03*
X85517000Y-90359538I2560000J1544830D01*
G01*
X85517000Y-90360462D02*
G75*
G03*
X79967000Y-88815170I-2990000J462D01*
G01*
X85027000Y-90360000D02*
G75*
G03*
X85027000Y-90360000I-2500000J0D01*
G01*
%TO.C,C2*%
X233632000Y-74065000D02*
X233632000Y-73750000D01*
X233632000Y-76490000D02*
X228392000Y-76490000D01*
X233632000Y-73750000D02*
X228392000Y-73750000D01*
X228392000Y-74065000D02*
X228392000Y-73750000D01*
X233632000Y-76490000D02*
X233632000Y-76175000D01*
X228392000Y-76490000D02*
X228392000Y-76175000D01*
%TO.C,C3*%
X243372000Y-109500000D02*
X243372000Y-109815000D01*
X238132000Y-109500000D02*
X243372000Y-109500000D01*
X238132000Y-111925000D02*
X238132000Y-112240000D01*
X238132000Y-109500000D02*
X238132000Y-109815000D01*
X243372000Y-111925000D02*
X243372000Y-112240000D01*
X238132000Y-112240000D02*
X243372000Y-112240000D01*
%TO.C,R2*%
X216242000Y-68190000D02*
X209702000Y-68190000D01*
X216242000Y-70600000D02*
X216242000Y-70930000D01*
X209702000Y-68190000D02*
X209702000Y-68520000D01*
X216242000Y-70930000D02*
X209702000Y-70930000D01*
X216242000Y-68520000D02*
X216242000Y-68190000D01*
X209702000Y-70930000D02*
X209702000Y-70600000D01*
%TO.C,R12*%
X80364000Y-103600000D02*
X80034000Y-103600000D01*
X77624000Y-97060000D02*
X77624000Y-103600000D01*
X80034000Y-97060000D02*
X80364000Y-97060000D01*
X77624000Y-103600000D02*
X77954000Y-103600000D01*
X80364000Y-97060000D02*
X80364000Y-103600000D01*
X77954000Y-97060000D02*
X77624000Y-97060000D01*
%TO.C,R4*%
X163120000Y-69110000D02*
X163120000Y-69440000D01*
X169660000Y-71520000D02*
X169660000Y-71850000D01*
X163120000Y-71850000D02*
X163120000Y-71520000D01*
X169660000Y-69110000D02*
X163120000Y-69110000D01*
X169660000Y-69440000D02*
X169660000Y-69110000D01*
X169660000Y-71850000D02*
X163120000Y-71850000D01*
%TO.C,RV4*%
X58895000Y-68010000D02*
X68665000Y-68010000D01*
X58895000Y-62940000D02*
X58895000Y-68010000D01*
X68665000Y-62940000D02*
X68665000Y-68010000D01*
X58895000Y-62940000D02*
X68665000Y-62940000D01*
%TO.C,R14*%
X51292000Y-93170000D02*
X51292000Y-86630000D01*
X48552000Y-93170000D02*
X48552000Y-86630000D01*
X50962000Y-93170000D02*
X51292000Y-93170000D01*
X48552000Y-86630000D02*
X48882000Y-86630000D01*
X48882000Y-93170000D02*
X48552000Y-93170000D01*
X51292000Y-86630000D02*
X50962000Y-86630000D01*
%TO.C,R7*%
X243912000Y-106260000D02*
X243912000Y-106590000D01*
X237372000Y-106260000D02*
X243912000Y-106260000D01*
X237372000Y-109000000D02*
X243912000Y-109000000D01*
X237372000Y-108670000D02*
X237372000Y-109000000D01*
X237372000Y-106590000D02*
X237372000Y-106260000D01*
X243912000Y-109000000D02*
X243912000Y-108670000D01*
%TD*%
M02*
