%TF.GenerationSoftware,KiCad,Pcbnew,(6.0.11)*%
%TF.CreationDate,2024-02-11T12:33:00-06:00*%
%TF.ProjectId,StompBox,53746f6d-7042-46f7-982e-6b696361645f,rev?*%
%TF.SameCoordinates,Original*%
%TF.FileFunction,Copper,L2,Bot*%
%TF.FilePolarity,Positive*%
%FSLAX46Y46*%
G04 Gerber Fmt 4.6, Leading zero omitted, Abs format (unit mm)*
G04 Created by KiCad (PCBNEW (6.0.11)) date 2024-02-11 12:33:00*
%MOMM*%
%LPD*%
G01*
G04 APERTURE LIST*
G04 Aperture macros list*
%AMRoundRect*
0 Rectangle with rounded corners*
0 $1 Rounding radius*
0 $2 $3 $4 $5 $6 $7 $8 $9 X,Y pos of 4 corners*
0 Add a 4 corners polygon primitive as box body*
4,1,4,$2,$3,$4,$5,$6,$7,$8,$9,$2,$3,0*
0 Add four circle primitives for the rounded corners*
1,1,$1+$1,$2,$3*
1,1,$1+$1,$4,$5*
1,1,$1+$1,$6,$7*
1,1,$1+$1,$8,$9*
0 Add four rect primitives between the rounded corners*
20,1,$1+$1,$2,$3,$4,$5,0*
20,1,$1+$1,$4,$5,$6,$7,0*
20,1,$1+$1,$6,$7,$8,$9,0*
20,1,$1+$1,$8,$9,$2,$3,0*%
G04 Aperture macros list end*
%TA.AperFunction,ComponentPad*%
%ADD10R,1.700000X1.700000*%
%TD*%
%TA.AperFunction,ComponentPad*%
%ADD11O,1.700000X1.700000*%
%TD*%
%TA.AperFunction,ComponentPad*%
%ADD12O,1.600000X1.600000*%
%TD*%
%TA.AperFunction,ComponentPad*%
%ADD13C,1.600000*%
%TD*%
%TA.AperFunction,ComponentPad*%
%ADD14C,1.440000*%
%TD*%
%TA.AperFunction,ComponentPad*%
%ADD15O,1.500000X2.000000*%
%TD*%
%TA.AperFunction,ComponentPad*%
%ADD16O,2.000000X1.500000*%
%TD*%
%TA.AperFunction,ComponentPad*%
%ADD17R,1.800000X1.800000*%
%TD*%
%TA.AperFunction,ComponentPad*%
%ADD18C,1.800000*%
%TD*%
%TA.AperFunction,ComponentPad*%
%ADD19R,3.000000X3.000000*%
%TD*%
%TA.AperFunction,ComponentPad*%
%ADD20C,3.000000*%
%TD*%
%TA.AperFunction,ComponentPad*%
%ADD21O,2.500000X3.600000*%
%TD*%
%TA.AperFunction,ComponentPad*%
%ADD22R,3.500000X3.500000*%
%TD*%
%TA.AperFunction,ComponentPad*%
%ADD23RoundRect,0.750000X0.750000X1.000000X-0.750000X1.000000X-0.750000X-1.000000X0.750000X-1.000000X0*%
%TD*%
%TA.AperFunction,ComponentPad*%
%ADD24RoundRect,0.875000X0.875000X0.875000X-0.875000X0.875000X-0.875000X-0.875000X0.875000X-0.875000X0*%
%TD*%
%TA.AperFunction,Conductor*%
%ADD25C,0.500000*%
%TD*%
G04 APERTURE END LIST*
D10*
%TO.P,JP2,1,A*%
%TO.N,OUTVOLT*%
X240025000Y-64516000D03*
D11*
%TO.P,JP2,2,B*%
%TO.N,GND*%
X242565000Y-64516000D03*
%TD*%
D12*
%TO.P,R1,2*%
%TO.N,INVOLT*%
X224282000Y-82804000D03*
D13*
%TO.P,R1,1*%
%TO.N,Net-(J1-PadS1)*%
X231902000Y-82804000D03*
%TD*%
%TO.P,R10,1*%
%TO.N,GND*%
X179832000Y-96774000D03*
D12*
%TO.P,R10,2*%
%TO.N,Net-(SW2-Pad1B)*%
X179832000Y-104394000D03*
%TD*%
D14*
%TO.P,RV3,1,1*%
%TO.N,GND*%
X118620000Y-65910000D03*
%TO.P,RV3,2,2*%
X116080000Y-65910000D03*
%TO.P,RV3,3,3*%
%TO.N,Net-(R5-Pad2)*%
X113540000Y-65910000D03*
%TD*%
D15*
%TO.P,J1,G*%
%TO.N,GND*%
X249930000Y-86860000D03*
D16*
%TO.P,J1,S1*%
%TO.N,Net-(J1-PadS1)*%
X242030000Y-92060000D03*
%TO.P,J1,SN1*%
%TO.N,unconnected-(J1-PadSN1)*%
X243030000Y-89460000D03*
%TO.P,J1,T1*%
%TO.N,OUTVOLT*%
X245530000Y-82060000D03*
D15*
%TO.P,J1,TN1*%
%TO.N,unconnected-(J1-PadTN1)*%
X238630000Y-82560000D03*
%TD*%
D17*
%TO.P,D3,1,K*%
%TO.N,Net-(D3-Pad1)*%
X181882000Y-89710000D03*
D18*
%TO.P,D3,2,A*%
%TO.N,+9V*%
X184422000Y-89710000D03*
%TD*%
D19*
%TO.P,J3,1,Pin_1*%
%TO.N,Net-(J1-PadS1)*%
X235080000Y-66040000D03*
D20*
%TO.P,J3,2,Pin_2*%
%TO.N,OUTVOLT*%
X230000000Y-66040000D03*
%TO.P,J3,3,Pin_3*%
%TO.N,GND*%
X224920000Y-66040000D03*
%TD*%
D13*
%TO.P,R3,1*%
%TO.N,Net-(R3-Pad1)*%
X219122000Y-72970000D03*
D12*
%TO.P,R3,2*%
%TO.N,GND*%
X211502000Y-72970000D03*
%TD*%
D21*
%TO.P,SW4,1A*%
%TO.N,unconnected-(SW4-Pad1A)*%
X59670000Y-107100000D03*
%TO.P,SW4,1B*%
%TO.N,Net-(SW4-Pad1B)*%
X69070000Y-107100000D03*
%TO.P,SW4,1P*%
%TO.N,Net-(SW4-Pad1P)*%
X64370000Y-107100000D03*
%TO.P,SW4,2A*%
%TO.N,Net-(SW4-Pad2A)*%
X59670000Y-101800000D03*
%TO.P,SW4,2B*%
%TO.N,Net-(R6-Pad2)*%
X69070000Y-101800000D03*
%TO.P,SW4,2P*%
%TO.N,Net-(SW3-Pad2A)*%
X64370000Y-101800000D03*
%TO.P,SW4,3A*%
%TO.N,unconnected-(SW4-Pad3A)*%
X59670000Y-96500000D03*
%TO.P,SW4,3B*%
%TO.N,Net-(D4-Pad1)*%
X69070000Y-96500000D03*
%TO.P,SW4,3P*%
%TO.N,Net-(SW3-Pad3A)*%
X64370000Y-96500000D03*
%TD*%
D13*
%TO.P,R8,1*%
%TO.N,Net-(R7-Pad1)*%
X236474000Y-111252000D03*
D12*
%TO.P,R8,2*%
%TO.N,Net-(SW4-Pad1P)*%
X244094000Y-111252000D03*
%TD*%
D14*
%TO.P,RV1,1,1*%
%TO.N,GND*%
X217932000Y-65024000D03*
%TO.P,RV1,2,2*%
X215392000Y-65024000D03*
%TO.P,RV1,3,3*%
%TO.N,Net-(R2-Pad2)*%
X212852000Y-65024000D03*
%TD*%
D22*
%TO.P,J2,1*%
%TO.N,GND*%
X238310000Y-75280000D03*
D23*
%TO.P,J2,2*%
%TO.N,+9V*%
X244310000Y-75280000D03*
D24*
%TO.P,J2,3*%
%TO.N,unconnected-(J2-Pad3)*%
X241310000Y-70580000D03*
%TD*%
D21*
%TO.P,SW2,1A*%
%TO.N,unconnected-(SW2-Pad1A)*%
X160652000Y-107046354D03*
%TO.P,SW2,1B*%
%TO.N,Net-(SW2-Pad1B)*%
X170052000Y-107046354D03*
%TO.P,SW2,1P*%
%TO.N,Net-(SW4-Pad1P)*%
X165352000Y-107046354D03*
%TO.P,SW2,2A*%
%TO.N,Net-(SW2-Pad2A)*%
X160652000Y-101746354D03*
%TO.P,SW2,2B*%
%TO.N,Net-(R4-Pad2)*%
X170052000Y-101746354D03*
%TO.P,SW2,2P*%
%TO.N,Net-(SW1-Pad2A)*%
X165352000Y-101746354D03*
%TO.P,SW2,3A*%
%TO.N,Net-(SW2-Pad3A)*%
X160652000Y-96446354D03*
%TO.P,SW2,3B*%
%TO.N,Net-(D3-Pad1)*%
X170052000Y-96446354D03*
%TO.P,SW2,3P*%
%TO.N,Net-(SW1-Pad3A)*%
X165352000Y-96446354D03*
%TD*%
D13*
%TO.P,R13,1*%
%TO.N,GND*%
X49022000Y-95250000D03*
D12*
%TO.P,R13,2*%
%TO.N,Net-(SW4-Pad2A)*%
X49022000Y-102870000D03*
%TD*%
D13*
%TO.P,R11,1*%
%TO.N,GND*%
X129286000Y-96520000D03*
D12*
%TO.P,R11,2*%
%TO.N,Net-(SW3-Pad1B)*%
X129286000Y-104140000D03*
%TD*%
D10*
%TO.P,JP1,1,A*%
%TO.N,+9V*%
X235232000Y-79750000D03*
D11*
%TO.P,JP1,2,B*%
%TO.N,Net-(R7-Pad1)*%
X235232000Y-82290000D03*
%TD*%
D15*
%TO.P,J4,G*%
%TO.N,GND*%
X249790000Y-99700000D03*
D16*
%TO.P,J4,S1*%
%TO.N,Net-(J4-PadS1)*%
X241890000Y-104900000D03*
%TO.P,J4,SN1*%
%TO.N,unconnected-(J4-PadSN1)*%
X242890000Y-102300000D03*
%TO.P,J4,T1*%
%TO.N,Net-(SW4-Pad1P)*%
X245390000Y-94900000D03*
D15*
%TO.P,J4,TN1*%
%TO.N,unconnected-(J4-PadTN1)*%
X238490000Y-95400000D03*
%TD*%
D14*
%TO.P,RV2,1,1*%
%TO.N,GND*%
X168840000Y-66000000D03*
%TO.P,RV2,2,2*%
X166300000Y-66000000D03*
%TO.P,RV2,3,3*%
%TO.N,Net-(R4-Pad2)*%
X163760000Y-66000000D03*
%TD*%
D17*
%TO.P,D2,1,K*%
%TO.N,Net-(D2-Pad1)*%
X131182000Y-90360000D03*
D18*
%TO.P,D2,2,A*%
%TO.N,+9V*%
X133722000Y-90360000D03*
%TD*%
D13*
%TO.P,R9,1*%
%TO.N,GND*%
X233680000Y-111760000D03*
D12*
%TO.P,R9,2*%
%TO.N,Net-(SW1-Pad1B)*%
X233680000Y-104140000D03*
%TD*%
D13*
%TO.P,C1,1*%
%TO.N,OUTVOLT*%
X225542000Y-71510000D03*
%TO.P,C1,2*%
%TO.N,GND*%
X225542000Y-76510000D03*
%TD*%
%TO.P,R5,1*%
%TO.N,GND*%
X119850000Y-70430000D03*
D12*
%TO.P,R5,2*%
%TO.N,Net-(R5-Pad2)*%
X112230000Y-70430000D03*
%TD*%
D17*
%TO.P,D1,1,K*%
%TO.N,Net-(D1-Pad1)*%
X231648000Y-89662000D03*
D18*
%TO.P,D1,2,A*%
%TO.N,+9V*%
X234188000Y-89662000D03*
%TD*%
D21*
%TO.P,SW1,1A*%
%TO.N,unconnected-(SW1-Pad1A)*%
X211892000Y-107046354D03*
%TO.P,SW1,1B*%
%TO.N,Net-(SW1-Pad1B)*%
X221292000Y-107046354D03*
%TO.P,SW1,1P*%
%TO.N,Net-(SW4-Pad1P)*%
X216592000Y-107046354D03*
%TO.P,SW1,2A*%
%TO.N,Net-(SW1-Pad2A)*%
X211892000Y-101746354D03*
%TO.P,SW1,2B*%
%TO.N,Net-(R2-Pad2)*%
X221292000Y-101746354D03*
%TO.P,SW1,2P*%
%TO.N,INVOLT*%
X216592000Y-101746354D03*
%TO.P,SW1,3A*%
%TO.N,Net-(SW1-Pad3A)*%
X211892000Y-96446354D03*
%TO.P,SW1,3B*%
%TO.N,Net-(D1-Pad1)*%
X221292000Y-96446354D03*
%TO.P,SW1,3P*%
%TO.N,Net-(R3-Pad1)*%
X216592000Y-96446354D03*
%TD*%
%TO.P,SW3,1A*%
%TO.N,unconnected-(SW3-Pad1A)*%
X109370000Y-107000000D03*
%TO.P,SW3,1B*%
%TO.N,Net-(SW3-Pad1B)*%
X118770000Y-107000000D03*
%TO.P,SW3,1P*%
%TO.N,Net-(SW4-Pad1P)*%
X114070000Y-107000000D03*
%TO.P,SW3,2A*%
%TO.N,Net-(SW3-Pad2A)*%
X109370000Y-101700000D03*
%TO.P,SW3,2B*%
%TO.N,Net-(R5-Pad2)*%
X118770000Y-101700000D03*
%TO.P,SW3,2P*%
%TO.N,Net-(SW2-Pad2A)*%
X114070000Y-101700000D03*
%TO.P,SW3,3A*%
%TO.N,Net-(SW3-Pad3A)*%
X109370000Y-96400000D03*
%TO.P,SW3,3B*%
%TO.N,Net-(D2-Pad1)*%
X118770000Y-96400000D03*
%TO.P,SW3,3P*%
%TO.N,Net-(SW2-Pad3A)*%
X114070000Y-96400000D03*
%TD*%
D13*
%TO.P,R6,1*%
%TO.N,GND*%
X67820000Y-69970000D03*
D12*
%TO.P,R6,2*%
%TO.N,Net-(R6-Pad2)*%
X60200000Y-69970000D03*
%TD*%
D10*
%TO.P,J5,1,Pin_1*%
%TO.N,+9V*%
X205740000Y-65786000D03*
D11*
%TO.P,J5,2,Pin_2*%
%TO.N,GND*%
X203200000Y-65786000D03*
%TD*%
D17*
%TO.P,D4,1,K*%
%TO.N,Net-(D4-Pad1)*%
X81257000Y-90360000D03*
D18*
%TO.P,D4,2,A*%
%TO.N,+9V*%
X83797000Y-90360000D03*
%TD*%
D13*
%TO.P,C2,1*%
%TO.N,+9V*%
X233512000Y-75120000D03*
%TO.P,C2,2*%
%TO.N,GND*%
X228512000Y-75120000D03*
%TD*%
%TO.P,C3,1*%
%TO.N,Net-(SW4-Pad1P)*%
X239014000Y-107950000D03*
%TO.P,C3,2*%
%TO.N,GND*%
X244014000Y-107950000D03*
%TD*%
%TO.P,R2,1*%
%TO.N,GND*%
X219202000Y-69596000D03*
D12*
%TO.P,R2,2*%
%TO.N,Net-(R2-Pad2)*%
X211582000Y-69596000D03*
%TD*%
D13*
%TO.P,R12,1*%
%TO.N,GND*%
X78994000Y-96520000D03*
D12*
%TO.P,R12,2*%
%TO.N,Net-(SW4-Pad1B)*%
X78994000Y-104140000D03*
%TD*%
D13*
%TO.P,R4,1*%
%TO.N,GND*%
X170200000Y-70480000D03*
D12*
%TO.P,R4,2*%
%TO.N,Net-(R4-Pad2)*%
X162580000Y-70480000D03*
%TD*%
D14*
%TO.P,RV4,1,1*%
%TO.N,GND*%
X66320000Y-65470000D03*
%TO.P,RV4,2,2*%
X63780000Y-65470000D03*
%TO.P,RV4,3,3*%
%TO.N,Net-(R6-Pad2)*%
X61240000Y-65470000D03*
%TD*%
D13*
%TO.P,R7,1*%
%TO.N,Net-(R7-Pad1)*%
X224282000Y-79502000D03*
D12*
%TO.P,R7,2*%
%TO.N,Net-(J4-PadS1)*%
X231902000Y-79502000D03*
%TD*%
D25*
%TO.N,Net-(R5-Pad2)*%
X109982000Y-92964000D02*
X109982000Y-72678000D01*
X111732000Y-94714000D02*
X109982000Y-92964000D01*
X111732000Y-98016000D02*
X111732000Y-94714000D01*
X112776000Y-99060000D02*
X111732000Y-98016000D01*
X109982000Y-72678000D02*
X112230000Y-70430000D01*
X116090000Y-99060000D02*
X112776000Y-99060000D01*
X118830000Y-101800000D02*
X116090000Y-99060000D01*
%TO.N,Net-(R4-Pad2)*%
X162982000Y-70882000D02*
X162580000Y-70480000D01*
X163630000Y-99290000D02*
X162982000Y-98642000D01*
X162982000Y-98642000D02*
X162982000Y-70882000D01*
X166590000Y-99290000D02*
X163630000Y-99290000D01*
X169200000Y-101900000D02*
X166590000Y-99290000D01*
X170600000Y-101900000D02*
X169200000Y-101900000D01*
%TO.N,Net-(R6-Pad2)*%
X62057000Y-94885000D02*
X60200000Y-93028000D01*
X60200000Y-93028000D02*
X60200000Y-69970000D01*
X62057000Y-98335000D02*
X62057000Y-94885000D01*
X62822000Y-99100000D02*
X62057000Y-98335000D01*
X65840000Y-99100000D02*
X62822000Y-99100000D01*
X68640000Y-101900000D02*
X65840000Y-99100000D01*
%TO.N,+9V*%
X83797000Y-89431000D02*
X83797000Y-90360000D01*
%TO.N,Net-(D4-Pad1)*%
X70072000Y-97200000D02*
X69770000Y-97200000D01*
X76848000Y-90424000D02*
X70072000Y-97200000D01*
%TO.N,+9V*%
X137276000Y-63246000D02*
X109982000Y-63246000D01*
%TO.N,Net-(D4-Pad1)*%
X81193000Y-90424000D02*
X76848000Y-90424000D01*
%TO.N,+9V*%
X109982000Y-63246000D02*
X83797000Y-89431000D01*
%TO.N,Net-(D4-Pad1)*%
X81257000Y-90360000D02*
X81193000Y-90424000D01*
%TO.N,+9V*%
X133757000Y-90325000D02*
X133757000Y-66765000D01*
X133757000Y-66765000D02*
X137276000Y-63246000D01*
X133722000Y-90360000D02*
X133757000Y-90325000D01*
%TO.N,Net-(D2-Pad1)*%
X131182000Y-90360000D02*
X127342000Y-90360000D01*
X127342000Y-90360000D02*
X120602000Y-97100000D01*
X120602000Y-97100000D02*
X119470000Y-97100000D01*
%TO.N,+9V*%
X184557000Y-89575000D02*
X184422000Y-89710000D01*
X184557000Y-84431000D02*
X184557000Y-89575000D01*
X171958000Y-71832000D02*
X184557000Y-84431000D01*
X171958000Y-64652000D02*
X171958000Y-71832000D01*
X173296000Y-63314000D02*
X171958000Y-64652000D01*
%TO.N,Net-(D3-Pad1)*%
X178952000Y-89710000D02*
X171462000Y-97200000D01*
X181882000Y-89710000D02*
X178952000Y-89710000D01*
X171462000Y-97200000D02*
X170600000Y-97200000D01*
%TO.N,Net-(J4-PadS1)*%
X231902000Y-79770000D02*
X231902000Y-79502000D01*
X230378000Y-81294000D02*
X231902000Y-79770000D01*
X239776000Y-87630000D02*
X237356000Y-85210000D01*
X239776000Y-92964000D02*
X239776000Y-87630000D01*
X237356000Y-85210000D02*
X231260000Y-85210000D01*
X240792000Y-93980000D02*
X239776000Y-92964000D01*
X240792000Y-103802000D02*
X240792000Y-93980000D01*
X230378000Y-84328000D02*
X230378000Y-81294000D01*
X241890000Y-104900000D02*
X240792000Y-103802000D01*
X231260000Y-85210000D02*
X230378000Y-84328000D01*
%TO.N,INVOLT*%
X228488000Y-87010000D02*
X224282000Y-82804000D01*
X236728000Y-88900000D02*
X234838000Y-87010000D01*
X235412000Y-94950000D02*
X235412000Y-93010000D01*
X233080000Y-97282000D02*
X235412000Y-94950000D01*
X230388000Y-97282000D02*
X233080000Y-97282000D01*
X235412000Y-93010000D02*
X236728000Y-91694000D01*
X223280000Y-104390000D02*
X230388000Y-97282000D01*
X219030000Y-104390000D02*
X223280000Y-104390000D01*
X236728000Y-91694000D02*
X236728000Y-88900000D01*
X216540000Y-101900000D02*
X219030000Y-104390000D01*
X234838000Y-87010000D02*
X228488000Y-87010000D01*
%TO.N,+9V*%
X221996000Y-76396000D02*
X225142000Y-73250000D01*
X221996000Y-84836000D02*
X221996000Y-76396000D01*
X225044000Y-87884000D02*
X221996000Y-84836000D01*
X233172000Y-87884000D02*
X225044000Y-87884000D01*
X234188000Y-88900000D02*
X233172000Y-87884000D01*
X234188000Y-89662000D02*
X234188000Y-88900000D01*
X225142000Y-73250000D02*
X224692000Y-73250000D01*
X231252000Y-73250000D02*
X225142000Y-73250000D01*
%TO.N,Net-(J1-PadS1)*%
X247942000Y-84328000D02*
X249066000Y-83204000D01*
X233426000Y-84328000D02*
X247942000Y-84328000D01*
X231902000Y-82804000D02*
X233426000Y-84328000D01*
%TO.N,Net-(D1-Pad1)*%
X231648000Y-89662000D02*
X228076354Y-89662000D01*
X228076354Y-89662000D02*
X221292000Y-96446354D01*
%TO.N,Net-(R7-Pad1)*%
X225298000Y-79502000D02*
X224536000Y-79502000D01*
X229362000Y-83566000D02*
X225298000Y-79502000D01*
X229362000Y-85090000D02*
X229362000Y-83566000D01*
X230378000Y-86106000D02*
X229362000Y-85090000D01*
X235966000Y-86106000D02*
X230378000Y-86106000D01*
X238252000Y-88392000D02*
X235966000Y-86106000D01*
X238252000Y-92964000D02*
X238252000Y-88392000D01*
X236728000Y-94488000D02*
X238252000Y-92964000D01*
X236728000Y-107431766D02*
X236728000Y-94488000D01*
X237876117Y-108579883D02*
X236728000Y-107431766D01*
X236474000Y-109982000D02*
X237876117Y-108579883D01*
X236474000Y-111252000D02*
X236474000Y-109982000D01*
%TO.N,Net-(SW1-Pad1B)*%
X230773646Y-107046354D02*
X233680000Y-104140000D01*
X221292000Y-107046354D02*
X230773646Y-107046354D01*
%TO.N,Net-(SW4-Pad1P)*%
X238506000Y-113284000D02*
X240538000Y-111252000D01*
X223266000Y-113284000D02*
X238506000Y-113284000D01*
X220218000Y-110236000D02*
X223266000Y-113284000D01*
%TO.N,Net-(R7-Pad1)*%
X224536000Y-79502000D02*
X224282000Y-79502000D01*
X225390000Y-79502000D02*
X224536000Y-79502000D01*
X228082000Y-76810000D02*
X225390000Y-79502000D01*
X231712000Y-76810000D02*
X228082000Y-76810000D01*
X233222000Y-78320000D02*
X231712000Y-76810000D01*
X233222000Y-80280000D02*
X233222000Y-78320000D01*
X235232000Y-82290000D02*
X233222000Y-80280000D01*
%TO.N,+9V*%
X235232000Y-79728000D02*
X236480000Y-78480000D01*
X235232000Y-79750000D02*
X235232000Y-79728000D01*
X236468000Y-78480000D02*
X233512000Y-75524000D01*
X218948000Y-63246000D02*
X205994000Y-63246000D01*
X219964000Y-64262000D02*
X218948000Y-63246000D01*
X219964000Y-66040000D02*
X219964000Y-64262000D01*
X223232000Y-69308000D02*
X219964000Y-66040000D01*
X223232000Y-71790000D02*
X223232000Y-69308000D01*
X236480000Y-78480000D02*
X236468000Y-78480000D01*
X233512000Y-75120000D02*
X233122000Y-75120000D01*
X233512000Y-75524000D02*
X233512000Y-75120000D01*
X233122000Y-75120000D02*
X231252000Y-73250000D01*
X224692000Y-73250000D02*
X223232000Y-71790000D01*
%TO.N,Net-(R3-Pad1)*%
X216592000Y-75500000D02*
X219122000Y-72970000D01*
X216592000Y-96446354D02*
X216592000Y-75500000D01*
%TO.N,Net-(R2-Pad2)*%
X217542000Y-99130000D02*
X220312000Y-101900000D01*
X215422000Y-99130000D02*
X217542000Y-99130000D01*
X214302000Y-93398000D02*
X214302000Y-98010000D01*
X214302000Y-98010000D02*
X215422000Y-99130000D01*
X220312000Y-101900000D02*
X221840000Y-101900000D01*
X209532000Y-88628000D02*
X214302000Y-93398000D01*
X209532000Y-71646000D02*
X209532000Y-88628000D01*
X211582000Y-69596000D02*
X209532000Y-71646000D01*
%TO.N,+9V*%
X173228000Y-63246000D02*
X137276000Y-63246000D01*
%TO.N,OUTVOLT*%
X245520000Y-82050000D02*
X245520000Y-80480000D01*
X244094000Y-67818000D02*
X238162000Y-67818000D01*
X237580000Y-68400000D02*
X231400000Y-68400000D01*
X230000000Y-67000000D02*
X230000000Y-66040000D01*
X245530000Y-82060000D02*
X245520000Y-82050000D01*
X245520000Y-80480000D02*
X247500000Y-78500000D01*
X240025000Y-64516000D02*
X240025000Y-64003000D01*
X231400000Y-68400000D02*
X230000000Y-67000000D01*
X239014000Y-62992000D02*
X233048000Y-62992000D01*
X247500000Y-71224000D02*
X244094000Y-67818000D01*
X247500000Y-78500000D02*
X247500000Y-71224000D01*
X230000000Y-66040000D02*
X225542000Y-70498000D01*
X238162000Y-67818000D02*
X237580000Y-68400000D01*
X225542000Y-70498000D02*
X225542000Y-71510000D01*
X233048000Y-62992000D02*
X230000000Y-66040000D01*
X240025000Y-64003000D02*
X239014000Y-62992000D01*
%TO.N,+9V*%
X173364000Y-63246000D02*
X173296000Y-63314000D01*
X244310000Y-77690000D02*
X244310000Y-75280000D01*
X205740000Y-63500000D02*
X205740000Y-65786000D01*
X236480000Y-78480000D02*
X243520000Y-78480000D01*
X205994000Y-63246000D02*
X205740000Y-63500000D01*
X205994000Y-63246000D02*
X173364000Y-63246000D01*
X173296000Y-63314000D02*
X173228000Y-63246000D01*
X243520000Y-78480000D02*
X244310000Y-77690000D01*
%TO.N,Net-(J1-PadS1)*%
X247735625Y-90264375D02*
X247735625Y-84534375D01*
X242142000Y-91948000D02*
X246052000Y-91948000D01*
X236802000Y-66802000D02*
X236040000Y-66040000D01*
X246052000Y-91948000D02*
X247735625Y-90264375D01*
X249170000Y-71370000D02*
X244602000Y-66802000D01*
X249066000Y-83204000D02*
X249170000Y-83100000D01*
X249170000Y-83100000D02*
X249170000Y-71370000D01*
X236040000Y-66040000D02*
X235080000Y-66040000D01*
X247735625Y-84534375D02*
X249066000Y-83204000D01*
X242030000Y-92060000D02*
X242142000Y-91948000D01*
X244602000Y-66802000D02*
X236802000Y-66802000D01*
%TO.N,Net-(R2-Pad2)*%
X212852000Y-65024000D02*
X212852000Y-68326000D01*
X212852000Y-68326000D02*
X211582000Y-69596000D01*
%TO.N,Net-(R4-Pad2)*%
X163760000Y-66000000D02*
X163760000Y-69300000D01*
X163760000Y-69300000D02*
X162580000Y-70480000D01*
%TO.N,Net-(SW1-Pad2A)*%
X166270000Y-101900000D02*
X165300000Y-101900000D01*
X211240000Y-101900000D02*
X177246000Y-101900000D01*
X177246000Y-101900000D02*
X174656000Y-104490000D01*
X174656000Y-104490000D02*
X168860000Y-104490000D01*
X168860000Y-104490000D02*
X166270000Y-101900000D01*
%TO.N,Net-(SW4-Pad1P)*%
X114170000Y-106500000D02*
X114170000Y-107820000D01*
X182880000Y-105664000D02*
X194056000Y-105664000D01*
X168910000Y-109982000D02*
X178562000Y-109982000D01*
X178562000Y-109982000D02*
X182880000Y-105664000D01*
X122682000Y-110236000D02*
X126238000Y-106680000D01*
X114170000Y-107820000D02*
X116586000Y-110236000D01*
X116586000Y-110236000D02*
X117348000Y-110236000D01*
X66548000Y-110236000D02*
X64470000Y-108158000D01*
X129540000Y-106680000D02*
X132842000Y-109982000D01*
X126238000Y-106680000D02*
X129540000Y-106680000D01*
X117348000Y-110236000D02*
X122682000Y-110236000D01*
X242570000Y-106934000D02*
X242570000Y-109728000D01*
X240538000Y-111252000D02*
X239014000Y-109728000D01*
X245390000Y-104114000D02*
X242570000Y-106934000D01*
X132842000Y-109982000D02*
X168910000Y-109982000D01*
X245390000Y-94900000D02*
X245390000Y-104114000D01*
X64470000Y-108158000D02*
X64470000Y-106600000D01*
X239014000Y-109728000D02*
X239014000Y-107950000D01*
X165300000Y-108150000D02*
X167132000Y-109982000D01*
X242570000Y-109728000D02*
X244094000Y-111252000D01*
X240538000Y-111252000D02*
X244094000Y-111252000D01*
X117348000Y-110236000D02*
X66548000Y-110236000D01*
X198628000Y-110236000D02*
X220218000Y-110236000D01*
X216582000Y-106600000D02*
X220218000Y-110236000D01*
X167132000Y-109982000D02*
X168910000Y-109982000D01*
X165300000Y-106600000D02*
X165300000Y-108150000D01*
X194056000Y-105664000D02*
X198628000Y-110236000D01*
%TO.N,Net-(R5-Pad2)*%
X113540000Y-65910000D02*
X113540000Y-69120000D01*
X113540000Y-69120000D02*
X112230000Y-70430000D01*
%TO.N,Net-(SW2-Pad2A)*%
X123890000Y-104240000D02*
X116540000Y-104240000D01*
X126230000Y-101900000D02*
X123890000Y-104240000D01*
X116540000Y-104240000D02*
X114170000Y-101870000D01*
X160000000Y-101900000D02*
X126230000Y-101900000D01*
X114170000Y-101870000D02*
X114170000Y-101800000D01*
%TO.N,Net-(SW2-Pad3A)*%
X158140000Y-99060000D02*
X160000000Y-97200000D01*
X114170000Y-97100000D02*
X115660000Y-97100000D01*
X115660000Y-97100000D02*
X117620000Y-99060000D01*
X117620000Y-99060000D02*
X158140000Y-99060000D01*
%TO.N,Net-(R6-Pad2)*%
X61240000Y-68930000D02*
X60200000Y-69970000D01*
X61240000Y-65470000D02*
X61240000Y-68930000D01*
%TO.N,Net-(SW3-Pad2A)*%
X72136000Y-104394000D02*
X66964000Y-104394000D01*
X108870000Y-101800000D02*
X74730000Y-101800000D01*
X74730000Y-101800000D02*
X72136000Y-104394000D01*
X66964000Y-104394000D02*
X64470000Y-101900000D01*
%TO.N,Net-(SW2-Pad1B)*%
X177626000Y-106600000D02*
X179832000Y-104394000D01*
X170600000Y-106600000D02*
X177626000Y-106600000D01*
%TO.N,Net-(SW3-Pad1B)*%
X123878000Y-106500000D02*
X126238000Y-104140000D01*
X119470000Y-106500000D02*
X123878000Y-106500000D01*
X126238000Y-104140000D02*
X129286000Y-104140000D01*
%TO.N,Net-(SW3-Pad3A)*%
X105460000Y-97100000D02*
X108870000Y-97100000D01*
X103500000Y-99060000D02*
X105460000Y-97100000D01*
X65640000Y-97200000D02*
X67500000Y-99060000D01*
X67500000Y-99060000D02*
X103500000Y-99060000D01*
X64470000Y-97200000D02*
X65640000Y-97200000D01*
%TO.N,Net-(SW1-Pad3A)*%
X166570000Y-97200000D02*
X168460000Y-99090000D01*
X209350000Y-99090000D02*
X210745025Y-97694975D01*
X165300000Y-97200000D02*
X166570000Y-97200000D01*
X168460000Y-99090000D02*
X209350000Y-99090000D01*
%TO.N,Net-(SW4-Pad1B)*%
X76534000Y-106600000D02*
X78994000Y-104140000D01*
X69770000Y-106600000D02*
X76534000Y-106600000D01*
%TO.N,Net-(SW4-Pad2A)*%
X59170000Y-101900000D02*
X49992000Y-101900000D01*
X49992000Y-101900000D02*
X49022000Y-102870000D01*
%TD*%
M02*
