%TF.GenerationSoftware,KiCad,Pcbnew,(6.0.11)*%
%TF.CreationDate,2023-10-13T21:53:17-05:00*%
%TF.ProjectId,GuitarPico,47756974-6172-4506-9963-6f2e6b696361,rev?*%
%TF.SameCoordinates,Original*%
%TF.FileFunction,Copper,L2,Bot*%
%TF.FilePolarity,Positive*%
%FSLAX46Y46*%
G04 Gerber Fmt 4.6, Leading zero omitted, Abs format (unit mm)*
G04 Created by KiCad (PCBNEW (6.0.11)) date 2023-10-13 21:53:17*
%MOMM*%
%LPD*%
G01*
G04 APERTURE LIST*
G04 Aperture macros list*
%AMRoundRect*
0 Rectangle with rounded corners*
0 $1 Rounding radius*
0 $2 $3 $4 $5 $6 $7 $8 $9 X,Y pos of 4 corners*
0 Add a 4 corners polygon primitive as box body*
4,1,4,$2,$3,$4,$5,$6,$7,$8,$9,$2,$3,0*
0 Add four circle primitives for the rounded corners*
1,1,$1+$1,$2,$3*
1,1,$1+$1,$4,$5*
1,1,$1+$1,$6,$7*
1,1,$1+$1,$8,$9*
0 Add four rect primitives between the rounded corners*
20,1,$1+$1,$2,$3,$4,$5,0*
20,1,$1+$1,$4,$5,$6,$7,0*
20,1,$1+$1,$6,$7,$8,$9,0*
20,1,$1+$1,$8,$9,$2,$3,0*%
G04 Aperture macros list end*
%TA.AperFunction,WasherPad*%
%ADD10O,5.000000X3.100000*%
%TD*%
%TA.AperFunction,ComponentPad*%
%ADD11O,1.600000X2.000000*%
%TD*%
%TA.AperFunction,ComponentPad*%
%ADD12C,1.600000*%
%TD*%
%TA.AperFunction,ComponentPad*%
%ADD13R,1.600000X1.600000*%
%TD*%
%TA.AperFunction,ComponentPad*%
%ADD14R,1.500000X1.500000*%
%TD*%
%TA.AperFunction,ComponentPad*%
%ADD15C,1.500000*%
%TD*%
%TA.AperFunction,ComponentPad*%
%ADD16O,1.000000X2.000000*%
%TD*%
%TA.AperFunction,ComponentPad*%
%ADD17O,2.000000X1.000000*%
%TD*%
%TA.AperFunction,ComponentPad*%
%ADD18O,2.000000X1.500000*%
%TD*%
%TA.AperFunction,ComponentPad*%
%ADD19O,1.500000X2.000000*%
%TD*%
%TA.AperFunction,ComponentPad*%
%ADD20O,1.600000X1.600000*%
%TD*%
%TA.AperFunction,ComponentPad*%
%ADD21R,2.200000X2.200000*%
%TD*%
%TA.AperFunction,ComponentPad*%
%ADD22O,2.200000X2.200000*%
%TD*%
%TA.AperFunction,ComponentPad*%
%ADD23R,1.905000X2.000000*%
%TD*%
%TA.AperFunction,ComponentPad*%
%ADD24O,1.905000X2.000000*%
%TD*%
%TA.AperFunction,ComponentPad*%
%ADD25R,1.700000X1.700000*%
%TD*%
%TA.AperFunction,ComponentPad*%
%ADD26O,1.700000X1.700000*%
%TD*%
%TA.AperFunction,ComponentPad*%
%ADD27R,3.500000X3.500000*%
%TD*%
%TA.AperFunction,ComponentPad*%
%ADD28RoundRect,0.750000X-0.750000X-1.000000X0.750000X-1.000000X0.750000X1.000000X-0.750000X1.000000X0*%
%TD*%
%TA.AperFunction,ComponentPad*%
%ADD29RoundRect,0.500000X-1.250000X-0.500000X1.250000X-0.500000X1.250000X0.500000X-1.250000X0.500000X0*%
%TD*%
%TA.AperFunction,ComponentPad*%
%ADD30R,1.800000X1.800000*%
%TD*%
%TA.AperFunction,ComponentPad*%
%ADD31C,1.800000*%
%TD*%
%TA.AperFunction,ComponentPad*%
%ADD32RoundRect,0.750000X-0.750000X1.250000X-0.750000X-1.250000X0.750000X-1.250000X0.750000X1.250000X0*%
%TD*%
%TA.AperFunction,ComponentPad*%
%ADD33R,3.000000X3.000000*%
%TD*%
%TA.AperFunction,ComponentPad*%
%ADD34C,3.000000*%
%TD*%
%TA.AperFunction,ComponentPad*%
%ADD35C,2.500000*%
%TD*%
%TA.AperFunction,ComponentPad*%
%ADD36C,2.000000*%
%TD*%
%TA.AperFunction,ComponentPad*%
%ADD37C,4.000000*%
%TD*%
%TA.AperFunction,ViaPad*%
%ADD38C,0.800000*%
%TD*%
%TA.AperFunction,Conductor*%
%ADD39C,0.350000*%
%TD*%
%TA.AperFunction,Conductor*%
%ADD40C,0.250000*%
%TD*%
G04 APERTURE END LIST*
D10*
%TO.P,Brd1,*%
%TO.N,*%
X63030000Y-118640000D03*
X84530000Y-142140000D03*
X63030000Y-142140000D03*
X84530000Y-118640000D03*
D11*
%TO.P,Brd1,1,GND*%
%TO.N,GND*%
X69910000Y-118540000D03*
%TO.P,Brd1,2,VCC*%
%TO.N,+3V3*%
X72450000Y-118540000D03*
%TO.P,Brd1,3,SCL*%
%TO.N,SCL*%
X74990000Y-118540000D03*
%TO.P,Brd1,4,SDA*%
%TO.N,SDA*%
X77530000Y-118540000D03*
%TD*%
D12*
%TO.P,C22,1*%
%TO.N,GND*%
X132588000Y-127254000D03*
%TO.P,C22,2*%
%TO.N,VREF*%
X127588000Y-127254000D03*
%TD*%
D13*
%TO.P,C15,1*%
%TO.N,Net-(C13-Pad1)*%
X100844000Y-75689113D03*
D12*
%TO.P,C15,2*%
%TO.N,Net-(C15-Pad2)*%
X100844000Y-73189113D03*
%TD*%
D14*
%TO.P,Q3,1,E*%
%TO.N,GND*%
X110140000Y-127000000D03*
D15*
%TO.P,Q3,2,B*%
%TO.N,Net-(Q3-Pad2)*%
X110140000Y-129540000D03*
%TO.P,Q3,3,C*%
%TO.N,Net-(Q3-Pad3)*%
X110140000Y-132080000D03*
%TD*%
D16*
%TO.P,J8,G*%
%TO.N,GND*%
X45720000Y-138590000D03*
D17*
%TO.P,J8,S1*%
%TO.N,unconnected-(J8-PadS1)*%
X53620000Y-133390000D03*
D18*
%TO.P,J8,SN1*%
%TO.N,unconnected-(J8-PadSN1)*%
X52620000Y-135990000D03*
D17*
%TO.P,J8,T1*%
%TO.N,Net-(J8-PadT1)*%
X50120000Y-143390000D03*
D19*
%TO.P,J8,TN1*%
%TO.N,unconnected-(J8-PadTN1)*%
X57020000Y-142890000D03*
%TD*%
D12*
%TO.P,R46,1*%
%TO.N,Net-(J6-Pad1)*%
X110070000Y-92020000D03*
D20*
%TO.P,R46,2*%
%TO.N,R1*%
X110070000Y-99640000D03*
%TD*%
D12*
%TO.P,R9,1*%
%TO.N,Net-(C7-Pad1)*%
X80250000Y-86250000D03*
D20*
%TO.P,R9,2*%
%TO.N,Net-(C8-Pad2)*%
X72630000Y-86250000D03*
%TD*%
D21*
%TO.P,D1,1,K*%
%TO.N,+5V*%
X80070000Y-103650000D03*
D22*
%TO.P,D1,2,A*%
%TO.N,Net-(C21-Pad1)*%
X72450000Y-103650000D03*
%TD*%
D12*
%TO.P,R56,1*%
%TO.N,Net-(J6-Pad13)*%
X103720000Y-92030000D03*
D20*
%TO.P,R56,2*%
%TO.N,SYNC*%
X103720000Y-99650000D03*
%TD*%
D12*
%TO.P,R19,1*%
%TO.N,Net-(C17-Pad1)*%
X125070000Y-75870000D03*
D20*
%TO.P,R19,2*%
%TO.N,Net-(R17-Pad1)*%
X132690000Y-75870000D03*
%TD*%
D23*
%TO.P,U4,1,VI*%
%TO.N,Net-(C20-Pad1)*%
X72900000Y-99300000D03*
D24*
%TO.P,U4,2,GND*%
%TO.N,GND*%
X75440000Y-99300000D03*
%TO.P,U4,3,VO*%
%TO.N,Net-(C21-Pad1)*%
X77980000Y-99300000D03*
%TD*%
D17*
%TO.P,J3,G*%
%TO.N,GND*%
X128860000Y-61640000D03*
D16*
%TO.P,J3,S1*%
%TO.N,Net-(J3-PadS1)*%
X134060000Y-69540000D03*
D19*
%TO.P,J3,SN1*%
%TO.N,unconnected-(J3-PadSN1)*%
X131460000Y-68540000D03*
D16*
%TO.P,J3,T1*%
%TO.N,Net-(J3-PadS1)*%
X124060000Y-66040000D03*
D18*
%TO.P,J3,TN1*%
%TO.N,unconnected-(J3-PadTN1)*%
X124560000Y-72940000D03*
%TD*%
D25*
%TO.P,JP2,1,A*%
%TO.N,Net-(JP2-Pad1)*%
X54090000Y-114110000D03*
D26*
%TO.P,JP2,2,B*%
%TO.N,VREF*%
X56630000Y-114110000D03*
%TD*%
D13*
%TO.P,C11,1*%
%TO.N,Net-(C11-Pad1)*%
X93710000Y-79640000D03*
D12*
%TO.P,C11,2*%
%TO.N,Net-(C10-Pad2)*%
X93710000Y-77140000D03*
%TD*%
%TO.P,R21,1*%
%TO.N,GND*%
X105760000Y-89090000D03*
D20*
%TO.P,R21,2*%
%TO.N,Net-(C17-Pad2)*%
X113380000Y-89090000D03*
%TD*%
D13*
%TO.P,C4,1*%
%TO.N,Net-(C4-Pad1)*%
X66500000Y-74250000D03*
D12*
%TO.P,C4,2*%
%TO.N,Net-(C3-Pad1)*%
X64000000Y-74250000D03*
%TD*%
%TO.P,R23,1*%
%TO.N,Net-(R23-Pad1)*%
X127550000Y-130570000D03*
D20*
%TO.P,R23,2*%
%TO.N,Net-(R23-Pad2)*%
X135170000Y-130570000D03*
%TD*%
D16*
%TO.P,J9,G*%
%TO.N,GND*%
X45750000Y-125500000D03*
D17*
%TO.P,J9,S1*%
%TO.N,unconnected-(J9-PadS1)*%
X53650000Y-120300000D03*
D18*
%TO.P,J9,SN1*%
%TO.N,unconnected-(J9-PadSN1)*%
X52650000Y-122900000D03*
D17*
%TO.P,J9,T1*%
%TO.N,Net-(J9-PadT1)*%
X50150000Y-130300000D03*
D19*
%TO.P,J9,TN1*%
%TO.N,unconnected-(J9-PadTN1)*%
X57050000Y-129800000D03*
%TD*%
D12*
%TO.P,R10,1*%
%TO.N,Net-(C8-Pad2)*%
X72250000Y-90000000D03*
D20*
%TO.P,R10,2*%
%TO.N,Net-(C9-Pad2)*%
X79870000Y-90000000D03*
%TD*%
D13*
%TO.P,C10,1*%
%TO.N,FROMDAC*%
X87540000Y-79690000D03*
D12*
%TO.P,C10,2*%
%TO.N,Net-(C10-Pad2)*%
X87540000Y-77190000D03*
%TD*%
D25*
%TO.P,JP1,1,A*%
%TO.N,Net-(JP1-Pad1)*%
X83935000Y-147128000D03*
D26*
%TO.P,JP1,2,B*%
%TO.N,VREF*%
X86475000Y-147128000D03*
%TD*%
D13*
%TO.P,U6,1,X4*%
%TO.N,Net-(J8-PadT1)*%
X99800000Y-143540000D03*
D20*
%TO.P,U6,2,X6*%
%TO.N,Net-(J9-PadT1)*%
X102340000Y-143540000D03*
%TO.P,U6,3,X*%
%TO.N,CTRLIN*%
X104880000Y-143540000D03*
%TO.P,U6,4,X7*%
%TO.N,unconnected-(U6-Pad4)*%
X107420000Y-143540000D03*
%TO.P,U6,5,X5*%
%TO.N,unconnected-(U6-Pad5)*%
X109960000Y-143540000D03*
%TO.P,U6,6,Inh*%
%TO.N,GND*%
X112500000Y-143540000D03*
%TO.P,U6,7,VEE*%
X115040000Y-143540000D03*
%TO.P,U6,8,VSS*%
X117580000Y-143540000D03*
%TO.P,U6,9,C*%
%TO.N,Net-(Q3-Pad3)*%
X117580000Y-135920000D03*
%TO.P,U6,10,B*%
%TO.N,Net-(Q2-Pad3)*%
X115040000Y-135920000D03*
%TO.P,U6,11,A*%
%TO.N,Net-(Q1-Pad3)*%
X112500000Y-135920000D03*
%TO.P,U6,12,X3*%
%TO.N,Net-(C26-Pad2)*%
X109960000Y-135920000D03*
%TO.P,U6,13,X0*%
%TO.N,Net-(C29-Pad2)*%
X107420000Y-135920000D03*
%TO.P,U6,14,X1*%
%TO.N,Net-(C28-Pad2)*%
X104880000Y-135920000D03*
%TO.P,U6,15,X2*%
%TO.N,Net-(C27-Pad2)*%
X102340000Y-135920000D03*
%TO.P,U6,16,VDD*%
%TO.N,+5V*%
X99800000Y-135920000D03*
%TD*%
D12*
%TO.P,C24,1*%
%TO.N,GND*%
X70618000Y-114362000D03*
%TO.P,C24,2*%
%TO.N,+3V3*%
X75618000Y-114362000D03*
%TD*%
%TO.P,R28,1*%
%TO.N,Net-(R28-Pad1)*%
X96590000Y-89940000D03*
D20*
%TO.P,R28,2*%
%TO.N,GND*%
X96590000Y-82320000D03*
%TD*%
D12*
%TO.P,R2,1*%
%TO.N,GND*%
X68700000Y-85820000D03*
D20*
%TO.P,R2,2*%
%TO.N,BIAS*%
X68700000Y-78200000D03*
%TD*%
D14*
%TO.P,Q2,1,E*%
%TO.N,GND*%
X105250000Y-127000000D03*
D15*
%TO.P,Q2,2,B*%
%TO.N,Net-(Q2-Pad2)*%
X105250000Y-129540000D03*
%TO.P,Q2,3,C*%
%TO.N,Net-(Q2-Pad3)*%
X105250000Y-132080000D03*
%TD*%
D12*
%TO.P,R14,1*%
%TO.N,Net-(C12-Pad2)*%
X103070000Y-86160000D03*
D20*
%TO.P,R14,2*%
%TO.N,Net-(C13-Pad2)*%
X103070000Y-78540000D03*
%TD*%
D12*
%TO.P,R47,1*%
%TO.N,Net-(JP1-Pad1)*%
X86100000Y-150390000D03*
D20*
%TO.P,R47,2*%
%TO.N,Net-(J8-PadT1)*%
X86100000Y-158010000D03*
%TD*%
D12*
%TO.P,C12,1*%
%TO.N,BIAS*%
X113210000Y-81070000D03*
%TO.P,C12,2*%
%TO.N,Net-(C12-Pad2)*%
X113210000Y-86070000D03*
%TD*%
%TO.P,R16,1*%
%TO.N,GND*%
X89980000Y-70880000D03*
D20*
%TO.P,R16,2*%
%TO.N,Net-(C13-Pad1)*%
X97600000Y-70880000D03*
%TD*%
D12*
%TO.P,C26,1*%
%TO.N,GND*%
X125450000Y-145570000D03*
%TO.P,C26,2*%
%TO.N,Net-(C26-Pad2)*%
X120450000Y-145570000D03*
%TD*%
D27*
%TO.P,J5,1*%
%TO.N,GND*%
X56902000Y-105472000D03*
D28*
%TO.P,J5,2*%
%TO.N,Net-(C20-Pad1)*%
X50902000Y-105472000D03*
D29*
%TO.P,J5,3*%
%TO.N,unconnected-(J5-Pad3)*%
X53902000Y-110172000D03*
%TD*%
D12*
%TO.P,R36,1*%
%TO.N,+3V3*%
X79280000Y-110960000D03*
D20*
%TO.P,R36,2*%
%TO.N,SCL*%
X86900000Y-110960000D03*
%TD*%
D12*
%TO.P,C1,1*%
%TO.N,BIAS*%
X61250000Y-91500000D03*
%TO.P,C1,2*%
%TO.N,GND*%
X61250000Y-96500000D03*
%TD*%
%TO.P,C8,1*%
%TO.N,BIAS*%
X83130000Y-81750000D03*
%TO.P,C8,2*%
%TO.N,Net-(C8-Pad2)*%
X83130000Y-86750000D03*
%TD*%
%TO.P,C29,1*%
%TO.N,GND*%
X91240000Y-142680000D03*
%TO.P,C29,2*%
%TO.N,Net-(C29-Pad2)*%
X96240000Y-142680000D03*
%TD*%
D30*
%TO.P,RV6,1,1*%
%TO.N,GND*%
X97790000Y-146558000D03*
D31*
%TO.P,RV6,2,2*%
%TO.N,Net-(C29-Pad2)*%
X95290000Y-146558000D03*
%TO.P,RV6,3,3*%
%TO.N,VREF*%
X92790000Y-146558000D03*
D32*
%TO.P,RV6,MP*%
%TO.N,N/C*%
X90890000Y-153558000D03*
X99690000Y-153558000D03*
%TD*%
D12*
%TO.P,R52,1*%
%TO.N,Net-(J6-Pad2)*%
X116560000Y-92010000D03*
D20*
%TO.P,R52,2*%
%TO.N,G2*%
X116560000Y-99630000D03*
%TD*%
D13*
%TO.P,C7,1*%
%TO.N,Net-(C7-Pad1)*%
X85160000Y-72550000D03*
D12*
%TO.P,C7,2*%
%TO.N,Net-(C7-Pad2)*%
X85160000Y-70050000D03*
%TD*%
%TO.P,R11,1*%
%TO.N,Net-(C9-Pad1)*%
X72250000Y-93500000D03*
D20*
%TO.P,R11,2*%
%TO.N,Net-(C8-Pad2)*%
X79870000Y-93500000D03*
%TD*%
D12*
%TO.P,C14,1*%
%TO.N,+5V*%
X105440000Y-71030000D03*
%TO.P,C14,2*%
%TO.N,GND*%
X105440000Y-76030000D03*
%TD*%
%TO.P,R22,1*%
%TO.N,Net-(J3-PadS1)*%
X132750000Y-82210000D03*
D20*
%TO.P,R22,2*%
%TO.N,Net-(C17-Pad2)*%
X125130000Y-82210000D03*
%TD*%
D33*
%TO.P,J1,1,Pin_1*%
%TO.N,GND*%
X49000000Y-95540000D03*
D34*
%TO.P,J1,2,Pin_2*%
%TO.N,Net-(J1-Pad2)*%
X49000000Y-90460000D03*
%TD*%
D12*
%TO.P,C23,1*%
%TO.N,TOADC*%
X114808000Y-127000000D03*
%TO.P,C23,2*%
%TO.N,GND*%
X114808000Y-132000000D03*
%TD*%
D13*
%TO.P,C2,1*%
%TO.N,BIAS*%
X65830000Y-92610000D03*
D12*
%TO.P,C2,2*%
%TO.N,GND*%
X65830000Y-95110000D03*
%TD*%
%TO.P,R25,1*%
%TO.N,Net-(R25-Pad1)*%
X76206000Y-111060000D03*
D20*
%TO.P,R25,2*%
%TO.N,VREF*%
X68586000Y-111060000D03*
%TD*%
D12*
%TO.P,C18,1*%
%TO.N,BIAS*%
X119710000Y-80890000D03*
%TO.P,C18,2*%
%TO.N,GND*%
X119710000Y-85890000D03*
%TD*%
%TO.P,R39,1*%
%TO.N,+5V*%
X124340000Y-134690000D03*
D20*
%TO.P,R39,2*%
%TO.N,Net-(Q1-Pad3)*%
X124340000Y-142310000D03*
%TD*%
D12*
%TO.P,R55,1*%
%TO.N,+3V3*%
X132760000Y-99330000D03*
D20*
%TO.P,R55,2*%
%TO.N,Net-(J6-Pad9)*%
X132760000Y-91710000D03*
%TD*%
D12*
%TO.P,C13,1*%
%TO.N,Net-(C13-Pad1)*%
X109770000Y-78830000D03*
%TO.P,C13,2*%
%TO.N,Net-(C13-Pad2)*%
X109770000Y-83830000D03*
%TD*%
%TO.P,C30,1*%
%TO.N,CTRLIN*%
X103820000Y-146460000D03*
%TO.P,C30,2*%
%TO.N,GND*%
X103820000Y-151460000D03*
%TD*%
D35*
%TO.P,RV1,1,1*%
%TO.N,Net-(C7-Pad2)*%
X70250000Y-66000000D03*
D31*
X72750000Y-63000000D03*
D35*
%TO.P,RV1,2,2*%
%TO.N,Net-(R5-Pad1)*%
X75250000Y-66000000D03*
D31*
X75250000Y-63000000D03*
D35*
%TO.P,RV1,3,3*%
X80250000Y-66000000D03*
D31*
X77750000Y-63000000D03*
%TD*%
D12*
%TO.P,R12,1*%
%TO.N,GND*%
X61250000Y-88610000D03*
D20*
%TO.P,R12,2*%
%TO.N,Net-(R12-Pad2)*%
X68870000Y-88610000D03*
%TD*%
D12*
%TO.P,R18,1*%
%TO.N,Net-(C15-Pad2)*%
X116440000Y-88400000D03*
D20*
%TO.P,R18,2*%
%TO.N,BIAS*%
X116440000Y-80780000D03*
%TD*%
D12*
%TO.P,R40,1*%
%TO.N,SEL1*%
X93250000Y-126750000D03*
D20*
%TO.P,R40,2*%
%TO.N,Net-(Q2-Pad2)*%
X93250000Y-134370000D03*
%TD*%
D26*
%TO.P,U3,1,GPIO0*%
%TO.N,B0*%
X140380000Y-104610000D03*
%TO.P,U3,2,GPIO1*%
%TO.N,B1*%
X137840000Y-104610000D03*
D25*
%TO.P,U3,3,GND*%
%TO.N,GND*%
X135300000Y-104610000D03*
D26*
%TO.P,U3,4,GPIO2*%
%TO.N,G0*%
X132760000Y-104610000D03*
%TO.P,U3,5,GPIO3*%
%TO.N,G1*%
X130220000Y-104610000D03*
%TO.P,U3,6,GPIO4*%
%TO.N,G2*%
X127680000Y-104610000D03*
%TO.P,U3,7,GPIO5*%
%TO.N,R0*%
X125140000Y-104610000D03*
D25*
%TO.P,U3,8,GND*%
%TO.N,GND*%
X122600000Y-104610000D03*
D26*
%TO.P,U3,9,GPIO6*%
%TO.N,R1*%
X120060000Y-104610000D03*
%TO.P,U3,10,GPIO7*%
%TO.N,R2*%
X117520000Y-104610000D03*
%TO.P,U3,11,GPIO8*%
%TO.N,SYNC*%
X114980000Y-104610000D03*
%TO.P,U3,12,GPIO9*%
%TO.N,VSYNC*%
X112440000Y-104610000D03*
D25*
%TO.P,U3,13,GND*%
%TO.N,GND*%
X109900000Y-104610000D03*
D26*
%TO.P,U3,14,GPIO10*%
%TO.N,SDA*%
X107360000Y-104610000D03*
%TO.P,U3,15,GPIO11*%
%TO.N,SCL*%
X104820000Y-104610000D03*
%TO.P,U3,16,GPIO12*%
%TO.N,Net-(R29-Pad2)*%
X102280000Y-104610000D03*
%TO.P,U3,17,GPIO13*%
%TO.N,Net-(R31-Pad2)*%
X99740000Y-104610000D03*
D25*
%TO.P,U3,18,GND*%
%TO.N,GND*%
X97200000Y-104610000D03*
D26*
%TO.P,U3,19,GPIO14*%
%TO.N,Net-(R33-Pad2)*%
X94660000Y-104610000D03*
%TO.P,U3,20,GPIO15*%
%TO.N,Net-(R35-Pad2)*%
X92120000Y-104610000D03*
%TO.P,U3,21,GPIO16*%
%TO.N,SEL0*%
X92120000Y-122390000D03*
%TO.P,U3,22,GPIO17*%
%TO.N,SEL1*%
X94660000Y-122390000D03*
D25*
%TO.P,U3,23,GND*%
%TO.N,GND*%
X97200000Y-122390000D03*
D26*
%TO.P,U3,24,GPIO18*%
%TO.N,SEL2*%
X99740000Y-122390000D03*
%TO.P,U3,25,GPIO19*%
%TO.N,BUTTON1*%
X102280000Y-122390000D03*
%TO.P,U3,26,GPIO20*%
%TO.N,BUTTON2*%
X104820000Y-122390000D03*
%TO.P,U3,27,GPIO21*%
%TO.N,BUTTON3*%
X107360000Y-122390000D03*
D25*
%TO.P,U3,28,GND*%
%TO.N,GND*%
X109900000Y-122390000D03*
D26*
%TO.P,U3,29,GPIO22*%
%TO.N,BUTTON4*%
X112440000Y-122390000D03*
%TO.P,U3,30,RUN*%
%TO.N,Net-(R44-Pad2)*%
X114980000Y-122390000D03*
%TO.P,U3,31,GPIO26_ADC0*%
%TO.N,TOADC*%
X117520000Y-122390000D03*
%TO.P,U3,32,GPIO27_ADC1*%
%TO.N,CTRLIN*%
X120060000Y-122390000D03*
D25*
%TO.P,U3,33,AGND*%
%TO.N,GND*%
X122600000Y-122390000D03*
D26*
%TO.P,U3,34,GPIO28_ADC2*%
%TO.N,BUTTON5*%
X125140000Y-122390000D03*
%TO.P,U3,35,ADC_VREF*%
%TO.N,VREF*%
X127680000Y-122390000D03*
%TO.P,U3,36,3V3*%
%TO.N,+3V3*%
X130220000Y-122390000D03*
%TO.P,U3,37,3V3_EN*%
%TO.N,Net-(R23-Pad1)*%
X132760000Y-122390000D03*
D25*
%TO.P,U3,38,GND*%
%TO.N,GND*%
X135300000Y-122390000D03*
D26*
%TO.P,U3,39,VSYS*%
%TO.N,Net-(R23-Pad2)*%
X137840000Y-122390000D03*
%TO.P,U3,40,VBUS*%
%TO.N,+5V*%
X140380000Y-122390000D03*
%TO.P,U3,41,SWCLK*%
%TO.N,unconnected-(U3-Pad41)*%
X92350000Y-110960000D03*
D25*
%TO.P,U3,42,GND*%
%TO.N,unconnected-(U3-Pad42)*%
X92350000Y-113500000D03*
D26*
%TO.P,U3,43,SWDIO*%
%TO.N,unconnected-(U3-Pad43)*%
X92350000Y-116040000D03*
%TD*%
D13*
%TO.P,C20,1*%
%TO.N,Net-(C20-Pad1)*%
X61220000Y-101876000D03*
D12*
%TO.P,C20,2*%
%TO.N,GND*%
X61220000Y-99376000D03*
%TD*%
%TO.P,C31,1*%
%TO.N,GND*%
X86140000Y-102910000D03*
%TO.P,C31,2*%
%TO.N,VREF*%
X86140000Y-107910000D03*
%TD*%
%TO.P,R8,1*%
%TO.N,GND*%
X96570000Y-74010000D03*
D20*
%TO.P,R8,2*%
%TO.N,Net-(C7-Pad2)*%
X88950000Y-74010000D03*
%TD*%
D12*
%TO.P,R49,1*%
%TO.N,Net-(J6-Pad1)*%
X106910000Y-92020000D03*
D20*
%TO.P,R49,2*%
%TO.N,R2*%
X106910000Y-99640000D03*
%TD*%
D12*
%TO.P,R57,1*%
%TO.N,Net-(J6-Pad14)*%
X100580000Y-90920000D03*
D20*
%TO.P,R57,2*%
%TO.N,VSYNC*%
X100580000Y-98540000D03*
%TD*%
D12*
%TO.P,C25,1*%
%TO.N,+5V*%
X95750000Y-137250000D03*
%TO.P,C25,2*%
%TO.N,GND*%
X90750000Y-137250000D03*
%TD*%
%TO.P,R41,1*%
%TO.N,+5V*%
X121160000Y-134660000D03*
D20*
%TO.P,R41,2*%
%TO.N,Net-(Q2-Pad3)*%
X121160000Y-142280000D03*
%TD*%
D12*
%TO.P,R48,1*%
%TO.N,Net-(JP2-Pad1)*%
X57890000Y-117570000D03*
D20*
%TO.P,R48,2*%
%TO.N,Net-(J9-PadT1)*%
X50270000Y-117570000D03*
%TD*%
D12*
%TO.P,R29,1*%
%TO.N,Net-(R28-Pad1)*%
X96590000Y-92200000D03*
D20*
%TO.P,R29,2*%
%TO.N,Net-(R29-Pad2)*%
X96590000Y-99820000D03*
%TD*%
D12*
%TO.P,R1,1*%
%TO.N,BIAS*%
X62100000Y-85820000D03*
D20*
%TO.P,R1,2*%
%TO.N,+5V*%
X62100000Y-78200000D03*
%TD*%
D16*
%TO.P,J2,G*%
%TO.N,GND*%
X46700000Y-81000000D03*
D17*
%TO.P,J2,S1*%
%TO.N,unconnected-(J2-PadS1)*%
X54600000Y-75800000D03*
D18*
%TO.P,J2,SN1*%
%TO.N,unconnected-(J2-PadSN1)*%
X53600000Y-78400000D03*
D17*
%TO.P,J2,T1*%
%TO.N,Net-(J1-Pad2)*%
X51100000Y-85800000D03*
D19*
%TO.P,J2,TN1*%
%TO.N,unconnected-(J2-PadTN1)*%
X58000000Y-85300000D03*
%TD*%
D12*
%TO.P,R27,1*%
%TO.N,VREF*%
X72470000Y-107350000D03*
D20*
%TO.P,R27,2*%
%TO.N,+5V*%
X80090000Y-107350000D03*
%TD*%
D12*
%TO.P,R35,1*%
%TO.N,FROMDAC*%
X86930000Y-92300000D03*
D20*
%TO.P,R35,2*%
%TO.N,Net-(R35-Pad2)*%
X86930000Y-99920000D03*
%TD*%
D36*
%TO.P,SW2,1,1*%
%TO.N,GND*%
X137730000Y-148670000D03*
X137730000Y-142170000D03*
%TO.P,SW2,2,2*%
%TO.N,BUTTON2*%
X142230000Y-142170000D03*
X142230000Y-148670000D03*
%TD*%
%TO.P,SW3,1,1*%
%TO.N,GND*%
X129070000Y-139340000D03*
X129070000Y-145840000D03*
%TO.P,SW3,2,2*%
%TO.N,BUTTON3*%
X133570000Y-145840000D03*
X133570000Y-139340000D03*
%TD*%
D12*
%TO.P,R54,1*%
%TO.N,Net-(J6-Pad3)*%
X126070000Y-92060000D03*
D20*
%TO.P,R54,2*%
%TO.N,B1*%
X126070000Y-99680000D03*
%TD*%
D12*
%TO.P,R33,1*%
%TO.N,Net-(R32-Pad1)*%
X90130000Y-92270000D03*
D20*
%TO.P,R33,2*%
%TO.N,Net-(R33-Pad2)*%
X90130000Y-99890000D03*
%TD*%
D13*
%TO.P,C5,1*%
%TO.N,Net-(C5-Pad1)*%
X53050000Y-70950000D03*
D12*
%TO.P,C5,2*%
%TO.N,GND*%
X50550000Y-70950000D03*
%TD*%
%TO.P,R5,1*%
%TO.N,Net-(R5-Pad1)*%
X66460000Y-63300000D03*
D20*
%TO.P,R5,2*%
%TO.N,Net-(C5-Pad1)*%
X58840000Y-63300000D03*
%TD*%
D30*
%TO.P,RV5,1,1*%
%TO.N,GND*%
X77730000Y-146620000D03*
D31*
%TO.P,RV5,2,2*%
%TO.N,Net-(C28-Pad2)*%
X75230000Y-146620000D03*
%TO.P,RV5,3,3*%
%TO.N,VREF*%
X72730000Y-146620000D03*
D32*
%TO.P,RV5,MP*%
%TO.N,N/C*%
X70830000Y-153620000D03*
X79630000Y-153620000D03*
%TD*%
D12*
%TO.P,R26,1*%
%TO.N,GND*%
X60460000Y-106430000D03*
D20*
%TO.P,R26,2*%
%TO.N,Net-(R25-Pad1)*%
X60460000Y-114050000D03*
%TD*%
D13*
%TO.P,C16,1*%
%TO.N,Net-(C16-Pad1)*%
X86874000Y-64832000D03*
D12*
%TO.P,C16,2*%
%TO.N,GND*%
X84374000Y-64832000D03*
%TD*%
%TO.P,R4,1*%
%TO.N,GND*%
X58000000Y-97000000D03*
D20*
%TO.P,R4,2*%
%TO.N,Net-(C3-Pad1)*%
X58000000Y-89380000D03*
%TD*%
D13*
%TO.P,U1,1*%
%TO.N,Net-(C9-Pad1)*%
X73000000Y-78800000D03*
D20*
%TO.P,U1,2,-*%
%TO.N,Net-(C9-Pad2)*%
X75540000Y-78800000D03*
%TO.P,U1,3,+*%
%TO.N,BIAS*%
X78080000Y-78800000D03*
%TO.P,U1,4,V-*%
%TO.N,GND*%
X80620000Y-78800000D03*
%TO.P,U1,5,+*%
%TO.N,Net-(C4-Pad1)*%
X80620000Y-71180000D03*
%TO.P,U1,6,-*%
%TO.N,Net-(R5-Pad1)*%
X78080000Y-71180000D03*
%TO.P,U1,7*%
%TO.N,Net-(C7-Pad2)*%
X75540000Y-71180000D03*
%TO.P,U1,8,V+*%
%TO.N,+5V*%
X73000000Y-71180000D03*
%TD*%
D12*
%TO.P,R45,1*%
%TO.N,Net-(J6-Pad1)*%
X113410000Y-92000000D03*
D20*
%TO.P,R45,2*%
%TO.N,R0*%
X113410000Y-99620000D03*
%TD*%
D12*
%TO.P,R7,1*%
%TO.N,Net-(C7-Pad2)*%
X66440000Y-66430000D03*
D20*
%TO.P,R7,2*%
%TO.N,Net-(R5-Pad1)*%
X58820000Y-66430000D03*
%TD*%
D13*
%TO.P,C19,1*%
%TO.N,+5V*%
X64770000Y-106240000D03*
D12*
%TO.P,C19,2*%
%TO.N,GND*%
X64770000Y-103740000D03*
%TD*%
%TO.P,R3,1*%
%TO.N,Net-(C3-Pad1)*%
X54750000Y-97000000D03*
D20*
%TO.P,R3,2*%
%TO.N,Net-(J1-Pad2)*%
X54750000Y-89380000D03*
%TD*%
D12*
%TO.P,R38,1*%
%TO.N,SEL0*%
X90000000Y-126750000D03*
D20*
%TO.P,R38,2*%
%TO.N,Net-(Q1-Pad2)*%
X90000000Y-134370000D03*
%TD*%
D37*
%TO.P,J6,0*%
%TO.N,N/C*%
X139810000Y-97215000D03*
X139810000Y-72215000D03*
D13*
%TO.P,J6,1*%
%TO.N,Net-(J6-Pad1)*%
X137760000Y-80400000D03*
D12*
%TO.P,J6,2*%
%TO.N,Net-(J6-Pad2)*%
X137760000Y-82690000D03*
%TO.P,J6,3*%
%TO.N,Net-(J6-Pad3)*%
X137760000Y-84980000D03*
%TO.P,J6,4*%
%TO.N,unconnected-(J6-Pad4)*%
X137760000Y-87270000D03*
%TO.P,J6,5*%
%TO.N,GND*%
X137760000Y-89560000D03*
%TO.P,J6,6*%
X139740000Y-79255000D03*
%TO.P,J6,7*%
X139740000Y-81545000D03*
%TO.P,J6,8*%
X139740000Y-83835000D03*
%TO.P,J6,9*%
%TO.N,Net-(J6-Pad9)*%
X139740000Y-86125000D03*
%TO.P,J6,10*%
%TO.N,unconnected-(J6-Pad10)*%
X139740000Y-88415000D03*
%TO.P,J6,11*%
%TO.N,unconnected-(J6-Pad11)*%
X141720000Y-80400000D03*
%TO.P,J6,12*%
%TO.N,unconnected-(J6-Pad12)*%
X141720000Y-82690000D03*
%TO.P,J6,13*%
%TO.N,Net-(J6-Pad13)*%
X141720000Y-84980000D03*
%TO.P,J6,14*%
%TO.N,Net-(J6-Pad14)*%
X141720000Y-87270000D03*
%TO.P,J6,15*%
%TO.N,unconnected-(J6-Pad15)*%
X141720000Y-89560000D03*
%TD*%
D36*
%TO.P,SW4,1,1*%
%TO.N,GND*%
X129220000Y-158030000D03*
X129220000Y-151530000D03*
%TO.P,SW4,2,2*%
%TO.N,BUTTON4*%
X133720000Y-151530000D03*
X133720000Y-158030000D03*
%TD*%
%TO.P,SW5,1,1*%
%TO.N,GND*%
X121320000Y-151610000D03*
X121320000Y-158110000D03*
%TO.P,SW5,2,2*%
%TO.N,BUTTON5*%
X125820000Y-151610000D03*
X125820000Y-158110000D03*
%TD*%
D12*
%TO.P,R17,1*%
%TO.N,Net-(R17-Pad1)*%
X108680000Y-68140000D03*
D20*
%TO.P,R17,2*%
%TO.N,Net-(C16-Pad1)*%
X108680000Y-75760000D03*
%TD*%
D12*
%TO.P,R37,1*%
%TO.N,SDA*%
X86860000Y-114160000D03*
D20*
%TO.P,R37,2*%
%TO.N,+3V3*%
X79240000Y-114160000D03*
%TD*%
D12*
%TO.P,R20,1*%
%TO.N,GND*%
X132770000Y-79040000D03*
D20*
%TO.P,R20,2*%
%TO.N,Net-(C17-Pad1)*%
X125150000Y-79040000D03*
%TD*%
D12*
%TO.P,R43,1*%
%TO.N,+5V*%
X125222000Y-130500000D03*
D20*
%TO.P,R43,2*%
%TO.N,Net-(Q3-Pad3)*%
X117602000Y-130500000D03*
%TD*%
D12*
%TO.P,R32,1*%
%TO.N,Net-(R32-Pad1)*%
X90290000Y-89980000D03*
D20*
%TO.P,R32,2*%
%TO.N,Net-(R30-Pad1)*%
X90290000Y-82360000D03*
%TD*%
D12*
%TO.P,C6,1*%
%TO.N,+5V*%
X69500000Y-69750000D03*
%TO.P,C6,2*%
%TO.N,GND*%
X64500000Y-69750000D03*
%TD*%
%TO.P,R6,1*%
%TO.N,Net-(C4-Pad1)*%
X65390000Y-78190000D03*
D20*
%TO.P,R6,2*%
%TO.N,BIAS*%
X65390000Y-85810000D03*
%TD*%
D14*
%TO.P,Q1,1,E*%
%TO.N,GND*%
X100280000Y-127000000D03*
D15*
%TO.P,Q1,2,B*%
%TO.N,Net-(Q1-Pad2)*%
X100280000Y-129540000D03*
%TO.P,Q1,3,C*%
%TO.N,Net-(Q1-Pad3)*%
X100280000Y-132080000D03*
%TD*%
D12*
%TO.P,R13,1*%
%TO.N,Net-(C11-Pad1)*%
X99870000Y-78510000D03*
D20*
%TO.P,R13,2*%
%TO.N,Net-(C12-Pad2)*%
X99870000Y-86130000D03*
%TD*%
D12*
%TO.P,R30,1*%
%TO.N,Net-(R30-Pad1)*%
X93420000Y-89960000D03*
D20*
%TO.P,R30,2*%
%TO.N,Net-(R28-Pad1)*%
X93420000Y-82340000D03*
%TD*%
D14*
%TO.P,U5,1,REF*%
%TO.N,Net-(R25-Pad1)*%
X65306000Y-115124000D03*
D15*
%TO.P,U5,2,A*%
%TO.N,GND*%
X65306000Y-112584000D03*
%TO.P,U5,3,K*%
%TO.N,VREF*%
X65306000Y-110044000D03*
%TD*%
D12*
%TO.P,R44,1*%
%TO.N,+3V3*%
X125222000Y-127254000D03*
D20*
%TO.P,R44,2*%
%TO.N,Net-(R44-Pad2)*%
X117602000Y-127254000D03*
%TD*%
D12*
%TO.P,R34,1*%
%TO.N,FROMDAC*%
X87120000Y-90000000D03*
D20*
%TO.P,R34,2*%
%TO.N,Net-(R32-Pad1)*%
X87120000Y-82380000D03*
%TD*%
D12*
%TO.P,C21,1*%
%TO.N,Net-(C21-Pad1)*%
X69230000Y-102830000D03*
%TO.P,C21,2*%
%TO.N,GND*%
X69230000Y-107830000D03*
%TD*%
D13*
%TO.P,U2,1*%
%TO.N,Net-(C13-Pad1)*%
X113160000Y-78010000D03*
D20*
%TO.P,U2,2,-*%
%TO.N,Net-(C13-Pad2)*%
X115700000Y-78010000D03*
%TO.P,U2,3,+*%
%TO.N,BIAS*%
X118240000Y-78010000D03*
%TO.P,U2,4,V-*%
%TO.N,GND*%
X120780000Y-78010000D03*
%TO.P,U2,5,+*%
%TO.N,Net-(C15-Pad2)*%
X120780000Y-70390000D03*
%TO.P,U2,6,-*%
%TO.N,Net-(R17-Pad1)*%
X118240000Y-70390000D03*
%TO.P,U2,7*%
%TO.N,Net-(C17-Pad1)*%
X115700000Y-70390000D03*
%TO.P,U2,8,V+*%
%TO.N,+5V*%
X113160000Y-70390000D03*
%TD*%
D13*
%TO.P,D2,1,K*%
%TO.N,VREF*%
X82950000Y-107480000D03*
D20*
%TO.P,D2,2,A*%
%TO.N,TOADC*%
X82950000Y-99860000D03*
%TD*%
D12*
%TO.P,R31,1*%
%TO.N,Net-(R30-Pad1)*%
X93380000Y-92230000D03*
D20*
%TO.P,R31,2*%
%TO.N,Net-(R31-Pad2)*%
X93380000Y-99850000D03*
%TD*%
D12*
%TO.P,C28,1*%
%TO.N,GND*%
X66808000Y-151140000D03*
%TO.P,C28,2*%
%TO.N,Net-(C28-Pad2)*%
X66808000Y-146140000D03*
%TD*%
D13*
%TO.P,C17,1*%
%TO.N,Net-(C17-Pad1)*%
X126885113Y-86750000D03*
D12*
%TO.P,C17,2*%
%TO.N,Net-(C17-Pad2)*%
X124385113Y-86750000D03*
%TD*%
D30*
%TO.P,RV4,1,1*%
%TO.N,GND*%
X60706000Y-146558000D03*
D31*
%TO.P,RV4,2,2*%
%TO.N,Net-(C27-Pad2)*%
X58206000Y-146558000D03*
%TO.P,RV4,3,3*%
%TO.N,VREF*%
X55706000Y-146558000D03*
D32*
%TO.P,RV4,MP*%
%TO.N,N/C*%
X53806000Y-153558000D03*
X62606000Y-153558000D03*
%TD*%
D12*
%TO.P,C9,1*%
%TO.N,Net-(C9-Pad1)*%
X73750000Y-82500000D03*
%TO.P,C9,2*%
%TO.N,Net-(C9-Pad2)*%
X78750000Y-82500000D03*
%TD*%
%TO.P,R53,1*%
%TO.N,Net-(J6-Pad3)*%
X129290000Y-92060000D03*
D20*
%TO.P,R53,2*%
%TO.N,B0*%
X129290000Y-99680000D03*
%TD*%
D12*
%TO.P,C3,1*%
%TO.N,Net-(C3-Pad1)*%
X60990000Y-72250000D03*
%TO.P,C3,2*%
%TO.N,GND*%
X55990000Y-72250000D03*
%TD*%
%TO.P,R42,1*%
%TO.N,SEL2*%
X96500000Y-126750000D03*
D20*
%TO.P,R42,2*%
%TO.N,Net-(Q3-Pad2)*%
X96500000Y-134370000D03*
%TD*%
D12*
%TO.P,R24,1*%
%TO.N,TOADC*%
X82970000Y-97350000D03*
D20*
%TO.P,R24,2*%
%TO.N,Net-(R12-Pad2)*%
X82970000Y-89730000D03*
%TD*%
D33*
%TO.P,J4,1,Pin_1*%
%TO.N,GND*%
X118130000Y-64450000D03*
D34*
%TO.P,J4,2,Pin_2*%
%TO.N,Net-(J3-PadS1)*%
X113050000Y-64450000D03*
%TD*%
D12*
%TO.P,R50,1*%
%TO.N,Net-(J6-Pad2)*%
X122900000Y-92050000D03*
D20*
%TO.P,R50,2*%
%TO.N,G0*%
X122900000Y-99670000D03*
%TD*%
D12*
%TO.P,R15,1*%
%TO.N,Net-(C12-Pad2)*%
X106420000Y-86340000D03*
D20*
%TO.P,R15,2*%
%TO.N,Net-(C13-Pad1)*%
X106420000Y-78720000D03*
%TD*%
D12*
%TO.P,C27,1*%
%TO.N,GND*%
X45230000Y-147080000D03*
%TO.P,C27,2*%
%TO.N,Net-(C27-Pad2)*%
X50230000Y-147080000D03*
%TD*%
D35*
%TO.P,RV2,1,1*%
%TO.N,Net-(C17-Pad1)*%
X93220000Y-65980000D03*
D31*
X95720000Y-62980000D03*
D35*
%TO.P,RV2,2,2*%
%TO.N,Net-(R17-Pad1)*%
X98220000Y-65980000D03*
D31*
X98220000Y-62980000D03*
%TO.P,RV2,3,3*%
X100720000Y-62980000D03*
D35*
X103220000Y-65980000D03*
%TD*%
D12*
%TO.P,R51,1*%
%TO.N,Net-(J6-Pad2)*%
X119740000Y-92040000D03*
D20*
%TO.P,R51,2*%
%TO.N,G1*%
X119740000Y-99660000D03*
%TD*%
D36*
%TO.P,SW1,1,1*%
%TO.N,GND*%
X137770000Y-138820000D03*
X137770000Y-132320000D03*
%TO.P,SW1,2,2*%
%TO.N,BUTTON1*%
X142270000Y-132320000D03*
X142270000Y-138820000D03*
%TD*%
D30*
%TO.P,RV3,1,1*%
%TO.N,GND*%
X114808000Y-146558000D03*
D31*
%TO.P,RV3,2,2*%
%TO.N,Net-(C26-Pad2)*%
X112308000Y-146558000D03*
%TO.P,RV3,3,3*%
%TO.N,VREF*%
X109808000Y-146558000D03*
D32*
%TO.P,RV3,MP*%
%TO.N,N/C*%
X116708000Y-153558000D03*
X107908000Y-153558000D03*
%TD*%
D38*
%TO.N,+5V*%
X124550000Y-116460000D03*
%TO.N,TOADC*%
X116800000Y-115130000D03*
%TO.N,Net-(C26-Pad2)*%
X110300000Y-139114500D03*
%TO.N,Net-(C27-Pad2)*%
X101082818Y-138159500D03*
%TO.N,Net-(C28-Pad2)*%
X103770000Y-138360000D03*
%TO.N,Net-(C29-Pad2)*%
X105550000Y-138320000D03*
%TO.N,Net-(J6-Pad14)*%
X142750000Y-92550000D03*
%TO.N,+3V3*%
X121890000Y-115410000D03*
X102080000Y-120180000D03*
%TO.N,SCL*%
X103780000Y-108230000D03*
%TO.N,SDA*%
X105040000Y-109080000D03*
%TO.N,VREF*%
X122750000Y-117280000D03*
%TO.N,Net-(Q1-Pad3)*%
X113620000Y-138480000D03*
%TO.N,Net-(Q2-Pad3)*%
X116370000Y-139230000D03*
%TD*%
D39*
%TO.N,Net-(C20-Pad1)*%
X62084000Y-101876000D02*
X64660000Y-99300000D01*
X64660000Y-99300000D02*
X72900000Y-99300000D01*
X61220000Y-101876000D02*
X62084000Y-101876000D01*
X54498000Y-101876000D02*
X50902000Y-105472000D01*
X61220000Y-101876000D02*
X54498000Y-101876000D01*
%TO.N,BIAS*%
X107140000Y-83770000D02*
X98790000Y-83770000D01*
X113974000Y-83994000D02*
X112576000Y-83994000D01*
X62110000Y-85810000D02*
X62100000Y-85820000D01*
X82100000Y-80720000D02*
X80000000Y-80720000D01*
X65830000Y-92770000D02*
X65830000Y-92610000D01*
X65390000Y-88360000D02*
X62250000Y-91500000D01*
X118240000Y-78980000D02*
X116440000Y-80780000D01*
X65390000Y-85810000D02*
X65750000Y-86170000D01*
X98080000Y-88310000D02*
X98080000Y-93140000D01*
X76280000Y-77000000D02*
X78080000Y-78800000D01*
X97600000Y-87830000D02*
X98080000Y-88310000D01*
X68700000Y-78680000D02*
X65960000Y-81420000D01*
X114814000Y-83154000D02*
X113974000Y-83994000D01*
X118240000Y-78010000D02*
X118240000Y-78980000D01*
X109150000Y-85770000D02*
X107510000Y-84130000D01*
X114814000Y-80916000D02*
X114814000Y-83154000D01*
X83440000Y-93950000D02*
X80890000Y-96500000D01*
X110800000Y-85770000D02*
X109150000Y-85770000D01*
X68700000Y-78200000D02*
X69900000Y-77000000D01*
X80890000Y-96500000D02*
X69560000Y-96500000D01*
X112576000Y-83994000D02*
X110800000Y-85770000D01*
X97600000Y-84960000D02*
X97600000Y-87830000D01*
X65390000Y-85810000D02*
X65390000Y-88360000D01*
X97270000Y-93950000D02*
X83440000Y-93950000D01*
X114950000Y-80780000D02*
X114814000Y-80916000D01*
X80000000Y-80720000D02*
X78080000Y-78800000D01*
X98080000Y-93140000D02*
X97270000Y-93950000D01*
X107500000Y-84130000D02*
X107140000Y-83770000D01*
X118240000Y-79420000D02*
X119710000Y-80890000D01*
X65390000Y-85810000D02*
X62110000Y-85810000D01*
X65960000Y-81420000D02*
X65960000Y-85240000D01*
X65750000Y-92530000D02*
X65830000Y-92610000D01*
X113500000Y-80780000D02*
X113210000Y-81070000D01*
X83130000Y-81750000D02*
X82100000Y-80720000D01*
X118240000Y-78010000D02*
X118240000Y-79420000D01*
X98790000Y-83770000D02*
X97600000Y-84960000D01*
X69900000Y-77000000D02*
X76280000Y-77000000D01*
X116440000Y-80780000D02*
X114950000Y-80780000D01*
X65960000Y-85240000D02*
X65390000Y-85810000D01*
X69560000Y-96500000D02*
X65830000Y-92770000D01*
X65750000Y-86170000D02*
X65750000Y-92530000D01*
X62250000Y-91500000D02*
X61250000Y-91500000D01*
X114950000Y-80780000D02*
X113500000Y-80780000D01*
X68700000Y-78200000D02*
X68700000Y-78680000D01*
X107510000Y-84130000D02*
X107500000Y-84130000D01*
%TO.N,GND*%
X135300000Y-122390000D02*
X135300000Y-124542000D01*
X135300000Y-124542000D02*
X132588000Y-127254000D01*
%TO.N,Net-(C3-Pad1)*%
X58000000Y-89380000D02*
X58000000Y-93750000D01*
X60000000Y-86000000D02*
X60000000Y-75710000D01*
X58000000Y-93750000D02*
X54750000Y-97000000D01*
X60990000Y-73490000D02*
X60990000Y-72250000D01*
X60000000Y-75710000D02*
X61460000Y-74250000D01*
X58000000Y-89380000D02*
X58000000Y-88000000D01*
X61750000Y-74250000D02*
X64000000Y-74250000D01*
X61750000Y-74250000D02*
X60990000Y-73490000D01*
X61460000Y-74250000D02*
X61750000Y-74250000D01*
X58000000Y-88000000D02*
X60000000Y-86000000D01*
%TO.N,Net-(C4-Pad1)*%
X66250000Y-77330000D02*
X66250000Y-74500000D01*
X80620000Y-72130000D02*
X78750000Y-74000000D01*
X66250000Y-74500000D02*
X66500000Y-74250000D01*
X66750000Y-74000000D02*
X66500000Y-74250000D01*
X65390000Y-78190000D02*
X66250000Y-77330000D01*
X78750000Y-74000000D02*
X66750000Y-74000000D01*
X80620000Y-71180000D02*
X80620000Y-72130000D01*
%TO.N,Net-(C5-Pad1)*%
X58840000Y-63300000D02*
X58380000Y-63300000D01*
X58380000Y-63300000D02*
X53050000Y-68630000D01*
X53050000Y-68630000D02*
X53050000Y-70950000D01*
%TO.N,+5V*%
X57930000Y-112220000D02*
X63910000Y-106240000D01*
X61740000Y-70100000D02*
X55450000Y-70100000D01*
X79910000Y-107170000D02*
X80090000Y-107350000D01*
X87920000Y-106400000D02*
X87460000Y-105940000D01*
X90560000Y-68660000D02*
X89030000Y-67130000D01*
X64640000Y-73000000D02*
X61740000Y-70100000D01*
X75110000Y-107170000D02*
X79910000Y-107170000D01*
X54550000Y-72550000D02*
X53560000Y-73540000D01*
X48220000Y-70280000D02*
X48220000Y-73540000D01*
X105836000Y-106400000D02*
X87920000Y-106400000D01*
X105440000Y-71030000D02*
X105310000Y-71160000D01*
X80340000Y-107100000D02*
X80340000Y-103920000D01*
X46300000Y-85900000D02*
X46300000Y-107400000D01*
X80340000Y-103920000D02*
X80070000Y-103650000D01*
X105310000Y-71160000D02*
X103480000Y-71160000D01*
X46300000Y-107400000D02*
X51120000Y-112220000D01*
X55450000Y-70100000D02*
X54550000Y-71000000D01*
X54550000Y-71000000D02*
X54550000Y-72550000D01*
X103480000Y-71160000D02*
X100980000Y-68660000D01*
X100855000Y-137385000D02*
X118435000Y-137385000D01*
X48220000Y-83980000D02*
X46300000Y-85900000D01*
X80090000Y-107350000D02*
X80340000Y-107100000D01*
X124550000Y-116460000D02*
X124480000Y-116390000D01*
X113160000Y-70390000D02*
X112620000Y-70930000D01*
X99540000Y-136180000D02*
X96820000Y-136180000D01*
X73000000Y-71180000D02*
X70930000Y-71180000D01*
X105540000Y-70930000D02*
X105440000Y-71030000D01*
X70930000Y-71180000D02*
X69500000Y-69750000D01*
X65090000Y-105920000D02*
X73860000Y-105920000D01*
X85850000Y-60610000D02*
X57890000Y-60610000D01*
X82360000Y-105940000D02*
X80070000Y-103650000D01*
X65250000Y-73000000D02*
X64640000Y-73000000D01*
X65250000Y-74880000D02*
X65250000Y-73000000D01*
X112620000Y-70930000D02*
X105540000Y-70930000D01*
X115826000Y-116390000D02*
X105836000Y-106400000D01*
X64770000Y-106240000D02*
X65090000Y-105920000D01*
X124480000Y-116390000D02*
X115826000Y-116390000D01*
X100980000Y-68660000D02*
X90560000Y-68660000D01*
X63910000Y-106240000D02*
X64770000Y-106240000D01*
X73860000Y-105920000D02*
X75110000Y-107170000D01*
X53560000Y-73540000D02*
X48220000Y-73540000D01*
X96820000Y-136180000D02*
X95750000Y-137250000D01*
X121190000Y-134690000D02*
X121160000Y-134660000D01*
X68500000Y-69750000D02*
X69500000Y-69750000D01*
X99800000Y-135920000D02*
X99540000Y-136180000D01*
X57890000Y-60610000D02*
X48220000Y-70280000D01*
X62100000Y-78200000D02*
X62100000Y-78030000D01*
X65250000Y-73000000D02*
X68500000Y-69750000D01*
X51120000Y-112220000D02*
X57930000Y-112220000D01*
X89030000Y-67130000D02*
X89030000Y-63790000D01*
X82360000Y-105940000D02*
X87460000Y-105940000D01*
X89030000Y-63790000D02*
X85850000Y-60610000D01*
X100855000Y-137385000D02*
X99800000Y-136330000D01*
X121160000Y-134660000D02*
X118435000Y-137385000D01*
X48220000Y-73540000D02*
X48220000Y-83980000D01*
X124340000Y-134690000D02*
X121190000Y-134690000D01*
X99800000Y-136330000D02*
X99800000Y-135920000D01*
X62100000Y-78030000D02*
X65250000Y-74880000D01*
%TO.N,Net-(C7-Pad1)*%
X84850000Y-82370000D02*
X80970000Y-86250000D01*
X80970000Y-86250000D02*
X80250000Y-86250000D01*
X85160000Y-72896000D02*
X84850000Y-73206000D01*
X85160000Y-72550000D02*
X85160000Y-72896000D01*
X84850000Y-73206000D02*
X84850000Y-82370000D01*
%TO.N,Net-(C7-Pad2)*%
X79390000Y-70360000D02*
X80296435Y-69453565D01*
X85552000Y-69658000D02*
X85160000Y-70050000D01*
X75540000Y-71180000D02*
X77110000Y-72750000D01*
X85506000Y-70050000D02*
X85160000Y-70050000D01*
X84563565Y-69453565D02*
X85160000Y-70050000D01*
X70250000Y-65500000D02*
X70250000Y-66000000D01*
X77110000Y-72750000D02*
X78750000Y-72750000D01*
X86110000Y-70050000D02*
X85160000Y-70050000D01*
X75540000Y-71180000D02*
X75430000Y-71180000D01*
X66870000Y-66000000D02*
X66440000Y-66430000D01*
X85160000Y-70050000D02*
X85399565Y-69810435D01*
X75430000Y-71180000D02*
X70250000Y-66000000D01*
X88950000Y-74010000D02*
X88950000Y-72890000D01*
X70250000Y-66000000D02*
X66870000Y-66000000D01*
X88950000Y-72890000D02*
X86110000Y-70050000D01*
X80296435Y-69453565D02*
X84563565Y-69453565D01*
X85399565Y-69810435D02*
X85399565Y-69658000D01*
X72750000Y-63000000D02*
X70250000Y-65500000D01*
X78750000Y-72750000D02*
X79390000Y-72110000D01*
X79390000Y-72110000D02*
X79390000Y-70360000D01*
%TO.N,Net-(C8-Pad2)*%
X76370000Y-90000000D02*
X72250000Y-90000000D01*
X81430000Y-87820000D02*
X82500000Y-86750000D01*
X79870000Y-93500000D02*
X81430000Y-91940000D01*
X81430000Y-91940000D02*
X81430000Y-87820000D01*
X72630000Y-86250000D02*
X72630000Y-89620000D01*
X82500000Y-86750000D02*
X83130000Y-86750000D01*
X72630000Y-89620000D02*
X72250000Y-90000000D01*
X79870000Y-93500000D02*
X76370000Y-90000000D01*
%TO.N,Net-(C9-Pad2)*%
X75540000Y-78800000D02*
X75540000Y-80290000D01*
X77750000Y-82500000D02*
X78750000Y-82500000D01*
X75540000Y-80290000D02*
X77750000Y-82500000D01*
X78260000Y-88390000D02*
X79870000Y-90000000D01*
X78750000Y-82500000D02*
X78260000Y-82990000D01*
X78260000Y-82990000D02*
X78260000Y-88390000D01*
%TO.N,Net-(J1-Pad2)*%
X51100000Y-88360000D02*
X49000000Y-90460000D01*
X49000000Y-90460000D02*
X53670000Y-90460000D01*
X51100000Y-85800000D02*
X51100000Y-88360000D01*
X53670000Y-90460000D02*
X54750000Y-89380000D01*
%TO.N,Net-(R5-Pad1)*%
X75250000Y-66000000D02*
X78080000Y-68830000D01*
X80250000Y-66000000D02*
X75250000Y-66000000D01*
X66460000Y-63300000D02*
X68210000Y-63300000D01*
X74420000Y-61350000D02*
X75250000Y-62180000D01*
X78080000Y-71180000D02*
X78080000Y-68830000D01*
X77750000Y-63000000D02*
X75250000Y-63000000D01*
X58820000Y-66430000D02*
X62870000Y-66430000D01*
X66000000Y-63300000D02*
X66460000Y-63300000D01*
X75250000Y-62180000D02*
X75250000Y-63000000D01*
X70160000Y-61350000D02*
X74420000Y-61350000D01*
X62870000Y-66430000D02*
X66000000Y-63300000D01*
X75250000Y-66000000D02*
X75250000Y-63000000D01*
X68210000Y-63300000D02*
X70160000Y-61350000D01*
%TO.N,TOADC*%
X111160000Y-103420000D02*
X110830000Y-103090000D01*
X102190000Y-103090000D02*
X96510000Y-97410000D01*
X115062000Y-127000000D02*
X114808000Y-127000000D01*
X117520000Y-122390000D02*
X117520000Y-124542000D01*
X111160000Y-109920000D02*
X111160000Y-103420000D01*
X117520000Y-124542000D02*
X115062000Y-127000000D01*
X83030000Y-97410000D02*
X82970000Y-97350000D01*
X82970000Y-98800000D02*
X82970000Y-97350000D01*
X96510000Y-97410000D02*
X83030000Y-97410000D01*
X116800000Y-115130000D02*
X116370000Y-115130000D01*
X82950000Y-99860000D02*
X82950000Y-98820000D01*
X82950000Y-98820000D02*
X82970000Y-98800000D01*
X116370000Y-115130000D02*
X111160000Y-109920000D01*
X110830000Y-103090000D02*
X102190000Y-103090000D01*
%TO.N,FROMDAC*%
X87120000Y-90000000D02*
X87120000Y-89510000D01*
X85660000Y-81570000D02*
X87540000Y-79690000D01*
X87130000Y-90010000D02*
X87120000Y-90000000D01*
X85660000Y-88050000D02*
X85660000Y-81570000D01*
X87130000Y-92100000D02*
X87130000Y-90010000D01*
X87120000Y-89510000D02*
X85660000Y-88050000D01*
X86930000Y-92300000D02*
X87130000Y-92100000D01*
%TO.N,Net-(C10-Pad2)*%
X93710000Y-77140000D02*
X93450000Y-76880000D01*
X93450000Y-76880000D02*
X87850000Y-76880000D01*
X87850000Y-76880000D02*
X87540000Y-77190000D01*
%TO.N,Net-(C11-Pad1)*%
X99470000Y-78910000D02*
X99870000Y-78510000D01*
X93710000Y-79640000D02*
X94440000Y-78910000D01*
X94440000Y-78910000D02*
X99470000Y-78910000D01*
%TO.N,Net-(C12-Pad2)*%
X99900000Y-86160000D02*
X103070000Y-86160000D01*
X99870000Y-86130000D02*
X99900000Y-86160000D01*
X103070000Y-86160000D02*
X103250000Y-86340000D01*
X106560000Y-86480000D02*
X106420000Y-86340000D01*
X113210000Y-86070000D02*
X112800000Y-86480000D01*
X103250000Y-86340000D02*
X106420000Y-86340000D01*
X112800000Y-86480000D02*
X106560000Y-86480000D01*
%TO.N,Net-(C13-Pad1)*%
X100844000Y-75689113D02*
X102519113Y-75689113D01*
X106610000Y-78910000D02*
X109690000Y-78910000D01*
X99103999Y-74521999D02*
X100271113Y-75689113D01*
X110405000Y-78775000D02*
X111170000Y-78010000D01*
X109770000Y-78360000D02*
X109880000Y-78250000D01*
X109880000Y-78720000D02*
X109880000Y-78250000D01*
X105550000Y-78720000D02*
X106420000Y-78720000D01*
X109690000Y-78910000D02*
X109880000Y-78720000D01*
X99103999Y-72383999D02*
X99103999Y-74521999D01*
X102519113Y-75689113D02*
X105550000Y-78720000D01*
X109770000Y-78830000D02*
X109770000Y-78360000D01*
X109880000Y-78250000D02*
X110405000Y-78775000D01*
X111170000Y-78010000D02*
X113160000Y-78010000D01*
X97600000Y-70880000D02*
X99103999Y-72383999D01*
X106420000Y-78720000D02*
X106610000Y-78910000D01*
X100271113Y-75689113D02*
X100844000Y-75689113D01*
%TO.N,Net-(C13-Pad2)*%
X115700000Y-78190000D02*
X114300000Y-79590000D01*
X105610000Y-81080000D02*
X103070000Y-78540000D01*
X109770000Y-82020000D02*
X109770000Y-83830000D01*
X108920000Y-81080000D02*
X105610000Y-81080000D01*
X109770000Y-83830000D02*
X109770000Y-81930000D01*
X115700000Y-78010000D02*
X115700000Y-78190000D01*
X109770000Y-81930000D02*
X108920000Y-81080000D01*
X114300000Y-79590000D02*
X112200000Y-79590000D01*
X112200000Y-79590000D02*
X109770000Y-82020000D01*
%TO.N,Net-(C15-Pad2)*%
X120870000Y-72120000D02*
X120870000Y-70480000D01*
X102089113Y-73189113D02*
X103200000Y-74300000D01*
X103200000Y-74300000D02*
X105870000Y-74300000D01*
X122630000Y-75790000D02*
X120870000Y-74030000D01*
X107000000Y-76770000D02*
X107560000Y-77330000D01*
X105870000Y-74300000D02*
X107000000Y-75430000D01*
X122630000Y-80480000D02*
X122630000Y-75790000D01*
X107000000Y-75430000D02*
X107000000Y-76770000D01*
X120870000Y-70480000D02*
X120780000Y-70390000D01*
X111250000Y-76000000D02*
X112750000Y-74500000D01*
X120870000Y-74030000D02*
X120870000Y-72120000D01*
X111240000Y-76000000D02*
X111250000Y-76000000D01*
X116450000Y-86660000D02*
X122630000Y-80480000D01*
X116450000Y-88390000D02*
X116450000Y-86660000D01*
X107560000Y-77330000D02*
X109910000Y-77330000D01*
X112750000Y-74500000D02*
X118750000Y-74500000D01*
X109910000Y-77330000D02*
X111240000Y-76000000D01*
X116440000Y-88400000D02*
X116450000Y-88390000D01*
X100844000Y-73189113D02*
X102089113Y-73189113D01*
X118750000Y-74500000D02*
X120870000Y-72380000D01*
X120870000Y-72380000D02*
X120870000Y-72120000D01*
%TO.N,Net-(C16-Pad1)*%
X103692000Y-72760000D02*
X100312000Y-69380000D01*
X106740000Y-72760000D02*
X103692000Y-72760000D01*
X86874000Y-67244000D02*
X86874000Y-64832000D01*
X89010000Y-69380000D02*
X86874000Y-67244000D01*
X100312000Y-69380000D02*
X89010000Y-69380000D01*
X108680000Y-75760000D02*
X108680000Y-74700000D01*
X108680000Y-74700000D02*
X106740000Y-72760000D01*
%TO.N,Net-(C17-Pad1)*%
X115530000Y-70390000D02*
X113900000Y-68760000D01*
X126670000Y-74270000D02*
X125070000Y-75870000D01*
X125020000Y-78910000D02*
X125150000Y-79040000D01*
X119500000Y-71240000D02*
X119500000Y-69400000D01*
X123070000Y-68720000D02*
X126920000Y-72570000D01*
X126730000Y-74270000D02*
X126670000Y-74270000D01*
X93220000Y-65980000D02*
X95720000Y-63480000D01*
X126920000Y-72570000D02*
X126920000Y-74080000D01*
X120180000Y-68720000D02*
X123070000Y-68720000D01*
X112460000Y-68760000D02*
X111170000Y-70050000D01*
X116880000Y-71890000D02*
X118850000Y-71890000D01*
X125070000Y-75870000D02*
X125020000Y-75920000D01*
X113900000Y-68760000D02*
X112460000Y-68760000D01*
X115700000Y-70390000D02*
X115530000Y-70390000D01*
X111170000Y-70050000D02*
X107320000Y-70050000D01*
X107320000Y-70050000D02*
X105230000Y-67960000D01*
X126885113Y-80775113D02*
X125150000Y-79040000D01*
X105230000Y-67960000D02*
X95200000Y-67960000D01*
X126885113Y-86750000D02*
X126885113Y-80775113D01*
X119500000Y-69400000D02*
X120180000Y-68720000D01*
X95720000Y-63480000D02*
X95720000Y-62980000D01*
X125020000Y-75920000D02*
X125020000Y-78910000D01*
X126920000Y-74080000D02*
X126730000Y-74270000D01*
X115700000Y-70710000D02*
X116880000Y-71890000D01*
X115700000Y-70390000D02*
X115700000Y-70710000D01*
X95200000Y-67960000D02*
X93220000Y-65980000D01*
X118850000Y-71890000D02*
X119500000Y-71240000D01*
%TO.N,Net-(C17-Pad2)*%
X124385113Y-82954887D02*
X125130000Y-82210000D01*
X121285113Y-89850000D02*
X114140000Y-89850000D01*
X114140000Y-89850000D02*
X113380000Y-89090000D01*
X124385113Y-86750000D02*
X124385113Y-82954887D01*
X121285113Y-89850000D02*
X124385113Y-86750000D01*
%TO.N,Net-(J3-PadS1)*%
X134620000Y-70100000D02*
X134060000Y-69540000D01*
X124060000Y-66040000D02*
X123210000Y-66890000D01*
X134620000Y-80340000D02*
X132750000Y-82210000D01*
X134060000Y-67560000D02*
X134060000Y-69540000D01*
X132540000Y-66040000D02*
X134060000Y-67560000D01*
X134620000Y-80340000D02*
X134620000Y-70100000D01*
X115490000Y-66890000D02*
X113050000Y-64450000D01*
X124060000Y-66040000D02*
X132540000Y-66040000D01*
X123210000Y-66890000D02*
X115490000Y-66890000D01*
%TO.N,Net-(R17-Pad1)*%
X117770000Y-70390000D02*
X118240000Y-70390000D01*
X108680000Y-68140000D02*
X106360000Y-65820000D01*
X108680000Y-68140000D02*
X109240000Y-67580000D01*
X118240000Y-69000000D02*
X119420000Y-67820000D01*
X100720000Y-62980000D02*
X98220000Y-62980000D01*
X123610000Y-67820000D02*
X131660000Y-75870000D01*
X103380000Y-65820000D02*
X103220000Y-65980000D01*
X98220000Y-62980000D02*
X98220000Y-65980000D01*
X114960000Y-67580000D02*
X117770000Y-70390000D01*
X106360000Y-65820000D02*
X103380000Y-65820000D01*
X103220000Y-65980000D02*
X98220000Y-65980000D01*
X118240000Y-70390000D02*
X118240000Y-69000000D01*
X109240000Y-67580000D02*
X114960000Y-67580000D01*
X119420000Y-67820000D02*
X123610000Y-67820000D01*
X131660000Y-75870000D02*
X132690000Y-75870000D01*
%TO.N,Net-(R23-Pad2)*%
X137840000Y-127900000D02*
X135170000Y-130570000D01*
X137840000Y-122390000D02*
X137840000Y-127900000D01*
%TO.N,Net-(C21-Pad1)*%
X74280000Y-103650000D02*
X77980000Y-99950000D01*
X77980000Y-99950000D02*
X77980000Y-99300000D01*
X71630000Y-102830000D02*
X72450000Y-103650000D01*
X69230000Y-102830000D02*
X71630000Y-102830000D01*
X72450000Y-103650000D02*
X74280000Y-103650000D01*
%TO.N,Net-(C9-Pad1)*%
X70570000Y-88340000D02*
X70570000Y-91820000D01*
X73000000Y-81750000D02*
X73750000Y-82500000D01*
X73000000Y-78800000D02*
X73000000Y-81750000D01*
X71000000Y-87910000D02*
X70570000Y-88340000D01*
X73750000Y-82500000D02*
X72500000Y-82500000D01*
X72500000Y-82500000D02*
X71000000Y-84000000D01*
X71000000Y-84000000D02*
X71000000Y-87910000D01*
X70570000Y-91820000D02*
X72250000Y-93500000D01*
%TO.N,Net-(R12-Pad2)*%
X68870000Y-92880000D02*
X68870000Y-88610000D01*
X82830000Y-93250000D02*
X80570000Y-95510000D01*
X71500000Y-95510000D02*
X68870000Y-92880000D01*
X82970000Y-89730000D02*
X82830000Y-89870000D01*
X80570000Y-95510000D02*
X71500000Y-95510000D01*
X82830000Y-89870000D02*
X82830000Y-93250000D01*
%TO.N,Net-(C26-Pad2)*%
X113780000Y-145022000D02*
X113792000Y-145034000D01*
X113780000Y-145022000D02*
X113780000Y-142594500D01*
X112308000Y-146558000D02*
X113780000Y-145086000D01*
X113780000Y-145086000D02*
X113780000Y-145022000D01*
X119966000Y-145086000D02*
X120450000Y-145570000D01*
X113780000Y-142594500D02*
X110300000Y-139114500D01*
X113780000Y-145086000D02*
X119966000Y-145086000D01*
%TO.N,Net-(C27-Pad2)*%
X50230000Y-147080000D02*
X50420000Y-147080000D01*
X50420000Y-147080000D02*
X52748000Y-144752000D01*
X96630000Y-139000000D02*
X90340000Y-139000000D01*
X56400000Y-144752000D02*
X52748000Y-144752000D01*
X60786000Y-136714000D02*
X52748000Y-144752000D01*
X58206000Y-146558000D02*
X56400000Y-144752000D01*
X88054000Y-136714000D02*
X60786000Y-136714000D01*
X101082818Y-138159500D02*
X97470500Y-138159500D01*
X97470500Y-138159500D02*
X96630000Y-139000000D01*
X90340000Y-139000000D02*
X88054000Y-136714000D01*
%TO.N,Net-(C28-Pad2)*%
X98010000Y-139050000D02*
X97298000Y-139762000D01*
X90012000Y-139762000D02*
X87726000Y-137476000D01*
X66808000Y-144334000D02*
X73666000Y-137476000D01*
X103770000Y-138360000D02*
X103770000Y-138420000D01*
X103140000Y-139050000D02*
X98010000Y-139050000D01*
X87726000Y-137476000D02*
X82556000Y-137476000D01*
X103770000Y-138420000D02*
X103140000Y-139050000D01*
X97298000Y-139762000D02*
X90012000Y-139762000D01*
X82556000Y-137476000D02*
X73666000Y-137476000D01*
X66808000Y-144334000D02*
X66808000Y-146140000D01*
X75230000Y-140230000D02*
X77984000Y-137476000D01*
X82556000Y-137476000D02*
X77984000Y-137476000D01*
X75230000Y-146620000D02*
X75230000Y-140230000D01*
%TO.N,Net-(C29-Pad2)*%
X104210000Y-139770000D02*
X98610000Y-139770000D01*
X96240000Y-142140000D02*
X96240000Y-142680000D01*
X95290000Y-146558000D02*
X95290000Y-143630000D01*
X105550000Y-138430000D02*
X104210000Y-139770000D01*
X105550000Y-138320000D02*
X105550000Y-138430000D01*
X95290000Y-143630000D02*
X96240000Y-142680000D01*
X98610000Y-139770000D02*
X96240000Y-142140000D01*
%TO.N,Net-(R29-Pad2)*%
X97210000Y-99820000D02*
X102000000Y-104610000D01*
X96590000Y-99820000D02*
X97210000Y-99820000D01*
X102000000Y-104610000D02*
X102280000Y-104610000D01*
D40*
%TO.N,Net-(J6-Pad14)*%
X100580000Y-92290000D02*
X100580000Y-90920000D01*
X137880000Y-94220000D02*
X102510000Y-94220000D01*
X139550000Y-92550000D02*
X137880000Y-94220000D01*
X102510000Y-94220000D02*
X100580000Y-92290000D01*
X142750000Y-92550000D02*
X139550000Y-92550000D01*
D39*
%TO.N,+3V3*%
X141150000Y-107500000D02*
X142430000Y-106220000D01*
X75950000Y-122830000D02*
X72450000Y-119330000D01*
X88480000Y-122830000D02*
X75950000Y-122830000D01*
X79200000Y-114200000D02*
X75780000Y-114200000D01*
X141510000Y-100060000D02*
X133490000Y-100060000D01*
X122380000Y-114920000D02*
X132660000Y-114920000D01*
X137460000Y-107500000D02*
X141150000Y-107500000D01*
X142430000Y-100980000D02*
X141510000Y-100060000D01*
X75780000Y-114200000D02*
X75618000Y-114362000D01*
X121890000Y-115410000D02*
X122380000Y-114920000D01*
X72450000Y-117530000D02*
X72450000Y-118540000D01*
X72450000Y-119330000D02*
X72450000Y-118540000D01*
X75618000Y-114362000D02*
X72450000Y-117530000D01*
X125222000Y-127254000D02*
X125222000Y-124968000D01*
X79240000Y-114160000D02*
X79200000Y-114200000D01*
X142430000Y-106220000D02*
X142430000Y-100980000D01*
X101910000Y-120010000D02*
X91300000Y-120010000D01*
X133490000Y-100060000D02*
X132760000Y-99330000D01*
X125222000Y-124968000D02*
X126238000Y-123952000D01*
X126238000Y-123952000D02*
X128658000Y-123952000D01*
X79240000Y-111000000D02*
X79240000Y-114160000D01*
X132660000Y-114920000D02*
X135620000Y-111960000D01*
X79280000Y-110960000D02*
X79240000Y-111000000D01*
X128658000Y-123952000D02*
X130220000Y-122390000D01*
X135620000Y-109340000D02*
X137460000Y-107500000D01*
X91300000Y-120010000D02*
X88480000Y-122830000D01*
X135620000Y-111960000D02*
X135620000Y-109340000D01*
X102080000Y-120180000D02*
X101910000Y-120010000D01*
%TO.N,SCL*%
X74990000Y-118540000D02*
X74990000Y-117760000D01*
X74990000Y-117760000D02*
X76500000Y-116250000D01*
X79630000Y-116250000D02*
X84920000Y-110960000D01*
X86900000Y-109940000D02*
X88610000Y-108230000D01*
X84920000Y-110960000D02*
X86900000Y-110960000D01*
X86900000Y-110960000D02*
X86900000Y-109940000D01*
X76500000Y-116250000D02*
X79630000Y-116250000D01*
X88610000Y-108230000D02*
X103780000Y-108230000D01*
%TO.N,SDA*%
X88900000Y-110030000D02*
X88900000Y-112120000D01*
X77530000Y-118540000D02*
X79660000Y-118540000D01*
X79660000Y-118540000D02*
X84040000Y-114160000D01*
X88900000Y-112120000D02*
X86860000Y-114160000D01*
X89840000Y-109090000D02*
X88900000Y-110030000D01*
X84040000Y-114160000D02*
X86860000Y-114160000D01*
X105040000Y-109080000D02*
X105030000Y-109090000D01*
X105030000Y-109090000D02*
X89840000Y-109090000D01*
%TO.N,VREF*%
X82640000Y-107480000D02*
X80860000Y-109260000D01*
X127226000Y-127254000D02*
X125560000Y-128920000D01*
X65306000Y-110044000D02*
X61516000Y-110044000D01*
X91954000Y-140524000D02*
X89744000Y-140524000D01*
X125900000Y-132510000D02*
X127250000Y-133860000D01*
X80090000Y-147740000D02*
X79260000Y-148570000D01*
X103600000Y-144200000D02*
X103600000Y-142550000D01*
X92998000Y-146558000D02*
X92790000Y-146558000D01*
X106160000Y-142250000D02*
X106160000Y-144360000D01*
X86140000Y-107910000D02*
X83380000Y-107910000D01*
X57450000Y-114110000D02*
X56630000Y-114110000D01*
X57718000Y-148570000D02*
X55706000Y-146558000D01*
X110120000Y-141720000D02*
X106690000Y-141720000D01*
X72710000Y-109260000D02*
X72710000Y-107590000D01*
X105260000Y-107250000D02*
X115330000Y-117320000D01*
X106160000Y-144360000D02*
X105570000Y-144950000D01*
X92790000Y-141360000D02*
X91954000Y-140524000D01*
X83380000Y-107910000D02*
X82950000Y-107480000D01*
X123444000Y-131864000D02*
X124090000Y-132510000D01*
X80090000Y-140704000D02*
X80090000Y-147740000D01*
X72730000Y-146620000D02*
X72730000Y-147806000D01*
X73494000Y-148570000D02*
X57718000Y-148570000D01*
X111200000Y-145166000D02*
X111200000Y-142800000D01*
X127588000Y-127254000D02*
X127226000Y-127254000D01*
X86140000Y-107910000D02*
X86800000Y-107250000D01*
X125400000Y-148300000D02*
X111550000Y-148300000D01*
X111200000Y-142800000D02*
X110120000Y-141720000D01*
X92790000Y-146558000D02*
X87045000Y-146558000D01*
X82556000Y-138238000D02*
X80090000Y-140704000D01*
X72710000Y-107590000D02*
X72470000Y-107350000D01*
X104350000Y-144950000D02*
X103600000Y-144200000D01*
X109808000Y-146558000D02*
X111200000Y-145166000D01*
X87045000Y-146558000D02*
X86475000Y-147128000D01*
X97760000Y-142730000D02*
X97760000Y-144520000D01*
X127250000Y-146450000D02*
X125400000Y-148300000D01*
X115330000Y-117320000D02*
X122710000Y-117320000D01*
X106690000Y-141720000D02*
X106160000Y-142250000D01*
X67570000Y-110044000D02*
X68586000Y-111060000D01*
X127250000Y-133860000D02*
X127250000Y-146450000D01*
X98740000Y-148570000D02*
X95010000Y-148570000D01*
X111550000Y-148300000D02*
X109808000Y-146558000D01*
X79260000Y-148570000D02*
X73494000Y-148570000D01*
X72710000Y-109260000D02*
X70386000Y-109260000D01*
X124064000Y-128920000D02*
X123444000Y-129540000D01*
X105570000Y-144950000D02*
X104350000Y-144950000D01*
X89744000Y-140524000D02*
X87458000Y-138238000D01*
X125560000Y-128920000D02*
X124064000Y-128920000D01*
X99560000Y-145778000D02*
X99560000Y-147750000D01*
X70386000Y-109260000D02*
X68586000Y-111060000D01*
X87458000Y-138238000D02*
X82556000Y-138238000D01*
X99560000Y-147750000D02*
X98740000Y-148570000D01*
X61516000Y-110044000D02*
X57450000Y-114110000D01*
X80860000Y-109260000D02*
X72710000Y-109260000D01*
X82950000Y-107480000D02*
X82640000Y-107480000D01*
X65306000Y-110044000D02*
X67570000Y-110044000D01*
X102930000Y-141880000D02*
X98610000Y-141880000D01*
X98360000Y-145120000D02*
X98902000Y-145120000D01*
X124090000Y-132510000D02*
X125900000Y-132510000D01*
X98902000Y-145120000D02*
X99560000Y-145778000D01*
X97760000Y-144520000D02*
X98360000Y-145120000D01*
X86800000Y-107250000D02*
X105260000Y-107250000D01*
X72730000Y-147806000D02*
X73494000Y-148570000D01*
X103600000Y-142550000D02*
X102930000Y-141880000D01*
X123444000Y-129540000D02*
X123444000Y-131864000D01*
X92790000Y-146558000D02*
X92790000Y-141360000D01*
X122710000Y-117320000D02*
X122750000Y-117280000D01*
X98610000Y-141880000D02*
X97760000Y-142730000D01*
X95010000Y-148570000D02*
X92998000Y-146558000D01*
%TO.N,Net-(Q1-Pad2)*%
X94830000Y-129540000D02*
X100280000Y-129540000D01*
X90000000Y-134370000D02*
X94830000Y-129540000D01*
%TO.N,Net-(Q1-Pad3)*%
X113840000Y-138260000D02*
X122300000Y-138260000D01*
X112500000Y-135420000D02*
X111490000Y-134410000D01*
X113620000Y-138480000D02*
X113840000Y-138260000D01*
X102610000Y-134410000D02*
X100280000Y-132080000D01*
X124340000Y-140300000D02*
X124340000Y-142310000D01*
X112500000Y-135920000D02*
X112500000Y-135420000D01*
X111490000Y-134410000D02*
X102610000Y-134410000D01*
X122300000Y-138260000D02*
X124340000Y-140300000D01*
%TO.N,Net-(Q2-Pad2)*%
X103960000Y-128250000D02*
X92500000Y-128250000D01*
X88320000Y-132430000D02*
X88320000Y-135190000D01*
X92500000Y-128250000D02*
X88320000Y-132430000D01*
X89060000Y-135930000D02*
X91690000Y-135930000D01*
X91690000Y-135930000D02*
X93250000Y-134370000D01*
X105250000Y-129540000D02*
X103960000Y-128250000D01*
X88320000Y-135190000D02*
X89060000Y-135930000D01*
%TO.N,Net-(Q2-Pad3)*%
X121160000Y-139980000D02*
X121160000Y-142280000D01*
X114830000Y-135920000D02*
X112650000Y-133740000D01*
X116370000Y-139230000D02*
X116600000Y-139460000D01*
X115040000Y-135920000D02*
X114830000Y-135920000D01*
X116600000Y-139460000D02*
X120640000Y-139460000D01*
X120640000Y-139460000D02*
X121160000Y-139980000D01*
X112650000Y-133740000D02*
X106910000Y-133740000D01*
X106910000Y-133740000D02*
X105250000Y-132080000D01*
%TO.N,Net-(Q3-Pad2)*%
X98988630Y-130750000D02*
X108930000Y-130750000D01*
X96500000Y-133238630D02*
X98988630Y-130750000D01*
X108930000Y-130750000D02*
X110140000Y-129540000D01*
X96500000Y-134370000D02*
X96500000Y-133238630D01*
%TO.N,Net-(Q3-Pad3)*%
X117630000Y-135870000D02*
X117630000Y-130528000D01*
X117580000Y-135920000D02*
X117630000Y-135870000D01*
X117580000Y-135920000D02*
X115518000Y-133858000D01*
X112137000Y-132080000D02*
X110140000Y-132080000D01*
X113915000Y-133858000D02*
X112137000Y-132080000D01*
X115518000Y-133858000D02*
X113915000Y-133858000D01*
X117630000Y-130528000D02*
X117602000Y-130500000D01*
%TO.N,SEL0*%
X91690000Y-122820000D02*
X91690000Y-125060000D01*
X92120000Y-122390000D02*
X91690000Y-122820000D01*
X91690000Y-125060000D02*
X90000000Y-126750000D01*
%TO.N,SEL1*%
X94320000Y-122730000D02*
X94320000Y-125680000D01*
X94320000Y-125680000D02*
X93250000Y-126750000D01*
X94660000Y-122390000D02*
X94320000Y-122730000D01*
%TO.N,SEL2*%
X99740000Y-122390000D02*
X98515000Y-123615000D01*
X98515000Y-123615000D02*
X98515000Y-124705000D01*
X98515000Y-124705000D02*
X96500000Y-126720000D01*
X96500000Y-126720000D02*
X96500000Y-126750000D01*
%TO.N,CTRLIN*%
X120060000Y-124900000D02*
X120060000Y-122390000D01*
X126500000Y-142530000D02*
X126500000Y-134220000D01*
X125560000Y-133280000D02*
X123620000Y-133280000D01*
X104880000Y-143540000D02*
X104880000Y-142920000D01*
X105085000Y-141065000D02*
X107810000Y-138340000D01*
X125230000Y-143800000D02*
X126500000Y-142530000D01*
X121920000Y-126760000D02*
X120060000Y-124900000D01*
X107810000Y-138340000D02*
X111590000Y-138340000D01*
X104880000Y-142920000D02*
X105085000Y-142715000D01*
X119420000Y-141900000D02*
X119420000Y-143330000D01*
X114070000Y-140820000D02*
X118340000Y-140820000D01*
X119890000Y-143800000D02*
X125230000Y-143800000D01*
X119420000Y-143330000D02*
X119890000Y-143800000D01*
X123620000Y-133280000D02*
X121920000Y-131580000D01*
X118340000Y-140820000D02*
X119420000Y-141900000D01*
X111590000Y-138340000D02*
X114070000Y-140820000D01*
X126500000Y-134220000D02*
X125560000Y-133280000D01*
X121920000Y-131580000D02*
X121920000Y-126760000D01*
X105085000Y-142715000D02*
X105085000Y-141065000D01*
%TO.N,BUTTON1*%
X142270000Y-129250000D02*
X143450000Y-128070000D01*
X123600000Y-118240000D02*
X111990000Y-118240000D01*
X105680000Y-118990000D02*
X102280000Y-122390000D01*
X111990000Y-118240000D02*
X111240000Y-118990000D01*
X142270000Y-132320000D02*
X142270000Y-129250000D01*
X143450000Y-119760000D02*
X141450000Y-117760000D01*
X111240000Y-118990000D02*
X105680000Y-118990000D01*
X141450000Y-117760000D02*
X124080000Y-117760000D01*
X124080000Y-117760000D02*
X123600000Y-118240000D01*
X142270000Y-132320000D02*
X142270000Y-138820000D01*
X143450000Y-128070000D02*
X143450000Y-119760000D01*
%TO.N,Net-(R44-Pad2)*%
X114250000Y-128750000D02*
X116106000Y-128750000D01*
X113030000Y-127530000D02*
X114250000Y-128750000D01*
X113030000Y-124460000D02*
X113030000Y-127530000D01*
X116106000Y-128750000D02*
X117602000Y-127254000D01*
X114980000Y-122510000D02*
X113030000Y-124460000D01*
X114980000Y-122390000D02*
X114980000Y-122510000D01*
%TO.N,Net-(J8-PadT1)*%
X48340000Y-147840000D02*
X48340000Y-144540000D01*
X57650000Y-156360000D02*
X57650000Y-151250000D01*
X93460000Y-152430000D02*
X93460000Y-156130000D01*
X99800000Y-143540000D02*
X99800000Y-144830000D01*
X100625000Y-145655000D02*
X100625000Y-148025000D01*
X96630000Y-149260000D02*
X93460000Y-152430000D01*
X48340000Y-144540000D02*
X49490000Y-143390000D01*
X86100000Y-158010000D02*
X59300000Y-158010000D01*
X99390000Y-149260000D02*
X96630000Y-149260000D01*
X100625000Y-148025000D02*
X99390000Y-149260000D01*
X59300000Y-158010000D02*
X57650000Y-156360000D01*
X55530000Y-149130000D02*
X49630000Y-149130000D01*
X57650000Y-151250000D02*
X55530000Y-149130000D01*
X99800000Y-144830000D02*
X100625000Y-145655000D01*
X91580000Y-158010000D02*
X86100000Y-158010000D01*
X49490000Y-143390000D02*
X50120000Y-143390000D01*
X49630000Y-149130000D02*
X48340000Y-147840000D01*
X93460000Y-156130000D02*
X91580000Y-158010000D01*
%TO.N,Net-(J9-PadT1)*%
X50270000Y-117570000D02*
X50200000Y-117640000D01*
X94220000Y-156620000D02*
X91340000Y-159500000D01*
X101530000Y-148370000D02*
X99630000Y-150270000D01*
X46880000Y-147990000D02*
X46880000Y-141600000D01*
X91340000Y-159500000D02*
X82360000Y-159500000D01*
X56920000Y-151860000D02*
X54980000Y-149920000D01*
X99630000Y-150270000D02*
X96840000Y-150270000D01*
X102340000Y-143540000D02*
X101530000Y-144350000D01*
X50220000Y-130370000D02*
X50150000Y-130300000D01*
X48810000Y-149920000D02*
X46880000Y-147990000D01*
X96840000Y-150270000D02*
X94220000Y-152890000D01*
X50200000Y-130250000D02*
X50150000Y-130300000D01*
X81760000Y-158900000D02*
X58500000Y-158900000D01*
X101530000Y-144350000D02*
X101530000Y-148370000D01*
X58500000Y-158900000D02*
X56920000Y-157320000D01*
X50220000Y-138260000D02*
X50220000Y-130370000D01*
X50200000Y-117640000D02*
X50200000Y-130250000D01*
X56920000Y-157320000D02*
X56920000Y-151860000D01*
X94220000Y-152890000D02*
X94220000Y-156620000D01*
X46880000Y-141600000D02*
X50220000Y-138260000D01*
X54980000Y-149920000D02*
X48810000Y-149920000D01*
X82360000Y-159500000D02*
X81760000Y-158900000D01*
%TO.N,Net-(JP1-Pad1)*%
X83935000Y-147128000D02*
X83935000Y-148225000D01*
X83935000Y-148225000D02*
X86100000Y-150390000D01*
%TO.N,Net-(JP2-Pad1)*%
X54090000Y-114110000D02*
X54090000Y-116060000D01*
X54090000Y-116060000D02*
X55600000Y-117570000D01*
X55600000Y-117570000D02*
X57890000Y-117570000D01*
%TO.N,Net-(R25-Pad1)*%
X76206000Y-111060000D02*
X71410000Y-111060000D01*
X65856000Y-114896183D02*
X65694908Y-114735091D01*
X65306000Y-115124000D02*
X61534000Y-115124000D01*
X61534000Y-115124000D02*
X60460000Y-114050000D01*
X71410000Y-111060000D02*
X67573817Y-114896183D01*
X67573817Y-114896183D02*
X65856000Y-114896183D01*
%TO.N,BUTTON2*%
X111740000Y-119800000D02*
X107410000Y-119800000D01*
X142830000Y-124880000D02*
X142830000Y-120200000D01*
X124100000Y-119000000D02*
X112540000Y-119000000D01*
X142230000Y-142170000D02*
X142230000Y-148670000D01*
X142230000Y-142170000D02*
X140070000Y-140010000D01*
X140820000Y-126890000D02*
X142830000Y-124880000D01*
X141140000Y-118510000D02*
X124590000Y-118510000D01*
X140820000Y-134630000D02*
X140820000Y-126890000D01*
X140070000Y-135380000D02*
X140820000Y-134630000D01*
X107410000Y-119800000D02*
X104820000Y-122390000D01*
X142830000Y-120200000D02*
X141140000Y-118510000D01*
X112540000Y-119000000D02*
X111740000Y-119800000D01*
X124590000Y-118510000D02*
X124100000Y-119000000D01*
X140070000Y-140010000D02*
X140070000Y-135380000D01*
%TO.N,BUTTON3*%
X140120000Y-133310000D02*
X140120000Y-126490000D01*
X142280000Y-120590000D02*
X140870000Y-119180000D01*
X140870000Y-119180000D02*
X125170000Y-119180000D01*
X133570000Y-139340000D02*
X134090000Y-139340000D01*
X113060000Y-119840000D02*
X112320000Y-120580000D01*
X133470000Y-145740000D02*
X133570000Y-145840000D01*
X133470000Y-138790000D02*
X133470000Y-145740000D01*
X108280000Y-120580000D02*
X107360000Y-121500000D01*
X133470000Y-139240000D02*
X133470000Y-138790000D01*
X125170000Y-119180000D02*
X124510000Y-119840000D01*
X134090000Y-139340000D02*
X140120000Y-133310000D01*
X142280000Y-124330000D02*
X142280000Y-120590000D01*
X140120000Y-126490000D02*
X142280000Y-124330000D01*
X112320000Y-120580000D02*
X108280000Y-120580000D01*
X133570000Y-139340000D02*
X133470000Y-139240000D01*
X124510000Y-119840000D02*
X113060000Y-119840000D01*
X107360000Y-121500000D02*
X107360000Y-122390000D01*
%TO.N,BUTTON4*%
X125856000Y-119830000D02*
X124974000Y-120712000D01*
X133720000Y-151530000D02*
X133720000Y-158030000D01*
X141630000Y-120960000D02*
X140500000Y-119830000D01*
X124974000Y-120712000D02*
X114118000Y-120712000D01*
X140500000Y-119830000D02*
X125856000Y-119830000D01*
X114118000Y-120712000D02*
X112440000Y-122390000D01*
X139452000Y-133068000D02*
X139452000Y-126178000D01*
X141630000Y-124000000D02*
X141630000Y-120960000D01*
X131790000Y-135994000D02*
X133229000Y-134555000D01*
X139452000Y-126178000D02*
X141630000Y-124000000D01*
X131790000Y-149600000D02*
X131790000Y-135994000D01*
X133229000Y-134555000D02*
X137965000Y-134555000D01*
X133720000Y-151530000D02*
X131790000Y-149600000D01*
X137965000Y-134555000D02*
X139452000Y-133068000D01*
%TO.N,BUTTON5*%
X133392636Y-132359364D02*
X135351364Y-132359364D01*
X138290000Y-120670000D02*
X126860000Y-120670000D01*
X125820000Y-151610000D02*
X130920000Y-146510000D01*
X135351364Y-132359364D02*
X138690000Y-129020728D01*
X138690000Y-129020728D02*
X138690000Y-124070000D01*
X126860000Y-120670000D02*
X125140000Y-122390000D01*
X139130000Y-123630000D02*
X139130000Y-121510000D01*
X130920000Y-146510000D02*
X130920000Y-134832000D01*
X139130000Y-121510000D02*
X138290000Y-120670000D01*
X138690000Y-124070000D02*
X139130000Y-123630000D01*
X130920000Y-134832000D02*
X133392636Y-132359364D01*
X125820000Y-151610000D02*
X125820000Y-158110000D01*
%TO.N,Net-(R35-Pad2)*%
X92120000Y-104610000D02*
X87430000Y-99920000D01*
X87430000Y-99920000D02*
X86930000Y-99920000D01*
%TO.N,VSYNC*%
X111210000Y-102400000D02*
X104120000Y-102400000D01*
X104120000Y-102400000D02*
X100580000Y-98860000D01*
X112440000Y-103630000D02*
X111210000Y-102400000D01*
X100580000Y-98860000D02*
X100580000Y-98540000D01*
X112440000Y-104610000D02*
X112440000Y-103630000D01*
%TO.N,Net-(R28-Pad1)*%
X96480000Y-87940000D02*
X96480000Y-89830000D01*
X96480000Y-89830000D02*
X96590000Y-89940000D01*
X93420000Y-82340000D02*
X93420000Y-84880000D01*
X96590000Y-89940000D02*
X96590000Y-92200000D01*
X93420000Y-84880000D02*
X96480000Y-87940000D01*
%TO.N,Net-(R30-Pad1)*%
X93420000Y-89960000D02*
X93380000Y-90000000D01*
X93380000Y-90000000D02*
X93380000Y-92230000D01*
X90190000Y-82460000D02*
X90190000Y-86840000D01*
X93310000Y-89960000D02*
X93420000Y-89960000D01*
X90190000Y-86840000D02*
X93310000Y-89960000D01*
X90290000Y-82360000D02*
X90190000Y-82460000D01*
%TO.N,Net-(R31-Pad2)*%
X99740000Y-103780000D02*
X98810000Y-102850000D01*
X99740000Y-104610000D02*
X99740000Y-103780000D01*
X95840000Y-102850000D02*
X93380000Y-100390000D01*
X93380000Y-100390000D02*
X93380000Y-99850000D01*
X98810000Y-102850000D02*
X95840000Y-102850000D01*
%TO.N,Net-(R32-Pad1)*%
X90290000Y-89980000D02*
X90290000Y-92110000D01*
X86900000Y-82600000D02*
X86900000Y-86770000D01*
X86900000Y-86770000D02*
X90110000Y-89980000D01*
X87120000Y-82380000D02*
X86900000Y-82600000D01*
X90290000Y-92110000D02*
X90130000Y-92270000D01*
X90110000Y-89980000D02*
X90290000Y-89980000D01*
%TO.N,Net-(R33-Pad2)*%
X94660000Y-104420000D02*
X90130000Y-99890000D01*
X94660000Y-104610000D02*
X94660000Y-104420000D01*
%TO.N,Net-(J6-Pad1)*%
X124452000Y-89230000D02*
X128160000Y-89230000D01*
X113410000Y-92000000D02*
X114830000Y-90580000D01*
X106990000Y-91940000D02*
X109990000Y-91940000D01*
X114830000Y-90580000D02*
X123102000Y-90580000D01*
X136990000Y-80400000D02*
X137760000Y-80400000D01*
X110070000Y-92020000D02*
X110110000Y-91980000D01*
X110110000Y-91980000D02*
X113390000Y-91980000D01*
X128160000Y-89230000D02*
X136990000Y-80400000D01*
X106910000Y-92020000D02*
X106990000Y-91940000D01*
X109990000Y-91940000D02*
X110070000Y-92020000D01*
X123102000Y-90580000D02*
X124452000Y-89230000D01*
X113390000Y-91980000D02*
X113410000Y-92000000D01*
%TO.N,Net-(J6-Pad2)*%
X124910000Y-90120000D02*
X128750000Y-90120000D01*
X116670000Y-91900000D02*
X116560000Y-92010000D01*
X128750000Y-90120000D02*
X136180000Y-82690000D01*
X122980000Y-92050000D02*
X124910000Y-90120000D01*
X122750000Y-91900000D02*
X119880000Y-91900000D01*
X119740000Y-92040000D02*
X119600000Y-91900000D01*
X122900000Y-92050000D02*
X122980000Y-92050000D01*
X122900000Y-92050000D02*
X122750000Y-91900000D01*
X119600000Y-91900000D02*
X116670000Y-91900000D01*
X136180000Y-82690000D02*
X137760000Y-82690000D01*
X119880000Y-91900000D02*
X119740000Y-92040000D01*
%TO.N,Net-(J6-Pad3)*%
X129290000Y-91120000D02*
X135430000Y-84980000D01*
X126260000Y-91870000D02*
X129100000Y-91870000D01*
X126070000Y-92060000D02*
X126260000Y-91870000D01*
X135430000Y-84980000D02*
X137760000Y-84980000D01*
X129100000Y-91870000D02*
X129290000Y-92060000D01*
X129290000Y-92060000D02*
X129290000Y-91120000D01*
D40*
%TO.N,Net-(J6-Pad9)*%
X132760000Y-90000000D02*
X136635000Y-86125000D01*
X136635000Y-86125000D02*
X139740000Y-86125000D01*
X132760000Y-91710000D02*
X132760000Y-90000000D01*
%TO.N,Net-(J6-Pad13)*%
X105180000Y-93490000D02*
X137110000Y-93490000D01*
X137110000Y-93490000D02*
X138900000Y-91700000D01*
X103720000Y-92030000D02*
X105180000Y-93490000D01*
X142180000Y-84980000D02*
X141720000Y-84980000D01*
X138900000Y-91700000D02*
X142190000Y-91700000D01*
X143130000Y-85930000D02*
X142180000Y-84980000D01*
X143130000Y-90760000D02*
X143130000Y-85930000D01*
X142190000Y-91700000D02*
X143130000Y-90760000D01*
D39*
%TO.N,R0*%
X113410000Y-100180000D02*
X113410000Y-99620000D01*
X114210000Y-100980000D02*
X113410000Y-100180000D01*
X123620000Y-103090000D02*
X121180000Y-103090000D01*
X120290000Y-102200000D02*
X117087818Y-102200000D01*
X115867818Y-100980000D02*
X114210000Y-100980000D01*
X121180000Y-103090000D02*
X120290000Y-102200000D01*
X125140000Y-104610000D02*
X123620000Y-103090000D01*
X117087818Y-102200000D02*
X115867818Y-100980000D01*
%TO.N,R1*%
X111450000Y-100420000D02*
X110670000Y-99640000D01*
X118380000Y-103130000D02*
X117240000Y-103130000D01*
X119860000Y-104610000D02*
X118380000Y-103130000D01*
X120060000Y-104610000D02*
X119860000Y-104610000D01*
X115820000Y-101710000D02*
X113440000Y-101710000D01*
X110670000Y-99640000D02*
X110070000Y-99640000D01*
X113440000Y-101710000D02*
X112150000Y-100420000D01*
X112150000Y-100420000D02*
X111450000Y-100420000D01*
X117240000Y-103130000D02*
X115820000Y-101710000D01*
%TO.N,R2*%
X111770000Y-100970000D02*
X108800000Y-100970000D01*
X115550000Y-102440000D02*
X113240000Y-102440000D01*
X113240000Y-102440000D02*
X111770000Y-100970000D01*
X117520000Y-104410000D02*
X115550000Y-102440000D01*
X117520000Y-104610000D02*
X117520000Y-104410000D01*
X107470000Y-99640000D02*
X106910000Y-99640000D01*
X108800000Y-100970000D02*
X107470000Y-99640000D01*
%TO.N,G0*%
X122900000Y-99670000D02*
X124380000Y-101150000D01*
X124380000Y-101150000D02*
X125910000Y-101150000D01*
X126810000Y-102050000D02*
X130200000Y-102050000D01*
X125910000Y-101150000D02*
X126810000Y-102050000D01*
X130200000Y-102050000D02*
X132760000Y-104610000D01*
%TO.N,G1*%
X128560000Y-102950000D02*
X130220000Y-104610000D01*
X126590000Y-102950000D02*
X128560000Y-102950000D01*
X119740000Y-99660000D02*
X120310000Y-99660000D01*
X120310000Y-99660000D02*
X122410000Y-101760000D01*
X122410000Y-101760000D02*
X125400000Y-101760000D01*
X125400000Y-101760000D02*
X126590000Y-102950000D01*
%TO.N,G2*%
X120370000Y-101230000D02*
X118040000Y-101230000D01*
X127190000Y-104610000D02*
X124980000Y-102400000D01*
X116560000Y-99750000D02*
X116560000Y-99630000D01*
X124980000Y-102400000D02*
X121540000Y-102400000D01*
X121540000Y-102400000D02*
X120370000Y-101230000D01*
X118040000Y-101230000D02*
X116560000Y-99750000D01*
X127680000Y-104610000D02*
X127190000Y-104610000D01*
%TO.N,B0*%
X130750000Y-99680000D02*
X129290000Y-99680000D01*
X131930000Y-100860000D02*
X130750000Y-99680000D01*
X140380000Y-104610000D02*
X140380000Y-101560000D01*
X139680000Y-100860000D02*
X131930000Y-100860000D01*
X140380000Y-101560000D02*
X139680000Y-100860000D01*
%TO.N,B1*%
X127600000Y-101210000D02*
X126070000Y-99680000D01*
X137840000Y-104610000D02*
X137840000Y-102210000D01*
X137160000Y-101530000D02*
X131540000Y-101530000D01*
X131540000Y-101530000D02*
X131220000Y-101210000D01*
X137840000Y-102210000D02*
X137160000Y-101530000D01*
X131220000Y-101210000D02*
X127600000Y-101210000D01*
%TO.N,SYNC*%
X112940000Y-103150000D02*
X111430000Y-101640000D01*
X114980000Y-103460000D02*
X114670000Y-103150000D01*
X105710000Y-101640000D02*
X103720000Y-99650000D01*
X114980000Y-104610000D02*
X114980000Y-103460000D01*
X111430000Y-101640000D02*
X105710000Y-101640000D01*
X114670000Y-103150000D02*
X112940000Y-103150000D01*
%TD*%
M02*
