%TF.GenerationSoftware,KiCad,Pcbnew,(6.0.11)*%
%TF.CreationDate,2023-09-01T22:09:42-05:00*%
%TF.ProjectId,GuitarPico,47756974-6172-4506-9963-6f2e6b696361,rev?*%
%TF.SameCoordinates,Original*%
%TF.FileFunction,Copper,L2,Bot*%
%TF.FilePolarity,Positive*%
%FSLAX46Y46*%
G04 Gerber Fmt 4.6, Leading zero omitted, Abs format (unit mm)*
G04 Created by KiCad (PCBNEW (6.0.11)) date 2023-09-01 22:09:42*
%MOMM*%
%LPD*%
G01*
G04 APERTURE LIST*
G04 Aperture macros list*
%AMRoundRect*
0 Rectangle with rounded corners*
0 $1 Rounding radius*
0 $2 $3 $4 $5 $6 $7 $8 $9 X,Y pos of 4 corners*
0 Add a 4 corners polygon primitive as box body*
4,1,4,$2,$3,$4,$5,$6,$7,$8,$9,$2,$3,0*
0 Add four circle primitives for the rounded corners*
1,1,$1+$1,$2,$3*
1,1,$1+$1,$4,$5*
1,1,$1+$1,$6,$7*
1,1,$1+$1,$8,$9*
0 Add four rect primitives between the rounded corners*
20,1,$1+$1,$2,$3,$4,$5,0*
20,1,$1+$1,$4,$5,$6,$7,0*
20,1,$1+$1,$6,$7,$8,$9,0*
20,1,$1+$1,$8,$9,$2,$3,0*%
G04 Aperture macros list end*
%TA.AperFunction,ComponentPad*%
%ADD10C,1.600000*%
%TD*%
%TA.AperFunction,ComponentPad*%
%ADD11O,1.600000X1.600000*%
%TD*%
%TA.AperFunction,ComponentPad*%
%ADD12R,1.700000X1.700000*%
%TD*%
%TA.AperFunction,ComponentPad*%
%ADD13O,1.700000X1.700000*%
%TD*%
%TA.AperFunction,ComponentPad*%
%ADD14O,1.000000X2.000000*%
%TD*%
%TA.AperFunction,ComponentPad*%
%ADD15O,2.000000X1.000000*%
%TD*%
%TA.AperFunction,ComponentPad*%
%ADD16O,2.000000X1.500000*%
%TD*%
%TA.AperFunction,ComponentPad*%
%ADD17O,1.500000X2.000000*%
%TD*%
%TA.AperFunction,ComponentPad*%
%ADD18RoundRect,0.750000X-0.750000X1.250000X-0.750000X-1.250000X0.750000X-1.250000X0.750000X1.250000X0*%
%TD*%
%TA.AperFunction,ComponentPad*%
%ADD19C,1.800000*%
%TD*%
%TA.AperFunction,ComponentPad*%
%ADD20R,1.800000X1.800000*%
%TD*%
%TA.AperFunction,ComponentPad*%
%ADD21R,1.600000X1.600000*%
%TD*%
%TA.AperFunction,ComponentPad*%
%ADD22C,1.500000*%
%TD*%
%TA.AperFunction,ComponentPad*%
%ADD23R,1.500000X1.500000*%
%TD*%
%TA.AperFunction,WasherPad*%
%ADD24O,3.600000X3.100000*%
%TD*%
%TA.AperFunction,ComponentPad*%
%ADD25O,1.600000X2.000000*%
%TD*%
%TA.AperFunction,ComponentPad*%
%ADD26R,1.905000X2.000000*%
%TD*%
%TA.AperFunction,ComponentPad*%
%ADD27O,1.905000X2.000000*%
%TD*%
%TA.AperFunction,ComponentPad*%
%ADD28RoundRect,0.875000X-0.875000X-0.875000X0.875000X-0.875000X0.875000X0.875000X-0.875000X0.875000X0*%
%TD*%
%TA.AperFunction,ComponentPad*%
%ADD29RoundRect,0.750000X-0.750000X-1.000000X0.750000X-1.000000X0.750000X1.000000X-0.750000X1.000000X0*%
%TD*%
%TA.AperFunction,ComponentPad*%
%ADD30R,3.500000X3.500000*%
%TD*%
%TA.AperFunction,ComponentPad*%
%ADD31R,2.200000X2.200000*%
%TD*%
%TA.AperFunction,ComponentPad*%
%ADD32O,2.200000X2.200000*%
%TD*%
%TA.AperFunction,ComponentPad*%
%ADD33C,2.500000*%
%TD*%
%TA.AperFunction,ComponentPad*%
%ADD34R,3.000000X3.000000*%
%TD*%
%TA.AperFunction,ComponentPad*%
%ADD35C,3.000000*%
%TD*%
%TA.AperFunction,ViaPad*%
%ADD36C,0.800000*%
%TD*%
%TA.AperFunction,Conductor*%
%ADD37C,0.350000*%
%TD*%
G04 APERTURE END LIST*
D10*
%TO.P,R48,1*%
%TO.N,Net-(JP2-Pad1)*%
X57820000Y-118320000D03*
D11*
%TO.P,R48,2*%
%TO.N,Net-(J9-PadT1)*%
X50200000Y-118320000D03*
%TD*%
D10*
%TO.P,R47,1*%
%TO.N,Net-(JP1-Pad1)*%
X86100000Y-150390000D03*
D11*
%TO.P,R47,2*%
%TO.N,Net-(J8-PadT1)*%
X86100000Y-158010000D03*
%TD*%
D12*
%TO.P,JP2,1,A*%
%TO.N,Net-(JP2-Pad1)*%
X54130000Y-114900000D03*
D13*
%TO.P,JP2,2,B*%
%TO.N,VREF*%
X56670000Y-114900000D03*
%TD*%
D12*
%TO.P,JP1,1,A*%
%TO.N,Net-(JP1-Pad1)*%
X83935000Y-147128000D03*
D13*
%TO.P,JP1,2,B*%
%TO.N,VREF*%
X86475000Y-147128000D03*
%TD*%
D14*
%TO.P,J9,G*%
%TO.N,GND*%
X45790000Y-126070000D03*
D15*
%TO.P,J9,S1*%
%TO.N,unconnected-(J9-PadS1)*%
X53690000Y-120870000D03*
D16*
%TO.P,J9,SN1*%
%TO.N,unconnected-(J9-PadSN1)*%
X52690000Y-123470000D03*
D15*
%TO.P,J9,T1*%
%TO.N,Net-(J9-PadT1)*%
X50190000Y-130870000D03*
D17*
%TO.P,J9,TN1*%
%TO.N,unconnected-(J9-PadTN1)*%
X57090000Y-130370000D03*
%TD*%
D14*
%TO.P,J8,G*%
%TO.N,GND*%
X45720000Y-138590000D03*
D15*
%TO.P,J8,S1*%
%TO.N,unconnected-(J8-PadS1)*%
X53620000Y-133390000D03*
D16*
%TO.P,J8,SN1*%
%TO.N,unconnected-(J8-PadSN1)*%
X52620000Y-135990000D03*
D15*
%TO.P,J8,T1*%
%TO.N,Net-(J8-PadT1)*%
X50120000Y-143390000D03*
D17*
%TO.P,J8,TN1*%
%TO.N,unconnected-(J8-PadTN1)*%
X57020000Y-142890000D03*
%TD*%
D10*
%TO.P,R46,1*%
%TO.N,Net-(JP4-Pad1)*%
X127762000Y-152146000D03*
D11*
%TO.P,R46,2*%
%TO.N,Net-(J7-PadT1)*%
X127762000Y-144526000D03*
%TD*%
D10*
%TO.P,R45,1*%
%TO.N,Net-(JP3-Pad1)*%
X124460000Y-152146000D03*
D11*
%TO.P,R45,2*%
%TO.N,Net-(J6-PadT1)*%
X124460000Y-144526000D03*
%TD*%
D12*
%TO.P,JP4,1,A*%
%TO.N,Net-(JP4-Pad1)*%
X127508000Y-155194000D03*
D13*
%TO.P,JP4,2,B*%
%TO.N,VREF*%
X127508000Y-157734000D03*
%TD*%
%TO.P,JP3,2,B*%
%TO.N,VREF*%
X123190000Y-157734000D03*
D12*
%TO.P,JP3,1,A*%
%TO.N,Net-(JP3-Pad1)*%
X123190000Y-155194000D03*
%TD*%
D14*
%TO.P,J7,G*%
%TO.N,GND*%
X142240000Y-147828000D03*
D15*
%TO.P,J7,S1*%
%TO.N,unconnected-(J7-PadS1)*%
X134340000Y-153028000D03*
D16*
%TO.P,J7,SN1*%
%TO.N,unconnected-(J7-PadSN1)*%
X135340000Y-150428000D03*
D15*
%TO.P,J7,T1*%
%TO.N,Net-(J7-PadT1)*%
X137840000Y-143028000D03*
D17*
%TO.P,J7,TN1*%
%TO.N,unconnected-(J7-PadTN1)*%
X130940000Y-143528000D03*
%TD*%
D14*
%TO.P,J6,G*%
%TO.N,GND*%
X142250000Y-135410000D03*
D15*
%TO.P,J6,S1*%
%TO.N,unconnected-(J6-PadS1)*%
X134350000Y-140610000D03*
D16*
%TO.P,J6,SN1*%
%TO.N,unconnected-(J6-PadSN1)*%
X135350000Y-138010000D03*
D15*
%TO.P,J6,T1*%
%TO.N,Net-(J6-PadT1)*%
X137850000Y-130610000D03*
D17*
%TO.P,J6,TN1*%
%TO.N,unconnected-(J6-PadTN1)*%
X130950000Y-131110000D03*
%TD*%
D18*
%TO.P,RV6,MP*%
%TO.N,N/C*%
X90890000Y-153558000D03*
X99690000Y-153558000D03*
D19*
%TO.P,RV6,3,3*%
%TO.N,VREF*%
X92790000Y-146558000D03*
%TO.P,RV6,2,2*%
%TO.N,Net-(U6-Pad13)*%
X95290000Y-146558000D03*
D20*
%TO.P,RV6,1,1*%
%TO.N,GND*%
X97790000Y-146558000D03*
%TD*%
%TO.P,RV5,1,1*%
%TO.N,GND*%
X77730000Y-146620000D03*
D19*
%TO.P,RV5,2,2*%
%TO.N,Net-(U6-Pad14)*%
X75230000Y-146620000D03*
%TO.P,RV5,3,3*%
%TO.N,VREF*%
X72730000Y-146620000D03*
D18*
%TO.P,RV5,MP*%
%TO.N,N/C*%
X79630000Y-153620000D03*
X70830000Y-153620000D03*
%TD*%
D20*
%TO.P,RV4,1,1*%
%TO.N,GND*%
X60706000Y-146558000D03*
D19*
%TO.P,RV4,2,2*%
%TO.N,Net-(U6-Pad15)*%
X58206000Y-146558000D03*
%TO.P,RV4,3,3*%
%TO.N,VREF*%
X55706000Y-146558000D03*
D18*
%TO.P,RV4,MP*%
%TO.N,N/C*%
X62606000Y-153558000D03*
X53806000Y-153558000D03*
%TD*%
%TO.P,RV3,MP*%
%TO.N,N/C*%
X107908000Y-153558000D03*
X116708000Y-153558000D03*
D19*
%TO.P,RV3,3,3*%
%TO.N,VREF*%
X109808000Y-146558000D03*
%TO.P,RV3,2,2*%
%TO.N,Net-(U6-Pad12)*%
X112308000Y-146558000D03*
D20*
%TO.P,RV3,1,1*%
%TO.N,GND*%
X114808000Y-146558000D03*
%TD*%
D10*
%TO.P,C29,2*%
%TO.N,Net-(U6-Pad13)*%
X96240000Y-142680000D03*
%TO.P,C29,1*%
%TO.N,GND*%
X91240000Y-142680000D03*
%TD*%
%TO.P,C28,1*%
%TO.N,GND*%
X66808000Y-151140000D03*
%TO.P,C28,2*%
%TO.N,Net-(U6-Pad14)*%
X66808000Y-146140000D03*
%TD*%
%TO.P,C27,1*%
%TO.N,GND*%
X45325000Y-148675000D03*
%TO.P,C27,2*%
%TO.N,Net-(U6-Pad15)*%
X50325000Y-148675000D03*
%TD*%
%TO.P,C26,1*%
%TO.N,GND*%
X120904000Y-142026000D03*
%TO.P,C26,2*%
%TO.N,Net-(U6-Pad12)*%
X120904000Y-147026000D03*
%TD*%
%TO.P,R44,1*%
%TO.N,+3V3*%
X125222000Y-127254000D03*
D11*
%TO.P,R44,2*%
%TO.N,Net-(U3-Pad30)*%
X117602000Y-127254000D03*
%TD*%
%TO.P,U6,16,VDD*%
%TO.N,+5V*%
X99800000Y-135920000D03*
%TO.P,U6,15,X2*%
%TO.N,Net-(U6-Pad15)*%
X102340000Y-135920000D03*
%TO.P,U6,14,X1*%
%TO.N,Net-(U6-Pad14)*%
X104880000Y-135920000D03*
%TO.P,U6,13,X0*%
%TO.N,Net-(U6-Pad13)*%
X107420000Y-135920000D03*
%TO.P,U6,12,X3*%
%TO.N,Net-(U6-Pad12)*%
X109960000Y-135920000D03*
%TO.P,U6,11,A*%
%TO.N,Net-(Q1-Pad3)*%
X112500000Y-135920000D03*
%TO.P,U6,10,B*%
%TO.N,Net-(Q2-Pad3)*%
X115040000Y-135920000D03*
%TO.P,U6,9,C*%
%TO.N,Net-(Q3-Pad3)*%
X117580000Y-135920000D03*
%TO.P,U6,8,VSS*%
%TO.N,GND*%
X117580000Y-143540000D03*
%TO.P,U6,7,VEE*%
X115040000Y-143540000D03*
%TO.P,U6,6,Inh*%
X112500000Y-143540000D03*
%TO.P,U6,5,X5*%
%TO.N,Net-(J6-PadT1)*%
X109960000Y-143540000D03*
%TO.P,U6,4,X7*%
%TO.N,Net-(J7-PadT1)*%
X107420000Y-143540000D03*
%TO.P,U6,3,X*%
%TO.N,CTRLIN*%
X104880000Y-143540000D03*
%TO.P,U6,2,X6*%
%TO.N,Net-(J9-PadT1)*%
X102340000Y-143540000D03*
D21*
%TO.P,U6,1,X4*%
%TO.N,Net-(J8-PadT1)*%
X99800000Y-143540000D03*
%TD*%
D11*
%TO.P,R43,2*%
%TO.N,Net-(Q3-Pad3)*%
X117602000Y-130500000D03*
D10*
%TO.P,R43,1*%
%TO.N,+5V*%
X125222000Y-130500000D03*
%TD*%
%TO.P,R42,1*%
%TO.N,SEL2*%
X96500000Y-126750000D03*
D11*
%TO.P,R42,2*%
%TO.N,Net-(Q3-Pad2)*%
X96500000Y-134370000D03*
%TD*%
%TO.P,R41,2*%
%TO.N,Net-(Q2-Pad3)*%
X120396000Y-133858000D03*
D10*
%TO.P,R41,1*%
%TO.N,+5V*%
X128016000Y-133858000D03*
%TD*%
D11*
%TO.P,R40,2*%
%TO.N,Net-(Q2-Pad2)*%
X93250000Y-134370000D03*
D10*
%TO.P,R40,1*%
%TO.N,SEL1*%
X93250000Y-126750000D03*
%TD*%
%TO.P,R39,1*%
%TO.N,+5V*%
X128016000Y-137668000D03*
D11*
%TO.P,R39,2*%
%TO.N,Net-(Q1-Pad3)*%
X120396000Y-137668000D03*
%TD*%
D10*
%TO.P,R38,1*%
%TO.N,SEL0*%
X90000000Y-126750000D03*
D11*
%TO.P,R38,2*%
%TO.N,Net-(Q1-Pad2)*%
X90000000Y-134370000D03*
%TD*%
D22*
%TO.P,Q3,3,C*%
%TO.N,Net-(Q3-Pad3)*%
X110140000Y-132080000D03*
%TO.P,Q3,2,B*%
%TO.N,Net-(Q3-Pad2)*%
X110140000Y-129540000D03*
D23*
%TO.P,Q3,1,E*%
%TO.N,GND*%
X110140000Y-127000000D03*
%TD*%
%TO.P,Q2,1,E*%
%TO.N,GND*%
X105250000Y-127000000D03*
D22*
%TO.P,Q2,2,B*%
%TO.N,Net-(Q2-Pad2)*%
X105250000Y-129540000D03*
%TO.P,Q2,3,C*%
%TO.N,Net-(Q2-Pad3)*%
X105250000Y-132080000D03*
%TD*%
D23*
%TO.P,Q1,1,E*%
%TO.N,GND*%
X100280000Y-127000000D03*
D22*
%TO.P,Q1,2,B*%
%TO.N,Net-(Q1-Pad2)*%
X100280000Y-129540000D03*
%TO.P,Q1,3,C*%
%TO.N,Net-(Q1-Pad3)*%
X100280000Y-132080000D03*
%TD*%
D10*
%TO.P,C25,2*%
%TO.N,GND*%
X90750000Y-137250000D03*
%TO.P,C25,1*%
%TO.N,+5V*%
X95750000Y-137250000D03*
%TD*%
%TO.P,C24,1*%
%TO.N,GND*%
X70618000Y-114362000D03*
%TO.P,C24,2*%
%TO.N,+3V3*%
X75618000Y-114362000D03*
%TD*%
%TO.P,R37,1*%
%TO.N,SDA*%
X86620000Y-114200000D03*
D11*
%TO.P,R37,2*%
%TO.N,+3V3*%
X79000000Y-114200000D03*
%TD*%
%TO.P,R36,2*%
%TO.N,SCL*%
X86620000Y-111100000D03*
D10*
%TO.P,R36,1*%
%TO.N,+3V3*%
X79000000Y-111100000D03*
%TD*%
D24*
%TO.P,Brd1,*%
%TO.N,*%
X62530000Y-118640000D03*
X85530000Y-142140000D03*
X62530000Y-142140000D03*
X85530000Y-118640000D03*
D25*
%TO.P,Brd1,1,GND*%
%TO.N,GND*%
X69910000Y-118540000D03*
%TO.P,Brd1,2,VCC*%
%TO.N,+3V3*%
X72450000Y-118540000D03*
%TO.P,Brd1,3,SCL*%
%TO.N,SCL*%
X74990000Y-118540000D03*
%TO.P,Brd1,4,SDA*%
%TO.N,SDA*%
X77530000Y-118540000D03*
%TD*%
D10*
%TO.P,C18,1*%
%TO.N,BIAS*%
X120200000Y-95700000D03*
%TO.P,C18,2*%
%TO.N,GND*%
X115200000Y-95700000D03*
%TD*%
%TO.P,R35,1*%
%TO.N,FROMDAC*%
X89500000Y-92250000D03*
D11*
%TO.P,R35,2*%
%TO.N,Net-(U3-Pad20)*%
X89500000Y-99870000D03*
%TD*%
D10*
%TO.P,R34,1*%
%TO.N,FROMDAC*%
X92750000Y-92250000D03*
D11*
%TO.P,R34,2*%
%TO.N,Net-(U3-Pad19)*%
X92750000Y-99870000D03*
%TD*%
D10*
%TO.P,R33,1*%
%TO.N,FROMDAC*%
X96000000Y-92250000D03*
D11*
%TO.P,R33,2*%
%TO.N,Net-(U3-Pad17)*%
X96000000Y-99870000D03*
%TD*%
D10*
%TO.P,R32,1*%
%TO.N,FROMDAC*%
X99250000Y-92190000D03*
D11*
%TO.P,R32,2*%
%TO.N,Net-(U3-Pad16)*%
X99250000Y-99810000D03*
%TD*%
D10*
%TO.P,R31,1*%
%TO.N,FROMDAC*%
X102500000Y-92190000D03*
D11*
%TO.P,R31,2*%
%TO.N,Net-(U3-Pad15)*%
X102500000Y-99810000D03*
%TD*%
D10*
%TO.P,R30,1*%
%TO.N,FROMDAC*%
X105750000Y-92190000D03*
D11*
%TO.P,R30,2*%
%TO.N,Net-(U3-Pad14)*%
X105750000Y-99810000D03*
%TD*%
D10*
%TO.P,R29,1*%
%TO.N,FROMDAC*%
X109000000Y-92190000D03*
D11*
%TO.P,R29,2*%
%TO.N,Net-(U3-Pad12)*%
X109000000Y-99810000D03*
%TD*%
D10*
%TO.P,R28,1*%
%TO.N,FROMDAC*%
X112250000Y-92130000D03*
D11*
%TO.P,R28,2*%
%TO.N,Net-(U3-Pad11)*%
X112250000Y-99750000D03*
%TD*%
D10*
%TO.P,C23,1*%
%TO.N,TOADC*%
X114808000Y-127000000D03*
%TO.P,C23,2*%
%TO.N,GND*%
X114808000Y-132000000D03*
%TD*%
D23*
%TO.P,U5,1,REF*%
%TO.N,VREF*%
X65306000Y-115124000D03*
D22*
%TO.P,U5,2,A*%
%TO.N,GND*%
X65306000Y-112584000D03*
%TO.P,U5,3,K*%
%TO.N,Net-(R25-Pad2)*%
X65306000Y-110044000D03*
%TD*%
D10*
%TO.P,R27,1*%
%TO.N,Net-(R25-Pad2)*%
X68500000Y-107758000D03*
D11*
%TO.P,R27,2*%
%TO.N,+5V*%
X76120000Y-107758000D03*
%TD*%
D10*
%TO.P,R26,1*%
%TO.N,GND*%
X60712000Y-107580000D03*
D11*
%TO.P,R26,2*%
%TO.N,VREF*%
X60712000Y-115200000D03*
%TD*%
D10*
%TO.P,R25,1*%
%TO.N,VREF*%
X76206000Y-111060000D03*
D11*
%TO.P,R25,2*%
%TO.N,Net-(R25-Pad2)*%
X68586000Y-111060000D03*
%TD*%
D10*
%TO.P,R24,1*%
%TO.N,TOADC*%
X86250000Y-100000000D03*
D11*
%TO.P,R24,2*%
%TO.N,Net-(R12-Pad2)*%
X86250000Y-92380000D03*
%TD*%
D21*
%TO.P,D2,1,K*%
%TO.N,VREF*%
X83300000Y-106900000D03*
D11*
%TO.P,D2,2,A*%
%TO.N,TOADC*%
X83300000Y-99280000D03*
%TD*%
D10*
%TO.P,C22,1*%
%TO.N,GND*%
X132588000Y-127254000D03*
%TO.P,C22,2*%
%TO.N,VREF*%
X127588000Y-127254000D03*
%TD*%
D26*
%TO.P,U4,1,VI*%
%TO.N,Net-(J5-Pad1)*%
X69800000Y-100900000D03*
D27*
%TO.P,U4,2,GND*%
%TO.N,GND*%
X72340000Y-100900000D03*
%TO.P,U4,3,VO*%
%TO.N,Net-(C21-Pad1)*%
X74880000Y-100900000D03*
%TD*%
D28*
%TO.P,J5,3*%
%TO.N,unconnected-(J5-Pad3)*%
X53902000Y-110172000D03*
D29*
%TO.P,J5,2*%
%TO.N,GND*%
X50902000Y-105472000D03*
D30*
%TO.P,J5,1*%
%TO.N,Net-(J5-Pad1)*%
X56902000Y-105472000D03*
%TD*%
D31*
%TO.P,D1,1,K*%
%TO.N,+5V*%
X79500000Y-106488000D03*
D32*
%TO.P,D1,2,A*%
%TO.N,Net-(C21-Pad1)*%
X79500000Y-98868000D03*
%TD*%
D10*
%TO.P,C21,1*%
%TO.N,Net-(C21-Pad1)*%
X74682000Y-104202000D03*
%TO.P,C21,2*%
%TO.N,GND*%
X69682000Y-104202000D03*
%TD*%
D21*
%TO.P,C20,1*%
%TO.N,Net-(J5-Pad1)*%
X61220000Y-101876000D03*
D10*
%TO.P,C20,2*%
%TO.N,GND*%
X61220000Y-99376000D03*
%TD*%
D13*
%TO.P,U3,43,SWDIO*%
%TO.N,unconnected-(U3-Pad43)*%
X92350000Y-116040000D03*
D12*
%TO.P,U3,42,GND*%
%TO.N,unconnected-(U3-Pad42)*%
X92350000Y-113500000D03*
D13*
%TO.P,U3,41,SWCLK*%
%TO.N,unconnected-(U3-Pad41)*%
X92350000Y-110960000D03*
%TO.P,U3,40,VBUS*%
%TO.N,+5V*%
X140380000Y-122390000D03*
%TO.P,U3,39,VSYS*%
%TO.N,Net-(R23-Pad2)*%
X137840000Y-122390000D03*
D12*
%TO.P,U3,38,GND*%
%TO.N,GND*%
X135300000Y-122390000D03*
D13*
%TO.P,U3,37,3V3_EN*%
%TO.N,Net-(R23-Pad1)*%
X132760000Y-122390000D03*
%TO.P,U3,36,3V3*%
%TO.N,+3V3*%
X130220000Y-122390000D03*
%TO.P,U3,35,ADC_VREF*%
%TO.N,VREF*%
X127680000Y-122390000D03*
%TO.P,U3,34,GPIO28_ADC2*%
%TO.N,unconnected-(U3-Pad34)*%
X125140000Y-122390000D03*
D12*
%TO.P,U3,33,AGND*%
%TO.N,GND*%
X122600000Y-122390000D03*
D13*
%TO.P,U3,32,GPIO27_ADC1*%
%TO.N,CTRLIN*%
X120060000Y-122390000D03*
%TO.P,U3,31,GPIO26_ADC0*%
%TO.N,TOADC*%
X117520000Y-122390000D03*
%TO.P,U3,30,RUN*%
%TO.N,Net-(U3-Pad30)*%
X114980000Y-122390000D03*
%TO.P,U3,29,GPIO22*%
%TO.N,unconnected-(U3-Pad29)*%
X112440000Y-122390000D03*
D12*
%TO.P,U3,28,GND*%
%TO.N,GND*%
X109900000Y-122390000D03*
D13*
%TO.P,U3,27,GPIO21*%
%TO.N,unconnected-(U3-Pad27)*%
X107360000Y-122390000D03*
%TO.P,U3,26,GPIO20*%
%TO.N,unconnected-(U3-Pad26)*%
X104820000Y-122390000D03*
%TO.P,U3,25,GPIO19*%
%TO.N,unconnected-(U3-Pad25)*%
X102280000Y-122390000D03*
%TO.P,U3,24,GPIO18*%
%TO.N,SEL2*%
X99740000Y-122390000D03*
D12*
%TO.P,U3,23,GND*%
%TO.N,GND*%
X97200000Y-122390000D03*
D13*
%TO.P,U3,22,GPIO17*%
%TO.N,SEL1*%
X94660000Y-122390000D03*
%TO.P,U3,21,GPIO16*%
%TO.N,SEL0*%
X92120000Y-122390000D03*
%TO.P,U3,20,GPIO15*%
%TO.N,Net-(U3-Pad20)*%
X92120000Y-104610000D03*
%TO.P,U3,19,GPIO14*%
%TO.N,Net-(U3-Pad19)*%
X94660000Y-104610000D03*
D12*
%TO.P,U3,18,GND*%
%TO.N,GND*%
X97200000Y-104610000D03*
D13*
%TO.P,U3,17,GPIO13*%
%TO.N,Net-(U3-Pad17)*%
X99740000Y-104610000D03*
%TO.P,U3,16,GPIO12*%
%TO.N,Net-(U3-Pad16)*%
X102280000Y-104610000D03*
%TO.P,U3,15,GPIO11*%
%TO.N,Net-(U3-Pad15)*%
X104820000Y-104610000D03*
%TO.P,U3,14,GPIO10*%
%TO.N,Net-(U3-Pad14)*%
X107360000Y-104610000D03*
D12*
%TO.P,U3,13,GND*%
%TO.N,GND*%
X109900000Y-104610000D03*
D13*
%TO.P,U3,12,GPIO9*%
%TO.N,Net-(U3-Pad12)*%
X112440000Y-104610000D03*
%TO.P,U3,11,GPIO8*%
%TO.N,Net-(U3-Pad11)*%
X114980000Y-104610000D03*
%TO.P,U3,10,GPIO7*%
%TO.N,unconnected-(U3-Pad10)*%
X117520000Y-104610000D03*
%TO.P,U3,9,GPIO6*%
%TO.N,unconnected-(U3-Pad9)*%
X120060000Y-104610000D03*
D12*
%TO.P,U3,8,GND*%
%TO.N,GND*%
X122600000Y-104610000D03*
D13*
%TO.P,U3,7,GPIO5*%
%TO.N,unconnected-(U3-Pad7)*%
X125140000Y-104610000D03*
%TO.P,U3,6,GPIO4*%
%TO.N,unconnected-(U3-Pad6)*%
X127680000Y-104610000D03*
%TO.P,U3,5,GPIO3*%
%TO.N,unconnected-(U3-Pad5)*%
X130220000Y-104610000D03*
%TO.P,U3,4,GPIO2*%
%TO.N,unconnected-(U3-Pad4)*%
X132760000Y-104610000D03*
D12*
%TO.P,U3,3,GND*%
%TO.N,GND*%
X135300000Y-104610000D03*
D13*
%TO.P,U3,2,GPIO1*%
%TO.N,SCL*%
X137840000Y-104610000D03*
%TO.P,U3,1,GPIO0*%
%TO.N,SDA*%
X140380000Y-104610000D03*
%TD*%
D11*
%TO.P,R23,2*%
%TO.N,Net-(R23-Pad2)*%
X142494000Y-127254000D03*
D10*
%TO.P,R23,1*%
%TO.N,Net-(R23-Pad1)*%
X134874000Y-127254000D03*
%TD*%
D21*
%TO.P,C19,1*%
%TO.N,+5V*%
X64770000Y-106240000D03*
D10*
%TO.P,C19,2*%
%TO.N,GND*%
X64770000Y-103740000D03*
%TD*%
D21*
%TO.P,U2,1*%
%TO.N,Net-(C13-Pad1)*%
X113250000Y-78750000D03*
D11*
%TO.P,U2,2,-*%
%TO.N,Net-(C13-Pad2)*%
X115790000Y-78750000D03*
%TO.P,U2,3,+*%
%TO.N,BIAS*%
X118330000Y-78750000D03*
%TO.P,U2,4,V-*%
%TO.N,GND*%
X120870000Y-78750000D03*
%TO.P,U2,5,+*%
%TO.N,Net-(C15-Pad2)*%
X120870000Y-71130000D03*
%TO.P,U2,6,-*%
%TO.N,Net-(R17-Pad1)*%
X118330000Y-71130000D03*
%TO.P,U2,7*%
%TO.N,Net-(C17-Pad1)*%
X115790000Y-71130000D03*
%TO.P,U2,8,V+*%
%TO.N,+5V*%
X113250000Y-71130000D03*
%TD*%
D19*
%TO.P,RV2,3,3*%
%TO.N,Net-(R17-Pad1)*%
X117000000Y-63000000D03*
%TO.P,RV2,2,2*%
X114500000Y-63000000D03*
%TO.P,RV2,1,1*%
%TO.N,Net-(C17-Pad1)*%
X112000000Y-63000000D03*
D33*
%TO.P,RV2,2,2*%
%TO.N,Net-(R17-Pad1)*%
X114500000Y-66000000D03*
%TO.P,RV2,3,3*%
X119500000Y-66000000D03*
%TO.P,RV2,1,1*%
%TO.N,Net-(C17-Pad1)*%
X109500000Y-66000000D03*
%TD*%
D10*
%TO.P,R22,1*%
%TO.N,Net-(J3-PadS1)*%
X132750000Y-87940000D03*
D11*
%TO.P,R22,2*%
%TO.N,Net-(C17-Pad2)*%
X132750000Y-95560000D03*
%TD*%
D10*
%TO.P,R21,1*%
%TO.N,GND*%
X129250000Y-95560000D03*
D11*
%TO.P,R21,2*%
%TO.N,Net-(C17-Pad2)*%
X129250000Y-87940000D03*
%TD*%
D10*
%TO.P,R20,1*%
%TO.N,GND*%
X125000000Y-61380000D03*
D11*
%TO.P,R20,2*%
%TO.N,Net-(C17-Pad1)*%
X125000000Y-69000000D03*
%TD*%
D10*
%TO.P,R19,1*%
%TO.N,Net-(C17-Pad1)*%
X125000000Y-79310000D03*
D11*
%TO.P,R19,2*%
%TO.N,Net-(R17-Pad1)*%
X125000000Y-71690000D03*
%TD*%
D10*
%TO.P,R18,1*%
%TO.N,Net-(C15-Pad2)*%
X126000000Y-81750000D03*
D11*
%TO.P,R18,2*%
%TO.N,BIAS*%
X126000000Y-89370000D03*
%TD*%
D10*
%TO.P,R17,1*%
%TO.N,Net-(R17-Pad1)*%
X108750000Y-70500000D03*
D11*
%TO.P,R17,2*%
%TO.N,Net-(C16-Pad1)*%
X108750000Y-78120000D03*
%TD*%
D10*
%TO.P,R16,1*%
%TO.N,GND*%
X99170000Y-69250000D03*
D11*
%TO.P,R16,2*%
%TO.N,Net-(C13-Pad1)*%
X99170000Y-76870000D03*
%TD*%
D10*
%TO.P,R15,1*%
%TO.N,Net-(C12-Pad2)*%
X119560000Y-85750000D03*
D11*
%TO.P,R15,2*%
%TO.N,Net-(C13-Pad1)*%
X111940000Y-85750000D03*
%TD*%
D10*
%TO.P,R14,1*%
%TO.N,Net-(C12-Pad2)*%
X119500000Y-89000000D03*
D11*
%TO.P,R14,2*%
%TO.N,Net-(C13-Pad2)*%
X111880000Y-89000000D03*
%TD*%
D10*
%TO.P,R13,1*%
%TO.N,Net-(C11-Pad1)*%
X101750000Y-87000000D03*
D11*
%TO.P,R13,2*%
%TO.N,Net-(C12-Pad2)*%
X109370000Y-87000000D03*
%TD*%
D34*
%TO.P,J4,1,Pin_1*%
%TO.N,GND*%
X139000000Y-94540000D03*
D35*
%TO.P,J4,2,Pin_2*%
%TO.N,Net-(J3-PadS1)*%
X139000000Y-89460000D03*
%TD*%
D14*
%TO.P,J3,G*%
%TO.N,GND*%
X141300000Y-80000000D03*
D15*
%TO.P,J3,S1*%
%TO.N,Net-(J3-PadS1)*%
X133400000Y-85200000D03*
D16*
%TO.P,J3,SN1*%
%TO.N,unconnected-(J3-PadSN1)*%
X134400000Y-82600000D03*
D15*
%TO.P,J3,T1*%
%TO.N,Net-(J3-PadS1)*%
X136900000Y-75200000D03*
D17*
%TO.P,J3,TN1*%
%TO.N,unconnected-(J3-PadTN1)*%
X130000000Y-75700000D03*
%TD*%
D21*
%TO.P,C17,1*%
%TO.N,Net-(C17-Pad1)*%
X126105113Y-93800000D03*
D10*
%TO.P,C17,2*%
%TO.N,Net-(C17-Pad2)*%
X123605113Y-93800000D03*
%TD*%
D21*
%TO.P,C16,1*%
%TO.N,Net-(C16-Pad1)*%
X100750000Y-66250000D03*
D10*
%TO.P,C16,2*%
%TO.N,GND*%
X100750000Y-63750000D03*
%TD*%
D21*
%TO.P,C15,1*%
%TO.N,Net-(C13-Pad1)*%
X103750000Y-76500000D03*
D10*
%TO.P,C15,2*%
%TO.N,Net-(C15-Pad2)*%
X103750000Y-74000000D03*
%TD*%
%TO.P,C14,2*%
%TO.N,GND*%
X105500000Y-62750000D03*
%TO.P,C14,1*%
%TO.N,+5V*%
X105500000Y-67750000D03*
%TD*%
%TO.P,C13,1*%
%TO.N,Net-(C13-Pad1)*%
X112000000Y-82500000D03*
%TO.P,C13,2*%
%TO.N,Net-(C13-Pad2)*%
X117000000Y-82500000D03*
%TD*%
%TO.P,C12,1*%
%TO.N,BIAS*%
X122500000Y-84250000D03*
%TO.P,C12,2*%
%TO.N,Net-(C12-Pad2)*%
X122500000Y-89250000D03*
%TD*%
%TO.P,C11,2*%
%TO.N,Net-(C10-Pad2)*%
X97000000Y-85500000D03*
D21*
%TO.P,C11,1*%
%TO.N,Net-(C11-Pad1)*%
X97000000Y-88000000D03*
%TD*%
%TO.P,C10,1*%
%TO.N,FROMDAC*%
X91250000Y-88000000D03*
D10*
%TO.P,C10,2*%
%TO.N,Net-(C10-Pad2)*%
X91250000Y-85500000D03*
%TD*%
D11*
%TO.P,U1,8,V+*%
%TO.N,+5V*%
X73000000Y-71180000D03*
%TO.P,U1,7*%
%TO.N,Net-(C7-Pad2)*%
X75540000Y-71180000D03*
%TO.P,U1,6,-*%
%TO.N,Net-(R5-Pad1)*%
X78080000Y-71180000D03*
%TO.P,U1,5,+*%
%TO.N,Net-(C4-Pad1)*%
X80620000Y-71180000D03*
%TO.P,U1,4,V-*%
%TO.N,GND*%
X80620000Y-78800000D03*
%TO.P,U1,3,+*%
%TO.N,BIAS*%
X78080000Y-78800000D03*
%TO.P,U1,2,-*%
%TO.N,Net-(C9-Pad2)*%
X75540000Y-78800000D03*
D21*
%TO.P,U1,1*%
%TO.N,Net-(C9-Pad1)*%
X73000000Y-78800000D03*
%TD*%
D19*
%TO.P,RV1,3,3*%
%TO.N,Net-(R5-Pad1)*%
X77750000Y-63000000D03*
%TO.P,RV1,2,2*%
X75250000Y-63000000D03*
%TO.P,RV1,1,1*%
%TO.N,Net-(C7-Pad2)*%
X72750000Y-63000000D03*
D33*
%TO.P,RV1,2,2*%
%TO.N,Net-(R5-Pad1)*%
X75250000Y-66000000D03*
%TO.P,RV1,3,3*%
X80250000Y-66000000D03*
%TO.P,RV1,1,1*%
%TO.N,Net-(C7-Pad2)*%
X70250000Y-66000000D03*
%TD*%
D11*
%TO.P,R12,2*%
%TO.N,Net-(R12-Pad2)*%
X68870000Y-88500000D03*
D10*
%TO.P,R12,1*%
%TO.N,GND*%
X61250000Y-88500000D03*
%TD*%
D11*
%TO.P,R11,2*%
%TO.N,Net-(C8-Pad2)*%
X79870000Y-93500000D03*
D10*
%TO.P,R11,1*%
%TO.N,Net-(C9-Pad1)*%
X72250000Y-93500000D03*
%TD*%
%TO.P,R10,1*%
%TO.N,Net-(C8-Pad2)*%
X72250000Y-90000000D03*
D11*
%TO.P,R10,2*%
%TO.N,Net-(C9-Pad2)*%
X79870000Y-90000000D03*
%TD*%
%TO.P,R9,2*%
%TO.N,Net-(C8-Pad2)*%
X72630000Y-86250000D03*
D10*
%TO.P,R9,1*%
%TO.N,Net-(C7-Pad1)*%
X80250000Y-86250000D03*
%TD*%
%TO.P,R8,1*%
%TO.N,GND*%
X95750000Y-69190000D03*
D11*
%TO.P,R8,2*%
%TO.N,Net-(C7-Pad2)*%
X95750000Y-76810000D03*
%TD*%
D10*
%TO.P,R7,1*%
%TO.N,Net-(C7-Pad2)*%
X84250000Y-70500000D03*
D11*
%TO.P,R7,2*%
%TO.N,Net-(R5-Pad1)*%
X84250000Y-62880000D03*
%TD*%
%TO.P,R6,2*%
%TO.N,BIAS*%
X65750000Y-85870000D03*
D10*
%TO.P,R6,1*%
%TO.N,Net-(C4-Pad1)*%
X65750000Y-78250000D03*
%TD*%
%TO.P,R5,1*%
%TO.N,Net-(R5-Pad1)*%
X87500000Y-62750000D03*
D11*
%TO.P,R5,2*%
%TO.N,Net-(C5-Pad1)*%
X87500000Y-70370000D03*
%TD*%
D10*
%TO.P,R4,1*%
%TO.N,GND*%
X58000000Y-97000000D03*
D11*
%TO.P,R4,2*%
%TO.N,Net-(C3-Pad1)*%
X58000000Y-89380000D03*
%TD*%
D10*
%TO.P,R3,1*%
%TO.N,Net-(C3-Pad1)*%
X54750000Y-97000000D03*
D11*
%TO.P,R3,2*%
%TO.N,Net-(J1-Pad2)*%
X54750000Y-89380000D03*
%TD*%
D10*
%TO.P,R2,1*%
%TO.N,GND*%
X69250000Y-85750000D03*
D11*
%TO.P,R2,2*%
%TO.N,BIAS*%
X69250000Y-78130000D03*
%TD*%
%TO.P,R1,2*%
%TO.N,+5V*%
X62000000Y-78130000D03*
D10*
%TO.P,R1,1*%
%TO.N,BIAS*%
X62000000Y-85750000D03*
%TD*%
D14*
%TO.P,J2,G*%
%TO.N,GND*%
X46700000Y-81000000D03*
D15*
%TO.P,J2,S1*%
%TO.N,unconnected-(J2-PadS1)*%
X54600000Y-75800000D03*
D16*
%TO.P,J2,SN1*%
%TO.N,unconnected-(J2-PadSN1)*%
X53600000Y-78400000D03*
D15*
%TO.P,J2,T1*%
%TO.N,Net-(J1-Pad2)*%
X51100000Y-85800000D03*
D17*
%TO.P,J2,TN1*%
%TO.N,unconnected-(J2-PadTN1)*%
X58000000Y-85300000D03*
%TD*%
D35*
%TO.P,J1,2,Pin_2*%
%TO.N,Net-(J1-Pad2)*%
X49000000Y-90460000D03*
D34*
%TO.P,J1,1,Pin_1*%
%TO.N,GND*%
X49000000Y-95540000D03*
%TD*%
D10*
%TO.P,C9,1*%
%TO.N,Net-(C9-Pad1)*%
X73750000Y-82500000D03*
%TO.P,C9,2*%
%TO.N,Net-(C9-Pad2)*%
X78750000Y-82500000D03*
%TD*%
%TO.P,C8,2*%
%TO.N,Net-(C8-Pad2)*%
X83250000Y-86750000D03*
%TO.P,C8,1*%
%TO.N,BIAS*%
X83250000Y-81750000D03*
%TD*%
D21*
%TO.P,C7,1*%
%TO.N,Net-(C7-Pad1)*%
X85250000Y-76205113D03*
D10*
%TO.P,C7,2*%
%TO.N,Net-(C7-Pad2)*%
X85250000Y-73705113D03*
%TD*%
%TO.P,C6,1*%
%TO.N,+5V*%
X69500000Y-69750000D03*
%TO.P,C6,2*%
%TO.N,GND*%
X64500000Y-69750000D03*
%TD*%
D21*
%TO.P,C5,1*%
%TO.N,Net-(C5-Pad1)*%
X91000000Y-73750000D03*
D10*
%TO.P,C5,2*%
%TO.N,GND*%
X91000000Y-76250000D03*
%TD*%
D21*
%TO.P,C4,1*%
%TO.N,Net-(C4-Pad1)*%
X66500000Y-74250000D03*
D10*
%TO.P,C4,2*%
%TO.N,Net-(C3-Pad1)*%
X64000000Y-74250000D03*
%TD*%
%TO.P,C3,1*%
%TO.N,Net-(C3-Pad1)*%
X61000000Y-72000000D03*
%TO.P,C3,2*%
%TO.N,GND*%
X61000000Y-67000000D03*
%TD*%
%TO.P,C2,2*%
%TO.N,GND*%
X66000000Y-94750000D03*
D21*
%TO.P,C2,1*%
%TO.N,BIAS*%
X66000000Y-92250000D03*
%TD*%
D10*
%TO.P,C1,1*%
%TO.N,BIAS*%
X61250000Y-91500000D03*
%TO.P,C1,2*%
%TO.N,GND*%
X61250000Y-96500000D03*
%TD*%
D36*
%TO.N,Net-(U6-Pad15)*%
X101082818Y-138159500D03*
%TO.N,Net-(U6-Pad14)*%
X103770000Y-138360000D03*
%TO.N,Net-(U6-Pad12)*%
X110300000Y-139114500D03*
%TO.N,Net-(U6-Pad13)*%
X105550000Y-138320000D03*
%TO.N,+3V3*%
X118750000Y-119000000D03*
%TO.N,VREF*%
X113900000Y-117060000D03*
%TD*%
D37*
%TO.N,Net-(J7-PadT1)*%
X137664000Y-143028000D02*
X137840000Y-143028000D01*
X135150000Y-145542000D02*
X137664000Y-143028000D01*
X127762000Y-144526000D02*
X128778000Y-145542000D01*
X128778000Y-145542000D02*
X135150000Y-145542000D01*
%TO.N,Net-(J6-PadT1)*%
X135074000Y-130610000D02*
X137850000Y-130610000D01*
X131572000Y-134112000D02*
X135074000Y-130610000D01*
X131572000Y-138938000D02*
X131572000Y-134112000D01*
X126238000Y-142748000D02*
X127762000Y-142748000D01*
X127762000Y-142748000D02*
X131572000Y-138938000D01*
X124460000Y-144526000D02*
X126238000Y-142748000D01*
%TO.N,Net-(J8-PadT1)*%
X48790000Y-145670000D02*
X50120000Y-144340000D01*
X48790000Y-149430000D02*
X48790000Y-145670000D01*
X49900000Y-150540000D02*
X48790000Y-149430000D01*
X55440000Y-150540000D02*
X49900000Y-150540000D01*
X56730000Y-151830000D02*
X55440000Y-150540000D01*
X50120000Y-144340000D02*
X50120000Y-143390000D01*
X57470000Y-158010000D02*
X56730000Y-157270000D01*
X86100000Y-158010000D02*
X57470000Y-158010000D01*
X56730000Y-157270000D02*
X56730000Y-151830000D01*
%TO.N,Net-(J9-PadT1)*%
X102340000Y-146030000D02*
X102340000Y-143540000D01*
X103700000Y-147390000D02*
X102340000Y-146030000D01*
X103700000Y-156770000D02*
X103700000Y-147390000D01*
X90500000Y-158600000D02*
X101870000Y-158600000D01*
X89600000Y-159500000D02*
X90500000Y-158600000D01*
X82360000Y-159500000D02*
X89600000Y-159500000D01*
X81460000Y-158600000D02*
X82360000Y-159500000D01*
X52160000Y-158600000D02*
X81460000Y-158600000D01*
X51360000Y-157800000D02*
X52160000Y-158600000D01*
X51360000Y-153510000D02*
X51360000Y-157800000D01*
X47860000Y-150010000D02*
X51360000Y-153510000D01*
X51125000Y-137355000D02*
X47860000Y-140620000D01*
X51125000Y-131805000D02*
X51125000Y-137355000D01*
X50190000Y-130870000D02*
X51125000Y-131805000D01*
X50200000Y-118320000D02*
X50200000Y-130860000D01*
X50200000Y-130860000D02*
X50190000Y-130870000D01*
X47860000Y-140620000D02*
X47860000Y-150010000D01*
X101870000Y-158600000D02*
X103700000Y-156770000D01*
%TO.N,Net-(JP2-Pad1)*%
X56350000Y-118320000D02*
X57820000Y-118320000D01*
X54130000Y-114900000D02*
X54130000Y-116100000D01*
X54130000Y-116100000D02*
X56350000Y-118320000D01*
%TO.N,VREF*%
X56970000Y-115200000D02*
X56670000Y-114900000D01*
X60712000Y-115200000D02*
X56970000Y-115200000D01*
%TO.N,+5V*%
X64770000Y-107002000D02*
X64770000Y-106240000D01*
X58932000Y-112840000D02*
X64770000Y-107002000D01*
X51740000Y-112840000D02*
X58932000Y-112840000D01*
X46300000Y-107400000D02*
X51740000Y-112840000D01*
X46300000Y-85900000D02*
X46300000Y-107400000D01*
X49500000Y-82700000D02*
X46300000Y-85900000D01*
X58600000Y-79500000D02*
X55400000Y-82700000D01*
X58600000Y-66000000D02*
X58600000Y-79500000D01*
X55400000Y-82700000D02*
X49500000Y-82700000D01*
X60100000Y-64500000D02*
X58600000Y-66000000D01*
X67250000Y-63500000D02*
X66250000Y-64500000D01*
X66250000Y-64500000D02*
X60100000Y-64500000D01*
%TO.N,VREF*%
X71888000Y-111060000D02*
X76206000Y-111060000D01*
X66406000Y-115124000D02*
X68692000Y-112838000D01*
X68692000Y-112838000D02*
X70110000Y-112838000D01*
X70110000Y-112838000D02*
X71888000Y-111060000D01*
X65306000Y-115124000D02*
X66406000Y-115124000D01*
X60788000Y-115124000D02*
X60712000Y-115200000D01*
X65306000Y-115124000D02*
X60788000Y-115124000D01*
%TO.N,Net-(R25-Pad2)*%
X67570000Y-110044000D02*
X68586000Y-111060000D01*
X65306000Y-110044000D02*
X67570000Y-110044000D01*
%TO.N,Net-(C21-Pad1)*%
X74880000Y-100900000D02*
X74880000Y-104004000D01*
X74880000Y-104004000D02*
X74682000Y-104202000D01*
%TO.N,Net-(J5-Pad1)*%
X63128000Y-100392000D02*
X61220000Y-102300000D01*
X69800000Y-100900000D02*
X69292000Y-100392000D01*
X69292000Y-100392000D02*
X63128000Y-100392000D01*
%TO.N,+5V*%
X74174000Y-106234000D02*
X75698000Y-107758000D01*
X64776000Y-106996000D02*
X65538000Y-106234000D01*
X65538000Y-106234000D02*
X74174000Y-106234000D01*
X75698000Y-107758000D02*
X76120000Y-107758000D01*
%TO.N,Net-(J5-Pad1)*%
X61220000Y-103480000D02*
X59228000Y-105472000D01*
X61220000Y-102300000D02*
X61220000Y-103480000D01*
X59228000Y-105472000D02*
X56902000Y-105472000D01*
%TO.N,+3V3*%
X75618000Y-114362000D02*
X72450000Y-117530000D01*
X72450000Y-117530000D02*
X72450000Y-118540000D01*
X75780000Y-114200000D02*
X75618000Y-114362000D01*
X79000000Y-114200000D02*
X75780000Y-114200000D01*
%TO.N,Net-(R25-Pad2)*%
X68500000Y-110974000D02*
X68586000Y-111060000D01*
X68500000Y-107758000D02*
X68500000Y-110974000D01*
%TO.N,VREF*%
X81000000Y-109500000D02*
X78000000Y-109500000D01*
X83300000Y-107200000D02*
X81000000Y-109500000D01*
X83300000Y-106900000D02*
X83300000Y-107200000D01*
X76440000Y-111060000D02*
X76206000Y-111060000D01*
X78000000Y-109500000D02*
X76440000Y-111060000D01*
%TO.N,+5V*%
X77462000Y-107758000D02*
X76120000Y-107758000D01*
X78732000Y-106488000D02*
X77462000Y-107758000D01*
X79500000Y-106488000D02*
X78732000Y-106488000D01*
%TO.N,Net-(C21-Pad1)*%
X79500000Y-98868000D02*
X78088000Y-100280000D01*
%TO.N,+5V*%
X81500000Y-104488000D02*
X79500000Y-106488000D01*
X81500000Y-99100000D02*
X81500000Y-104488000D01*
X84100000Y-96500000D02*
X81500000Y-99100000D01*
X114000000Y-96500000D02*
X84100000Y-96500000D01*
X143250000Y-99500000D02*
X141500000Y-97750000D01*
X142580000Y-122390000D02*
X143250000Y-121720000D01*
X140380000Y-122390000D02*
X142580000Y-122390000D01*
%TO.N,Net-(C21-Pad1)*%
X78088000Y-100280000D02*
X75500000Y-100280000D01*
%TO.N,+5V*%
X143250000Y-121720000D02*
X143250000Y-99500000D01*
X141500000Y-97750000D02*
X115250000Y-97750000D01*
%TO.N,Net-(C21-Pad1)*%
X75500000Y-100280000D02*
X74880000Y-100900000D01*
%TO.N,+5V*%
X115250000Y-97750000D02*
X114000000Y-96500000D01*
%TO.N,Net-(U6-Pad15)*%
X56400000Y-144752000D02*
X52748000Y-144752000D01*
X58206000Y-146558000D02*
X56400000Y-144752000D01*
X50325000Y-147175000D02*
X52748000Y-144752000D01*
X60786000Y-136714000D02*
X52748000Y-144752000D01*
X60786000Y-136714000D02*
X87636000Y-136714000D01*
%TO.N,Net-(JP1-Pad1)*%
X83935000Y-148225000D02*
X86100000Y-150390000D01*
X83935000Y-147128000D02*
X83935000Y-148225000D01*
%TO.N,VREF*%
X87045000Y-146558000D02*
X86475000Y-147128000D01*
X92790000Y-146558000D02*
X87045000Y-146558000D01*
X78664000Y-148570000D02*
X73494000Y-148570000D01*
X79172000Y-148062000D02*
X78664000Y-148570000D01*
X89279092Y-140524000D02*
X86993092Y-138238000D01*
X82556000Y-138238000D02*
X79172000Y-141622000D01*
X79172000Y-141622000D02*
X79172000Y-148062000D01*
X91954000Y-140524000D02*
X89279092Y-140524000D01*
X92790000Y-141360000D02*
X91954000Y-140524000D01*
X92790000Y-146558000D02*
X92790000Y-141360000D01*
X86993092Y-138238000D02*
X82556000Y-138238000D01*
%TO.N,Net-(U6-Pad14)*%
X87382000Y-137476000D02*
X82556000Y-137476000D01*
X89668000Y-139762000D02*
X87382000Y-137476000D01*
X66808000Y-144334000D02*
X73666000Y-137476000D01*
X82556000Y-137476000D02*
X73666000Y-137476000D01*
X82556000Y-137476000D02*
X77984000Y-137476000D01*
X75230000Y-140230000D02*
X77984000Y-137476000D01*
X89668000Y-139762000D02*
X97298000Y-139762000D01*
X98010000Y-139050000D02*
X103140000Y-139050000D01*
X103770000Y-138420000D02*
X103770000Y-138360000D01*
X97298000Y-139762000D02*
X98010000Y-139050000D01*
X103140000Y-139050000D02*
X103770000Y-138420000D01*
%TO.N,Net-(U6-Pad15)*%
X89922000Y-139000000D02*
X87636000Y-136714000D01*
X96630000Y-139000000D02*
X89922000Y-139000000D01*
X97470500Y-138159500D02*
X96630000Y-139000000D01*
X101082818Y-138159500D02*
X97470500Y-138159500D01*
%TO.N,Net-(U6-Pad14)*%
X75230000Y-146620000D02*
X75230000Y-140230000D01*
X66808000Y-144334000D02*
X66808000Y-146140000D01*
%TO.N,VREF*%
X72730000Y-147806000D02*
X73494000Y-148570000D01*
X72730000Y-146620000D02*
X72730000Y-147806000D01*
X73494000Y-148570000D02*
X57718000Y-148570000D01*
%TO.N,Net-(J8-PadT1)*%
X102550000Y-156030000D02*
X100570000Y-158010000D01*
X102550000Y-147610000D02*
X102550000Y-156030000D01*
X101270000Y-146330000D02*
X102550000Y-147610000D01*
X100570000Y-158010000D02*
X86100000Y-158010000D01*
X101270000Y-146300000D02*
X101270000Y-146330000D01*
X99800000Y-144830000D02*
X101270000Y-146300000D01*
X99800000Y-143540000D02*
X99800000Y-144830000D01*
%TO.N,VREF*%
X105240000Y-144950000D02*
X104220000Y-144950000D01*
X103515000Y-144026701D02*
X103515000Y-142465000D01*
X104220000Y-144950000D02*
X103510000Y-144240000D01*
X103510000Y-144031701D02*
X103515000Y-144026701D01*
X98610000Y-141880000D02*
X97760000Y-142730000D01*
X103510000Y-144240000D02*
X103510000Y-144031701D01*
X98360000Y-145120000D02*
X98902000Y-145120000D01*
X97760000Y-144520000D02*
X98360000Y-145120000D01*
X102930000Y-141880000D02*
X98610000Y-141880000D01*
X99560000Y-145778000D02*
X99560000Y-147750000D01*
X103515000Y-142465000D02*
X102930000Y-141880000D01*
X97760000Y-142730000D02*
X97760000Y-144520000D01*
X99560000Y-147750000D02*
X98740000Y-148570000D01*
X95010000Y-148570000D02*
X98740000Y-148570000D01*
X98902000Y-145120000D02*
X99560000Y-145778000D01*
X57718000Y-148570000D02*
X55706000Y-146558000D01*
X110120000Y-141720000D02*
X106690000Y-141720000D01*
X109808000Y-146558000D02*
X111200000Y-145166000D01*
X111200000Y-145166000D02*
X111200000Y-142800000D01*
X111200000Y-142800000D02*
X110120000Y-141720000D01*
X106690000Y-141720000D02*
X106160000Y-142250000D01*
X95010000Y-148570000D02*
X92998000Y-146558000D01*
X92998000Y-146558000D02*
X92790000Y-146558000D01*
X106160000Y-142250000D02*
X106160000Y-144360000D01*
X106160000Y-144360000D02*
X105570000Y-144950000D01*
X123190000Y-157734000D02*
X105918000Y-157734000D01*
X105918000Y-157734000D02*
X105156000Y-156972000D01*
X105570000Y-144950000D02*
X105240000Y-144950000D01*
X105156000Y-145034000D02*
X105240000Y-144950000D01*
X105156000Y-156972000D02*
X105156000Y-145034000D01*
%TO.N,Net-(U6-Pad13)*%
X96240000Y-142140000D02*
X96240000Y-142680000D01*
X98610000Y-139770000D02*
X96240000Y-142140000D01*
X104210000Y-139770000D02*
X98610000Y-139770000D01*
X95290000Y-143630000D02*
X96240000Y-142680000D01*
X105550000Y-138320000D02*
X105550000Y-138430000D01*
X95290000Y-146558000D02*
X95290000Y-143630000D01*
X105550000Y-138430000D02*
X104210000Y-139770000D01*
%TO.N,Net-(U6-Pad15)*%
X50325000Y-148675000D02*
X50325000Y-147175000D01*
%TO.N,Net-(J6-PadT1)*%
X109982000Y-149352000D02*
X107696000Y-147066000D01*
X122682000Y-149352000D02*
X109982000Y-149352000D01*
X107696000Y-145804000D02*
X109960000Y-143540000D01*
X124460000Y-147574000D02*
X122682000Y-149352000D01*
X107696000Y-147066000D02*
X107696000Y-145804000D01*
X124460000Y-144526000D02*
X124460000Y-147574000D01*
%TO.N,Net-(J7-PadT1)*%
X106710000Y-144250000D02*
X107420000Y-143540000D01*
X106680000Y-147574000D02*
X106680000Y-144617818D01*
X109474000Y-150368000D02*
X106680000Y-147574000D01*
X123444000Y-150368000D02*
X109474000Y-150368000D01*
X127762000Y-146050000D02*
X123444000Y-150368000D01*
X106710000Y-144587818D02*
X106710000Y-144250000D01*
X127762000Y-144526000D02*
X127762000Y-146050000D01*
X106680000Y-144617818D02*
X106710000Y-144587818D01*
%TO.N,VREF*%
X121756000Y-148500000D02*
X122682000Y-147574000D01*
X127508000Y-157734000D02*
X123190000Y-157734000D01*
%TO.N,Net-(JP3-Pad1)*%
X123190000Y-153416000D02*
X124460000Y-152146000D01*
X123190000Y-155194000D02*
X123190000Y-153416000D01*
%TO.N,Net-(JP4-Pad1)*%
X127762000Y-154940000D02*
X127508000Y-155194000D01*
X127762000Y-152146000D02*
X127762000Y-154940000D01*
%TO.N,VREF*%
X125922000Y-128920000D02*
X127588000Y-127254000D01*
X124064000Y-128920000D02*
X125922000Y-128920000D01*
X123444000Y-129540000D02*
X124064000Y-128920000D01*
X126746000Y-135382000D02*
X123444000Y-132080000D01*
X129062000Y-135382000D02*
X126746000Y-135382000D01*
X130048000Y-136368000D02*
X129062000Y-135382000D01*
X123571000Y-141732000D02*
X127762000Y-141732000D01*
X127762000Y-141732000D02*
X130048000Y-139446000D01*
X122682000Y-147574000D02*
X122682000Y-142621000D01*
X123444000Y-132080000D02*
X123444000Y-129540000D01*
X122682000Y-142621000D02*
X123571000Y-141732000D01*
X130048000Y-139446000D02*
X130048000Y-136368000D01*
X111750000Y-148500000D02*
X121756000Y-148500000D01*
X109808000Y-146558000D02*
X111750000Y-148500000D01*
%TO.N,CTRLIN*%
X120060000Y-124900000D02*
X120060000Y-122390000D01*
X121920000Y-126760000D02*
X120060000Y-124900000D01*
X121920000Y-132160000D02*
X121920000Y-126760000D01*
X125904000Y-136144000D02*
X121920000Y-132160000D01*
X128324000Y-136144000D02*
X125904000Y-136144000D01*
X129286000Y-137106000D02*
X128324000Y-136144000D01*
X129286000Y-138938000D02*
X129286000Y-137106000D01*
X127404000Y-140820000D02*
X129286000Y-138938000D01*
X105085000Y-141065000D02*
X107810000Y-138340000D01*
X111590000Y-138340000D02*
X114070000Y-140820000D01*
X105085000Y-142715000D02*
X105085000Y-141065000D01*
X114070000Y-140820000D02*
X127404000Y-140820000D01*
X104880000Y-142920000D02*
X105085000Y-142715000D01*
X104880000Y-143540000D02*
X104880000Y-142920000D01*
X107810000Y-138340000D02*
X111590000Y-138340000D01*
%TO.N,Net-(R23-Pad1)*%
X132760000Y-125140000D02*
X134874000Y-127254000D01*
X132760000Y-122390000D02*
X132760000Y-125140000D01*
%TO.N,+5V*%
X140380000Y-125558000D02*
X137160000Y-128778000D01*
X140380000Y-122390000D02*
X140380000Y-125558000D01*
X137160000Y-128778000D02*
X129222000Y-128778000D01*
%TO.N,+3V3*%
X126238000Y-123952000D02*
X128658000Y-123952000D01*
X125222000Y-127254000D02*
X125222000Y-124968000D01*
X125222000Y-124968000D02*
X126238000Y-123952000D01*
X128658000Y-123952000D02*
X130220000Y-122390000D01*
%TO.N,+5V*%
X129222000Y-128778000D02*
X127500000Y-130500000D01*
X127500000Y-130500000D02*
X125222000Y-130500000D01*
X125222000Y-130810000D02*
X125222000Y-130500000D01*
X128016000Y-133604000D02*
X125222000Y-130810000D01*
X128016000Y-133858000D02*
X128016000Y-133604000D01*
%TO.N,Net-(Q2-Pad3)*%
X118250000Y-137750000D02*
X119126000Y-136874000D01*
X116870000Y-137750000D02*
X118250000Y-137750000D01*
X119126000Y-135128000D02*
X120396000Y-133858000D01*
X115040000Y-135920000D02*
X116870000Y-137750000D01*
X119126000Y-136874000D02*
X119126000Y-135128000D01*
%TO.N,Net-(Q1-Pad3)*%
X119582000Y-137668000D02*
X120396000Y-137668000D01*
X118790000Y-138460000D02*
X119582000Y-137668000D01*
X114830000Y-138460000D02*
X118790000Y-138460000D01*
X112500000Y-136130000D02*
X114830000Y-138460000D01*
X112500000Y-135920000D02*
X112500000Y-136130000D01*
%TO.N,+5V*%
X100855000Y-137385000D02*
X99800000Y-136330000D01*
X114550000Y-139780000D02*
X112155000Y-137385000D01*
X128016000Y-137668000D02*
X128016000Y-138904000D01*
X128016000Y-138904000D02*
X127140000Y-139780000D01*
X112155000Y-137385000D02*
X100855000Y-137385000D01*
X99800000Y-136330000D02*
X99800000Y-135920000D01*
X127140000Y-139780000D02*
X114550000Y-139780000D01*
%TO.N,Net-(Q3-Pad3)*%
X117630000Y-135870000D02*
X117630000Y-130528000D01*
X117580000Y-135920000D02*
X117630000Y-135870000D01*
X117630000Y-130528000D02*
X117602000Y-130500000D01*
%TO.N,Net-(U3-Pad30)*%
X116106000Y-128750000D02*
X117602000Y-127254000D01*
X114250000Y-128750000D02*
X116106000Y-128750000D01*
X113030000Y-127530000D02*
X114250000Y-128750000D01*
X114980000Y-122510000D02*
X113030000Y-124460000D01*
X114980000Y-122390000D02*
X114980000Y-122510000D01*
X113030000Y-124460000D02*
X113030000Y-127530000D01*
%TO.N,TOADC*%
X115062000Y-127000000D02*
X114808000Y-127000000D01*
X117520000Y-124542000D02*
X115062000Y-127000000D01*
X117520000Y-122390000D02*
X117520000Y-124542000D01*
%TO.N,Net-(Q3-Pad3)*%
X112137000Y-132080000D02*
X110140000Y-132080000D01*
X113915000Y-133858000D02*
X112137000Y-132080000D01*
X115518000Y-133858000D02*
X113915000Y-133858000D01*
X117580000Y-135920000D02*
X115518000Y-133858000D01*
%TO.N,+5V*%
X99800000Y-135920000D02*
X99540000Y-136180000D01*
X99540000Y-136180000D02*
X96820000Y-136180000D01*
X96820000Y-136180000D02*
X95750000Y-137250000D01*
%TO.N,Net-(U6-Pad12)*%
X118964000Y-145086000D02*
X120904000Y-147026000D01*
X113780000Y-145086000D02*
X118964000Y-145086000D01*
X113780000Y-145086000D02*
X113780000Y-145022000D01*
X112308000Y-146558000D02*
X113780000Y-145086000D01*
X113780000Y-145022000D02*
X113792000Y-145034000D01*
X113780000Y-145022000D02*
X113780000Y-142594500D01*
X113780000Y-142594500D02*
X110300000Y-139114500D01*
%TO.N,Net-(Q2-Pad3)*%
X106910000Y-133740000D02*
X105250000Y-132080000D01*
X112650000Y-133740000D02*
X106910000Y-133740000D01*
X115040000Y-135920000D02*
X114830000Y-135920000D01*
X114830000Y-135920000D02*
X112650000Y-133740000D01*
%TO.N,Net-(Q1-Pad3)*%
X102610000Y-134410000D02*
X100280000Y-132080000D01*
X112500000Y-135420000D02*
X111490000Y-134410000D01*
X112500000Y-135920000D02*
X112500000Y-135420000D01*
X111490000Y-134410000D02*
X102610000Y-134410000D01*
%TO.N,Net-(C17-Pad1)*%
X115790000Y-71580000D02*
X115790000Y-71130000D01*
X116770000Y-72560000D02*
X115790000Y-71580000D01*
X119080000Y-72560000D02*
X116770000Y-72560000D01*
X119610000Y-70060000D02*
X119610000Y-72030000D01*
X120070000Y-69600000D02*
X119610000Y-70060000D01*
X121910000Y-69600000D02*
X120070000Y-69600000D01*
X119610000Y-72030000D02*
X119080000Y-72560000D01*
X122820000Y-70510000D02*
X121910000Y-69600000D01*
X122820000Y-72200000D02*
X122820000Y-70510000D01*
X125000000Y-74380000D02*
X122820000Y-72200000D01*
X125000000Y-79310000D02*
X125000000Y-74380000D01*
%TO.N,Net-(R17-Pad1)*%
X125000000Y-70990000D02*
X125000000Y-71690000D01*
X122840000Y-68830000D02*
X125000000Y-70990000D01*
X119440000Y-68830000D02*
X122840000Y-68830000D01*
X118330000Y-69940000D02*
X119440000Y-68830000D01*
X118330000Y-71130000D02*
X118330000Y-69940000D01*
%TO.N,Net-(C17-Pad1)*%
X125000000Y-68820000D02*
X125000000Y-69000000D01*
X124340000Y-68160000D02*
X125000000Y-68820000D01*
X115790000Y-70130000D02*
X117760000Y-68160000D01*
X115790000Y-71130000D02*
X115790000Y-70130000D01*
X117760000Y-68160000D02*
X124340000Y-68160000D01*
%TO.N,Net-(C13-Pad1)*%
X103750000Y-76500000D02*
X99540000Y-76500000D01*
X99540000Y-76500000D02*
X99170000Y-76870000D01*
%TO.N,Net-(C12-Pad2)*%
X109370000Y-88870000D02*
X109370000Y-87000000D01*
X111150000Y-90650000D02*
X109370000Y-88870000D01*
X117850000Y-90650000D02*
X111150000Y-90650000D01*
X119500000Y-89000000D02*
X117850000Y-90650000D01*
%TO.N,Net-(Q2-Pad2)*%
X88320000Y-132430000D02*
X88320000Y-135190000D01*
X91690000Y-135930000D02*
X93250000Y-134370000D01*
X92500000Y-128250000D02*
X88320000Y-132430000D01*
X88320000Y-135190000D02*
X89060000Y-135930000D01*
X103960000Y-128250000D02*
X92500000Y-128250000D01*
X105250000Y-129540000D02*
X103960000Y-128250000D01*
X89060000Y-135930000D02*
X91690000Y-135930000D01*
%TO.N,SDA*%
X86870000Y-121880000D02*
X81980000Y-121880000D01*
X89610000Y-119140000D02*
X86870000Y-121880000D01*
X133000000Y-116250000D02*
X119250000Y-116250000D01*
X134500000Y-114750000D02*
X133000000Y-116250000D01*
X134500000Y-110750000D02*
X134500000Y-114750000D01*
X140380000Y-104610000D02*
X140380000Y-104870000D01*
X84200000Y-114200000D02*
X86620000Y-114200000D01*
%TO.N,SCL*%
X76500000Y-116250000D02*
X74990000Y-117760000D01*
X76500000Y-116250000D02*
X79350000Y-116250000D01*
%TO.N,SDA*%
X81980000Y-121880000D02*
X78640000Y-118540000D01*
%TO.N,+3V3*%
X72450000Y-119330000D02*
X72450000Y-118540000D01*
X75950000Y-122830000D02*
X72450000Y-119330000D01*
%TO.N,SDA*%
X119250000Y-116250000D02*
X116360000Y-119140000D01*
%TO.N,+3V3*%
X87870000Y-122830000D02*
X75950000Y-122830000D01*
%TO.N,SDA*%
X116360000Y-119140000D02*
X89610000Y-119140000D01*
%TO.N,+3V3*%
X90650000Y-120050000D02*
X87870000Y-122830000D01*
X117200000Y-120050000D02*
X90650000Y-120050000D01*
%TO.N,SDA*%
X77530000Y-118540000D02*
X79860000Y-118540000D01*
%TO.N,+3V3*%
X118250000Y-119000000D02*
X117200000Y-120050000D01*
X118750000Y-119000000D02*
X118250000Y-119000000D01*
%TO.N,SCL*%
X74990000Y-117760000D02*
X74990000Y-118540000D01*
%TO.N,SDA*%
X79860000Y-118540000D02*
X84200000Y-114200000D01*
X140380000Y-104870000D02*
X134500000Y-110750000D01*
X78640000Y-118540000D02*
X77530000Y-118540000D01*
%TO.N,VREF*%
X89770000Y-109870000D02*
X86800000Y-106900000D01*
X86800000Y-106900000D02*
X83300000Y-106900000D01*
X90980000Y-117660000D02*
X89770000Y-116450000D01*
X93850000Y-117660000D02*
X90980000Y-117660000D01*
X94400000Y-117110000D02*
X93850000Y-117660000D01*
X113850000Y-117110000D02*
X94400000Y-117110000D01*
X113900000Y-117060000D02*
X113850000Y-117110000D01*
X89770000Y-116450000D02*
X89770000Y-109870000D01*
%TO.N,SCL*%
X137840000Y-105360000D02*
X137840000Y-104610000D01*
X135165000Y-108035000D02*
X137840000Y-105360000D01*
X115630000Y-118370000D02*
X125965000Y-108035000D01*
X90400000Y-118370000D02*
X115630000Y-118370000D01*
X88480000Y-116450000D02*
X90400000Y-118370000D01*
X88480000Y-112960000D02*
X88480000Y-116450000D01*
X86620000Y-111100000D02*
X88480000Y-112960000D01*
X125965000Y-108035000D02*
X135165000Y-108035000D01*
%TO.N,Net-(Q3-Pad2)*%
X98988630Y-130750000D02*
X108930000Y-130750000D01*
X96500000Y-133238630D02*
X98988630Y-130750000D01*
X108930000Y-130750000D02*
X110140000Y-129540000D01*
X96500000Y-134370000D02*
X96500000Y-133238630D01*
%TO.N,Net-(Q1-Pad2)*%
X94830000Y-129540000D02*
X100280000Y-129540000D01*
X90000000Y-134370000D02*
X94830000Y-129540000D01*
%TO.N,SEL2*%
X98500000Y-126750000D02*
X96500000Y-126750000D01*
X99740000Y-125510000D02*
X98500000Y-126750000D01*
X99740000Y-122390000D02*
X99740000Y-125510000D01*
%TO.N,SEL1*%
X93250000Y-123800000D02*
X93250000Y-126750000D01*
X94660000Y-122390000D02*
X93250000Y-123800000D01*
%TO.N,SEL0*%
X90000000Y-124510000D02*
X90000000Y-126750000D01*
X92120000Y-122390000D02*
X90000000Y-124510000D01*
%TO.N,Net-(U3-Pad11)*%
X114980000Y-101980000D02*
X114980000Y-104610000D01*
%TO.N,Net-(U3-Pad12)*%
X112440000Y-102440000D02*
X112440000Y-104610000D01*
X109810000Y-99810000D02*
X112440000Y-102440000D01*
X109000000Y-99810000D02*
X109810000Y-99810000D01*
%TO.N,Net-(U3-Pad14)*%
X107500000Y-101560000D02*
X107500000Y-104470000D01*
X105750000Y-99810000D02*
X107500000Y-101560000D01*
%TO.N,Net-(U3-Pad15)*%
X104820000Y-102130000D02*
X104820000Y-104610000D01*
X102500000Y-99810000D02*
X104820000Y-102130000D01*
%TO.N,Net-(U3-Pad16)*%
X99810000Y-99810000D02*
X99250000Y-99810000D01*
X102280000Y-102280000D02*
X99810000Y-99810000D01*
X102280000Y-104610000D02*
X102280000Y-102280000D01*
%TO.N,Net-(U3-Pad17)*%
X99740000Y-102865000D02*
X96745000Y-99870000D01*
%TO.N,Net-(U3-Pad19)*%
X94660000Y-101780000D02*
X92750000Y-99870000D01*
X94660000Y-104610000D02*
X94660000Y-101780000D01*
%TO.N,Net-(U3-Pad20)*%
X92000000Y-104490000D02*
X92120000Y-104610000D01*
X92000000Y-102370000D02*
X92000000Y-104490000D01*
X89500000Y-99870000D02*
X92000000Y-102370000D01*
%TO.N,TOADC*%
X119700000Y-119800000D02*
X117520000Y-121980000D01*
X140748835Y-119800000D02*
X119700000Y-119800000D01*
X142500000Y-118048835D02*
X140748835Y-119800000D01*
%TO.N,Net-(U3-Pad11)*%
X112750000Y-99750000D02*
X114980000Y-101980000D01*
%TO.N,TOADC*%
X114500000Y-98500000D02*
X141250000Y-98500000D01*
X114000000Y-98000000D02*
X114500000Y-98500000D01*
X88250000Y-98000000D02*
X114000000Y-98000000D01*
X86250000Y-100000000D02*
X88250000Y-98000000D01*
%TO.N,Net-(U3-Pad11)*%
X112250000Y-99750000D02*
X112750000Y-99750000D01*
%TO.N,Net-(U3-Pad17)*%
X96745000Y-99870000D02*
X96000000Y-99870000D01*
%TO.N,TOADC*%
X142500000Y-99750000D02*
X142500000Y-118048835D01*
X117520000Y-121980000D02*
X117520000Y-122390000D01*
%TO.N,Net-(U3-Pad14)*%
X107500000Y-104470000D02*
X107360000Y-104610000D01*
%TO.N,TOADC*%
X141250000Y-98500000D02*
X142500000Y-99750000D01*
%TO.N,Net-(U3-Pad17)*%
X99740000Y-104610000D02*
X99740000Y-102865000D01*
%TO.N,SCL*%
X83600000Y-111100000D02*
X86620000Y-111100000D01*
X81600000Y-113100000D02*
X83600000Y-111100000D01*
X81600000Y-113950000D02*
X81600000Y-113100000D01*
X79350000Y-116200000D02*
X81600000Y-113950000D01*
X79350000Y-116250000D02*
X79350000Y-116200000D01*
%TO.N,+3V3*%
X79000000Y-111100000D02*
X79000000Y-114200000D01*
%TO.N,TOADC*%
X84020000Y-100000000D02*
X86250000Y-100000000D01*
X83300000Y-99280000D02*
X84020000Y-100000000D01*
%TO.N,BIAS*%
X85300000Y-94000000D02*
X117250000Y-94000000D01*
X70750000Y-96500000D02*
X82800000Y-96500000D01*
X118950000Y-95700000D02*
X120200000Y-95700000D01*
X66500000Y-92250000D02*
X70750000Y-96500000D01*
X117250000Y-94000000D02*
X118950000Y-95700000D01*
X66000000Y-92250000D02*
X66500000Y-92250000D01*
X82800000Y-96500000D02*
X85300000Y-94000000D01*
%TO.N,Net-(C17-Pad2)*%
X126805113Y-97000000D02*
X123605113Y-93800000D01*
X131310000Y-97000000D02*
X126805113Y-97000000D01*
X132750000Y-95560000D02*
X131310000Y-97000000D01*
%TO.N,Net-(C17-Pad1)*%
X126510000Y-79310000D02*
X125000000Y-79310000D01*
X128000000Y-80800000D02*
X126510000Y-79310000D01*
X127100000Y-84400000D02*
X128000000Y-83500000D01*
X128000000Y-83500000D02*
X128000000Y-80800000D01*
X127100000Y-88100000D02*
X127100000Y-84400000D01*
X128000000Y-92200000D02*
X128000000Y-89000000D01*
X126105113Y-93800000D02*
X126400000Y-93800000D01*
X126400000Y-93800000D02*
X128000000Y-92200000D01*
X128000000Y-89000000D02*
X127100000Y-88100000D01*
%TO.N,Net-(R12-Pad2)*%
X71500000Y-95250000D02*
X68870000Y-92620000D01*
X68870000Y-92620000D02*
X68870000Y-88500000D01*
X81250000Y-95250000D02*
X71500000Y-95250000D01*
X84120000Y-92380000D02*
X81250000Y-95250000D01*
X86250000Y-92380000D02*
X84120000Y-92380000D01*
%TO.N,FROMDAC*%
X92750000Y-92250000D02*
X89500000Y-92250000D01*
X96000000Y-92250000D02*
X92750000Y-92250000D01*
X96060000Y-92190000D02*
X96000000Y-92250000D01*
X99250000Y-92190000D02*
X96060000Y-92190000D01*
X102500000Y-92190000D02*
X99250000Y-92190000D01*
X105750000Y-92190000D02*
X102500000Y-92190000D01*
X109000000Y-92190000D02*
X105750000Y-92190000D01*
X109060000Y-92130000D02*
X109000000Y-92190000D01*
X112250000Y-92130000D02*
X109060000Y-92130000D01*
%TO.N,Net-(C11-Pad1)*%
X97000000Y-88000000D02*
X100750000Y-88000000D01*
X100750000Y-88000000D02*
X101750000Y-87000000D01*
%TO.N,Net-(C10-Pad2)*%
X91250000Y-85500000D02*
X97000000Y-85500000D01*
%TO.N,FROMDAC*%
X92750000Y-89500000D02*
X91250000Y-88000000D01*
X92750000Y-92250000D02*
X92750000Y-89500000D01*
%TO.N,Net-(C7-Pad2)*%
X87000000Y-76500000D02*
X87000000Y-75455113D01*
X87000000Y-75455113D02*
X85250000Y-73705113D01*
X92750000Y-78500000D02*
X89000000Y-78500000D01*
X94440000Y-76810000D02*
X92750000Y-78500000D01*
X95750000Y-76810000D02*
X94440000Y-76810000D01*
X89000000Y-78500000D02*
X87000000Y-76500000D01*
%TO.N,Net-(C13-Pad2)*%
X112130000Y-89000000D02*
X111880000Y-89000000D01*
X117000000Y-82500000D02*
X117000000Y-84130000D01*
%TO.N,Net-(C12-Pad2)*%
X122500000Y-89250000D02*
X119750000Y-89250000D01*
%TO.N,Net-(C13-Pad2)*%
X117000000Y-84130000D02*
X112130000Y-89000000D01*
%TO.N,Net-(C12-Pad2)*%
X119750000Y-89250000D02*
X119500000Y-89000000D01*
X119560000Y-88940000D02*
X119500000Y-89000000D01*
X119560000Y-85750000D02*
X119560000Y-88940000D01*
%TO.N,Net-(C13-Pad1)*%
X112000000Y-82500000D02*
X112000000Y-85690000D01*
X112000000Y-85690000D02*
X111940000Y-85750000D01*
X103750000Y-77250000D02*
X103750000Y-76500000D01*
X107500000Y-81000000D02*
X103750000Y-77250000D01*
X110500000Y-81000000D02*
X107500000Y-81000000D01*
X112000000Y-82500000D02*
X110500000Y-81000000D01*
%TO.N,Net-(C7-Pad1)*%
X81500000Y-83500000D02*
X80250000Y-84750000D01*
X84250000Y-83500000D02*
X81500000Y-83500000D01*
X85250000Y-82500000D02*
X84250000Y-83500000D01*
X85250000Y-76205113D02*
X85250000Y-82500000D01*
X80250000Y-84750000D02*
X80250000Y-86250000D01*
%TO.N,Net-(C5-Pad1)*%
X90880000Y-73750000D02*
X91000000Y-73750000D01*
X87500000Y-70370000D02*
X90880000Y-73750000D01*
%TO.N,Net-(C7-Pad2)*%
X84250000Y-72705113D02*
X85250000Y-73705113D01*
X84250000Y-70500000D02*
X84250000Y-72705113D01*
%TO.N,Net-(R5-Pad1)*%
X84380000Y-62750000D02*
X84250000Y-62880000D01*
X87500000Y-62750000D02*
X84380000Y-62750000D01*
X81740000Y-68370000D02*
X84250000Y-65860000D01*
X77620000Y-68370000D02*
X81740000Y-68370000D01*
X84250000Y-65860000D02*
X84250000Y-62880000D01*
%TO.N,Net-(C7-Pad2)*%
X82750000Y-70250000D02*
X84000000Y-70250000D01*
X82000000Y-69500000D02*
X82750000Y-70250000D01*
X79390000Y-72110000D02*
X79390000Y-70360000D01*
X80250000Y-69500000D02*
X82000000Y-69500000D01*
X78750000Y-72750000D02*
X79390000Y-72110000D01*
X77110000Y-72750000D02*
X78750000Y-72750000D01*
X75540000Y-71180000D02*
X77110000Y-72750000D01*
X79390000Y-70360000D02*
X80250000Y-69500000D01*
X84000000Y-70250000D02*
X84250000Y-70500000D01*
%TO.N,Net-(C8-Pad2)*%
X82500000Y-86750000D02*
X83250000Y-86750000D01*
X81250000Y-88000000D02*
X82500000Y-86750000D01*
X81250000Y-92120000D02*
X81250000Y-88000000D01*
X79870000Y-93500000D02*
X81250000Y-92120000D01*
%TO.N,Net-(C15-Pad2)*%
X106500000Y-78500000D02*
X108250000Y-80250000D01*
X106500000Y-74750000D02*
X106500000Y-78500000D01*
X105750000Y-74000000D02*
X106500000Y-74750000D01*
X103750000Y-74000000D02*
X105750000Y-74000000D01*
%TO.N,+5V*%
X105500000Y-66000000D02*
X105500000Y-67750000D01*
X100500000Y-61000000D02*
X105500000Y-66000000D01*
%TO.N,Net-(C16-Pad1)*%
X107250000Y-72750000D02*
X100750000Y-66250000D01*
X107250000Y-75750000D02*
X107250000Y-72750000D01*
X108750000Y-77250000D02*
X107250000Y-75750000D01*
X108750000Y-78120000D02*
X108750000Y-77250000D01*
%TO.N,+5V*%
X112380000Y-72000000D02*
X113250000Y-71130000D01*
X107750000Y-72000000D02*
X112380000Y-72000000D01*
X105500000Y-69750000D02*
X107750000Y-72000000D01*
X105500000Y-67750000D02*
X105500000Y-69750000D01*
%TO.N,Net-(R17-Pad1)*%
X113250000Y-61000000D02*
X114500000Y-62250000D01*
X107500000Y-68250000D02*
X107500000Y-63000000D01*
X109500000Y-61000000D02*
X113250000Y-61000000D01*
X108750000Y-69500000D02*
X107500000Y-68250000D01*
X108750000Y-70500000D02*
X108750000Y-69500000D01*
X107500000Y-63000000D02*
X109500000Y-61000000D01*
X114500000Y-62250000D02*
X114500000Y-63000000D01*
%TO.N,Net-(C9-Pad1)*%
X71000000Y-92250000D02*
X72250000Y-93500000D01*
X71000000Y-84000000D02*
X71000000Y-92250000D01*
%TO.N,BIAS*%
X121500000Y-92700000D02*
X121500000Y-94400000D01*
X124830000Y-89370000D02*
X121500000Y-92700000D01*
X121500000Y-94400000D02*
X120200000Y-95700000D01*
X126000000Y-89370000D02*
X124830000Y-89370000D01*
%TO.N,Net-(C15-Pad2)*%
X123250000Y-74500000D02*
X120870000Y-72120000D01*
X124750000Y-81750000D02*
X123250000Y-80250000D01*
X126000000Y-81750000D02*
X124750000Y-81750000D01*
X120870000Y-72380000D02*
X120870000Y-72120000D01*
X120870000Y-72120000D02*
X120870000Y-71130000D01*
X123250000Y-80250000D02*
X123250000Y-74500000D01*
%TO.N,BIAS*%
X122500000Y-85870000D02*
X126000000Y-89370000D01*
X122500000Y-84250000D02*
X122500000Y-85870000D01*
X122500000Y-84000000D02*
X118330000Y-79830000D01*
X122500000Y-84250000D02*
X122500000Y-84000000D01*
X118330000Y-79830000D02*
X118330000Y-78750000D01*
%TO.N,Net-(C15-Pad2)*%
X118750000Y-74500000D02*
X120870000Y-72380000D01*
X112750000Y-74500000D02*
X118750000Y-74500000D01*
X111250000Y-79250000D02*
X111250000Y-76000000D01*
X111250000Y-76000000D02*
X112750000Y-74500000D01*
X110250000Y-80250000D02*
X111250000Y-79250000D01*
X108250000Y-80250000D02*
X110250000Y-80250000D01*
%TO.N,Net-(J3-PadS1)*%
X133400000Y-87290000D02*
X132750000Y-87940000D01*
X133400000Y-85200000D02*
X133400000Y-87290000D01*
%TO.N,Net-(C13-Pad2)*%
X115790000Y-81290000D02*
X117000000Y-82500000D01*
X115790000Y-78750000D02*
X115790000Y-81290000D01*
%TO.N,Net-(C13-Pad1)*%
X113250000Y-78750000D02*
X113250000Y-81250000D01*
X113250000Y-81250000D02*
X112000000Y-82500000D01*
%TO.N,Net-(C9-Pad2)*%
X77750000Y-82500000D02*
X78750000Y-82500000D01*
X75540000Y-80290000D02*
X77750000Y-82500000D01*
X75540000Y-78800000D02*
X75540000Y-80290000D01*
%TO.N,+5V*%
X69750000Y-61000000D02*
X100500000Y-61000000D01*
X67250000Y-67500000D02*
X67250000Y-63500000D01*
X69500000Y-69750000D02*
X67250000Y-67500000D01*
X67250000Y-63500000D02*
X69750000Y-61000000D01*
%TO.N,Net-(C17-Pad1)*%
X109920000Y-66000000D02*
X109500000Y-66000000D01*
X115050000Y-71130000D02*
X109920000Y-66000000D01*
X115790000Y-71130000D02*
X115050000Y-71130000D01*
%TO.N,Net-(R17-Pad1)*%
X126500000Y-70190000D02*
X125000000Y-71690000D01*
X126500000Y-68000000D02*
X126500000Y-70190000D01*
X124500000Y-66000000D02*
X126500000Y-68000000D01*
X119500000Y-66000000D02*
X124500000Y-66000000D01*
%TO.N,Net-(C17-Pad1)*%
X112000000Y-63000000D02*
X109500000Y-65500000D01*
X109500000Y-65500000D02*
X109500000Y-66000000D01*
%TO.N,Net-(R17-Pad1)*%
X119500000Y-66000000D02*
X114500000Y-66000000D01*
X117000000Y-63000000D02*
X114500000Y-63000000D01*
X114500000Y-63000000D02*
X114500000Y-66000000D01*
%TO.N,+5V*%
X65250000Y-73000000D02*
X68500000Y-69750000D01*
X65250000Y-74880000D02*
X65250000Y-73000000D01*
X68500000Y-69750000D02*
X69500000Y-69750000D01*
X70930000Y-71180000D02*
X69500000Y-69750000D01*
X73000000Y-71180000D02*
X70930000Y-71180000D01*
%TO.N,Net-(C17-Pad2)*%
X132750000Y-91440000D02*
X129250000Y-87940000D01*
X132750000Y-95560000D02*
X132750000Y-91440000D01*
%TO.N,Net-(J3-PadS1)*%
X134740000Y-85200000D02*
X139000000Y-89460000D01*
X133400000Y-85200000D02*
X134740000Y-85200000D01*
X137000000Y-75300000D02*
X136900000Y-75200000D01*
X137000000Y-84000000D02*
X137000000Y-75300000D01*
X133400000Y-85200000D02*
X135800000Y-85200000D01*
X135800000Y-85200000D02*
X137000000Y-84000000D01*
%TO.N,Net-(J1-Pad2)*%
X51100000Y-88360000D02*
X49000000Y-90460000D01*
X51100000Y-85800000D02*
X51100000Y-88360000D01*
X53670000Y-90460000D02*
X54750000Y-89380000D01*
X49000000Y-90460000D02*
X53670000Y-90460000D01*
%TO.N,Net-(C3-Pad1)*%
X58000000Y-93750000D02*
X54750000Y-97000000D01*
X58000000Y-89380000D02*
X58000000Y-93750000D01*
X61750000Y-74250000D02*
X64000000Y-74250000D01*
X60000000Y-76000000D02*
X61750000Y-74250000D01*
X60000000Y-86000000D02*
X60000000Y-76000000D01*
X58000000Y-88000000D02*
X60000000Y-86000000D01*
X58000000Y-89380000D02*
X58000000Y-88000000D01*
%TO.N,BIAS*%
X62250000Y-91500000D02*
X61250000Y-91500000D01*
X65750000Y-88000000D02*
X62250000Y-91500000D01*
X65750000Y-85870000D02*
X65750000Y-88000000D01*
X65750000Y-92000000D02*
X66000000Y-92250000D01*
X65750000Y-85870000D02*
X65750000Y-92000000D01*
%TO.N,Net-(R5-Pad1)*%
X77620000Y-68370000D02*
X75250000Y-66000000D01*
X78080000Y-68830000D02*
X77620000Y-68370000D01*
%TO.N,Net-(C4-Pad1)*%
X66750000Y-74000000D02*
X66500000Y-74250000D01*
X78750000Y-74000000D02*
X66750000Y-74000000D01*
X80620000Y-72130000D02*
X78750000Y-74000000D01*
X80620000Y-71180000D02*
X80620000Y-72130000D01*
%TO.N,BIAS*%
X81030000Y-81750000D02*
X78080000Y-78800000D01*
X83250000Y-81750000D02*
X81030000Y-81750000D01*
%TO.N,Net-(C8-Pad2)*%
X72630000Y-86250000D02*
X72630000Y-89620000D01*
X72630000Y-89620000D02*
X72250000Y-90000000D01*
%TO.N,Net-(C9-Pad1)*%
X72500000Y-82500000D02*
X73750000Y-82500000D01*
X71000000Y-84000000D02*
X72500000Y-82500000D01*
%TO.N,Net-(C9-Pad2)*%
X78750000Y-88880000D02*
X79870000Y-90000000D01*
X78750000Y-82500000D02*
X78750000Y-88880000D01*
%TO.N,Net-(C8-Pad2)*%
X76370000Y-90000000D02*
X72250000Y-90000000D01*
X79870000Y-93500000D02*
X76370000Y-90000000D01*
%TO.N,Net-(C9-Pad1)*%
X73000000Y-81750000D02*
X73750000Y-82500000D01*
X73000000Y-78800000D02*
X73000000Y-81750000D01*
%TO.N,Net-(R5-Pad1)*%
X78080000Y-71180000D02*
X78080000Y-68830000D01*
%TO.N,Net-(C7-Pad2)*%
X75540000Y-71180000D02*
X75430000Y-71180000D01*
%TO.N,Net-(R5-Pad1)*%
X80250000Y-66000000D02*
X75250000Y-66000000D01*
X75250000Y-66000000D02*
X75250000Y-63000000D01*
%TO.N,Net-(C7-Pad2)*%
X70250000Y-65500000D02*
X70250000Y-66000000D01*
%TO.N,Net-(R5-Pad1)*%
X77750000Y-63000000D02*
X75250000Y-63000000D01*
%TO.N,Net-(C7-Pad2)*%
X72750000Y-63000000D02*
X70250000Y-65500000D01*
X75430000Y-71180000D02*
X70250000Y-66000000D01*
%TO.N,BIAS*%
X76280000Y-77000000D02*
X78080000Y-78800000D01*
X70380000Y-77000000D02*
X76280000Y-77000000D01*
X69250000Y-78130000D02*
X70380000Y-77000000D01*
X67750000Y-85500000D02*
X67380000Y-85870000D01*
X67380000Y-85870000D02*
X65750000Y-85870000D01*
X67750000Y-79630000D02*
X67750000Y-85500000D01*
X69250000Y-78130000D02*
X67750000Y-79630000D01*
%TO.N,+5V*%
X62000000Y-78130000D02*
X65250000Y-74880000D01*
%TO.N,BIAS*%
X62060000Y-85810000D02*
X62000000Y-85750000D01*
X65690000Y-85810000D02*
X62060000Y-85810000D01*
X65750000Y-85870000D02*
X65690000Y-85810000D01*
%TO.N,Net-(C4-Pad1)*%
X66250000Y-74500000D02*
X66500000Y-74250000D01*
X66250000Y-77750000D02*
X66250000Y-74500000D01*
X65750000Y-78250000D02*
X66250000Y-77750000D01*
%TO.N,Net-(C3-Pad1)*%
X63250000Y-74250000D02*
X61000000Y-72000000D01*
X64000000Y-74250000D02*
X63250000Y-74250000D01*
%TD*%
M02*
