%TF.GenerationSoftware,KiCad,Pcbnew,(6.0.11)*%
%TF.CreationDate,2024-01-13T13:15:40-06:00*%
%TF.ProjectId,GuitarPico,47756974-6172-4506-9963-6f2e6b696361,rev?*%
%TF.SameCoordinates,Original*%
%TF.FileFunction,Soldermask,Top*%
%TF.FilePolarity,Negative*%
%FSLAX46Y46*%
G04 Gerber Fmt 4.6, Leading zero omitted, Abs format (unit mm)*
G04 Created by KiCad (PCBNEW (6.0.11)) date 2024-01-13 13:15:40*
%MOMM*%
%LPD*%
G01*
G04 APERTURE LIST*
G04 Aperture macros list*
%AMRoundRect*
0 Rectangle with rounded corners*
0 $1 Rounding radius*
0 $2 $3 $4 $5 $6 $7 $8 $9 X,Y pos of 4 corners*
0 Add a 4 corners polygon primitive as box body*
4,1,4,$2,$3,$4,$5,$6,$7,$8,$9,$2,$3,0*
0 Add four circle primitives for the rounded corners*
1,1,$1+$1,$2,$3*
1,1,$1+$1,$4,$5*
1,1,$1+$1,$6,$7*
1,1,$1+$1,$8,$9*
0 Add four rect primitives between the rounded corners*
20,1,$1+$1,$2,$3,$4,$5,0*
20,1,$1+$1,$4,$5,$6,$7,0*
20,1,$1+$1,$6,$7,$8,$9,0*
20,1,$1+$1,$8,$9,$2,$3,0*%
G04 Aperture macros list end*
%ADD10C,1.600000*%
%ADD11R,1.600000X1.600000*%
%ADD12R,1.500000X1.500000*%
%ADD13C,1.500000*%
%ADD14O,1.500000X2.000000*%
%ADD15O,2.000000X1.500000*%
%ADD16O,1.600000X1.600000*%
%ADD17R,2.200000X2.200000*%
%ADD18O,2.200000X2.200000*%
%ADD19R,1.905000X2.000000*%
%ADD20O,1.905000X2.000000*%
%ADD21R,1.700000X1.700000*%
%ADD22O,1.700000X1.700000*%
%ADD23C,3.200000*%
%ADD24R,3.500000X3.500000*%
%ADD25RoundRect,0.750000X-0.750000X-1.000000X0.750000X-1.000000X0.750000X1.000000X-0.750000X1.000000X0*%
%ADD26RoundRect,0.500000X-1.250000X-0.500000X1.250000X-0.500000X1.250000X0.500000X-1.250000X0.500000X0*%
%ADD27R,1.800000X1.800000*%
%ADD28C,1.800000*%
%ADD29RoundRect,0.750000X-0.750000X1.250000X-0.750000X-1.250000X0.750000X-1.250000X0.750000X1.250000X0*%
%ADD30R,3.000000X3.000000*%
%ADD31C,3.000000*%
%ADD32C,2.500000*%
%ADD33O,1.800000X1.800000*%
%ADD34O,1.500000X1.500000*%
%ADD35R,1.700000X3.500000*%
%ADD36R,3.500000X1.700000*%
%ADD37C,2.000000*%
%ADD38O,5.000000X3.100000*%
%ADD39O,1.600000X2.000000*%
%ADD40C,4.000000*%
G04 APERTURE END LIST*
D10*
%TO.C,C22*%
X132588000Y-127254000D03*
X127588000Y-127254000D03*
%TD*%
D11*
%TO.C,C15*%
X100844000Y-75689113D03*
D10*
X100844000Y-73189113D03*
%TD*%
D12*
%TO.C,Q3*%
X110140000Y-127000000D03*
D13*
X110140000Y-129540000D03*
X110140000Y-132080000D03*
%TD*%
D14*
%TO.C,J8*%
X45720000Y-138590000D03*
D15*
X53620000Y-133390000D03*
X52620000Y-135990000D03*
X50120000Y-143390000D03*
D14*
X57020000Y-142890000D03*
%TD*%
D10*
%TO.C,R46*%
X110070000Y-92020000D03*
D16*
X110070000Y-99640000D03*
%TD*%
D10*
%TO.C,R9*%
X80250000Y-86250000D03*
D16*
X72630000Y-86250000D03*
%TD*%
D17*
%TO.C,D1*%
X78492000Y-102820000D03*
D18*
X70872000Y-102820000D03*
%TD*%
D10*
%TO.C,R56*%
X103720000Y-92030000D03*
D16*
X103720000Y-99650000D03*
%TD*%
D10*
%TO.C,R19*%
X125070000Y-75870000D03*
D16*
X132690000Y-75870000D03*
%TD*%
D19*
%TO.C,U4*%
X73420000Y-99290000D03*
D20*
X75960000Y-99290000D03*
X78500000Y-99290000D03*
%TD*%
D15*
%TO.C,J3*%
X128860000Y-61640000D03*
D14*
X134060000Y-69540000D03*
X131460000Y-68540000D03*
X124060000Y-66040000D03*
D15*
X124560000Y-72940000D03*
%TD*%
D21*
%TO.C,JP2*%
X51822000Y-114110000D03*
D22*
X54362000Y-114110000D03*
%TD*%
D11*
%TO.C,C11*%
X93710000Y-79640000D03*
D10*
X93710000Y-77140000D03*
%TD*%
%TO.C,R21*%
X105760000Y-89090000D03*
D16*
X113380000Y-89090000D03*
%TD*%
D23*
%TO.C,H2*%
X48000000Y-156000000D03*
%TD*%
D11*
%TO.C,C4*%
X67824000Y-74230000D03*
D10*
X65324000Y-74230000D03*
%TD*%
%TO.C,R23*%
X127550000Y-130570000D03*
D16*
X135170000Y-130570000D03*
%TD*%
D14*
%TO.C,J9*%
X45750000Y-125500000D03*
D15*
X53650000Y-120300000D03*
X52650000Y-122900000D03*
X50150000Y-130300000D03*
D14*
X57050000Y-129800000D03*
%TD*%
D10*
%TO.C,R10*%
X72250000Y-90000000D03*
D16*
X79870000Y-90000000D03*
%TD*%
D11*
%TO.C,C10*%
X87540000Y-79690000D03*
D10*
X87540000Y-77190000D03*
%TD*%
D21*
%TO.C,JP1*%
X83935000Y-147128000D03*
D22*
X86475000Y-147128000D03*
%TD*%
D11*
%TO.C,U6*%
X99800000Y-143540000D03*
D16*
X102340000Y-143540000D03*
X104880000Y-143540000D03*
X107420000Y-143540000D03*
X109960000Y-143540000D03*
X112500000Y-143540000D03*
X115040000Y-143540000D03*
X117580000Y-143540000D03*
X117580000Y-135920000D03*
X115040000Y-135920000D03*
X112500000Y-135920000D03*
X109960000Y-135920000D03*
X107420000Y-135920000D03*
X104880000Y-135920000D03*
X102340000Y-135920000D03*
X99800000Y-135920000D03*
%TD*%
D10*
%TO.C,C24*%
X62290000Y-128460000D03*
X62290000Y-123460000D03*
%TD*%
%TO.C,R28*%
X96590000Y-89940000D03*
D16*
X96590000Y-82320000D03*
%TD*%
D10*
%TO.C,R2*%
X68700000Y-85820000D03*
D16*
X68700000Y-78200000D03*
%TD*%
D12*
%TO.C,Q2*%
X105250000Y-127000000D03*
D13*
X105250000Y-129540000D03*
X105250000Y-132080000D03*
%TD*%
D10*
%TO.C,R14*%
X103070000Y-86160000D03*
D16*
X103070000Y-78540000D03*
%TD*%
D10*
%TO.C,R47*%
X86100000Y-150390000D03*
D16*
X86100000Y-158010000D03*
%TD*%
D10*
%TO.C,C12*%
X113210000Y-81070000D03*
X113210000Y-86070000D03*
%TD*%
%TO.C,R16*%
X89980000Y-70880000D03*
D16*
X97600000Y-70880000D03*
%TD*%
D10*
%TO.C,C26*%
X125450000Y-145570000D03*
X120450000Y-145570000D03*
%TD*%
D24*
%TO.C,J5*%
X55124000Y-105472000D03*
D25*
X49124000Y-105472000D03*
D26*
X52124000Y-110172000D03*
%TD*%
D10*
%TO.C,R36*%
X84334000Y-115378000D03*
D16*
X84334000Y-107758000D03*
%TD*%
D10*
%TO.C,C1*%
X61250000Y-91500000D03*
X61250000Y-96500000D03*
%TD*%
%TO.C,C8*%
X83318000Y-82358000D03*
X83318000Y-87358000D03*
%TD*%
%TO.C,C29*%
X91240000Y-142680000D03*
X96240000Y-142680000D03*
%TD*%
D27*
%TO.C,RV6*%
X97790000Y-146558000D03*
D28*
X95290000Y-146558000D03*
X92790000Y-146558000D03*
D29*
X90890000Y-153558000D03*
X99690000Y-153558000D03*
%TD*%
D10*
%TO.C,R52*%
X116560000Y-92010000D03*
D16*
X116560000Y-99630000D03*
%TD*%
D11*
%TO.C,C7*%
X85160000Y-72550000D03*
D10*
X85160000Y-70050000D03*
%TD*%
%TO.C,R11*%
X72250000Y-93500000D03*
D16*
X79870000Y-93500000D03*
%TD*%
D10*
%TO.C,C14*%
X105440000Y-71030000D03*
X105440000Y-76030000D03*
%TD*%
D11*
%TO.C,C34*%
X80016000Y-108838887D03*
D10*
X80016000Y-111338887D03*
%TD*%
%TO.C,R22*%
X132750000Y-82210000D03*
D16*
X125130000Y-82210000D03*
%TD*%
D23*
%TO.C,H3*%
X140000000Y-64000000D03*
%TD*%
D30*
%TO.C,J1*%
X49000000Y-95540000D03*
D31*
X49000000Y-90460000D03*
%TD*%
D10*
%TO.C,C23*%
X114808000Y-127000000D03*
X114808000Y-132000000D03*
%TD*%
D11*
%TO.C,C2*%
X65910000Y-91740000D03*
D10*
X65910000Y-94240000D03*
%TD*%
%TO.C,R60*%
X45218000Y-71436000D03*
D16*
X52838000Y-71436000D03*
%TD*%
D10*
%TO.C,R25*%
X72904000Y-113600000D03*
D16*
X65284000Y-113600000D03*
%TD*%
D10*
%TO.C,C18*%
X119710000Y-80890000D03*
X119710000Y-85890000D03*
%TD*%
%TO.C,R39*%
X124340000Y-134690000D03*
D16*
X124340000Y-142310000D03*
%TD*%
D10*
%TO.C,R55*%
X132760000Y-99330000D03*
D16*
X132760000Y-91710000D03*
%TD*%
D10*
%TO.C,C13*%
X109770000Y-78830000D03*
X109770000Y-83830000D03*
%TD*%
%TO.C,C30*%
X103820000Y-146460000D03*
X103820000Y-151460000D03*
%TD*%
D32*
%TO.C,RV1*%
X70250000Y-66000000D03*
D28*
X72750000Y-63000000D03*
D32*
X75250000Y-66000000D03*
D28*
X75250000Y-63000000D03*
D32*
X80250000Y-66000000D03*
D28*
X77750000Y-63000000D03*
%TD*%
D10*
%TO.C,R12*%
X61250000Y-88610000D03*
D16*
X68870000Y-88610000D03*
%TD*%
D10*
%TO.C,R18*%
X116440000Y-88400000D03*
D16*
X116440000Y-80780000D03*
%TD*%
D10*
%TO.C,R40*%
X93250000Y-126750000D03*
D16*
X93250000Y-134370000D03*
%TD*%
D33*
%TO.C,U3*%
X140250000Y-116225000D03*
X140250000Y-110775000D03*
D34*
X137220000Y-111075000D03*
X137220000Y-115925000D03*
D22*
X140380000Y-104610000D03*
D35*
X140380000Y-103710000D03*
D22*
X137840000Y-104610000D03*
D35*
X137840000Y-103710000D03*
D21*
X135300000Y-104610000D03*
D35*
X135300000Y-103710000D03*
D22*
X132760000Y-104610000D03*
D35*
X132760000Y-103710000D03*
D22*
X130220000Y-104610000D03*
D35*
X130220000Y-103710000D03*
X127680000Y-103710000D03*
D22*
X127680000Y-104610000D03*
D35*
X125140000Y-103710000D03*
D22*
X125140000Y-104610000D03*
D35*
X122600000Y-103710000D03*
D21*
X122600000Y-104610000D03*
D35*
X120060000Y-103710000D03*
D22*
X120060000Y-104610000D03*
X117520000Y-104610000D03*
D35*
X117520000Y-103710000D03*
D22*
X114980000Y-104610000D03*
D35*
X114980000Y-103710000D03*
X112440000Y-103710000D03*
D22*
X112440000Y-104610000D03*
D21*
X109900000Y-104610000D03*
D35*
X109900000Y-103710000D03*
D22*
X107360000Y-104610000D03*
D35*
X107360000Y-103710000D03*
X104820000Y-103710000D03*
D22*
X104820000Y-104610000D03*
D35*
X102280000Y-103710000D03*
D22*
X102280000Y-104610000D03*
D35*
X99740000Y-103710000D03*
D22*
X99740000Y-104610000D03*
D21*
X97200000Y-104610000D03*
D35*
X97200000Y-103710000D03*
X94660000Y-103710000D03*
D22*
X94660000Y-104610000D03*
X92120000Y-104610000D03*
D35*
X92120000Y-103710000D03*
X92120000Y-123290000D03*
D22*
X92120000Y-122390000D03*
X94660000Y-122390000D03*
D35*
X94660000Y-123290000D03*
D21*
X97200000Y-122390000D03*
D35*
X97200000Y-123290000D03*
D22*
X99740000Y-122390000D03*
D35*
X99740000Y-123290000D03*
X102280000Y-123290000D03*
D22*
X102280000Y-122390000D03*
D35*
X104820000Y-123290000D03*
D22*
X104820000Y-122390000D03*
D35*
X107360000Y-123290000D03*
D22*
X107360000Y-122390000D03*
D35*
X109900000Y-123290000D03*
D21*
X109900000Y-122390000D03*
D35*
X112440000Y-123290000D03*
D22*
X112440000Y-122390000D03*
D35*
X114980000Y-123290000D03*
D22*
X114980000Y-122390000D03*
X117520000Y-122390000D03*
D35*
X117520000Y-123290000D03*
D22*
X120060000Y-122390000D03*
D35*
X120060000Y-123290000D03*
D21*
X122600000Y-122390000D03*
D35*
X122600000Y-123290000D03*
D22*
X125140000Y-122390000D03*
D35*
X125140000Y-123290000D03*
D22*
X127680000Y-122390000D03*
D35*
X127680000Y-123290000D03*
D22*
X130220000Y-122390000D03*
D35*
X130220000Y-123290000D03*
X132760000Y-123290000D03*
D22*
X132760000Y-122390000D03*
D35*
X135300000Y-123290000D03*
D21*
X135300000Y-122390000D03*
D22*
X137840000Y-122390000D03*
D35*
X137840000Y-123290000D03*
D22*
X140380000Y-122390000D03*
D35*
X140380000Y-123290000D03*
D22*
X92350000Y-110960000D03*
D36*
X91450000Y-110960000D03*
X91450000Y-113500000D03*
D21*
X92350000Y-113500000D03*
D22*
X92350000Y-116040000D03*
D36*
X91450000Y-116040000D03*
%TD*%
D11*
%TO.C,C20*%
X59696000Y-100138000D03*
D10*
X59696000Y-102638000D03*
%TD*%
%TO.C,C31*%
X57664000Y-113700000D03*
X62664000Y-113700000D03*
%TD*%
%TO.C,R8*%
X96570000Y-74010000D03*
D16*
X88950000Y-74010000D03*
%TD*%
D10*
%TO.C,R49*%
X106910000Y-92020000D03*
D16*
X106910000Y-99640000D03*
%TD*%
D10*
%TO.C,R57*%
X100580000Y-90920000D03*
D16*
X100580000Y-98540000D03*
%TD*%
D10*
%TO.C,C25*%
X95750000Y-137250000D03*
X90750000Y-137250000D03*
%TD*%
%TO.C,R41*%
X121160000Y-134660000D03*
D16*
X121160000Y-142280000D03*
%TD*%
D10*
%TO.C,R48*%
X57890000Y-117570000D03*
D16*
X50270000Y-117570000D03*
%TD*%
D10*
%TO.C,R29*%
X96590000Y-92200000D03*
D16*
X96590000Y-99820000D03*
%TD*%
D10*
%TO.C,R1*%
X62100000Y-85820000D03*
D16*
X62100000Y-78200000D03*
%TD*%
D14*
%TO.C,J2*%
X45902000Y-81000000D03*
D15*
X53802000Y-75800000D03*
X52802000Y-78400000D03*
X50302000Y-85800000D03*
D14*
X57202000Y-85300000D03*
%TD*%
D10*
%TO.C,R27*%
X63760000Y-110298000D03*
D16*
X71380000Y-110298000D03*
%TD*%
D10*
%TO.C,R35*%
X86930000Y-92300000D03*
D16*
X86930000Y-99920000D03*
%TD*%
D37*
%TO.C,SW2*%
X137620000Y-147480000D03*
X137620000Y-140980000D03*
X142120000Y-140980000D03*
X142120000Y-147480000D03*
%TD*%
D10*
%TO.C,R59*%
X63760000Y-106996000D03*
D16*
X71380000Y-106996000D03*
%TD*%
D37*
%TO.C,SW3*%
X129100000Y-141110000D03*
X129100000Y-147610000D03*
X133600000Y-147610000D03*
X133600000Y-141110000D03*
%TD*%
D10*
%TO.C,R54*%
X126070000Y-92060000D03*
D16*
X126070000Y-99680000D03*
%TD*%
D38*
%TO.C,Brd1*%
X63030000Y-142140000D03*
X84530000Y-118640000D03*
X63030000Y-118640000D03*
X84530000Y-142140000D03*
D39*
X69910000Y-118540000D03*
X72450000Y-118540000D03*
X74990000Y-118540000D03*
X77530000Y-118540000D03*
%TD*%
D10*
%TO.C,R33*%
X90130000Y-92270000D03*
D16*
X90130000Y-99890000D03*
%TD*%
D11*
%TO.C,C35*%
X56902000Y-71436000D03*
D10*
X56902000Y-68936000D03*
%TD*%
D11*
%TO.C,C5*%
X54870000Y-62292000D03*
D10*
X54870000Y-64792000D03*
%TD*%
%TO.C,R5*%
X66554000Y-62546000D03*
D16*
X58934000Y-62546000D03*
%TD*%
D27*
%TO.C,RV5*%
X77730000Y-146620000D03*
D28*
X75230000Y-146620000D03*
X72730000Y-146620000D03*
D29*
X70830000Y-153620000D03*
X79630000Y-153620000D03*
%TD*%
D10*
%TO.C,R26*%
X75698000Y-106488000D03*
D16*
X75698000Y-114108000D03*
%TD*%
D11*
%TO.C,C16*%
X86874000Y-64832000D03*
D10*
X84374000Y-64832000D03*
%TD*%
%TO.C,R4*%
X58000000Y-96328000D03*
D16*
X58000000Y-88708000D03*
%TD*%
D11*
%TO.C,U1*%
X73000000Y-78800000D03*
D16*
X75540000Y-78800000D03*
X78080000Y-78800000D03*
X80620000Y-78800000D03*
X80620000Y-71180000D03*
X78080000Y-71180000D03*
X75540000Y-71180000D03*
X73000000Y-71180000D03*
%TD*%
D10*
%TO.C,R45*%
X113410000Y-92000000D03*
D16*
X113410000Y-99620000D03*
%TD*%
D10*
%TO.C,R7*%
X66554000Y-65594000D03*
D16*
X58934000Y-65594000D03*
%TD*%
D11*
%TO.C,C19*%
X66554000Y-103115113D03*
D10*
X66554000Y-100615113D03*
%TD*%
%TO.C,R3*%
X54750000Y-96328000D03*
D16*
X54750000Y-88708000D03*
%TD*%
D10*
%TO.C,R38*%
X90000000Y-126750000D03*
D16*
X90000000Y-134370000D03*
%TD*%
D40*
%TO.C,J6*%
X139810000Y-97215000D03*
X139810000Y-72215000D03*
D11*
X137760000Y-80400000D03*
D10*
X137760000Y-82690000D03*
X137760000Y-84980000D03*
X137760000Y-87270000D03*
X137760000Y-89560000D03*
X139740000Y-79255000D03*
X139740000Y-81545000D03*
X139740000Y-83835000D03*
X139740000Y-86125000D03*
X139740000Y-88415000D03*
X141720000Y-80400000D03*
X141720000Y-82690000D03*
X141720000Y-84980000D03*
X141720000Y-87270000D03*
X141720000Y-89560000D03*
%TD*%
D37*
%TO.C,SW4*%
X129220000Y-158030000D03*
X129220000Y-151530000D03*
X133720000Y-151530000D03*
X133720000Y-158030000D03*
%TD*%
%TO.C,SW5*%
X121320000Y-151610000D03*
X121320000Y-158110000D03*
X125820000Y-151610000D03*
X125820000Y-158110000D03*
%TD*%
D10*
%TO.C,R17*%
X108680000Y-68140000D03*
D16*
X108680000Y-75760000D03*
%TD*%
D10*
%TO.C,R37*%
X87636000Y-107758000D03*
D16*
X87636000Y-115378000D03*
%TD*%
D10*
%TO.C,R20*%
X132770000Y-79040000D03*
D16*
X125150000Y-79040000D03*
%TD*%
D10*
%TO.C,R43*%
X125222000Y-130500000D03*
D16*
X117602000Y-130500000D03*
%TD*%
D11*
%TO.C,C32*%
X79600000Y-124070000D03*
D10*
X79600000Y-126570000D03*
%TD*%
%TO.C,R32*%
X90290000Y-89980000D03*
D16*
X90290000Y-82360000D03*
%TD*%
D10*
%TO.C,C6*%
X69500000Y-69750000D03*
X64500000Y-69750000D03*
%TD*%
%TO.C,R6*%
X65390000Y-78190000D03*
D16*
X65390000Y-85810000D03*
%TD*%
D10*
%TO.C,R58*%
X85020000Y-123450000D03*
D16*
X85020000Y-131070000D03*
%TD*%
D23*
%TO.C,H4*%
X48000000Y-64000000D03*
%TD*%
D12*
%TO.C,Q1*%
X100280000Y-127000000D03*
D13*
X100280000Y-129540000D03*
X100280000Y-132080000D03*
%TD*%
D10*
%TO.C,R13*%
X99870000Y-78510000D03*
D16*
X99870000Y-86130000D03*
%TD*%
D10*
%TO.C,R30*%
X93420000Y-89960000D03*
D16*
X93420000Y-82340000D03*
%TD*%
D12*
%TO.C,U5*%
X59696000Y-105726000D03*
D13*
X59696000Y-108266000D03*
X59696000Y-110806000D03*
%TD*%
D23*
%TO.C,H1*%
X140000000Y-156000000D03*
%TD*%
D10*
%TO.C,R44*%
X125222000Y-127254000D03*
D16*
X117602000Y-127254000D03*
%TD*%
D10*
%TO.C,R34*%
X87120000Y-90000000D03*
D16*
X87120000Y-82380000D03*
%TD*%
D10*
%TO.C,C21*%
X69160000Y-97470000D03*
X64160000Y-97470000D03*
%TD*%
D11*
%TO.C,U2*%
X113160000Y-78010000D03*
D16*
X115700000Y-78010000D03*
X118240000Y-78010000D03*
X120780000Y-78010000D03*
X120780000Y-70390000D03*
X118240000Y-70390000D03*
X115700000Y-70390000D03*
X113160000Y-70390000D03*
%TD*%
D11*
%TO.C,D2*%
X81286000Y-103186000D03*
D16*
X88906000Y-103186000D03*
%TD*%
D10*
%TO.C,R31*%
X93380000Y-92230000D03*
D16*
X93380000Y-99850000D03*
%TD*%
D10*
%TO.C,C28*%
X66808000Y-151140000D03*
X66808000Y-146140000D03*
%TD*%
D11*
%TO.C,C33*%
X79420000Y-133880000D03*
D10*
X79420000Y-136380000D03*
%TD*%
D11*
%TO.C,C17*%
X126885113Y-86750000D03*
D10*
X124385113Y-86750000D03*
%TD*%
D27*
%TO.C,RV4*%
X60706000Y-146558000D03*
D28*
X58206000Y-146558000D03*
X55706000Y-146558000D03*
D29*
X53806000Y-153558000D03*
X62606000Y-153558000D03*
%TD*%
D10*
%TO.C,C9*%
X73750000Y-82500000D03*
X78750000Y-82500000D03*
%TD*%
%TO.C,R53*%
X129290000Y-92060000D03*
D16*
X129290000Y-99680000D03*
%TD*%
D10*
%TO.C,C3*%
X61490000Y-75170000D03*
X61490000Y-70170000D03*
%TD*%
%TO.C,R42*%
X96500000Y-126750000D03*
D16*
X96500000Y-134370000D03*
%TD*%
D10*
%TO.C,R24*%
X83318000Y-98614000D03*
D16*
X83318000Y-90994000D03*
%TD*%
D30*
%TO.C,J4*%
X118130000Y-64450000D03*
D31*
X113050000Y-64450000D03*
%TD*%
D10*
%TO.C,R50*%
X122900000Y-92050000D03*
D16*
X122900000Y-99670000D03*
%TD*%
D10*
%TO.C,R15*%
X106420000Y-86340000D03*
D16*
X106420000Y-78720000D03*
%TD*%
D10*
%TO.C,C27*%
X45230000Y-147080000D03*
X50230000Y-147080000D03*
%TD*%
D32*
%TO.C,RV2*%
X93220000Y-65980000D03*
D28*
X95720000Y-62980000D03*
D32*
X98220000Y-65980000D03*
D28*
X98220000Y-62980000D03*
X100720000Y-62980000D03*
D32*
X103220000Y-65980000D03*
%TD*%
D10*
%TO.C,R51*%
X119740000Y-92040000D03*
D16*
X119740000Y-99660000D03*
%TD*%
D37*
%TO.C,SW1*%
X137920000Y-137020000D03*
X137920000Y-130520000D03*
X142420000Y-130520000D03*
X142420000Y-137020000D03*
%TD*%
D27*
%TO.C,RV3*%
X114808000Y-146558000D03*
D28*
X112308000Y-146558000D03*
X109808000Y-146558000D03*
D29*
X116708000Y-153558000D03*
X107908000Y-153558000D03*
%TD*%
M02*
