%TF.GenerationSoftware,KiCad,Pcbnew,(6.0.11)*%
%TF.CreationDate,2023-09-01T22:09:42-05:00*%
%TF.ProjectId,GuitarPico,47756974-6172-4506-9963-6f2e6b696361,rev?*%
%TF.SameCoordinates,Original*%
%TF.FileFunction,Soldermask,Bot*%
%TF.FilePolarity,Negative*%
%FSLAX46Y46*%
G04 Gerber Fmt 4.6, Leading zero omitted, Abs format (unit mm)*
G04 Created by KiCad (PCBNEW (6.0.11)) date 2023-09-01 22:09:42*
%MOMM*%
%LPD*%
G01*
G04 APERTURE LIST*
G04 Aperture macros list*
%AMRoundRect*
0 Rectangle with rounded corners*
0 $1 Rounding radius*
0 $2 $3 $4 $5 $6 $7 $8 $9 X,Y pos of 4 corners*
0 Add a 4 corners polygon primitive as box body*
4,1,4,$2,$3,$4,$5,$6,$7,$8,$9,$2,$3,0*
0 Add four circle primitives for the rounded corners*
1,1,$1+$1,$2,$3*
1,1,$1+$1,$4,$5*
1,1,$1+$1,$6,$7*
1,1,$1+$1,$8,$9*
0 Add four rect primitives between the rounded corners*
20,1,$1+$1,$2,$3,$4,$5,0*
20,1,$1+$1,$4,$5,$6,$7,0*
20,1,$1+$1,$6,$7,$8,$9,0*
20,1,$1+$1,$8,$9,$2,$3,0*%
G04 Aperture macros list end*
%ADD10C,1.600000*%
%ADD11O,1.600000X1.600000*%
%ADD12R,1.700000X1.700000*%
%ADD13O,1.700000X1.700000*%
%ADD14O,1.000000X2.000000*%
%ADD15O,2.000000X1.000000*%
%ADD16O,2.000000X1.500000*%
%ADD17O,1.500000X2.000000*%
%ADD18C,3.200000*%
%ADD19RoundRect,0.750000X-0.750000X1.250000X-0.750000X-1.250000X0.750000X-1.250000X0.750000X1.250000X0*%
%ADD20C,1.800000*%
%ADD21R,1.800000X1.800000*%
%ADD22R,1.600000X1.600000*%
%ADD23C,1.500000*%
%ADD24R,1.500000X1.500000*%
%ADD25O,3.600000X3.100000*%
%ADD26O,1.600000X2.000000*%
%ADD27R,1.905000X2.000000*%
%ADD28O,1.905000X2.000000*%
%ADD29RoundRect,0.875000X-0.875000X-0.875000X0.875000X-0.875000X0.875000X0.875000X-0.875000X0.875000X0*%
%ADD30RoundRect,0.750000X-0.750000X-1.000000X0.750000X-1.000000X0.750000X1.000000X-0.750000X1.000000X0*%
%ADD31R,3.500000X3.500000*%
%ADD32R,2.200000X2.200000*%
%ADD33O,2.200000X2.200000*%
%ADD34O,1.500000X1.500000*%
%ADD35O,1.800000X1.800000*%
%ADD36C,2.500000*%
%ADD37R,3.000000X3.000000*%
%ADD38C,3.000000*%
G04 APERTURE END LIST*
D10*
%TO.C,R48*%
X57820000Y-118320000D03*
D11*
X50200000Y-118320000D03*
%TD*%
D10*
%TO.C,R47*%
X86100000Y-150390000D03*
D11*
X86100000Y-158010000D03*
%TD*%
D12*
%TO.C,JP2*%
X54130000Y-114900000D03*
D13*
X56670000Y-114900000D03*
%TD*%
D12*
%TO.C,JP1*%
X83935000Y-147128000D03*
D13*
X86475000Y-147128000D03*
%TD*%
D14*
%TO.C,J9*%
X45790000Y-126070000D03*
D15*
X53690000Y-120870000D03*
D16*
X52690000Y-123470000D03*
D15*
X50190000Y-130870000D03*
D17*
X57090000Y-130370000D03*
%TD*%
D14*
%TO.C,J8*%
X45720000Y-138590000D03*
D15*
X53620000Y-133390000D03*
D16*
X52620000Y-135990000D03*
D15*
X50120000Y-143390000D03*
D17*
X57020000Y-142890000D03*
%TD*%
D18*
%TO.C,H4*%
X48000000Y-64000000D03*
%TD*%
%TO.C,H3*%
X140000000Y-64000000D03*
%TD*%
%TO.C,H2*%
X48000000Y-156000000D03*
%TD*%
%TO.C,H1*%
X140000000Y-156000000D03*
%TD*%
D10*
%TO.C,R46*%
X127762000Y-152146000D03*
D11*
X127762000Y-144526000D03*
%TD*%
D10*
%TO.C,R45*%
X124460000Y-152146000D03*
D11*
X124460000Y-144526000D03*
%TD*%
D12*
%TO.C,JP4*%
X127508000Y-155194000D03*
D13*
X127508000Y-157734000D03*
%TD*%
%TO.C,JP3*%
X123190000Y-157734000D03*
D12*
X123190000Y-155194000D03*
%TD*%
D14*
%TO.C,J7*%
X142240000Y-147828000D03*
D15*
X134340000Y-153028000D03*
D16*
X135340000Y-150428000D03*
D15*
X137840000Y-143028000D03*
D17*
X130940000Y-143528000D03*
%TD*%
D14*
%TO.C,J6*%
X142250000Y-135410000D03*
D15*
X134350000Y-140610000D03*
D16*
X135350000Y-138010000D03*
D15*
X137850000Y-130610000D03*
D17*
X130950000Y-131110000D03*
%TD*%
D19*
%TO.C,RV6*%
X90890000Y-153558000D03*
X99690000Y-153558000D03*
D20*
X92790000Y-146558000D03*
X95290000Y-146558000D03*
D21*
X97790000Y-146558000D03*
%TD*%
%TO.C,RV5*%
X77730000Y-146620000D03*
D20*
X75230000Y-146620000D03*
X72730000Y-146620000D03*
D19*
X79630000Y-153620000D03*
X70830000Y-153620000D03*
%TD*%
D21*
%TO.C,RV4*%
X60706000Y-146558000D03*
D20*
X58206000Y-146558000D03*
X55706000Y-146558000D03*
D19*
X62606000Y-153558000D03*
X53806000Y-153558000D03*
%TD*%
%TO.C,RV3*%
X107908000Y-153558000D03*
X116708000Y-153558000D03*
D20*
X109808000Y-146558000D03*
X112308000Y-146558000D03*
D21*
X114808000Y-146558000D03*
%TD*%
D10*
%TO.C,C29*%
X96240000Y-142680000D03*
X91240000Y-142680000D03*
%TD*%
%TO.C,C28*%
X66808000Y-151140000D03*
X66808000Y-146140000D03*
%TD*%
%TO.C,C27*%
X45325000Y-148675000D03*
X50325000Y-148675000D03*
%TD*%
%TO.C,C26*%
X120904000Y-142026000D03*
X120904000Y-147026000D03*
%TD*%
%TO.C,R44*%
X125222000Y-127254000D03*
D11*
X117602000Y-127254000D03*
%TD*%
%TO.C,U6*%
X99800000Y-135920000D03*
X102340000Y-135920000D03*
X104880000Y-135920000D03*
X107420000Y-135920000D03*
X109960000Y-135920000D03*
X112500000Y-135920000D03*
X115040000Y-135920000D03*
X117580000Y-135920000D03*
X117580000Y-143540000D03*
X115040000Y-143540000D03*
X112500000Y-143540000D03*
X109960000Y-143540000D03*
X107420000Y-143540000D03*
X104880000Y-143540000D03*
X102340000Y-143540000D03*
D22*
X99800000Y-143540000D03*
%TD*%
D11*
%TO.C,R43*%
X117602000Y-130500000D03*
D10*
X125222000Y-130500000D03*
%TD*%
%TO.C,R42*%
X96500000Y-126750000D03*
D11*
X96500000Y-134370000D03*
%TD*%
%TO.C,R41*%
X120396000Y-133858000D03*
D10*
X128016000Y-133858000D03*
%TD*%
D11*
%TO.C,R40*%
X93250000Y-134370000D03*
D10*
X93250000Y-126750000D03*
%TD*%
%TO.C,R39*%
X128016000Y-137668000D03*
D11*
X120396000Y-137668000D03*
%TD*%
D10*
%TO.C,R38*%
X90000000Y-126750000D03*
D11*
X90000000Y-134370000D03*
%TD*%
D23*
%TO.C,Q3*%
X110140000Y-132080000D03*
X110140000Y-129540000D03*
D24*
X110140000Y-127000000D03*
%TD*%
%TO.C,Q2*%
X105250000Y-127000000D03*
D23*
X105250000Y-129540000D03*
X105250000Y-132080000D03*
%TD*%
D24*
%TO.C,Q1*%
X100280000Y-127000000D03*
D23*
X100280000Y-129540000D03*
X100280000Y-132080000D03*
%TD*%
D10*
%TO.C,C25*%
X90750000Y-137250000D03*
X95750000Y-137250000D03*
%TD*%
%TO.C,C24*%
X70618000Y-114362000D03*
X75618000Y-114362000D03*
%TD*%
%TO.C,R37*%
X86620000Y-114200000D03*
D11*
X79000000Y-114200000D03*
%TD*%
%TO.C,R36*%
X86620000Y-111100000D03*
D10*
X79000000Y-111100000D03*
%TD*%
D25*
%TO.C,Brd1*%
X62530000Y-118640000D03*
X85530000Y-142140000D03*
X62530000Y-142140000D03*
X85530000Y-118640000D03*
D26*
X69910000Y-118540000D03*
X72450000Y-118540000D03*
X74990000Y-118540000D03*
X77530000Y-118540000D03*
%TD*%
D10*
%TO.C,C18*%
X120200000Y-95700000D03*
X115200000Y-95700000D03*
%TD*%
%TO.C,R35*%
X89500000Y-92250000D03*
D11*
X89500000Y-99870000D03*
%TD*%
D10*
%TO.C,R34*%
X92750000Y-92250000D03*
D11*
X92750000Y-99870000D03*
%TD*%
D10*
%TO.C,R33*%
X96000000Y-92250000D03*
D11*
X96000000Y-99870000D03*
%TD*%
D10*
%TO.C,R32*%
X99250000Y-92190000D03*
D11*
X99250000Y-99810000D03*
%TD*%
D10*
%TO.C,R31*%
X102500000Y-92190000D03*
D11*
X102500000Y-99810000D03*
%TD*%
D10*
%TO.C,R30*%
X105750000Y-92190000D03*
D11*
X105750000Y-99810000D03*
%TD*%
D10*
%TO.C,R29*%
X109000000Y-92190000D03*
D11*
X109000000Y-99810000D03*
%TD*%
D10*
%TO.C,R28*%
X112250000Y-92130000D03*
D11*
X112250000Y-99750000D03*
%TD*%
D10*
%TO.C,C23*%
X114808000Y-127000000D03*
X114808000Y-132000000D03*
%TD*%
D24*
%TO.C,U5*%
X65306000Y-115124000D03*
D23*
X65306000Y-112584000D03*
X65306000Y-110044000D03*
%TD*%
D10*
%TO.C,R27*%
X68500000Y-107758000D03*
D11*
X76120000Y-107758000D03*
%TD*%
D10*
%TO.C,R26*%
X60712000Y-107580000D03*
D11*
X60712000Y-115200000D03*
%TD*%
D10*
%TO.C,R25*%
X76206000Y-111060000D03*
D11*
X68586000Y-111060000D03*
%TD*%
D10*
%TO.C,R24*%
X86250000Y-100000000D03*
D11*
X86250000Y-92380000D03*
%TD*%
D22*
%TO.C,D2*%
X83300000Y-106900000D03*
D11*
X83300000Y-99280000D03*
%TD*%
D10*
%TO.C,C22*%
X132588000Y-127254000D03*
X127588000Y-127254000D03*
%TD*%
D27*
%TO.C,U4*%
X69800000Y-100900000D03*
D28*
X72340000Y-100900000D03*
X74880000Y-100900000D03*
%TD*%
D29*
%TO.C,J5*%
X53902000Y-110172000D03*
D30*
X50902000Y-105472000D03*
D31*
X56902000Y-105472000D03*
%TD*%
D32*
%TO.C,D1*%
X79500000Y-106488000D03*
D33*
X79500000Y-98868000D03*
%TD*%
D10*
%TO.C,C21*%
X74682000Y-104202000D03*
X69682000Y-104202000D03*
%TD*%
D22*
%TO.C,C20*%
X61220000Y-101876000D03*
D10*
X61220000Y-99376000D03*
%TD*%
D13*
%TO.C,U3*%
X92350000Y-116040000D03*
D12*
X92350000Y-113500000D03*
D13*
X92350000Y-110960000D03*
X140380000Y-122390000D03*
X137840000Y-122390000D03*
D12*
X135300000Y-122390000D03*
D13*
X132760000Y-122390000D03*
X130220000Y-122390000D03*
X127680000Y-122390000D03*
X125140000Y-122390000D03*
D12*
X122600000Y-122390000D03*
D13*
X120060000Y-122390000D03*
X117520000Y-122390000D03*
X114980000Y-122390000D03*
X112440000Y-122390000D03*
D12*
X109900000Y-122390000D03*
D13*
X107360000Y-122390000D03*
X104820000Y-122390000D03*
X102280000Y-122390000D03*
X99740000Y-122390000D03*
D12*
X97200000Y-122390000D03*
D13*
X94660000Y-122390000D03*
X92120000Y-122390000D03*
X92120000Y-104610000D03*
X94660000Y-104610000D03*
D12*
X97200000Y-104610000D03*
D13*
X99740000Y-104610000D03*
X102280000Y-104610000D03*
X104820000Y-104610000D03*
X107360000Y-104610000D03*
D12*
X109900000Y-104610000D03*
D13*
X112440000Y-104610000D03*
X114980000Y-104610000D03*
X117520000Y-104610000D03*
X120060000Y-104610000D03*
D12*
X122600000Y-104610000D03*
D13*
X125140000Y-104610000D03*
X127680000Y-104610000D03*
X130220000Y-104610000D03*
X132760000Y-104610000D03*
D12*
X135300000Y-104610000D03*
D13*
X137840000Y-104610000D03*
X140380000Y-104610000D03*
D34*
X137220000Y-115925000D03*
X137220000Y-111075000D03*
D35*
X140250000Y-110775000D03*
X140250000Y-116225000D03*
%TD*%
D11*
%TO.C,R23*%
X142494000Y-127254000D03*
D10*
X134874000Y-127254000D03*
%TD*%
D22*
%TO.C,C19*%
X64770000Y-106240000D03*
D10*
X64770000Y-103740000D03*
%TD*%
D22*
%TO.C,U2*%
X113250000Y-78750000D03*
D11*
X115790000Y-78750000D03*
X118330000Y-78750000D03*
X120870000Y-78750000D03*
X120870000Y-71130000D03*
X118330000Y-71130000D03*
X115790000Y-71130000D03*
X113250000Y-71130000D03*
%TD*%
D20*
%TO.C,RV2*%
X117000000Y-63000000D03*
X114500000Y-63000000D03*
X112000000Y-63000000D03*
D36*
X114500000Y-66000000D03*
X119500000Y-66000000D03*
X109500000Y-66000000D03*
%TD*%
D10*
%TO.C,R22*%
X132750000Y-87940000D03*
D11*
X132750000Y-95560000D03*
%TD*%
D10*
%TO.C,R21*%
X129250000Y-95560000D03*
D11*
X129250000Y-87940000D03*
%TD*%
D10*
%TO.C,R20*%
X125000000Y-61380000D03*
D11*
X125000000Y-69000000D03*
%TD*%
D10*
%TO.C,R19*%
X125000000Y-79310000D03*
D11*
X125000000Y-71690000D03*
%TD*%
D10*
%TO.C,R18*%
X126000000Y-81750000D03*
D11*
X126000000Y-89370000D03*
%TD*%
D10*
%TO.C,R17*%
X108750000Y-70500000D03*
D11*
X108750000Y-78120000D03*
%TD*%
D10*
%TO.C,R16*%
X99170000Y-69250000D03*
D11*
X99170000Y-76870000D03*
%TD*%
D10*
%TO.C,R15*%
X119560000Y-85750000D03*
D11*
X111940000Y-85750000D03*
%TD*%
D10*
%TO.C,R14*%
X119500000Y-89000000D03*
D11*
X111880000Y-89000000D03*
%TD*%
D10*
%TO.C,R13*%
X101750000Y-87000000D03*
D11*
X109370000Y-87000000D03*
%TD*%
D37*
%TO.C,J4*%
X139000000Y-94540000D03*
D38*
X139000000Y-89460000D03*
%TD*%
D14*
%TO.C,J3*%
X141300000Y-80000000D03*
D15*
X133400000Y-85200000D03*
D16*
X134400000Y-82600000D03*
D15*
X136900000Y-75200000D03*
D17*
X130000000Y-75700000D03*
%TD*%
D22*
%TO.C,C17*%
X126105113Y-93800000D03*
D10*
X123605113Y-93800000D03*
%TD*%
D22*
%TO.C,C16*%
X100750000Y-66250000D03*
D10*
X100750000Y-63750000D03*
%TD*%
D22*
%TO.C,C15*%
X103750000Y-76500000D03*
D10*
X103750000Y-74000000D03*
%TD*%
%TO.C,C14*%
X105500000Y-62750000D03*
X105500000Y-67750000D03*
%TD*%
%TO.C,C13*%
X112000000Y-82500000D03*
X117000000Y-82500000D03*
%TD*%
%TO.C,C12*%
X122500000Y-84250000D03*
X122500000Y-89250000D03*
%TD*%
%TO.C,C11*%
X97000000Y-85500000D03*
D22*
X97000000Y-88000000D03*
%TD*%
%TO.C,C10*%
X91250000Y-88000000D03*
D10*
X91250000Y-85500000D03*
%TD*%
D11*
%TO.C,U1*%
X73000000Y-71180000D03*
X75540000Y-71180000D03*
X78080000Y-71180000D03*
X80620000Y-71180000D03*
X80620000Y-78800000D03*
X78080000Y-78800000D03*
X75540000Y-78800000D03*
D22*
X73000000Y-78800000D03*
%TD*%
D20*
%TO.C,RV1*%
X77750000Y-63000000D03*
X75250000Y-63000000D03*
X72750000Y-63000000D03*
D36*
X75250000Y-66000000D03*
X80250000Y-66000000D03*
X70250000Y-66000000D03*
%TD*%
D11*
%TO.C,R12*%
X68870000Y-88500000D03*
D10*
X61250000Y-88500000D03*
%TD*%
D11*
%TO.C,R11*%
X79870000Y-93500000D03*
D10*
X72250000Y-93500000D03*
%TD*%
%TO.C,R10*%
X72250000Y-90000000D03*
D11*
X79870000Y-90000000D03*
%TD*%
%TO.C,R9*%
X72630000Y-86250000D03*
D10*
X80250000Y-86250000D03*
%TD*%
%TO.C,R8*%
X95750000Y-69190000D03*
D11*
X95750000Y-76810000D03*
%TD*%
D10*
%TO.C,R7*%
X84250000Y-70500000D03*
D11*
X84250000Y-62880000D03*
%TD*%
%TO.C,R6*%
X65750000Y-85870000D03*
D10*
X65750000Y-78250000D03*
%TD*%
%TO.C,R5*%
X87500000Y-62750000D03*
D11*
X87500000Y-70370000D03*
%TD*%
D10*
%TO.C,R4*%
X58000000Y-97000000D03*
D11*
X58000000Y-89380000D03*
%TD*%
D10*
%TO.C,R3*%
X54750000Y-97000000D03*
D11*
X54750000Y-89380000D03*
%TD*%
D10*
%TO.C,R2*%
X69250000Y-85750000D03*
D11*
X69250000Y-78130000D03*
%TD*%
%TO.C,R1*%
X62000000Y-78130000D03*
D10*
X62000000Y-85750000D03*
%TD*%
D14*
%TO.C,J2*%
X46700000Y-81000000D03*
D15*
X54600000Y-75800000D03*
D16*
X53600000Y-78400000D03*
D15*
X51100000Y-85800000D03*
D17*
X58000000Y-85300000D03*
%TD*%
D38*
%TO.C,J1*%
X49000000Y-90460000D03*
D37*
X49000000Y-95540000D03*
%TD*%
D10*
%TO.C,C9*%
X73750000Y-82500000D03*
X78750000Y-82500000D03*
%TD*%
%TO.C,C8*%
X83250000Y-86750000D03*
X83250000Y-81750000D03*
%TD*%
D22*
%TO.C,C7*%
X85250000Y-76205113D03*
D10*
X85250000Y-73705113D03*
%TD*%
%TO.C,C6*%
X69500000Y-69750000D03*
X64500000Y-69750000D03*
%TD*%
D22*
%TO.C,C5*%
X91000000Y-73750000D03*
D10*
X91000000Y-76250000D03*
%TD*%
D22*
%TO.C,C4*%
X66500000Y-74250000D03*
D10*
X64000000Y-74250000D03*
%TD*%
%TO.C,C3*%
X61000000Y-72000000D03*
X61000000Y-67000000D03*
%TD*%
%TO.C,C2*%
X66000000Y-94750000D03*
D22*
X66000000Y-92250000D03*
%TD*%
D10*
%TO.C,C1*%
X61250000Y-91500000D03*
X61250000Y-96500000D03*
%TD*%
M02*
