%TF.GenerationSoftware,KiCad,Pcbnew,(6.0.11)*%
%TF.CreationDate,2023-12-26T22:42:25-06:00*%
%TF.ProjectId,GuitarPico,47756974-6172-4506-9963-6f2e6b696361,rev?*%
%TF.SameCoordinates,Original*%
%TF.FileFunction,Soldermask,Top*%
%TF.FilePolarity,Negative*%
%FSLAX46Y46*%
G04 Gerber Fmt 4.6, Leading zero omitted, Abs format (unit mm)*
G04 Created by KiCad (PCBNEW (6.0.11)) date 2023-12-26 22:42:25*
%MOMM*%
%LPD*%
G01*
G04 APERTURE LIST*
G04 Aperture macros list*
%AMRoundRect*
0 Rectangle with rounded corners*
0 $1 Rounding radius*
0 $2 $3 $4 $5 $6 $7 $8 $9 X,Y pos of 4 corners*
0 Add a 4 corners polygon primitive as box body*
4,1,4,$2,$3,$4,$5,$6,$7,$8,$9,$2,$3,0*
0 Add four circle primitives for the rounded corners*
1,1,$1+$1,$2,$3*
1,1,$1+$1,$4,$5*
1,1,$1+$1,$6,$7*
1,1,$1+$1,$8,$9*
0 Add four rect primitives between the rounded corners*
20,1,$1+$1,$2,$3,$4,$5,0*
20,1,$1+$1,$4,$5,$6,$7,0*
20,1,$1+$1,$6,$7,$8,$9,0*
20,1,$1+$1,$8,$9,$2,$3,0*%
G04 Aperture macros list end*
%ADD10C,1.600000*%
%ADD11R,1.600000X1.600000*%
%ADD12R,1.500000X1.500000*%
%ADD13C,1.500000*%
%ADD14O,1.000000X2.000000*%
%ADD15O,2.000000X1.000000*%
%ADD16O,2.000000X1.500000*%
%ADD17O,1.500000X2.000000*%
%ADD18O,1.600000X1.600000*%
%ADD19R,2.200000X2.200000*%
%ADD20O,2.200000X2.200000*%
%ADD21R,1.905000X2.000000*%
%ADD22O,1.905000X2.000000*%
%ADD23R,1.700000X1.700000*%
%ADD24O,1.700000X1.700000*%
%ADD25C,3.200000*%
%ADD26R,3.500000X3.500000*%
%ADD27RoundRect,0.750000X-0.750000X-1.000000X0.750000X-1.000000X0.750000X1.000000X-0.750000X1.000000X0*%
%ADD28RoundRect,0.500000X-1.250000X-0.500000X1.250000X-0.500000X1.250000X0.500000X-1.250000X0.500000X0*%
%ADD29R,1.800000X1.800000*%
%ADD30C,1.800000*%
%ADD31RoundRect,0.750000X-0.750000X1.250000X-0.750000X-1.250000X0.750000X-1.250000X0.750000X1.250000X0*%
%ADD32R,3.000000X3.000000*%
%ADD33C,3.000000*%
%ADD34C,2.500000*%
%ADD35O,1.800000X1.800000*%
%ADD36O,1.500000X1.500000*%
%ADD37R,1.700000X3.500000*%
%ADD38R,3.500000X1.700000*%
%ADD39C,2.000000*%
%ADD40O,5.000000X3.100000*%
%ADD41O,1.600000X2.000000*%
%ADD42C,4.000000*%
G04 APERTURE END LIST*
D10*
%TO.C,C22*%
X132588000Y-127254000D03*
X127588000Y-127254000D03*
%TD*%
D11*
%TO.C,C15*%
X100844000Y-75689113D03*
D10*
X100844000Y-73189113D03*
%TD*%
D12*
%TO.C,Q3*%
X110140000Y-127000000D03*
D13*
X110140000Y-129540000D03*
X110140000Y-132080000D03*
%TD*%
D14*
%TO.C,J8*%
X45720000Y-138590000D03*
D15*
X53620000Y-133390000D03*
D16*
X52620000Y-135990000D03*
D15*
X50120000Y-143390000D03*
D17*
X57020000Y-142890000D03*
%TD*%
D10*
%TO.C,R46*%
X110070000Y-92020000D03*
D18*
X110070000Y-99640000D03*
%TD*%
D10*
%TO.C,R9*%
X80250000Y-86250000D03*
D18*
X72630000Y-86250000D03*
%TD*%
D19*
%TO.C,D1*%
X80070000Y-103650000D03*
D20*
X72450000Y-103650000D03*
%TD*%
D10*
%TO.C,R56*%
X103720000Y-92030000D03*
D18*
X103720000Y-99650000D03*
%TD*%
D10*
%TO.C,R19*%
X125070000Y-75870000D03*
D18*
X132690000Y-75870000D03*
%TD*%
D21*
%TO.C,U4*%
X72900000Y-99300000D03*
D22*
X75440000Y-99300000D03*
X77980000Y-99300000D03*
%TD*%
D15*
%TO.C,J3*%
X128860000Y-61640000D03*
D14*
X134060000Y-69540000D03*
D17*
X131460000Y-68540000D03*
D14*
X124060000Y-66040000D03*
D16*
X124560000Y-72940000D03*
%TD*%
D23*
%TO.C,JP2*%
X54090000Y-114110000D03*
D24*
X56630000Y-114110000D03*
%TD*%
D11*
%TO.C,C11*%
X93710000Y-79640000D03*
D10*
X93710000Y-77140000D03*
%TD*%
%TO.C,R21*%
X105760000Y-89090000D03*
D18*
X113380000Y-89090000D03*
%TD*%
D25*
%TO.C,H2*%
X48000000Y-156000000D03*
%TD*%
D11*
%TO.C,C4*%
X66500000Y-74250000D03*
D10*
X64000000Y-74250000D03*
%TD*%
%TO.C,R23*%
X127550000Y-130570000D03*
D18*
X135170000Y-130570000D03*
%TD*%
D14*
%TO.C,J9*%
X45750000Y-125500000D03*
D15*
X53650000Y-120300000D03*
D16*
X52650000Y-122900000D03*
D15*
X50150000Y-130300000D03*
D17*
X57050000Y-129800000D03*
%TD*%
D10*
%TO.C,R10*%
X72250000Y-90000000D03*
D18*
X79870000Y-90000000D03*
%TD*%
D11*
%TO.C,C10*%
X87540000Y-79690000D03*
D10*
X87540000Y-77190000D03*
%TD*%
D23*
%TO.C,JP1*%
X83935000Y-147128000D03*
D24*
X86475000Y-147128000D03*
%TD*%
D11*
%TO.C,U6*%
X99800000Y-143540000D03*
D18*
X102340000Y-143540000D03*
X104880000Y-143540000D03*
X107420000Y-143540000D03*
X109960000Y-143540000D03*
X112500000Y-143540000D03*
X115040000Y-143540000D03*
X117580000Y-143540000D03*
X117580000Y-135920000D03*
X115040000Y-135920000D03*
X112500000Y-135920000D03*
X109960000Y-135920000D03*
X107420000Y-135920000D03*
X104880000Y-135920000D03*
X102340000Y-135920000D03*
X99800000Y-135920000D03*
%TD*%
D10*
%TO.C,C24*%
X70618000Y-114362000D03*
X75618000Y-114362000D03*
%TD*%
%TO.C,R28*%
X96590000Y-89940000D03*
D18*
X96590000Y-82320000D03*
%TD*%
D10*
%TO.C,R2*%
X68700000Y-85820000D03*
D18*
X68700000Y-78200000D03*
%TD*%
D12*
%TO.C,Q2*%
X105250000Y-127000000D03*
D13*
X105250000Y-129540000D03*
X105250000Y-132080000D03*
%TD*%
D10*
%TO.C,R14*%
X103070000Y-86160000D03*
D18*
X103070000Y-78540000D03*
%TD*%
D10*
%TO.C,R47*%
X86100000Y-150390000D03*
D18*
X86100000Y-158010000D03*
%TD*%
D10*
%TO.C,C12*%
X113210000Y-81070000D03*
X113210000Y-86070000D03*
%TD*%
%TO.C,R16*%
X89980000Y-70880000D03*
D18*
X97600000Y-70880000D03*
%TD*%
D10*
%TO.C,C26*%
X125450000Y-145570000D03*
X120450000Y-145570000D03*
%TD*%
D26*
%TO.C,J5*%
X56902000Y-105472000D03*
D27*
X50902000Y-105472000D03*
D28*
X53902000Y-110172000D03*
%TD*%
D10*
%TO.C,R36*%
X79960000Y-111920000D03*
D18*
X87580000Y-111920000D03*
%TD*%
D10*
%TO.C,C1*%
X61250000Y-91500000D03*
X61250000Y-96500000D03*
%TD*%
%TO.C,C8*%
X83130000Y-81750000D03*
X83130000Y-86750000D03*
%TD*%
%TO.C,C29*%
X91240000Y-142680000D03*
X96240000Y-142680000D03*
%TD*%
D29*
%TO.C,RV6*%
X97790000Y-146558000D03*
D30*
X95290000Y-146558000D03*
X92790000Y-146558000D03*
D31*
X90890000Y-153558000D03*
X99690000Y-153558000D03*
%TD*%
D10*
%TO.C,R52*%
X116560000Y-92010000D03*
D18*
X116560000Y-99630000D03*
%TD*%
D11*
%TO.C,C7*%
X85160000Y-72550000D03*
D10*
X85160000Y-70050000D03*
%TD*%
%TO.C,R11*%
X72250000Y-93500000D03*
D18*
X79870000Y-93500000D03*
%TD*%
D10*
%TO.C,C14*%
X105440000Y-71030000D03*
X105440000Y-76030000D03*
%TD*%
%TO.C,R22*%
X132750000Y-82210000D03*
D18*
X125130000Y-82210000D03*
%TD*%
D25*
%TO.C,H3*%
X140000000Y-64000000D03*
%TD*%
D32*
%TO.C,J1*%
X49000000Y-95540000D03*
D33*
X49000000Y-90460000D03*
%TD*%
D10*
%TO.C,C23*%
X114808000Y-127000000D03*
X114808000Y-132000000D03*
%TD*%
D11*
%TO.C,C2*%
X65830000Y-92610000D03*
D10*
X65830000Y-95110000D03*
%TD*%
%TO.C,R25*%
X76206000Y-111060000D03*
D18*
X68586000Y-111060000D03*
%TD*%
D10*
%TO.C,C18*%
X119710000Y-80890000D03*
X119710000Y-85890000D03*
%TD*%
%TO.C,R39*%
X124340000Y-134690000D03*
D18*
X124340000Y-142310000D03*
%TD*%
D10*
%TO.C,R55*%
X132760000Y-99330000D03*
D18*
X132760000Y-91710000D03*
%TD*%
D10*
%TO.C,C13*%
X109770000Y-78830000D03*
X109770000Y-83830000D03*
%TD*%
%TO.C,C30*%
X103820000Y-146460000D03*
X103820000Y-151460000D03*
%TD*%
D34*
%TO.C,RV1*%
X70250000Y-66000000D03*
D30*
X72750000Y-63000000D03*
D34*
X75250000Y-66000000D03*
D30*
X75250000Y-63000000D03*
D34*
X80250000Y-66000000D03*
D30*
X77750000Y-63000000D03*
%TD*%
D10*
%TO.C,R12*%
X61250000Y-88610000D03*
D18*
X68870000Y-88610000D03*
%TD*%
D10*
%TO.C,R18*%
X116440000Y-88400000D03*
D18*
X116440000Y-80780000D03*
%TD*%
D10*
%TO.C,R40*%
X93250000Y-126750000D03*
D18*
X93250000Y-134370000D03*
%TD*%
D35*
%TO.C,U3*%
X140250000Y-116225000D03*
X140250000Y-110775000D03*
D36*
X137220000Y-111075000D03*
X137220000Y-115925000D03*
D24*
X140380000Y-104610000D03*
D37*
X140380000Y-103710000D03*
D24*
X137840000Y-104610000D03*
D37*
X137840000Y-103710000D03*
D23*
X135300000Y-104610000D03*
D37*
X135300000Y-103710000D03*
D24*
X132760000Y-104610000D03*
D37*
X132760000Y-103710000D03*
D24*
X130220000Y-104610000D03*
D37*
X130220000Y-103710000D03*
X127680000Y-103710000D03*
D24*
X127680000Y-104610000D03*
D37*
X125140000Y-103710000D03*
D24*
X125140000Y-104610000D03*
D37*
X122600000Y-103710000D03*
D23*
X122600000Y-104610000D03*
D37*
X120060000Y-103710000D03*
D24*
X120060000Y-104610000D03*
X117520000Y-104610000D03*
D37*
X117520000Y-103710000D03*
D24*
X114980000Y-104610000D03*
D37*
X114980000Y-103710000D03*
X112440000Y-103710000D03*
D24*
X112440000Y-104610000D03*
D23*
X109900000Y-104610000D03*
D37*
X109900000Y-103710000D03*
D24*
X107360000Y-104610000D03*
D37*
X107360000Y-103710000D03*
X104820000Y-103710000D03*
D24*
X104820000Y-104610000D03*
D37*
X102280000Y-103710000D03*
D24*
X102280000Y-104610000D03*
D37*
X99740000Y-103710000D03*
D24*
X99740000Y-104610000D03*
D23*
X97200000Y-104610000D03*
D37*
X97200000Y-103710000D03*
X94660000Y-103710000D03*
D24*
X94660000Y-104610000D03*
X92120000Y-104610000D03*
D37*
X92120000Y-103710000D03*
X92120000Y-123290000D03*
D24*
X92120000Y-122390000D03*
X94660000Y-122390000D03*
D37*
X94660000Y-123290000D03*
D23*
X97200000Y-122390000D03*
D37*
X97200000Y-123290000D03*
D24*
X99740000Y-122390000D03*
D37*
X99740000Y-123290000D03*
X102280000Y-123290000D03*
D24*
X102280000Y-122390000D03*
D37*
X104820000Y-123290000D03*
D24*
X104820000Y-122390000D03*
D37*
X107360000Y-123290000D03*
D24*
X107360000Y-122390000D03*
D37*
X109900000Y-123290000D03*
D23*
X109900000Y-122390000D03*
D37*
X112440000Y-123290000D03*
D24*
X112440000Y-122390000D03*
D37*
X114980000Y-123290000D03*
D24*
X114980000Y-122390000D03*
X117520000Y-122390000D03*
D37*
X117520000Y-123290000D03*
D24*
X120060000Y-122390000D03*
D37*
X120060000Y-123290000D03*
D23*
X122600000Y-122390000D03*
D37*
X122600000Y-123290000D03*
D24*
X125140000Y-122390000D03*
D37*
X125140000Y-123290000D03*
D24*
X127680000Y-122390000D03*
D37*
X127680000Y-123290000D03*
D24*
X130220000Y-122390000D03*
D37*
X130220000Y-123290000D03*
X132760000Y-123290000D03*
D24*
X132760000Y-122390000D03*
D37*
X135300000Y-123290000D03*
D23*
X135300000Y-122390000D03*
D24*
X137840000Y-122390000D03*
D37*
X137840000Y-123290000D03*
D24*
X140380000Y-122390000D03*
D37*
X140380000Y-123290000D03*
D24*
X92350000Y-110960000D03*
D38*
X91450000Y-110960000D03*
X91450000Y-113500000D03*
D23*
X92350000Y-113500000D03*
D24*
X92350000Y-116040000D03*
D38*
X91450000Y-116040000D03*
%TD*%
D11*
%TO.C,C20*%
X61220000Y-101876000D03*
D10*
X61220000Y-99376000D03*
%TD*%
%TO.C,C31*%
X86140000Y-102910000D03*
X86140000Y-107910000D03*
%TD*%
%TO.C,R8*%
X96570000Y-74010000D03*
D18*
X88950000Y-74010000D03*
%TD*%
D10*
%TO.C,R49*%
X106910000Y-92020000D03*
D18*
X106910000Y-99640000D03*
%TD*%
D10*
%TO.C,R57*%
X100580000Y-90920000D03*
D18*
X100580000Y-98540000D03*
%TD*%
D10*
%TO.C,C25*%
X95750000Y-137250000D03*
X90750000Y-137250000D03*
%TD*%
%TO.C,R41*%
X121160000Y-134660000D03*
D18*
X121160000Y-142280000D03*
%TD*%
D10*
%TO.C,R48*%
X57890000Y-117570000D03*
D18*
X50270000Y-117570000D03*
%TD*%
D10*
%TO.C,R29*%
X96590000Y-92200000D03*
D18*
X96590000Y-99820000D03*
%TD*%
D10*
%TO.C,R1*%
X62100000Y-85820000D03*
D18*
X62100000Y-78200000D03*
%TD*%
D14*
%TO.C,J2*%
X46700000Y-81000000D03*
D15*
X54600000Y-75800000D03*
D16*
X53600000Y-78400000D03*
D15*
X51100000Y-85800000D03*
D17*
X58000000Y-85300000D03*
%TD*%
D10*
%TO.C,R27*%
X72470000Y-107350000D03*
D18*
X80090000Y-107350000D03*
%TD*%
D10*
%TO.C,R35*%
X86930000Y-92300000D03*
D18*
X86930000Y-99920000D03*
%TD*%
D39*
%TO.C,SW2*%
X137730000Y-148670000D03*
X137730000Y-142170000D03*
X142230000Y-142170000D03*
X142230000Y-148670000D03*
%TD*%
%TO.C,SW3*%
X129070000Y-139340000D03*
X129070000Y-145840000D03*
X133570000Y-145840000D03*
X133570000Y-139340000D03*
%TD*%
D10*
%TO.C,R54*%
X126070000Y-92060000D03*
D18*
X126070000Y-99680000D03*
%TD*%
D40*
%TO.C,Brd1*%
X63030000Y-142140000D03*
X84530000Y-118640000D03*
X63030000Y-118640000D03*
X84530000Y-142140000D03*
D41*
X69910000Y-118540000D03*
X72450000Y-118540000D03*
X74990000Y-118540000D03*
X77530000Y-118540000D03*
%TD*%
D10*
%TO.C,R33*%
X90130000Y-92270000D03*
D18*
X90130000Y-99890000D03*
%TD*%
D11*
%TO.C,C5*%
X53050000Y-70950000D03*
D10*
X50550000Y-70950000D03*
%TD*%
%TO.C,R5*%
X66460000Y-63300000D03*
D18*
X58840000Y-63300000D03*
%TD*%
D29*
%TO.C,RV5*%
X77730000Y-146620000D03*
D30*
X75230000Y-146620000D03*
X72730000Y-146620000D03*
D31*
X70830000Y-153620000D03*
X79630000Y-153620000D03*
%TD*%
D10*
%TO.C,R26*%
X60460000Y-106430000D03*
D18*
X60460000Y-114050000D03*
%TD*%
D11*
%TO.C,C16*%
X86874000Y-64832000D03*
D10*
X84374000Y-64832000D03*
%TD*%
%TO.C,R4*%
X58000000Y-97000000D03*
D18*
X58000000Y-89380000D03*
%TD*%
D11*
%TO.C,U1*%
X73000000Y-78800000D03*
D18*
X75540000Y-78800000D03*
X78080000Y-78800000D03*
X80620000Y-78800000D03*
X80620000Y-71180000D03*
X78080000Y-71180000D03*
X75540000Y-71180000D03*
X73000000Y-71180000D03*
%TD*%
D10*
%TO.C,R45*%
X113410000Y-92000000D03*
D18*
X113410000Y-99620000D03*
%TD*%
D10*
%TO.C,R7*%
X66440000Y-66430000D03*
D18*
X58820000Y-66430000D03*
%TD*%
D11*
%TO.C,C19*%
X64770000Y-106240000D03*
D10*
X64770000Y-103740000D03*
%TD*%
%TO.C,R3*%
X54750000Y-97000000D03*
D18*
X54750000Y-89380000D03*
%TD*%
D10*
%TO.C,R38*%
X90000000Y-126750000D03*
D18*
X90000000Y-134370000D03*
%TD*%
D42*
%TO.C,J6*%
X139810000Y-97215000D03*
X139810000Y-72215000D03*
D11*
X137760000Y-80400000D03*
D10*
X137760000Y-82690000D03*
X137760000Y-84980000D03*
X137760000Y-87270000D03*
X137760000Y-89560000D03*
X139740000Y-79255000D03*
X139740000Y-81545000D03*
X139740000Y-83835000D03*
X139740000Y-86125000D03*
X139740000Y-88415000D03*
X141720000Y-80400000D03*
X141720000Y-82690000D03*
X141720000Y-84980000D03*
X141720000Y-87270000D03*
X141720000Y-89560000D03*
%TD*%
D39*
%TO.C,SW4*%
X129220000Y-158030000D03*
X129220000Y-151530000D03*
X133720000Y-151530000D03*
X133720000Y-158030000D03*
%TD*%
%TO.C,SW5*%
X121320000Y-151610000D03*
X121320000Y-158110000D03*
X125820000Y-151610000D03*
X125820000Y-158110000D03*
%TD*%
D10*
%TO.C,R17*%
X108680000Y-68140000D03*
D18*
X108680000Y-75760000D03*
%TD*%
D10*
%TO.C,R37*%
X87610000Y-115050000D03*
D18*
X79990000Y-115050000D03*
%TD*%
D10*
%TO.C,R20*%
X132770000Y-79040000D03*
D18*
X125150000Y-79040000D03*
%TD*%
D10*
%TO.C,R43*%
X125222000Y-130500000D03*
D18*
X117602000Y-130500000D03*
%TD*%
D11*
%TO.C,C32*%
X79610000Y-123234888D03*
D10*
X79610000Y-125734888D03*
%TD*%
%TO.C,R32*%
X90290000Y-89980000D03*
D18*
X90290000Y-82360000D03*
%TD*%
D10*
%TO.C,C6*%
X69500000Y-69750000D03*
X64500000Y-69750000D03*
%TD*%
%TO.C,R6*%
X65390000Y-78190000D03*
D18*
X65390000Y-85810000D03*
%TD*%
D10*
%TO.C,R58*%
X85020000Y-123450000D03*
D18*
X85020000Y-131070000D03*
%TD*%
D25*
%TO.C,H4*%
X48000000Y-64000000D03*
%TD*%
D12*
%TO.C,Q1*%
X100280000Y-127000000D03*
D13*
X100280000Y-129540000D03*
X100280000Y-132080000D03*
%TD*%
D10*
%TO.C,R13*%
X99870000Y-78510000D03*
D18*
X99870000Y-86130000D03*
%TD*%
D10*
%TO.C,R30*%
X93420000Y-89960000D03*
D18*
X93420000Y-82340000D03*
%TD*%
D12*
%TO.C,U5*%
X65306000Y-115124000D03*
D13*
X65306000Y-112584000D03*
X65306000Y-110044000D03*
%TD*%
D25*
%TO.C,H1*%
X140000000Y-156000000D03*
%TD*%
D10*
%TO.C,R44*%
X125222000Y-127254000D03*
D18*
X117602000Y-127254000D03*
%TD*%
D10*
%TO.C,R34*%
X87120000Y-90000000D03*
D18*
X87120000Y-82380000D03*
%TD*%
D10*
%TO.C,C21*%
X69230000Y-102830000D03*
X69230000Y-107830000D03*
%TD*%
D11*
%TO.C,U2*%
X113160000Y-78010000D03*
D18*
X115700000Y-78010000D03*
X118240000Y-78010000D03*
X120780000Y-78010000D03*
X120780000Y-70390000D03*
X118240000Y-70390000D03*
X115700000Y-70390000D03*
X113160000Y-70390000D03*
%TD*%
D11*
%TO.C,D2*%
X82950000Y-107480000D03*
D18*
X82950000Y-99860000D03*
%TD*%
D10*
%TO.C,R31*%
X93380000Y-92230000D03*
D18*
X93380000Y-99850000D03*
%TD*%
D10*
%TO.C,C28*%
X66808000Y-151140000D03*
X66808000Y-146140000D03*
%TD*%
D11*
%TO.C,C33*%
X79500000Y-130990000D03*
D10*
X79500000Y-133490000D03*
%TD*%
D11*
%TO.C,C17*%
X126885113Y-86750000D03*
D10*
X124385113Y-86750000D03*
%TD*%
D29*
%TO.C,RV4*%
X60706000Y-146558000D03*
D30*
X58206000Y-146558000D03*
X55706000Y-146558000D03*
D31*
X53806000Y-153558000D03*
X62606000Y-153558000D03*
%TD*%
D10*
%TO.C,C9*%
X73750000Y-82500000D03*
X78750000Y-82500000D03*
%TD*%
%TO.C,R53*%
X129290000Y-92060000D03*
D18*
X129290000Y-99680000D03*
%TD*%
D10*
%TO.C,C3*%
X60990000Y-72250000D03*
X55990000Y-72250000D03*
%TD*%
%TO.C,R42*%
X96500000Y-126750000D03*
D18*
X96500000Y-134370000D03*
%TD*%
D10*
%TO.C,R24*%
X82970000Y-97350000D03*
D18*
X82970000Y-89730000D03*
%TD*%
D32*
%TO.C,J4*%
X118130000Y-64450000D03*
D33*
X113050000Y-64450000D03*
%TD*%
D10*
%TO.C,R50*%
X122900000Y-92050000D03*
D18*
X122900000Y-99670000D03*
%TD*%
D10*
%TO.C,R15*%
X106420000Y-86340000D03*
D18*
X106420000Y-78720000D03*
%TD*%
D10*
%TO.C,C27*%
X45230000Y-147080000D03*
X50230000Y-147080000D03*
%TD*%
D34*
%TO.C,RV2*%
X93220000Y-65980000D03*
D30*
X95720000Y-62980000D03*
D34*
X98220000Y-65980000D03*
D30*
X98220000Y-62980000D03*
X100720000Y-62980000D03*
D34*
X103220000Y-65980000D03*
%TD*%
D10*
%TO.C,R51*%
X119740000Y-92040000D03*
D18*
X119740000Y-99660000D03*
%TD*%
D39*
%TO.C,SW1*%
X137770000Y-138820000D03*
X137770000Y-132320000D03*
X142270000Y-132320000D03*
X142270000Y-138820000D03*
%TD*%
D29*
%TO.C,RV3*%
X114808000Y-146558000D03*
D30*
X112308000Y-146558000D03*
X109808000Y-146558000D03*
D31*
X116708000Y-153558000D03*
X107908000Y-153558000D03*
%TD*%
M02*
