M48
; DRILL file {KiCad (6.0.11)} date Tue Dec 26 22:42:27 2023
; FORMAT={-:-/ absolute / inch / decimal}
; #@! TF.CreationDate,2023-12-26T22:42:27-06:00
; #@! TF.GenerationSoftware,Kicad,Pcbnew,(6.0.11)
; #@! TF.FileFunction,Plated,1,2,PTH
FMAT,2
INCH
; #@! TA.AperFunction,Plated,PTH,ViaDrill
T1C0.0157
; #@! TA.AperFunction,Plated,PTH,ComponentDrill
T2C0.0295
; #@! TA.AperFunction,Plated,PTH,ComponentDrill
T3C0.0315
; #@! TA.AperFunction,Plated,PTH,ComponentDrill
T4C0.0394
; #@! TA.AperFunction,Plated,PTH,ComponentDrill
T5C0.0402
; #@! TA.AperFunction,Plated,PTH,ComponentDrill
T6C0.0433
; #@! TA.AperFunction,Plated,PTH,ComponentDrill
T7C0.0472
; #@! TA.AperFunction,Plated,PTH,ComponentDrill
T8C0.0598
; #@! TA.AperFunction,Plated,PTH,ComponentDrill
T9C0.0709
; #@! TA.AperFunction,Plated,PTH,ComponentDrill
T10C0.1260
%
G90
G05
T1
X3.9796Y-5.4394
X4.0189Y-4.7315
X4.0854Y-5.4472
X4.0858Y-4.261
X4.1354Y-4.2945
X4.1555Y-5.4457
X4.3425Y-5.4769
X4.4732Y-5.452
X4.5815Y-5.4815
X4.5984Y-4.5327
X4.7988Y-4.5437
X4.8327Y-4.6173
X4.9035Y-4.585
X5.6201Y-3.6437
T3
X1.7807Y-5.7906
X1.9776Y-5.7906
X1.9791Y-4.6287
X1.9902Y-2.7933
X2.0886Y-2.7933
X2.1555Y-3.5189
X2.1555Y-3.8189
X2.2043Y-2.8445
X2.2791Y-4.6287
X2.2835Y-3.5189
X2.2835Y-3.8189
X2.3157Y-2.6154
X2.3165Y-2.4921
X2.3803Y-4.1902
X2.3803Y-4.4902
X2.4012Y-2.8445
X2.4102Y-3.9124
X2.4102Y-4.0109
X2.4114Y-3.4886
X2.4114Y-3.6024
X2.4114Y-3.7992
X2.4449Y-3.0787
X2.4449Y-3.3787
X2.5197Y-2.9232
X2.5394Y-2.7461
X2.55Y-4.0843
X2.55Y-4.1827
X2.5711Y-4.3324
X2.5711Y-4.4324
X2.5711Y-4.5324
X2.5744Y-3.0783
X2.5744Y-3.3783
X2.5917Y-3.6461
X2.5917Y-3.7445
X2.6157Y-2.6154
X2.6165Y-2.4921
X2.6181Y-2.9232
X2.6302Y-5.7535
X2.6302Y-5.9504
X2.7002Y-4.3724
X2.7047Y-3.0787
X2.7047Y-3.3787
X2.7114Y-3.4886
X2.7256Y-4.0484
X2.7256Y-4.2453
X2.7362Y-2.7461
X2.7802Y-4.5024
X2.8445Y-3.5433
X2.8445Y-3.6811
X2.8531Y-4.2264
X2.8594Y-3.3957
X2.874Y-2.8024
X2.874Y-3.1024
X2.9035Y-3.248
X2.974Y-2.8024
X2.974Y-3.1024
X2.9771Y-4.5024
X3.0002Y-4.3724
X3.074Y-2.8024
X3.074Y-3.1024
X3.1004Y-3.248
X3.1299Y-5.1571
X3.1299Y-5.2555
X3.1343Y-4.8518
X3.1343Y-4.9502
X3.1445Y-3.5433
X3.1445Y-3.6811
X3.148Y-4.4063
X3.1492Y-4.5295
X3.1531Y-4.2264
X3.1594Y-3.3957
X3.174Y-2.8024
X3.174Y-3.1024
X3.2657Y-3.9315
X3.2657Y-4.2315
X3.2665Y-3.5327
X3.2665Y-3.8327
X3.2728Y-3.2185
X3.2728Y-3.4154
X3.3218Y-2.5524
X3.3472Y-4.8602
X3.3472Y-5.1602
X3.3528Y-2.7579
X3.3528Y-2.8563
X3.3898Y-5.9209
X3.3898Y-6.2209
X3.3913Y-4.0516
X3.3913Y-4.2484
X3.4202Y-2.5524
X3.4224Y-3.6339
X3.4224Y-3.9339
X3.4299Y-3.2433
X3.4299Y-3.5433
X3.4465Y-3.039
X3.4465Y-3.1374
X3.448Y-4.4063
X3.4492Y-4.5295
X3.502Y-2.9138
X3.5425Y-2.7906
X3.5433Y-4.9902
X3.5433Y-5.2902
X3.5484Y-3.6327
X3.5484Y-3.9327
X3.5547Y-3.2425
X3.5547Y-3.5425
X3.5728Y-5.4035
X3.5921Y-5.6173
X3.6713Y-4.9902
X3.6713Y-5.2902
X3.6764Y-3.6311
X3.6764Y-3.9311
X3.678Y-3.2417
X3.678Y-3.5417
X3.6894Y-3.037
X3.6894Y-3.1354
X3.7697Y-5.4035
X3.789Y-5.6173
X3.7992Y-4.9902
X3.7992Y-5.2902
X3.802Y-2.9138
X3.8028Y-3.2409
X3.8028Y-3.5409
X3.8028Y-3.6299
X3.8028Y-3.9299
X3.8425Y-2.7906
X3.9291Y-5.3512
X3.9291Y-5.6512
X3.9319Y-3.0909
X3.9319Y-3.3909
X3.948Y-5.0
X3.948Y-5.1
X3.948Y-5.2
X3.9598Y-3.5795
X3.9598Y-3.8795
X3.9702Y-2.8815
X3.9702Y-2.9799
X4.0291Y-5.3512
X4.0291Y-5.6512
X4.0579Y-3.0921
X4.0579Y-3.3921
X4.0835Y-3.6232
X4.0835Y-3.9232
X4.0874Y-5.7661
X4.0874Y-5.963
X4.1291Y-5.3512
X4.1291Y-5.6512
X4.1437Y-5.0
X4.1437Y-5.1
X4.1437Y-5.2
X4.1512Y-2.7965
X4.1512Y-2.9933
X4.1638Y-3.5075
X4.1898Y-3.0992
X4.1898Y-3.3992
X4.2091Y-3.6228
X4.2091Y-3.9228
X4.2291Y-5.3512
X4.2291Y-5.6512
X4.2787Y-2.6827
X4.2787Y-2.9827
X4.3217Y-3.1035
X4.3217Y-3.3004
X4.3291Y-5.3512
X4.3291Y-5.6512
X4.3335Y-3.6228
X4.3335Y-3.9228
X4.3362Y-5.0
X4.3362Y-5.1
X4.3362Y-5.2
X4.4291Y-5.3512
X4.4291Y-5.6512
X4.4551Y-2.7713
X4.4551Y-3.0713
X4.4571Y-3.1917
X4.4571Y-3.3886
X4.4638Y-3.5075
X4.465Y-3.622
X4.465Y-3.922
X4.52Y-5.0
X4.52Y-5.1969
X4.5291Y-5.3512
X4.5291Y-5.6512
X4.5551Y-2.7713
X4.5551Y-3.0713
X4.5843Y-3.1803
X4.5843Y-3.4803
X4.589Y-3.6224
X4.589Y-3.9224
X4.6291Y-5.3512
X4.6291Y-5.6512
X4.63Y-5.01
X4.63Y-5.1378
X4.6551Y-2.7713
X4.6551Y-3.0713
X4.713Y-3.1846
X4.713Y-3.3815
X4.7142Y-3.6236
X4.7142Y-3.9236
X4.7421Y-5.7311
X4.7551Y-2.7713
X4.7551Y-3.0713
X4.7701Y-5.3016
X4.7701Y-5.6016
X4.8386Y-3.624
X4.8386Y-3.924
X4.8953Y-5.3028
X4.8953Y-5.6028
X4.8971Y-3.4154
X4.924Y-2.987
X4.9264Y-3.2366
X4.9272Y-3.1118
X4.93Y-5.01
X4.93Y-5.1378
X4.939Y-5.7311
X4.9634Y-3.6244
X4.9634Y-3.9244
X4.9955Y-3.4154
X5.0217Y-5.1406
X5.0231Y-5.01
X5.0902Y-3.6244
X5.0902Y-3.9244
X5.22Y-5.01
X5.224Y-2.987
X5.2264Y-3.2366
X5.2268Y-3.6106
X5.2268Y-3.9106
X5.2272Y-3.1118
X5.3217Y-5.1406
T4
X2.1295Y-4.4925
X2.1931Y-5.77
X2.2295Y-4.4925
X2.2916Y-5.77
X2.39Y-5.77
X2.7524Y-4.6669
X2.8524Y-4.6669
X2.8634Y-5.7724
X2.8642Y-2.4803
X2.9524Y-4.6669
X2.9618Y-5.7724
X2.9626Y-2.4803
X3.0524Y-4.6669
X3.0602Y-5.7724
X3.061Y-2.4803
X3.3045Y-5.7924
X3.4045Y-5.7924
X3.6531Y-5.77
X3.7516Y-5.77
X3.7685Y-2.4795
X3.85Y-5.77
X3.8669Y-2.4795
X3.9654Y-2.4795
X4.3231Y-5.77
X4.4216Y-5.77
X4.52Y-5.77
X5.4236Y-3.1654
X5.4236Y-3.2555
X5.4236Y-3.3457
X5.4236Y-3.4358
X5.4236Y-3.526
X5.5016Y-3.1203
X5.5016Y-3.2104
X5.5016Y-3.3006
X5.5016Y-3.3907
X5.5016Y-3.4809
X5.5795Y-3.1654
X5.5795Y-3.2555
X5.5795Y-3.3457
X5.5795Y-3.4358
X5.5795Y-3.526
T5
X3.6268Y-4.1185
X3.6268Y-4.8185
X3.6358Y-4.3685
X3.6358Y-4.4685
X3.6358Y-4.5685
X3.7268Y-4.1185
X3.7268Y-4.8185
X3.8268Y-4.1185
X3.8268Y-4.8185
X3.9268Y-4.1185
X3.9268Y-4.8185
X4.0268Y-4.1185
X4.0268Y-4.8185
X4.1268Y-4.1185
X4.1268Y-4.8185
X4.2268Y-4.1185
X4.2268Y-4.8185
X4.3268Y-4.1185
X4.3268Y-4.8185
X4.4268Y-4.1185
X4.4268Y-4.8185
X4.5268Y-4.1185
X4.5268Y-4.8185
X4.6268Y-4.1185
X4.6268Y-4.8185
X4.7268Y-4.1185
X4.7268Y-4.8185
X4.8268Y-4.1185
X4.8268Y-4.8185
X4.9268Y-4.1185
X4.9268Y-4.8185
X5.0268Y-4.1185
X5.0268Y-4.8185
X5.1268Y-4.1185
X5.1268Y-4.8185
X5.2268Y-4.1185
X5.2268Y-4.8185
X5.3268Y-4.1185
X5.3268Y-4.8185
X5.4268Y-4.1185
X5.4268Y-4.8185
X5.5268Y-4.1185
X5.5268Y-4.8185
T6
X2.8524Y-4.0807
X2.8701Y-3.9094
X2.9701Y-3.9094
X3.0701Y-3.9094
X3.1524Y-4.0807
X4.7764Y-5.9689
X4.7764Y-6.2248
X4.9535Y-5.9689
X4.9535Y-6.2248
X5.0815Y-5.4858
X5.0815Y-5.7417
X5.0874Y-5.9657
X5.0874Y-6.2217
X5.2587Y-5.4858
X5.2587Y-5.7417
X5.2646Y-5.9657
X5.2646Y-6.2217
X5.4224Y-5.5972
X5.4224Y-5.8531
X5.424Y-5.2094
X5.424Y-5.4654
X5.5996Y-5.5972
X5.5996Y-5.8531
X5.6012Y-5.2094
X5.6012Y-5.4654
T7
X2.7657Y-2.5984
X2.9626Y-2.5984
X3.1594Y-2.5984
X3.6701Y-2.5976
X3.8669Y-2.5976
X4.0638Y-2.5976
T8
X1.9291Y-3.5614
X1.9291Y-3.7614
X4.4508Y-2.5374
X4.6508Y-2.5374
T10
X5.5043Y-2.8431
X5.5043Y-3.8274
T2
G00X1.8Y-5.4711
M15
G01X1.8Y-5.4415
M16
G05
G00X1.8012Y-4.9557
M15
G01X1.8012Y-4.9262
M16
G05
G00X1.8386Y-3.2037
M15
G01X1.8386Y-3.1742
M16
G05
G00X1.9585Y-5.6453
M15
G01X1.988Y-5.6453
M16
G05
G00X1.9596Y-5.1299
M15
G01X1.9892Y-5.1299
M16
G05
G00X1.997Y-3.378
M15
G01X2.0266Y-3.378
M16
G05
G00X2.0963Y-5.2516
M15
G01X2.1258Y-5.2516
M16
G05
G00X2.0974Y-4.7362
M15
G01X2.127Y-4.7362
M16
G05
G00X2.1348Y-2.9843
M15
G01X2.1644Y-2.9843
M16
G05
G00X4.8843Y-2.5852
M15
G01X4.8843Y-2.6148
M16
G05
G00X5.0585Y-2.4268
M15
G01X5.088Y-2.4268
M16
G05
G00X5.278Y-2.723
M15
G01X5.278Y-2.7526
M16
G05
T4
G00X2.004Y-4.1131
M15
G01X2.004Y-4.1918
M16
G05
G00X2.0618Y-5.3539
M15
G01X2.0815Y-5.3539
M16
G05
G00X2.063Y-4.8386
M15
G01X2.0827Y-4.8386
M16
G05
G00X2.1004Y-3.0866
M15
G01X2.1201Y-3.0866
M16
G05
G00X2.0828Y-4.3375
M15
G01X2.1615Y-4.3375
M16
G05
G00X2.2402Y-4.1131
M15
G01X2.2402Y-4.1918
M16
G05
G00X2.2449Y-5.6354
M15
G01X2.2449Y-5.6157
M16
G05
G00X2.2461Y-5.1201
M15
G01X2.2461Y-5.1004
M16
G05
G00X2.2835Y-3.3681
M15
G01X2.2835Y-3.3484
M16
G05
G00X4.8941Y-2.8717
M15
G01X4.9138Y-2.8717
M16
G05
G00X5.1756Y-2.6886
M15
G01X5.1756Y-2.7083
M16
G05
T9
G00X2.1183Y-6.0397
M15
G01X2.1183Y-6.0515
M16
G05
G00X2.4648Y-6.0397
M15
G01X2.4648Y-6.0515
M16
G05
G00X2.7886Y-6.0421
M15
G01X2.7886Y-6.0539
M16
G05
G00X3.135Y-6.0421
M15
G01X3.135Y-6.0539
M16
G05
G00X3.5783Y-6.0397
M15
G01X3.5783Y-6.0515
M16
G05
G00X3.9248Y-6.0397
M15
G01X3.9248Y-6.0515
M16
G05
G00X4.2483Y-6.0397
M15
G01X4.2483Y-6.0515
M16
G05
G00X4.5948Y-6.0397
M15
G01X4.5948Y-6.0515
M16
G05
T0
M30
