M48
; DRILL file {KiCad (6.0.11)} date Sat Sep  2 06:50:00 2023
; FORMAT={-:-/ absolute / inch / decimal}
; #@! TF.CreationDate,2023-09-02T06:50:00-05:00
; #@! TF.GenerationSoftware,Kicad,Pcbnew,(6.0.11)
; #@! TF.FileFunction,Plated,1,2,PTH
FMAT,2
INCH
; #@! TA.AperFunction,Plated,PTH,ViaDrill
T1C0.0157
; #@! TA.AperFunction,Plated,PTH,ComponentDrill
T2C0.0295
; #@! TA.AperFunction,Plated,PTH,ComponentDrill
T3C0.0315
; #@! TA.AperFunction,Plated,PTH,ComponentDrill
T4C0.0394
; #@! TA.AperFunction,Plated,PTH,ComponentDrill
T5C0.0402
; #@! TA.AperFunction,Plated,PTH,ComponentDrill
T6C0.0433
; #@! TA.AperFunction,Plated,PTH,ComponentDrill
T7C0.0472
; #@! TA.AperFunction,Plated,PTH,ComponentDrill
T8C0.0598
; #@! TA.AperFunction,Plated,PTH,ComponentDrill
T9C0.0709
%
G90
G05
T1
X3.9796Y-5.4394
X4.0854Y-5.4472
X4.1555Y-5.4457
X4.3425Y-5.4769
X4.4717Y-4.5457
X4.4732Y-5.452
X4.4843Y-4.6087
X4.5815Y-5.4815
X4.6752Y-4.685
X4.7858Y-4.2543
X4.9224Y-4.2362
X5.0177Y-4.2429
X5.1374Y-4.2309
X5.2835Y-4.237
T3
X1.7807Y-5.7906
X1.9764Y-4.6583
X1.9776Y-5.7906
X2.1555Y-3.5189
X2.1555Y-3.8189
X2.2764Y-4.6583
X2.2835Y-3.5189
X2.2835Y-3.8189
X2.3902Y-4.2354
X2.3902Y-4.5354
X2.4016Y-2.6378
X2.4016Y-2.8346
X2.4102Y-3.9124
X2.4102Y-4.0109
X2.4114Y-3.4843
X2.4114Y-3.6024
X2.4114Y-3.7992
X2.4409Y-3.076
X2.4409Y-3.376
X2.5197Y-2.9232
X2.5394Y-2.7461
X2.55Y-4.0843
X2.55Y-4.1827
X2.5711Y-4.3324
X2.5711Y-4.4324
X2.5711Y-4.5324
X2.5886Y-3.0807
X2.5886Y-3.3807
X2.5984Y-3.6319
X2.5984Y-3.7303
X2.6181Y-2.9232
X2.6302Y-5.7535
X2.6302Y-5.9504
X2.6969Y-4.2424
X2.7002Y-4.3724
X2.7114Y-3.4843
X2.7264Y-3.076
X2.7264Y-3.376
X2.7362Y-2.7461
X2.7434Y-4.1024
X2.7802Y-4.5024
X2.8445Y-3.5433
X2.8445Y-3.6811
X2.8594Y-3.3957
X2.874Y-2.8024
X2.874Y-3.1024
X2.9035Y-3.248
X2.9402Y-4.1024
X2.974Y-2.8024
X2.974Y-3.1024
X2.9771Y-4.5024
X2.9969Y-4.2424
X3.0002Y-4.3724
X3.074Y-2.8024
X3.074Y-3.1024
X3.1004Y-3.248
X3.1102Y-4.374
X3.1102Y-4.4961
X3.1445Y-3.5433
X3.1445Y-3.6811
X3.1594Y-3.3957
X3.174Y-2.8024
X3.174Y-3.1024
X3.2776Y-3.2185
X3.2776Y-3.4154
X3.2795Y-3.9087
X3.2795Y-4.2087
X3.3169Y-2.4756
X3.3169Y-2.7756
X3.3563Y-2.9018
X3.3563Y-3.0002
X3.3898Y-5.9209
X3.3898Y-6.2209
X3.3957Y-3.637
X3.3957Y-3.937
X3.4102Y-4.374
X3.4102Y-4.4961
X3.4449Y-2.4705
X3.4449Y-2.7705
X3.5236Y-3.6319
X3.5236Y-3.9319
X3.5433Y-4.9902
X3.5433Y-5.2902
X3.5728Y-5.4035
X3.5827Y-2.9035
X3.5827Y-3.002
X3.5921Y-5.6173
X3.5925Y-3.3661
X3.5925Y-3.4646
X3.6516Y-3.6319
X3.6516Y-3.9319
X3.6713Y-4.9902
X3.6713Y-5.2902
X3.7697Y-2.724
X3.7697Y-3.024
X3.7697Y-5.4035
X3.7795Y-3.6319
X3.7795Y-3.9319
X3.789Y-5.6173
X3.7992Y-4.9902
X3.7992Y-5.2902
X3.8189Y-3.3661
X3.8189Y-3.4646
X3.9043Y-2.7264
X3.9043Y-3.0264
X3.9075Y-3.6295
X3.9075Y-3.9295
X3.9291Y-5.3512
X3.9291Y-5.6512
X3.948Y-5.0
X3.948Y-5.1
X3.948Y-5.2
X3.9665Y-2.5098
X3.9665Y-2.6083
X4.0059Y-3.4252
X4.0291Y-5.3512
X4.0291Y-5.6512
X4.0354Y-3.6295
X4.0354Y-3.9295
X4.0846Y-2.9134
X4.0846Y-3.0118
X4.0874Y-5.7661
X4.0874Y-5.963
X4.1291Y-5.3512
X4.1291Y-5.6512
X4.1437Y-5.0
X4.1437Y-5.1
X4.1437Y-5.2
X4.1535Y-2.4705
X4.1535Y-2.6673
X4.1634Y-3.6295
X4.1634Y-3.9295
X4.2291Y-5.3512
X4.2291Y-5.6512
X4.2815Y-2.7756
X4.2815Y-3.0756
X4.2913Y-3.6295
X4.2913Y-3.9295
X4.3059Y-3.4252
X4.3291Y-5.3512
X4.3291Y-5.6512
X4.3362Y-5.0
X4.3362Y-5.1
X4.3362Y-5.2
X4.4047Y-3.5039
X4.4071Y-3.376
X4.4094Y-3.248
X4.4193Y-3.6272
X4.4193Y-3.9272
X4.4291Y-5.3512
X4.4291Y-5.6512
X4.4587Y-2.8004
X4.4587Y-3.1004
X4.52Y-5.0
X4.52Y-5.1969
X4.5291Y-5.3512
X4.5291Y-5.6512
X4.5354Y-3.7677
X4.5587Y-2.8004
X4.5587Y-3.1004
X4.6063Y-3.248
X4.6291Y-5.3512
X4.6291Y-5.6512
X4.63Y-5.01
X4.63Y-5.1378
X4.6587Y-2.8004
X4.6587Y-3.1004
X4.7047Y-3.5039
X4.7071Y-3.376
X4.7323Y-3.7677
X4.7421Y-5.7311
X4.7587Y-2.8004
X4.7587Y-3.1004
X4.7701Y-5.3016
X4.7701Y-5.6016
X4.8228Y-3.3169
X4.8228Y-3.5138
X4.8663Y-3.6929
X4.8953Y-5.3028
X4.8953Y-5.6028
X4.9213Y-2.4165
X4.9213Y-2.7165
X4.9213Y-2.8224
X4.9213Y-3.1224
X4.93Y-5.01
X4.93Y-5.1378
X4.939Y-5.7311
X4.9606Y-3.2185
X4.9606Y-3.5185
X4.9648Y-3.6929
X5.0217Y-5.1406
X5.0231Y-5.01
X5.0886Y-3.4622
X5.0886Y-3.7622
X5.22Y-5.01
X5.2264Y-3.4622
X5.2264Y-3.7622
X5.3217Y-5.1406
T4
X2.1311Y-4.5236
X2.1931Y-5.77
X2.2311Y-4.5236
X2.2916Y-5.77
X2.39Y-5.77
X2.7524Y-4.6669
X2.8524Y-4.6669
X2.8634Y-5.7724
X2.8642Y-2.4803
X2.9524Y-4.6669
X2.9618Y-5.7724
X2.9626Y-2.4803
X3.0524Y-4.6669
X3.0602Y-5.7724
X3.061Y-2.4803
X3.3045Y-5.7924
X3.4045Y-5.7924
X3.6531Y-5.77
X3.7516Y-5.77
X3.85Y-5.77
X4.3231Y-5.77
X4.4094Y-2.4803
X4.4216Y-5.77
X4.5079Y-2.4803
X4.52Y-5.77
X4.6063Y-2.4803
T5
X3.6268Y-4.1185
X3.6268Y-4.8185
X3.6358Y-4.3685
X3.6358Y-4.4685
X3.6358Y-4.5685
X3.7268Y-4.1185
X3.7268Y-4.8185
X3.8268Y-4.1185
X3.8268Y-4.8185
X3.9268Y-4.1185
X3.9268Y-4.8185
X4.0268Y-4.1185
X4.0268Y-4.8185
X4.1268Y-4.1185
X4.1268Y-4.8185
X4.2268Y-4.1185
X4.2268Y-4.8185
X4.3268Y-4.1185
X4.3268Y-4.8185
X4.4268Y-4.1185
X4.4268Y-4.8185
X4.5268Y-4.1185
X4.5268Y-4.8185
X4.6268Y-4.1185
X4.6268Y-4.8185
X4.7268Y-4.1185
X4.7268Y-4.8185
X4.8268Y-4.1185
X4.8268Y-4.8185
X4.9268Y-4.1185
X4.9268Y-4.8185
X5.0268Y-4.1185
X5.0268Y-4.8185
X5.1268Y-4.1185
X5.1268Y-4.8185
X5.2268Y-4.1185
X5.2268Y-4.8185
X5.3268Y-4.1185
X5.3268Y-4.8185
X5.4268Y-4.1185
X5.4268Y-4.8185
X5.5268Y-4.1185
X5.5268Y-4.8185
T6
X2.748Y-3.9724
X2.848Y-3.9724
X2.948Y-3.9724
X3.1299Y-3.8924
X3.1299Y-4.1924
X4.7764Y-5.9689
X4.7764Y-6.2248
X4.9535Y-5.9689
X4.9535Y-6.2248
X5.0874Y-5.9657
X5.0874Y-6.2217
X5.0992Y-5.3945
X5.0992Y-5.6504
X5.2646Y-5.9657
X5.2646Y-6.2217
X5.2764Y-5.3945
X5.2764Y-5.6504
X5.4224Y-5.5972
X5.4224Y-5.8531
X5.424Y-5.2094
X5.424Y-5.4654
X5.5996Y-5.5972
X5.5996Y-5.8531
X5.6012Y-5.2094
X5.6012Y-5.4654
T7
X2.7657Y-2.5984
X2.9626Y-2.5984
X3.1594Y-2.5984
X4.311Y-2.5984
X4.5079Y-2.5984
X4.7047Y-2.5984
T8
X1.9291Y-3.5614
X1.9291Y-3.7614
X5.4724Y-3.522
X5.4724Y-3.722
T2
G00X1.8Y-5.4711
M15
G01X1.8Y-5.4415
M16
G05
G00X1.8028Y-4.9781
M15
G01X1.8028Y-4.9486
M16
G05
G00X1.8386Y-3.2037
M15
G01X1.8386Y-3.1742
M16
G05
G00X1.9585Y-5.6453
M15
G01X1.988Y-5.6453
M16
G05
G00X1.9612Y-5.1524
M15
G01X1.9907Y-5.1524
M16
G05
G00X1.997Y-3.378
M15
G01X2.0266Y-3.378
M16
G05
G00X2.0963Y-5.2516
M15
G01X2.1258Y-5.2516
M16
G05
G00X2.099Y-4.7587
M15
G01X2.1285Y-4.7587
M16
G05
G00X2.1348Y-2.9843
M15
G01X2.1644Y-2.9843
M16
G05
G00X5.2667Y-3.3543
M15
G01X5.2372Y-3.3543
M16
G05
G00X5.4045Y-2.9606
M15
G01X5.375Y-2.9606
M16
G05
G00X5.563Y-3.1348
M15
G01X5.563Y-3.1644
M16
G05
T4
G00X2.004Y-4.1131
M15
G01X2.004Y-4.1918
M16
G05
G00X2.0618Y-5.3539
M15
G01X2.0815Y-5.3539
M16
G05
G00X2.0646Y-4.861
M15
G01X2.0843Y-4.861
M16
G05
G00X2.1004Y-3.0866
M15
G01X2.1201Y-3.0866
M16
G05
G00X2.0828Y-4.3375
M15
G01X2.1615Y-4.3375
M16
G05
G00X2.2402Y-4.1131
M15
G01X2.2402Y-4.1918
M16
G05
G00X2.2449Y-5.6354
M15
G01X2.2449Y-5.6157
M16
G05
G00X2.2476Y-5.1425
M15
G01X2.2476Y-5.1228
M16
G05
G00X2.2835Y-3.3681
M15
G01X2.2835Y-3.3484
M16
G05
G00X5.1181Y-2.9705
M15
G01X5.1181Y-2.9902
M16
G05
G00X5.3012Y-3.252
M15
G01X5.2815Y-3.252
M16
G05
T9
G00X2.1183Y-6.0397
M15
G01X2.1183Y-6.0515
M16
G05
G00X2.4648Y-6.0397
M15
G01X2.4648Y-6.0515
M16
G05
G00X2.7886Y-6.0421
M15
G01X2.7886Y-6.0539
M16
G05
G00X3.135Y-6.0421
M15
G01X3.135Y-6.0539
M16
G05
G00X3.5783Y-6.0397
M15
G01X3.5783Y-6.0515
M16
G05
G00X3.9248Y-6.0397
M15
G01X3.9248Y-6.0515
M16
G05
G00X4.2483Y-6.0397
M15
G01X4.2483Y-6.0515
M16
G05
G00X4.5948Y-6.0397
M15
G01X4.5948Y-6.0515
M16
G05
T0
M30
